G75*
%MOIN*%
%OFA0B0*%
%FSLAX25Y25*%
%IPPOS*%
%LPD*%
%AMOC8*
5,1,8,0,0,1.08239X$1,22.5*
%
%ADD10R,0.03156X0.04928*%
%ADD11R,0.16935X0.12605*%
%ADD12R,0.18904X0.06306*%
%ADD13R,0.04362X0.04362*%
%ADD14R,0.04731X0.04731*%
%ADD15R,0.22054X0.12211*%
%ADD16C,0.10400*%
%ADD17OC8,0.10400*%
%ADD18R,0.05518X0.04731*%
%ADD19R,0.04731X0.05518*%
%ADD20R,0.07498X0.06699*%
%ADD21R,0.03943X0.02762*%
%ADD22R,0.03943X0.01975*%
%ADD23R,0.03156X0.07290*%
%ADD24R,0.07290X0.03156*%
%ADD25C,0.06699*%
%ADD26C,0.13455*%
%ADD27R,0.02172X0.04731*%
%ADD28R,0.03550X0.09849*%
%ADD29C,0.04362*%
%ADD30C,0.03575*%
%ADD31R,0.06699X0.07487*%
%ADD32R,0.07487X0.06699*%
%ADD33R,0.04337X0.03550*%
%ADD34R,0.05124X0.07487*%
%ADD35R,0.15361X0.08274*%
%ADD36R,0.02762X0.03943*%
%ADD37R,0.01975X0.03943*%
%ADD38C,0.05518*%
%ADD39C,0.12211*%
%ADD40R,0.03550X0.04337*%
%ADD41R,0.06306X0.02369*%
%ADD42R,0.02369X0.06306*%
%ADD43R,0.09849X0.07880*%
%ADD44C,0.06306*%
%ADD45R,0.04731X0.02762*%
%ADD46R,0.01975X0.05518*%
%ADD47C,0.08077*%
%ADD48C,0.21329*%
%ADD49C,0.00787*%
%ADD50C,0.20085*%
%ADD51R,0.12605X0.09849*%
%ADD52R,0.08274X0.08274*%
%ADD53R,0.09258X0.03156*%
%ADD54OC8,0.06306*%
%ADD55OC8,0.06400*%
%ADD56OC8,0.05715*%
D10*
X0117028Y0146644D03*
X0122028Y0146644D03*
X0127028Y0146644D03*
X0132028Y0146644D03*
X0142028Y0165600D03*
X0147028Y0165600D03*
X0152028Y0165600D03*
X0157028Y0165600D03*
X0152028Y0265394D03*
X0147028Y0265394D03*
X0142028Y0265394D03*
X0137028Y0265394D03*
X0215778Y0265394D03*
X0220778Y0265394D03*
X0225778Y0265394D03*
X0230778Y0265394D03*
X0255778Y0265394D03*
X0260778Y0265394D03*
X0265778Y0265394D03*
X0270778Y0265394D03*
X0295778Y0265394D03*
X0300778Y0265394D03*
X0305778Y0265394D03*
X0310778Y0265394D03*
X0335778Y0265394D03*
X0340778Y0265394D03*
X0345778Y0265394D03*
X0350778Y0265394D03*
D11*
X0343278Y0277894D03*
X0303278Y0277894D03*
X0263278Y0277894D03*
X0223278Y0277894D03*
X0144528Y0277894D03*
X0124528Y0159144D03*
X0149528Y0153100D03*
D12*
X0149528Y0144045D03*
X0124528Y0168199D03*
X0144528Y0286949D03*
X0223278Y0286949D03*
X0263278Y0286949D03*
X0303278Y0286949D03*
X0343278Y0286949D03*
D13*
X0343278Y0285571D03*
X0348789Y0285571D03*
X0348789Y0280059D03*
X0343278Y0280059D03*
X0337766Y0280059D03*
X0337766Y0285571D03*
X0337766Y0274547D03*
X0343278Y0274547D03*
X0348789Y0274547D03*
X0308789Y0274547D03*
X0303278Y0274547D03*
X0303278Y0280059D03*
X0308789Y0280059D03*
X0308789Y0285571D03*
X0303278Y0285571D03*
X0297766Y0285571D03*
X0297766Y0280059D03*
X0297766Y0274547D03*
X0268789Y0274547D03*
X0263278Y0274547D03*
X0257766Y0274547D03*
X0257766Y0280059D03*
X0263278Y0280059D03*
X0268789Y0280059D03*
X0268789Y0285571D03*
X0263278Y0285571D03*
X0257766Y0285571D03*
X0228789Y0285571D03*
X0223278Y0285571D03*
X0223278Y0280059D03*
X0228789Y0280059D03*
X0228789Y0274547D03*
X0223278Y0274547D03*
X0217766Y0274547D03*
X0217766Y0280059D03*
X0217766Y0285571D03*
X0150039Y0285571D03*
X0144528Y0285571D03*
X0144528Y0280059D03*
X0150039Y0280059D03*
X0150039Y0274547D03*
X0144528Y0274547D03*
X0139016Y0274547D03*
X0139016Y0280059D03*
X0139016Y0285571D03*
X0174872Y0216526D03*
X0180778Y0216526D03*
X0186683Y0216526D03*
X0186683Y0210620D03*
X0180778Y0210620D03*
X0174872Y0210620D03*
X0174872Y0179124D03*
X0174872Y0173219D03*
X0180778Y0173219D03*
X0180778Y0179124D03*
X0186683Y0179124D03*
X0186683Y0173219D03*
X0155039Y0156447D03*
X0149528Y0156447D03*
X0149528Y0150935D03*
X0155039Y0150935D03*
X0155039Y0145423D03*
X0149528Y0145423D03*
X0144016Y0145423D03*
X0144016Y0150935D03*
X0144016Y0156447D03*
X0130039Y0155797D03*
X0124528Y0155797D03*
X0124528Y0161309D03*
X0130039Y0161309D03*
X0130039Y0166821D03*
X0124528Y0166821D03*
X0119016Y0166821D03*
X0119016Y0161309D03*
X0119016Y0155797D03*
X0276053Y0078770D03*
X0280778Y0078770D03*
X0285502Y0078770D03*
X0284528Y0108760D03*
X0288465Y0108760D03*
X0288465Y0113484D03*
X0284528Y0113484D03*
X0280591Y0113484D03*
X0280591Y0108760D03*
X0280778Y0040974D03*
X0285502Y0040974D03*
X0276053Y0040974D03*
D14*
X0328819Y0088622D03*
X0340236Y0088622D03*
X0163903Y0151663D03*
X0163903Y0163081D03*
X0118986Y0106122D03*
X0107569Y0106122D03*
X0093278Y0122913D03*
X0093278Y0134331D03*
D15*
X0180778Y0176171D03*
X0180778Y0213573D03*
D16*
X0184370Y0242372D03*
X0123435Y0242372D03*
X0123435Y0201122D03*
D17*
X0143120Y0201122D03*
X0143120Y0242372D03*
X0164685Y0242372D03*
D18*
X0202028Y0248597D03*
X0202028Y0254897D03*
X0209528Y0254897D03*
X0209528Y0248597D03*
X0224528Y0241772D03*
X0224528Y0235472D03*
X0235778Y0235472D03*
X0235778Y0241772D03*
X0237028Y0224272D03*
X0237028Y0217972D03*
X0273278Y0236722D03*
X0273278Y0243022D03*
X0297028Y0234272D03*
X0297028Y0227972D03*
X0317028Y0227972D03*
X0324528Y0227972D03*
X0324528Y0234272D03*
X0317028Y0234272D03*
X0332028Y0228022D03*
X0332028Y0221722D03*
X0350778Y0242972D03*
X0350778Y0249272D03*
X0360778Y0231772D03*
X0360778Y0225472D03*
X0369528Y0195522D03*
X0369528Y0189222D03*
X0377028Y0179897D03*
X0377028Y0173597D03*
X0328278Y0160522D03*
X0328278Y0154222D03*
X0318278Y0154272D03*
X0318278Y0147972D03*
X0310778Y0147972D03*
X0310778Y0154272D03*
X0310778Y0134272D03*
X0303278Y0134272D03*
X0303278Y0127972D03*
X0310778Y0127972D03*
X0295778Y0127972D03*
X0295778Y0134272D03*
X0288278Y0134272D03*
X0280778Y0134272D03*
X0280778Y0127972D03*
X0288278Y0127972D03*
X0270778Y0121772D03*
X0270778Y0115472D03*
X0218278Y0074272D03*
X0218278Y0067972D03*
X0210778Y0074222D03*
X0203278Y0074222D03*
X0203278Y0080522D03*
X0210778Y0080522D03*
X0195778Y0074272D03*
X0188278Y0074272D03*
X0188278Y0067972D03*
X0195778Y0067972D03*
X0148278Y0067972D03*
X0148278Y0074272D03*
X0140778Y0074222D03*
X0133278Y0074222D03*
X0133278Y0080522D03*
X0140778Y0080522D03*
X0125778Y0074272D03*
X0125778Y0067972D03*
X0118278Y0067972D03*
X0118278Y0074272D03*
X0120778Y0112972D03*
X0120778Y0119272D03*
X0113278Y0119272D03*
X0113278Y0112972D03*
X0148278Y0115472D03*
X0148278Y0121772D03*
X0195778Y0131722D03*
X0195778Y0138022D03*
X0222028Y0166722D03*
X0222028Y0173022D03*
X0280778Y0172972D03*
X0280778Y0179272D03*
X0280778Y0185472D03*
X0280778Y0191772D03*
X0302028Y0194272D03*
X0302028Y0187972D03*
X0390778Y0126772D03*
X0390778Y0120472D03*
X0205778Y0272972D03*
X0205778Y0279272D03*
X0109528Y0269272D03*
X0109528Y0262972D03*
X0099528Y0274222D03*
X0099528Y0280522D03*
X0093278Y0171772D03*
X0093278Y0165472D03*
D19*
X0131378Y0176122D03*
X0137677Y0176122D03*
X0098927Y0211122D03*
X0092628Y0211122D03*
X0098878Y0244872D03*
X0105177Y0244872D03*
X0211378Y0212372D03*
X0217677Y0212372D03*
X0227628Y0198622D03*
X0233927Y0198622D03*
X0243878Y0206122D03*
X0250177Y0206122D03*
X0258878Y0206122D03*
X0265177Y0206122D03*
X0247677Y0173622D03*
X0241378Y0173622D03*
X0241378Y0166122D03*
X0247677Y0166122D03*
X0247677Y0158622D03*
X0241378Y0158622D03*
X0241378Y0151122D03*
X0247677Y0151122D03*
X0228927Y0155497D03*
X0222628Y0155497D03*
X0180177Y0119872D03*
X0173878Y0119872D03*
X0203878Y0066122D03*
X0210177Y0066122D03*
X0140177Y0066122D03*
X0133878Y0066122D03*
X0281378Y0093622D03*
X0287677Y0093622D03*
X0297628Y0101122D03*
X0303927Y0101122D03*
X0293927Y0033622D03*
X0287628Y0033622D03*
X0357628Y0212372D03*
X0363927Y0212372D03*
X0335177Y0249872D03*
X0328878Y0249872D03*
X0323927Y0287372D03*
X0317628Y0287372D03*
X0243927Y0287372D03*
X0237628Y0287372D03*
D20*
X0183278Y0285470D03*
X0183278Y0274274D03*
X0123278Y0274274D03*
X0123278Y0285470D03*
D21*
X0113465Y0280128D03*
X0105591Y0280128D03*
X0105591Y0274616D03*
X0113465Y0274616D03*
X0191841Y0273366D03*
X0191841Y0278878D03*
X0199715Y0278878D03*
X0199715Y0273366D03*
D22*
X0199715Y0276122D03*
X0191841Y0276122D03*
X0113465Y0277372D03*
X0105591Y0277372D03*
D23*
X0127028Y0123199D03*
X0132028Y0123199D03*
X0137028Y0123199D03*
X0142028Y0123199D03*
X0142028Y0101545D03*
X0137028Y0101545D03*
X0132028Y0101545D03*
X0127028Y0101545D03*
X0277028Y0100689D03*
X0282028Y0100689D03*
X0287028Y0100689D03*
X0292028Y0100689D03*
X0292028Y0121555D03*
X0287028Y0121555D03*
X0282028Y0121555D03*
X0277028Y0121555D03*
D24*
X0265650Y0212372D03*
X0265650Y0217372D03*
X0265650Y0222372D03*
X0265650Y0227372D03*
X0265650Y0232372D03*
X0265650Y0237372D03*
X0265650Y0242372D03*
X0243406Y0242372D03*
X0243406Y0237372D03*
X0243406Y0232372D03*
X0243406Y0227372D03*
X0243406Y0222372D03*
X0243406Y0217372D03*
X0243406Y0212372D03*
D25*
X0330856Y0063415D03*
X0330856Y0055541D03*
X0340699Y0055541D03*
X0340699Y0063415D03*
D26*
X0359478Y0044872D03*
X0312077Y0044872D03*
D27*
X0235866Y0162254D03*
X0233307Y0162254D03*
X0230748Y0162254D03*
X0228189Y0162254D03*
X0228189Y0172490D03*
X0230748Y0172490D03*
X0233307Y0172490D03*
X0235866Y0172490D03*
D28*
X0230699Y0183622D03*
X0220856Y0183425D03*
D29*
X0221447Y0179685D03*
X0221447Y0187559D03*
X0230108Y0187559D03*
X0230108Y0179685D03*
D30*
X0230699Y0183622D03*
X0220856Y0183622D03*
D31*
X0217766Y0146747D03*
X0228789Y0146747D03*
X0295266Y0093622D03*
X0295266Y0084872D03*
X0306289Y0084872D03*
X0306289Y0093622D03*
X0301516Y0215497D03*
X0312539Y0215497D03*
X0117539Y0177372D03*
X0106516Y0177372D03*
D32*
X0213278Y0171634D03*
X0213278Y0160610D03*
X0245778Y0052884D03*
X0254528Y0052884D03*
X0254528Y0041860D03*
X0245778Y0041860D03*
D33*
X0194715Y0117382D03*
X0194715Y0124862D03*
X0186841Y0121122D03*
X0182215Y0127382D03*
X0182215Y0134862D03*
X0174341Y0131122D03*
X0102215Y0141132D03*
X0102215Y0148612D03*
X0094341Y0144872D03*
X0209341Y0238622D03*
X0217215Y0234882D03*
X0217215Y0242362D03*
X0259715Y0186112D03*
X0259715Y0178632D03*
X0251841Y0182372D03*
X0105965Y0256122D03*
X0098091Y0252382D03*
X0098091Y0259862D03*
D34*
X0309606Y0161747D03*
X0319449Y0161747D03*
D35*
X0280778Y0078376D03*
X0280778Y0041368D03*
D36*
X0217283Y0198435D03*
X0211772Y0198435D03*
X0211772Y0206309D03*
X0217283Y0206309D03*
D37*
X0214528Y0198435D03*
D38*
X0210965Y0058100D02*
X0210965Y0052982D01*
X0203091Y0052982D02*
X0203091Y0058100D01*
X0193248Y0058100D02*
X0193248Y0052982D01*
X0220807Y0052982D02*
X0220807Y0058100D01*
X0150807Y0058100D02*
X0150807Y0052982D01*
X0140965Y0052982D02*
X0140965Y0058100D01*
X0133091Y0058100D02*
X0133091Y0052982D01*
X0123248Y0052982D02*
X0123248Y0058100D01*
D39*
X0111161Y0044872D03*
X0162894Y0044872D03*
X0181161Y0044872D03*
X0232894Y0044872D03*
D40*
X0303287Y0227185D03*
X0310768Y0227185D03*
X0307028Y0235059D03*
X0347037Y0227185D03*
X0354518Y0227185D03*
X0350778Y0235059D03*
X0358287Y0238435D03*
X0365768Y0238435D03*
X0362028Y0246309D03*
D41*
X0357362Y0208120D03*
X0357362Y0204970D03*
X0357362Y0201821D03*
X0357362Y0198671D03*
X0357362Y0195522D03*
X0357362Y0192372D03*
X0357362Y0189222D03*
X0357362Y0186073D03*
X0357362Y0182923D03*
X0357362Y0179774D03*
X0357362Y0176624D03*
X0311693Y0176624D03*
X0311693Y0179774D03*
X0311693Y0182923D03*
X0311693Y0186073D03*
X0311693Y0189222D03*
X0311693Y0192372D03*
X0311693Y0195522D03*
X0311693Y0198671D03*
X0311693Y0201821D03*
X0311693Y0204970D03*
X0311693Y0208120D03*
D42*
X0318780Y0215207D03*
X0321929Y0215207D03*
X0325079Y0215207D03*
X0328228Y0215207D03*
X0331378Y0215207D03*
X0334528Y0215207D03*
X0337677Y0215207D03*
X0340827Y0215207D03*
X0343976Y0215207D03*
X0347126Y0215207D03*
X0350276Y0215207D03*
X0350276Y0169537D03*
X0347126Y0169537D03*
X0343976Y0169537D03*
X0340827Y0169537D03*
X0337677Y0169537D03*
X0334528Y0169537D03*
X0331378Y0169537D03*
X0328228Y0169537D03*
X0325079Y0169537D03*
X0321929Y0169537D03*
X0318780Y0169537D03*
D43*
X0292028Y0174301D03*
X0292028Y0190443D03*
D44*
X0385325Y0187372D02*
X0391230Y0187372D01*
X0391230Y0197372D02*
X0385325Y0197372D01*
X0385325Y0207372D02*
X0391230Y0207372D01*
X0391230Y0217372D02*
X0385325Y0217372D01*
X0385325Y0227372D02*
X0391230Y0227372D01*
X0391230Y0237372D02*
X0385325Y0237372D01*
X0385325Y0247372D02*
X0391230Y0247372D01*
X0391230Y0177372D02*
X0385325Y0177372D01*
X0385325Y0167372D02*
X0391230Y0167372D01*
X0242756Y0100472D02*
X0242756Y0094567D01*
X0232756Y0094567D02*
X0232756Y0100472D01*
X0222756Y0100472D02*
X0222756Y0094567D01*
X0212756Y0094567D02*
X0212756Y0100472D01*
X0202756Y0100472D02*
X0202756Y0094567D01*
X0192756Y0094567D02*
X0192756Y0100472D01*
X0182756Y0100472D02*
X0182756Y0094567D01*
X0172756Y0094567D02*
X0172756Y0100472D01*
X0077480Y0133622D02*
X0071575Y0133622D01*
X0071575Y0143622D02*
X0077480Y0143622D01*
X0077480Y0171122D02*
X0071575Y0171122D01*
X0071575Y0181122D02*
X0077480Y0181122D01*
X0077480Y0191122D02*
X0071575Y0191122D01*
X0071575Y0201122D02*
X0077480Y0201122D01*
X0077480Y0211122D02*
X0071575Y0211122D01*
X0071575Y0221122D02*
X0077480Y0221122D01*
D45*
X0329016Y0236132D03*
X0329016Y0243612D03*
X0340039Y0243612D03*
X0340039Y0239872D03*
X0340039Y0236132D03*
D46*
X0324616Y0264892D03*
X0322057Y0264892D03*
X0319498Y0264892D03*
X0316939Y0264892D03*
X0316939Y0279852D03*
X0319498Y0279852D03*
X0322057Y0279852D03*
X0324616Y0279852D03*
X0244616Y0279852D03*
X0242057Y0279852D03*
X0239498Y0279852D03*
X0236939Y0279852D03*
X0236939Y0264892D03*
X0239498Y0264892D03*
X0242057Y0264892D03*
X0244616Y0264892D03*
D47*
X0243278Y0304783D02*
X0243278Y0312461D01*
X0263278Y0312461D02*
X0263278Y0304783D01*
X0283278Y0304783D02*
X0283278Y0312461D01*
X0303278Y0312461D02*
X0303278Y0304783D01*
X0323278Y0304783D02*
X0323278Y0312461D01*
X0343278Y0312461D02*
X0343278Y0304783D01*
X0223278Y0304783D02*
X0223278Y0312461D01*
X0203278Y0312461D02*
X0203278Y0304783D01*
X0183278Y0304783D02*
X0183278Y0312461D01*
X0163278Y0312461D02*
X0163278Y0304783D01*
X0143278Y0304783D02*
X0143278Y0312461D01*
X0123278Y0312461D02*
X0123278Y0304783D01*
D48*
X0079803Y0323898D03*
X0382953Y0323898D03*
X0382953Y0040433D03*
X0079803Y0040433D03*
D49*
X0064055Y0040433D02*
X0064055Y0323898D01*
X0064058Y0324183D01*
X0064069Y0324469D01*
X0064086Y0324754D01*
X0064110Y0325038D01*
X0064141Y0325322D01*
X0064179Y0325605D01*
X0064224Y0325886D01*
X0064275Y0326167D01*
X0064333Y0326447D01*
X0064398Y0326725D01*
X0064470Y0327001D01*
X0064548Y0327275D01*
X0064633Y0327548D01*
X0064725Y0327818D01*
X0064823Y0328086D01*
X0064927Y0328352D01*
X0065038Y0328615D01*
X0065155Y0328875D01*
X0065278Y0329133D01*
X0065408Y0329387D01*
X0065544Y0329638D01*
X0065685Y0329886D01*
X0065833Y0330130D01*
X0065986Y0330371D01*
X0066146Y0330607D01*
X0066311Y0330840D01*
X0066481Y0331069D01*
X0066657Y0331294D01*
X0066839Y0331514D01*
X0067025Y0331730D01*
X0067217Y0331941D01*
X0067414Y0332148D01*
X0067616Y0332350D01*
X0067823Y0332547D01*
X0068034Y0332739D01*
X0068250Y0332925D01*
X0068470Y0333107D01*
X0068695Y0333283D01*
X0068924Y0333453D01*
X0069157Y0333618D01*
X0069393Y0333778D01*
X0069634Y0333931D01*
X0069878Y0334079D01*
X0070126Y0334220D01*
X0070377Y0334356D01*
X0070631Y0334486D01*
X0070889Y0334609D01*
X0071149Y0334726D01*
X0071412Y0334837D01*
X0071678Y0334941D01*
X0071946Y0335039D01*
X0072216Y0335131D01*
X0072489Y0335216D01*
X0072763Y0335294D01*
X0073039Y0335366D01*
X0073317Y0335431D01*
X0073597Y0335489D01*
X0073878Y0335540D01*
X0074159Y0335585D01*
X0074442Y0335623D01*
X0074726Y0335654D01*
X0075010Y0335678D01*
X0075295Y0335695D01*
X0075581Y0335706D01*
X0075866Y0335709D01*
X0386890Y0335709D01*
X0387175Y0335706D01*
X0387461Y0335695D01*
X0387746Y0335678D01*
X0388030Y0335654D01*
X0388314Y0335623D01*
X0388597Y0335585D01*
X0388878Y0335540D01*
X0389159Y0335489D01*
X0389439Y0335431D01*
X0389717Y0335366D01*
X0389993Y0335294D01*
X0390267Y0335216D01*
X0390540Y0335131D01*
X0390810Y0335039D01*
X0391078Y0334941D01*
X0391344Y0334837D01*
X0391607Y0334726D01*
X0391867Y0334609D01*
X0392125Y0334486D01*
X0392379Y0334356D01*
X0392630Y0334220D01*
X0392878Y0334079D01*
X0393122Y0333931D01*
X0393363Y0333778D01*
X0393599Y0333618D01*
X0393832Y0333453D01*
X0394061Y0333283D01*
X0394286Y0333107D01*
X0394506Y0332925D01*
X0394722Y0332739D01*
X0394933Y0332547D01*
X0395140Y0332350D01*
X0395342Y0332148D01*
X0395539Y0331941D01*
X0395731Y0331730D01*
X0395917Y0331514D01*
X0396099Y0331294D01*
X0396275Y0331069D01*
X0396445Y0330840D01*
X0396610Y0330607D01*
X0396770Y0330371D01*
X0396923Y0330130D01*
X0397071Y0329886D01*
X0397212Y0329638D01*
X0397348Y0329387D01*
X0397478Y0329133D01*
X0397601Y0328875D01*
X0397718Y0328615D01*
X0397829Y0328352D01*
X0397933Y0328086D01*
X0398031Y0327818D01*
X0398123Y0327548D01*
X0398208Y0327275D01*
X0398286Y0327001D01*
X0398358Y0326725D01*
X0398423Y0326447D01*
X0398481Y0326167D01*
X0398532Y0325886D01*
X0398577Y0325605D01*
X0398615Y0325322D01*
X0398646Y0325038D01*
X0398670Y0324754D01*
X0398687Y0324469D01*
X0398698Y0324183D01*
X0398701Y0323898D01*
X0398701Y0040433D01*
X0398698Y0040148D01*
X0398687Y0039862D01*
X0398670Y0039577D01*
X0398646Y0039293D01*
X0398615Y0039009D01*
X0398577Y0038726D01*
X0398532Y0038445D01*
X0398481Y0038164D01*
X0398423Y0037884D01*
X0398358Y0037606D01*
X0398286Y0037330D01*
X0398208Y0037056D01*
X0398123Y0036783D01*
X0398031Y0036513D01*
X0397933Y0036245D01*
X0397829Y0035979D01*
X0397718Y0035716D01*
X0397601Y0035456D01*
X0397478Y0035198D01*
X0397348Y0034944D01*
X0397212Y0034693D01*
X0397071Y0034445D01*
X0396923Y0034201D01*
X0396770Y0033960D01*
X0396610Y0033724D01*
X0396445Y0033491D01*
X0396275Y0033262D01*
X0396099Y0033037D01*
X0395917Y0032817D01*
X0395731Y0032601D01*
X0395539Y0032390D01*
X0395342Y0032183D01*
X0395140Y0031981D01*
X0394933Y0031784D01*
X0394722Y0031592D01*
X0394506Y0031406D01*
X0394286Y0031224D01*
X0394061Y0031048D01*
X0393832Y0030878D01*
X0393599Y0030713D01*
X0393363Y0030553D01*
X0393122Y0030400D01*
X0392878Y0030252D01*
X0392630Y0030111D01*
X0392379Y0029975D01*
X0392125Y0029845D01*
X0391867Y0029722D01*
X0391607Y0029605D01*
X0391344Y0029494D01*
X0391078Y0029390D01*
X0390810Y0029292D01*
X0390540Y0029200D01*
X0390267Y0029115D01*
X0389993Y0029037D01*
X0389717Y0028965D01*
X0389439Y0028900D01*
X0389159Y0028842D01*
X0388878Y0028791D01*
X0388597Y0028746D01*
X0388314Y0028708D01*
X0388030Y0028677D01*
X0387746Y0028653D01*
X0387461Y0028636D01*
X0387175Y0028625D01*
X0386890Y0028622D01*
X0075866Y0028622D01*
X0075581Y0028625D01*
X0075295Y0028636D01*
X0075010Y0028653D01*
X0074726Y0028677D01*
X0074442Y0028708D01*
X0074159Y0028746D01*
X0073878Y0028791D01*
X0073597Y0028842D01*
X0073317Y0028900D01*
X0073039Y0028965D01*
X0072763Y0029037D01*
X0072489Y0029115D01*
X0072216Y0029200D01*
X0071946Y0029292D01*
X0071678Y0029390D01*
X0071412Y0029494D01*
X0071149Y0029605D01*
X0070889Y0029722D01*
X0070631Y0029845D01*
X0070377Y0029975D01*
X0070126Y0030111D01*
X0069878Y0030252D01*
X0069634Y0030400D01*
X0069393Y0030553D01*
X0069157Y0030713D01*
X0068924Y0030878D01*
X0068695Y0031048D01*
X0068470Y0031224D01*
X0068250Y0031406D01*
X0068034Y0031592D01*
X0067823Y0031784D01*
X0067616Y0031981D01*
X0067414Y0032183D01*
X0067217Y0032390D01*
X0067025Y0032601D01*
X0066839Y0032817D01*
X0066657Y0033037D01*
X0066481Y0033262D01*
X0066311Y0033491D01*
X0066146Y0033724D01*
X0065986Y0033960D01*
X0065833Y0034201D01*
X0065685Y0034445D01*
X0065544Y0034693D01*
X0065408Y0034944D01*
X0065278Y0035198D01*
X0065155Y0035456D01*
X0065038Y0035716D01*
X0064927Y0035979D01*
X0064823Y0036245D01*
X0064725Y0036513D01*
X0064633Y0036783D01*
X0064548Y0037056D01*
X0064470Y0037330D01*
X0064398Y0037606D01*
X0064333Y0037884D01*
X0064275Y0038164D01*
X0064224Y0038445D01*
X0064179Y0038726D01*
X0064141Y0039009D01*
X0064110Y0039293D01*
X0064086Y0039577D01*
X0064069Y0039862D01*
X0064058Y0040148D01*
X0064055Y0040433D01*
D50*
X0079803Y0097520D03*
X0079803Y0266811D03*
X0382953Y0266811D03*
X0382953Y0097520D03*
D51*
X0284528Y0111122D03*
D52*
X0368957Y0294247D03*
X0385098Y0294247D03*
X0107598Y0294872D03*
X0091457Y0294872D03*
D53*
X0357717Y0131122D03*
X0357717Y0126122D03*
X0357717Y0121122D03*
X0357717Y0116122D03*
X0381339Y0116122D03*
X0381339Y0121122D03*
X0381339Y0126122D03*
X0381339Y0131122D03*
D54*
X0380778Y0142372D03*
X0380778Y0152372D03*
X0370778Y0152372D03*
X0370778Y0142372D03*
X0390778Y0142372D03*
X0390778Y0152372D03*
D55*
X0267028Y0033622D03*
X0158278Y0112997D03*
X0190153Y0160497D03*
X0247028Y0189872D03*
D56*
X0137028Y0130497D03*
M02*
