G75*
%MOIN*%
%OFA0B0*%
%FSLAX25Y25*%
%IPPOS*%
%LPD*%
%AMOC8*
5,1,8,0,0,1.08239X$1,22.5*
%
%ADD10C,0.01000*%
%ADD11C,0.00000*%
%ADD12C,0.06299*%
%ADD13C,0.05906*%
%ADD14C,0.16992*%
%ADD15C,0.10000*%
%ADD16OC8,0.10000*%
%ADD17C,0.07677*%
%ADD18C,0.03562*%
%ADD19C,0.02400*%
%ADD20C,0.00800*%
%ADD21R,0.04724X0.04724*%
D10*
X0030095Y0010207D02*
X0030095Y0348790D01*
X0030097Y0348980D01*
X0030104Y0349170D01*
X0030116Y0349360D01*
X0030132Y0349550D01*
X0030152Y0349739D01*
X0030178Y0349928D01*
X0030207Y0350116D01*
X0030242Y0350303D01*
X0030281Y0350489D01*
X0030324Y0350674D01*
X0030372Y0350859D01*
X0030424Y0351042D01*
X0030480Y0351223D01*
X0030541Y0351403D01*
X0030607Y0351582D01*
X0030676Y0351759D01*
X0030750Y0351935D01*
X0030828Y0352108D01*
X0030911Y0352280D01*
X0030997Y0352449D01*
X0031087Y0352617D01*
X0031182Y0352782D01*
X0031280Y0352945D01*
X0031383Y0353105D01*
X0031489Y0353263D01*
X0031599Y0353418D01*
X0031712Y0353571D01*
X0031830Y0353721D01*
X0031951Y0353867D01*
X0032075Y0354011D01*
X0032203Y0354152D01*
X0032334Y0354290D01*
X0032469Y0354425D01*
X0032607Y0354556D01*
X0032748Y0354684D01*
X0032892Y0354808D01*
X0033038Y0354929D01*
X0033188Y0355047D01*
X0033341Y0355160D01*
X0033496Y0355270D01*
X0033654Y0355376D01*
X0033814Y0355479D01*
X0033977Y0355577D01*
X0034142Y0355672D01*
X0034310Y0355762D01*
X0034479Y0355848D01*
X0034651Y0355931D01*
X0034824Y0356009D01*
X0035000Y0356083D01*
X0035177Y0356152D01*
X0035356Y0356218D01*
X0035536Y0356279D01*
X0035717Y0356335D01*
X0035900Y0356387D01*
X0036085Y0356435D01*
X0036270Y0356478D01*
X0036456Y0356517D01*
X0036643Y0356552D01*
X0036831Y0356581D01*
X0037020Y0356607D01*
X0037209Y0356627D01*
X0037399Y0356643D01*
X0037589Y0356655D01*
X0037779Y0356662D01*
X0037969Y0356664D01*
X0404111Y0356664D01*
X0404301Y0356662D01*
X0404491Y0356655D01*
X0404681Y0356643D01*
X0404871Y0356627D01*
X0405060Y0356607D01*
X0405249Y0356581D01*
X0405437Y0356552D01*
X0405624Y0356517D01*
X0405810Y0356478D01*
X0405995Y0356435D01*
X0406180Y0356387D01*
X0406363Y0356335D01*
X0406544Y0356279D01*
X0406724Y0356218D01*
X0406903Y0356152D01*
X0407080Y0356083D01*
X0407256Y0356009D01*
X0407429Y0355931D01*
X0407601Y0355848D01*
X0407770Y0355762D01*
X0407938Y0355672D01*
X0408103Y0355577D01*
X0408266Y0355479D01*
X0408426Y0355376D01*
X0408584Y0355270D01*
X0408739Y0355160D01*
X0408892Y0355047D01*
X0409042Y0354929D01*
X0409188Y0354808D01*
X0409332Y0354684D01*
X0409473Y0354556D01*
X0409611Y0354425D01*
X0409746Y0354290D01*
X0409877Y0354152D01*
X0410005Y0354011D01*
X0410129Y0353867D01*
X0410250Y0353721D01*
X0410368Y0353571D01*
X0410481Y0353418D01*
X0410591Y0353263D01*
X0410697Y0353105D01*
X0410800Y0352945D01*
X0410898Y0352782D01*
X0410993Y0352617D01*
X0411083Y0352449D01*
X0411169Y0352280D01*
X0411252Y0352108D01*
X0411330Y0351935D01*
X0411404Y0351759D01*
X0411473Y0351582D01*
X0411539Y0351403D01*
X0411600Y0351223D01*
X0411656Y0351042D01*
X0411708Y0350859D01*
X0411756Y0350674D01*
X0411799Y0350489D01*
X0411838Y0350303D01*
X0411873Y0350116D01*
X0411902Y0349928D01*
X0411928Y0349739D01*
X0411948Y0349550D01*
X0411964Y0349360D01*
X0411976Y0349170D01*
X0411983Y0348980D01*
X0411985Y0348790D01*
X0411985Y0010207D01*
X0411983Y0010017D01*
X0411976Y0009827D01*
X0411964Y0009637D01*
X0411948Y0009447D01*
X0411928Y0009258D01*
X0411902Y0009069D01*
X0411873Y0008881D01*
X0411838Y0008694D01*
X0411799Y0008508D01*
X0411756Y0008323D01*
X0411708Y0008138D01*
X0411656Y0007955D01*
X0411600Y0007774D01*
X0411539Y0007594D01*
X0411473Y0007415D01*
X0411404Y0007238D01*
X0411330Y0007062D01*
X0411252Y0006889D01*
X0411169Y0006717D01*
X0411083Y0006548D01*
X0410993Y0006380D01*
X0410898Y0006215D01*
X0410800Y0006052D01*
X0410697Y0005892D01*
X0410591Y0005734D01*
X0410481Y0005579D01*
X0410368Y0005426D01*
X0410250Y0005276D01*
X0410129Y0005130D01*
X0410005Y0004986D01*
X0409877Y0004845D01*
X0409746Y0004707D01*
X0409611Y0004572D01*
X0409473Y0004441D01*
X0409332Y0004313D01*
X0409188Y0004189D01*
X0409042Y0004068D01*
X0408892Y0003950D01*
X0408739Y0003837D01*
X0408584Y0003727D01*
X0408426Y0003621D01*
X0408266Y0003518D01*
X0408103Y0003420D01*
X0407938Y0003325D01*
X0407770Y0003235D01*
X0407601Y0003149D01*
X0407429Y0003066D01*
X0407256Y0002988D01*
X0407080Y0002914D01*
X0406903Y0002845D01*
X0406724Y0002779D01*
X0406544Y0002718D01*
X0406363Y0002662D01*
X0406180Y0002610D01*
X0405995Y0002562D01*
X0405810Y0002519D01*
X0405624Y0002480D01*
X0405437Y0002445D01*
X0405249Y0002416D01*
X0405060Y0002390D01*
X0404871Y0002370D01*
X0404681Y0002354D01*
X0404491Y0002342D01*
X0404301Y0002335D01*
X0404111Y0002333D01*
X0286158Y0002333D01*
X0286095Y0002333D01*
X0037969Y0002333D01*
X0037779Y0002335D01*
X0037589Y0002342D01*
X0037399Y0002354D01*
X0037209Y0002370D01*
X0037020Y0002390D01*
X0036831Y0002416D01*
X0036643Y0002445D01*
X0036456Y0002480D01*
X0036270Y0002519D01*
X0036085Y0002562D01*
X0035900Y0002610D01*
X0035717Y0002662D01*
X0035536Y0002718D01*
X0035356Y0002779D01*
X0035177Y0002845D01*
X0035000Y0002914D01*
X0034824Y0002988D01*
X0034651Y0003066D01*
X0034479Y0003149D01*
X0034310Y0003235D01*
X0034142Y0003325D01*
X0033977Y0003420D01*
X0033814Y0003518D01*
X0033654Y0003621D01*
X0033496Y0003727D01*
X0033341Y0003837D01*
X0033188Y0003950D01*
X0033038Y0004068D01*
X0032892Y0004189D01*
X0032748Y0004313D01*
X0032607Y0004441D01*
X0032469Y0004572D01*
X0032334Y0004707D01*
X0032203Y0004845D01*
X0032075Y0004986D01*
X0031951Y0005130D01*
X0031830Y0005276D01*
X0031712Y0005426D01*
X0031599Y0005579D01*
X0031489Y0005734D01*
X0031383Y0005892D01*
X0031280Y0006052D01*
X0031182Y0006215D01*
X0031087Y0006380D01*
X0030997Y0006548D01*
X0030911Y0006717D01*
X0030828Y0006889D01*
X0030750Y0007062D01*
X0030676Y0007238D01*
X0030607Y0007415D01*
X0030541Y0007594D01*
X0030480Y0007774D01*
X0030424Y0007955D01*
X0030372Y0008138D01*
X0030324Y0008323D01*
X0030281Y0008508D01*
X0030242Y0008694D01*
X0030207Y0008881D01*
X0030178Y0009069D01*
X0030152Y0009258D01*
X0030132Y0009447D01*
X0030116Y0009637D01*
X0030104Y0009827D01*
X0030097Y0010017D01*
X0030095Y0010207D01*
X0286095Y0002334D02*
X0286105Y0002341D01*
X0286115Y0002345D01*
X0286127Y0002347D01*
X0286139Y0002345D01*
X0286150Y0002341D01*
X0286159Y0002334D01*
D11*
X0283796Y0032333D02*
X0283798Y0032491D01*
X0283804Y0032649D01*
X0283814Y0032807D01*
X0283828Y0032965D01*
X0283846Y0033122D01*
X0283867Y0033279D01*
X0283893Y0033435D01*
X0283923Y0033591D01*
X0283956Y0033746D01*
X0283994Y0033899D01*
X0284035Y0034052D01*
X0284080Y0034204D01*
X0284129Y0034355D01*
X0284182Y0034504D01*
X0284238Y0034652D01*
X0284298Y0034798D01*
X0284362Y0034943D01*
X0284430Y0035086D01*
X0284501Y0035228D01*
X0284575Y0035368D01*
X0284653Y0035505D01*
X0284735Y0035641D01*
X0284819Y0035775D01*
X0284908Y0035906D01*
X0284999Y0036035D01*
X0285094Y0036162D01*
X0285191Y0036287D01*
X0285292Y0036409D01*
X0285396Y0036528D01*
X0285503Y0036645D01*
X0285613Y0036759D01*
X0285726Y0036870D01*
X0285841Y0036979D01*
X0285959Y0037084D01*
X0286080Y0037186D01*
X0286203Y0037286D01*
X0286329Y0037382D01*
X0286457Y0037475D01*
X0286587Y0037565D01*
X0286720Y0037651D01*
X0286855Y0037735D01*
X0286991Y0037814D01*
X0287130Y0037891D01*
X0287271Y0037963D01*
X0287413Y0038033D01*
X0287557Y0038098D01*
X0287703Y0038160D01*
X0287850Y0038218D01*
X0287999Y0038273D01*
X0288149Y0038324D01*
X0288300Y0038371D01*
X0288452Y0038414D01*
X0288605Y0038453D01*
X0288760Y0038489D01*
X0288915Y0038520D01*
X0289071Y0038548D01*
X0289227Y0038572D01*
X0289384Y0038592D01*
X0289542Y0038608D01*
X0289699Y0038620D01*
X0289858Y0038628D01*
X0290016Y0038632D01*
X0290174Y0038632D01*
X0290332Y0038628D01*
X0290491Y0038620D01*
X0290648Y0038608D01*
X0290806Y0038592D01*
X0290963Y0038572D01*
X0291119Y0038548D01*
X0291275Y0038520D01*
X0291430Y0038489D01*
X0291585Y0038453D01*
X0291738Y0038414D01*
X0291890Y0038371D01*
X0292041Y0038324D01*
X0292191Y0038273D01*
X0292340Y0038218D01*
X0292487Y0038160D01*
X0292633Y0038098D01*
X0292777Y0038033D01*
X0292919Y0037963D01*
X0293060Y0037891D01*
X0293199Y0037814D01*
X0293335Y0037735D01*
X0293470Y0037651D01*
X0293603Y0037565D01*
X0293733Y0037475D01*
X0293861Y0037382D01*
X0293987Y0037286D01*
X0294110Y0037186D01*
X0294231Y0037084D01*
X0294349Y0036979D01*
X0294464Y0036870D01*
X0294577Y0036759D01*
X0294687Y0036645D01*
X0294794Y0036528D01*
X0294898Y0036409D01*
X0294999Y0036287D01*
X0295096Y0036162D01*
X0295191Y0036035D01*
X0295282Y0035906D01*
X0295371Y0035775D01*
X0295455Y0035641D01*
X0295537Y0035505D01*
X0295615Y0035368D01*
X0295689Y0035228D01*
X0295760Y0035086D01*
X0295828Y0034943D01*
X0295892Y0034798D01*
X0295952Y0034652D01*
X0296008Y0034504D01*
X0296061Y0034355D01*
X0296110Y0034204D01*
X0296155Y0034052D01*
X0296196Y0033899D01*
X0296234Y0033746D01*
X0296267Y0033591D01*
X0296297Y0033435D01*
X0296323Y0033279D01*
X0296344Y0033122D01*
X0296362Y0032965D01*
X0296376Y0032807D01*
X0296386Y0032649D01*
X0296392Y0032491D01*
X0296394Y0032333D01*
X0296392Y0032175D01*
X0296386Y0032017D01*
X0296376Y0031859D01*
X0296362Y0031701D01*
X0296344Y0031544D01*
X0296323Y0031387D01*
X0296297Y0031231D01*
X0296267Y0031075D01*
X0296234Y0030920D01*
X0296196Y0030767D01*
X0296155Y0030614D01*
X0296110Y0030462D01*
X0296061Y0030311D01*
X0296008Y0030162D01*
X0295952Y0030014D01*
X0295892Y0029868D01*
X0295828Y0029723D01*
X0295760Y0029580D01*
X0295689Y0029438D01*
X0295615Y0029298D01*
X0295537Y0029161D01*
X0295455Y0029025D01*
X0295371Y0028891D01*
X0295282Y0028760D01*
X0295191Y0028631D01*
X0295096Y0028504D01*
X0294999Y0028379D01*
X0294898Y0028257D01*
X0294794Y0028138D01*
X0294687Y0028021D01*
X0294577Y0027907D01*
X0294464Y0027796D01*
X0294349Y0027687D01*
X0294231Y0027582D01*
X0294110Y0027480D01*
X0293987Y0027380D01*
X0293861Y0027284D01*
X0293733Y0027191D01*
X0293603Y0027101D01*
X0293470Y0027015D01*
X0293335Y0026931D01*
X0293199Y0026852D01*
X0293060Y0026775D01*
X0292919Y0026703D01*
X0292777Y0026633D01*
X0292633Y0026568D01*
X0292487Y0026506D01*
X0292340Y0026448D01*
X0292191Y0026393D01*
X0292041Y0026342D01*
X0291890Y0026295D01*
X0291738Y0026252D01*
X0291585Y0026213D01*
X0291430Y0026177D01*
X0291275Y0026146D01*
X0291119Y0026118D01*
X0290963Y0026094D01*
X0290806Y0026074D01*
X0290648Y0026058D01*
X0290491Y0026046D01*
X0290332Y0026038D01*
X0290174Y0026034D01*
X0290016Y0026034D01*
X0289858Y0026038D01*
X0289699Y0026046D01*
X0289542Y0026058D01*
X0289384Y0026074D01*
X0289227Y0026094D01*
X0289071Y0026118D01*
X0288915Y0026146D01*
X0288760Y0026177D01*
X0288605Y0026213D01*
X0288452Y0026252D01*
X0288300Y0026295D01*
X0288149Y0026342D01*
X0287999Y0026393D01*
X0287850Y0026448D01*
X0287703Y0026506D01*
X0287557Y0026568D01*
X0287413Y0026633D01*
X0287271Y0026703D01*
X0287130Y0026775D01*
X0286991Y0026852D01*
X0286855Y0026931D01*
X0286720Y0027015D01*
X0286587Y0027101D01*
X0286457Y0027191D01*
X0286329Y0027284D01*
X0286203Y0027380D01*
X0286080Y0027480D01*
X0285959Y0027582D01*
X0285841Y0027687D01*
X0285726Y0027796D01*
X0285613Y0027907D01*
X0285503Y0028021D01*
X0285396Y0028138D01*
X0285292Y0028257D01*
X0285191Y0028379D01*
X0285094Y0028504D01*
X0284999Y0028631D01*
X0284908Y0028760D01*
X0284819Y0028891D01*
X0284735Y0029025D01*
X0284653Y0029161D01*
X0284575Y0029298D01*
X0284501Y0029438D01*
X0284430Y0029580D01*
X0284362Y0029723D01*
X0284298Y0029868D01*
X0284238Y0030014D01*
X0284182Y0030162D01*
X0284129Y0030311D01*
X0284080Y0030462D01*
X0284035Y0030614D01*
X0283994Y0030767D01*
X0283956Y0030920D01*
X0283923Y0031075D01*
X0283893Y0031231D01*
X0283867Y0031387D01*
X0283846Y0031544D01*
X0283828Y0031701D01*
X0283814Y0031859D01*
X0283804Y0032017D01*
X0283798Y0032175D01*
X0283796Y0032333D01*
X0283796Y0142333D02*
X0283798Y0142491D01*
X0283804Y0142649D01*
X0283814Y0142807D01*
X0283828Y0142965D01*
X0283846Y0143122D01*
X0283867Y0143279D01*
X0283893Y0143435D01*
X0283923Y0143591D01*
X0283956Y0143746D01*
X0283994Y0143899D01*
X0284035Y0144052D01*
X0284080Y0144204D01*
X0284129Y0144355D01*
X0284182Y0144504D01*
X0284238Y0144652D01*
X0284298Y0144798D01*
X0284362Y0144943D01*
X0284430Y0145086D01*
X0284501Y0145228D01*
X0284575Y0145368D01*
X0284653Y0145505D01*
X0284735Y0145641D01*
X0284819Y0145775D01*
X0284908Y0145906D01*
X0284999Y0146035D01*
X0285094Y0146162D01*
X0285191Y0146287D01*
X0285292Y0146409D01*
X0285396Y0146528D01*
X0285503Y0146645D01*
X0285613Y0146759D01*
X0285726Y0146870D01*
X0285841Y0146979D01*
X0285959Y0147084D01*
X0286080Y0147186D01*
X0286203Y0147286D01*
X0286329Y0147382D01*
X0286457Y0147475D01*
X0286587Y0147565D01*
X0286720Y0147651D01*
X0286855Y0147735D01*
X0286991Y0147814D01*
X0287130Y0147891D01*
X0287271Y0147963D01*
X0287413Y0148033D01*
X0287557Y0148098D01*
X0287703Y0148160D01*
X0287850Y0148218D01*
X0287999Y0148273D01*
X0288149Y0148324D01*
X0288300Y0148371D01*
X0288452Y0148414D01*
X0288605Y0148453D01*
X0288760Y0148489D01*
X0288915Y0148520D01*
X0289071Y0148548D01*
X0289227Y0148572D01*
X0289384Y0148592D01*
X0289542Y0148608D01*
X0289699Y0148620D01*
X0289858Y0148628D01*
X0290016Y0148632D01*
X0290174Y0148632D01*
X0290332Y0148628D01*
X0290491Y0148620D01*
X0290648Y0148608D01*
X0290806Y0148592D01*
X0290963Y0148572D01*
X0291119Y0148548D01*
X0291275Y0148520D01*
X0291430Y0148489D01*
X0291585Y0148453D01*
X0291738Y0148414D01*
X0291890Y0148371D01*
X0292041Y0148324D01*
X0292191Y0148273D01*
X0292340Y0148218D01*
X0292487Y0148160D01*
X0292633Y0148098D01*
X0292777Y0148033D01*
X0292919Y0147963D01*
X0293060Y0147891D01*
X0293199Y0147814D01*
X0293335Y0147735D01*
X0293470Y0147651D01*
X0293603Y0147565D01*
X0293733Y0147475D01*
X0293861Y0147382D01*
X0293987Y0147286D01*
X0294110Y0147186D01*
X0294231Y0147084D01*
X0294349Y0146979D01*
X0294464Y0146870D01*
X0294577Y0146759D01*
X0294687Y0146645D01*
X0294794Y0146528D01*
X0294898Y0146409D01*
X0294999Y0146287D01*
X0295096Y0146162D01*
X0295191Y0146035D01*
X0295282Y0145906D01*
X0295371Y0145775D01*
X0295455Y0145641D01*
X0295537Y0145505D01*
X0295615Y0145368D01*
X0295689Y0145228D01*
X0295760Y0145086D01*
X0295828Y0144943D01*
X0295892Y0144798D01*
X0295952Y0144652D01*
X0296008Y0144504D01*
X0296061Y0144355D01*
X0296110Y0144204D01*
X0296155Y0144052D01*
X0296196Y0143899D01*
X0296234Y0143746D01*
X0296267Y0143591D01*
X0296297Y0143435D01*
X0296323Y0143279D01*
X0296344Y0143122D01*
X0296362Y0142965D01*
X0296376Y0142807D01*
X0296386Y0142649D01*
X0296392Y0142491D01*
X0296394Y0142333D01*
X0296392Y0142175D01*
X0296386Y0142017D01*
X0296376Y0141859D01*
X0296362Y0141701D01*
X0296344Y0141544D01*
X0296323Y0141387D01*
X0296297Y0141231D01*
X0296267Y0141075D01*
X0296234Y0140920D01*
X0296196Y0140767D01*
X0296155Y0140614D01*
X0296110Y0140462D01*
X0296061Y0140311D01*
X0296008Y0140162D01*
X0295952Y0140014D01*
X0295892Y0139868D01*
X0295828Y0139723D01*
X0295760Y0139580D01*
X0295689Y0139438D01*
X0295615Y0139298D01*
X0295537Y0139161D01*
X0295455Y0139025D01*
X0295371Y0138891D01*
X0295282Y0138760D01*
X0295191Y0138631D01*
X0295096Y0138504D01*
X0294999Y0138379D01*
X0294898Y0138257D01*
X0294794Y0138138D01*
X0294687Y0138021D01*
X0294577Y0137907D01*
X0294464Y0137796D01*
X0294349Y0137687D01*
X0294231Y0137582D01*
X0294110Y0137480D01*
X0293987Y0137380D01*
X0293861Y0137284D01*
X0293733Y0137191D01*
X0293603Y0137101D01*
X0293470Y0137015D01*
X0293335Y0136931D01*
X0293199Y0136852D01*
X0293060Y0136775D01*
X0292919Y0136703D01*
X0292777Y0136633D01*
X0292633Y0136568D01*
X0292487Y0136506D01*
X0292340Y0136448D01*
X0292191Y0136393D01*
X0292041Y0136342D01*
X0291890Y0136295D01*
X0291738Y0136252D01*
X0291585Y0136213D01*
X0291430Y0136177D01*
X0291275Y0136146D01*
X0291119Y0136118D01*
X0290963Y0136094D01*
X0290806Y0136074D01*
X0290648Y0136058D01*
X0290491Y0136046D01*
X0290332Y0136038D01*
X0290174Y0136034D01*
X0290016Y0136034D01*
X0289858Y0136038D01*
X0289699Y0136046D01*
X0289542Y0136058D01*
X0289384Y0136074D01*
X0289227Y0136094D01*
X0289071Y0136118D01*
X0288915Y0136146D01*
X0288760Y0136177D01*
X0288605Y0136213D01*
X0288452Y0136252D01*
X0288300Y0136295D01*
X0288149Y0136342D01*
X0287999Y0136393D01*
X0287850Y0136448D01*
X0287703Y0136506D01*
X0287557Y0136568D01*
X0287413Y0136633D01*
X0287271Y0136703D01*
X0287130Y0136775D01*
X0286991Y0136852D01*
X0286855Y0136931D01*
X0286720Y0137015D01*
X0286587Y0137101D01*
X0286457Y0137191D01*
X0286329Y0137284D01*
X0286203Y0137380D01*
X0286080Y0137480D01*
X0285959Y0137582D01*
X0285841Y0137687D01*
X0285726Y0137796D01*
X0285613Y0137907D01*
X0285503Y0138021D01*
X0285396Y0138138D01*
X0285292Y0138257D01*
X0285191Y0138379D01*
X0285094Y0138504D01*
X0284999Y0138631D01*
X0284908Y0138760D01*
X0284819Y0138891D01*
X0284735Y0139025D01*
X0284653Y0139161D01*
X0284575Y0139298D01*
X0284501Y0139438D01*
X0284430Y0139580D01*
X0284362Y0139723D01*
X0284298Y0139868D01*
X0284238Y0140014D01*
X0284182Y0140162D01*
X0284129Y0140311D01*
X0284080Y0140462D01*
X0284035Y0140614D01*
X0283994Y0140767D01*
X0283956Y0140920D01*
X0283923Y0141075D01*
X0283893Y0141231D01*
X0283867Y0141387D01*
X0283846Y0141544D01*
X0283828Y0141701D01*
X0283814Y0141859D01*
X0283804Y0142017D01*
X0283798Y0142175D01*
X0283796Y0142333D01*
X0083796Y0202333D02*
X0083798Y0202491D01*
X0083804Y0202649D01*
X0083814Y0202807D01*
X0083828Y0202965D01*
X0083846Y0203122D01*
X0083867Y0203279D01*
X0083893Y0203435D01*
X0083923Y0203591D01*
X0083956Y0203746D01*
X0083994Y0203899D01*
X0084035Y0204052D01*
X0084080Y0204204D01*
X0084129Y0204355D01*
X0084182Y0204504D01*
X0084238Y0204652D01*
X0084298Y0204798D01*
X0084362Y0204943D01*
X0084430Y0205086D01*
X0084501Y0205228D01*
X0084575Y0205368D01*
X0084653Y0205505D01*
X0084735Y0205641D01*
X0084819Y0205775D01*
X0084908Y0205906D01*
X0084999Y0206035D01*
X0085094Y0206162D01*
X0085191Y0206287D01*
X0085292Y0206409D01*
X0085396Y0206528D01*
X0085503Y0206645D01*
X0085613Y0206759D01*
X0085726Y0206870D01*
X0085841Y0206979D01*
X0085959Y0207084D01*
X0086080Y0207186D01*
X0086203Y0207286D01*
X0086329Y0207382D01*
X0086457Y0207475D01*
X0086587Y0207565D01*
X0086720Y0207651D01*
X0086855Y0207735D01*
X0086991Y0207814D01*
X0087130Y0207891D01*
X0087271Y0207963D01*
X0087413Y0208033D01*
X0087557Y0208098D01*
X0087703Y0208160D01*
X0087850Y0208218D01*
X0087999Y0208273D01*
X0088149Y0208324D01*
X0088300Y0208371D01*
X0088452Y0208414D01*
X0088605Y0208453D01*
X0088760Y0208489D01*
X0088915Y0208520D01*
X0089071Y0208548D01*
X0089227Y0208572D01*
X0089384Y0208592D01*
X0089542Y0208608D01*
X0089699Y0208620D01*
X0089858Y0208628D01*
X0090016Y0208632D01*
X0090174Y0208632D01*
X0090332Y0208628D01*
X0090491Y0208620D01*
X0090648Y0208608D01*
X0090806Y0208592D01*
X0090963Y0208572D01*
X0091119Y0208548D01*
X0091275Y0208520D01*
X0091430Y0208489D01*
X0091585Y0208453D01*
X0091738Y0208414D01*
X0091890Y0208371D01*
X0092041Y0208324D01*
X0092191Y0208273D01*
X0092340Y0208218D01*
X0092487Y0208160D01*
X0092633Y0208098D01*
X0092777Y0208033D01*
X0092919Y0207963D01*
X0093060Y0207891D01*
X0093199Y0207814D01*
X0093335Y0207735D01*
X0093470Y0207651D01*
X0093603Y0207565D01*
X0093733Y0207475D01*
X0093861Y0207382D01*
X0093987Y0207286D01*
X0094110Y0207186D01*
X0094231Y0207084D01*
X0094349Y0206979D01*
X0094464Y0206870D01*
X0094577Y0206759D01*
X0094687Y0206645D01*
X0094794Y0206528D01*
X0094898Y0206409D01*
X0094999Y0206287D01*
X0095096Y0206162D01*
X0095191Y0206035D01*
X0095282Y0205906D01*
X0095371Y0205775D01*
X0095455Y0205641D01*
X0095537Y0205505D01*
X0095615Y0205368D01*
X0095689Y0205228D01*
X0095760Y0205086D01*
X0095828Y0204943D01*
X0095892Y0204798D01*
X0095952Y0204652D01*
X0096008Y0204504D01*
X0096061Y0204355D01*
X0096110Y0204204D01*
X0096155Y0204052D01*
X0096196Y0203899D01*
X0096234Y0203746D01*
X0096267Y0203591D01*
X0096297Y0203435D01*
X0096323Y0203279D01*
X0096344Y0203122D01*
X0096362Y0202965D01*
X0096376Y0202807D01*
X0096386Y0202649D01*
X0096392Y0202491D01*
X0096394Y0202333D01*
X0096392Y0202175D01*
X0096386Y0202017D01*
X0096376Y0201859D01*
X0096362Y0201701D01*
X0096344Y0201544D01*
X0096323Y0201387D01*
X0096297Y0201231D01*
X0096267Y0201075D01*
X0096234Y0200920D01*
X0096196Y0200767D01*
X0096155Y0200614D01*
X0096110Y0200462D01*
X0096061Y0200311D01*
X0096008Y0200162D01*
X0095952Y0200014D01*
X0095892Y0199868D01*
X0095828Y0199723D01*
X0095760Y0199580D01*
X0095689Y0199438D01*
X0095615Y0199298D01*
X0095537Y0199161D01*
X0095455Y0199025D01*
X0095371Y0198891D01*
X0095282Y0198760D01*
X0095191Y0198631D01*
X0095096Y0198504D01*
X0094999Y0198379D01*
X0094898Y0198257D01*
X0094794Y0198138D01*
X0094687Y0198021D01*
X0094577Y0197907D01*
X0094464Y0197796D01*
X0094349Y0197687D01*
X0094231Y0197582D01*
X0094110Y0197480D01*
X0093987Y0197380D01*
X0093861Y0197284D01*
X0093733Y0197191D01*
X0093603Y0197101D01*
X0093470Y0197015D01*
X0093335Y0196931D01*
X0093199Y0196852D01*
X0093060Y0196775D01*
X0092919Y0196703D01*
X0092777Y0196633D01*
X0092633Y0196568D01*
X0092487Y0196506D01*
X0092340Y0196448D01*
X0092191Y0196393D01*
X0092041Y0196342D01*
X0091890Y0196295D01*
X0091738Y0196252D01*
X0091585Y0196213D01*
X0091430Y0196177D01*
X0091275Y0196146D01*
X0091119Y0196118D01*
X0090963Y0196094D01*
X0090806Y0196074D01*
X0090648Y0196058D01*
X0090491Y0196046D01*
X0090332Y0196038D01*
X0090174Y0196034D01*
X0090016Y0196034D01*
X0089858Y0196038D01*
X0089699Y0196046D01*
X0089542Y0196058D01*
X0089384Y0196074D01*
X0089227Y0196094D01*
X0089071Y0196118D01*
X0088915Y0196146D01*
X0088760Y0196177D01*
X0088605Y0196213D01*
X0088452Y0196252D01*
X0088300Y0196295D01*
X0088149Y0196342D01*
X0087999Y0196393D01*
X0087850Y0196448D01*
X0087703Y0196506D01*
X0087557Y0196568D01*
X0087413Y0196633D01*
X0087271Y0196703D01*
X0087130Y0196775D01*
X0086991Y0196852D01*
X0086855Y0196931D01*
X0086720Y0197015D01*
X0086587Y0197101D01*
X0086457Y0197191D01*
X0086329Y0197284D01*
X0086203Y0197380D01*
X0086080Y0197480D01*
X0085959Y0197582D01*
X0085841Y0197687D01*
X0085726Y0197796D01*
X0085613Y0197907D01*
X0085503Y0198021D01*
X0085396Y0198138D01*
X0085292Y0198257D01*
X0085191Y0198379D01*
X0085094Y0198504D01*
X0084999Y0198631D01*
X0084908Y0198760D01*
X0084819Y0198891D01*
X0084735Y0199025D01*
X0084653Y0199161D01*
X0084575Y0199298D01*
X0084501Y0199438D01*
X0084430Y0199580D01*
X0084362Y0199723D01*
X0084298Y0199868D01*
X0084238Y0200014D01*
X0084182Y0200162D01*
X0084129Y0200311D01*
X0084080Y0200462D01*
X0084035Y0200614D01*
X0083994Y0200767D01*
X0083956Y0200920D01*
X0083923Y0201075D01*
X0083893Y0201231D01*
X0083867Y0201387D01*
X0083846Y0201544D01*
X0083828Y0201701D01*
X0083814Y0201859D01*
X0083804Y0202017D01*
X0083798Y0202175D01*
X0083796Y0202333D01*
X0073796Y0012333D02*
X0073798Y0012491D01*
X0073804Y0012649D01*
X0073814Y0012807D01*
X0073828Y0012965D01*
X0073846Y0013122D01*
X0073867Y0013279D01*
X0073893Y0013435D01*
X0073923Y0013591D01*
X0073956Y0013746D01*
X0073994Y0013899D01*
X0074035Y0014052D01*
X0074080Y0014204D01*
X0074129Y0014355D01*
X0074182Y0014504D01*
X0074238Y0014652D01*
X0074298Y0014798D01*
X0074362Y0014943D01*
X0074430Y0015086D01*
X0074501Y0015228D01*
X0074575Y0015368D01*
X0074653Y0015505D01*
X0074735Y0015641D01*
X0074819Y0015775D01*
X0074908Y0015906D01*
X0074999Y0016035D01*
X0075094Y0016162D01*
X0075191Y0016287D01*
X0075292Y0016409D01*
X0075396Y0016528D01*
X0075503Y0016645D01*
X0075613Y0016759D01*
X0075726Y0016870D01*
X0075841Y0016979D01*
X0075959Y0017084D01*
X0076080Y0017186D01*
X0076203Y0017286D01*
X0076329Y0017382D01*
X0076457Y0017475D01*
X0076587Y0017565D01*
X0076720Y0017651D01*
X0076855Y0017735D01*
X0076991Y0017814D01*
X0077130Y0017891D01*
X0077271Y0017963D01*
X0077413Y0018033D01*
X0077557Y0018098D01*
X0077703Y0018160D01*
X0077850Y0018218D01*
X0077999Y0018273D01*
X0078149Y0018324D01*
X0078300Y0018371D01*
X0078452Y0018414D01*
X0078605Y0018453D01*
X0078760Y0018489D01*
X0078915Y0018520D01*
X0079071Y0018548D01*
X0079227Y0018572D01*
X0079384Y0018592D01*
X0079542Y0018608D01*
X0079699Y0018620D01*
X0079858Y0018628D01*
X0080016Y0018632D01*
X0080174Y0018632D01*
X0080332Y0018628D01*
X0080491Y0018620D01*
X0080648Y0018608D01*
X0080806Y0018592D01*
X0080963Y0018572D01*
X0081119Y0018548D01*
X0081275Y0018520D01*
X0081430Y0018489D01*
X0081585Y0018453D01*
X0081738Y0018414D01*
X0081890Y0018371D01*
X0082041Y0018324D01*
X0082191Y0018273D01*
X0082340Y0018218D01*
X0082487Y0018160D01*
X0082633Y0018098D01*
X0082777Y0018033D01*
X0082919Y0017963D01*
X0083060Y0017891D01*
X0083199Y0017814D01*
X0083335Y0017735D01*
X0083470Y0017651D01*
X0083603Y0017565D01*
X0083733Y0017475D01*
X0083861Y0017382D01*
X0083987Y0017286D01*
X0084110Y0017186D01*
X0084231Y0017084D01*
X0084349Y0016979D01*
X0084464Y0016870D01*
X0084577Y0016759D01*
X0084687Y0016645D01*
X0084794Y0016528D01*
X0084898Y0016409D01*
X0084999Y0016287D01*
X0085096Y0016162D01*
X0085191Y0016035D01*
X0085282Y0015906D01*
X0085371Y0015775D01*
X0085455Y0015641D01*
X0085537Y0015505D01*
X0085615Y0015368D01*
X0085689Y0015228D01*
X0085760Y0015086D01*
X0085828Y0014943D01*
X0085892Y0014798D01*
X0085952Y0014652D01*
X0086008Y0014504D01*
X0086061Y0014355D01*
X0086110Y0014204D01*
X0086155Y0014052D01*
X0086196Y0013899D01*
X0086234Y0013746D01*
X0086267Y0013591D01*
X0086297Y0013435D01*
X0086323Y0013279D01*
X0086344Y0013122D01*
X0086362Y0012965D01*
X0086376Y0012807D01*
X0086386Y0012649D01*
X0086392Y0012491D01*
X0086394Y0012333D01*
X0086392Y0012175D01*
X0086386Y0012017D01*
X0086376Y0011859D01*
X0086362Y0011701D01*
X0086344Y0011544D01*
X0086323Y0011387D01*
X0086297Y0011231D01*
X0086267Y0011075D01*
X0086234Y0010920D01*
X0086196Y0010767D01*
X0086155Y0010614D01*
X0086110Y0010462D01*
X0086061Y0010311D01*
X0086008Y0010162D01*
X0085952Y0010014D01*
X0085892Y0009868D01*
X0085828Y0009723D01*
X0085760Y0009580D01*
X0085689Y0009438D01*
X0085615Y0009298D01*
X0085537Y0009161D01*
X0085455Y0009025D01*
X0085371Y0008891D01*
X0085282Y0008760D01*
X0085191Y0008631D01*
X0085096Y0008504D01*
X0084999Y0008379D01*
X0084898Y0008257D01*
X0084794Y0008138D01*
X0084687Y0008021D01*
X0084577Y0007907D01*
X0084464Y0007796D01*
X0084349Y0007687D01*
X0084231Y0007582D01*
X0084110Y0007480D01*
X0083987Y0007380D01*
X0083861Y0007284D01*
X0083733Y0007191D01*
X0083603Y0007101D01*
X0083470Y0007015D01*
X0083335Y0006931D01*
X0083199Y0006852D01*
X0083060Y0006775D01*
X0082919Y0006703D01*
X0082777Y0006633D01*
X0082633Y0006568D01*
X0082487Y0006506D01*
X0082340Y0006448D01*
X0082191Y0006393D01*
X0082041Y0006342D01*
X0081890Y0006295D01*
X0081738Y0006252D01*
X0081585Y0006213D01*
X0081430Y0006177D01*
X0081275Y0006146D01*
X0081119Y0006118D01*
X0080963Y0006094D01*
X0080806Y0006074D01*
X0080648Y0006058D01*
X0080491Y0006046D01*
X0080332Y0006038D01*
X0080174Y0006034D01*
X0080016Y0006034D01*
X0079858Y0006038D01*
X0079699Y0006046D01*
X0079542Y0006058D01*
X0079384Y0006074D01*
X0079227Y0006094D01*
X0079071Y0006118D01*
X0078915Y0006146D01*
X0078760Y0006177D01*
X0078605Y0006213D01*
X0078452Y0006252D01*
X0078300Y0006295D01*
X0078149Y0006342D01*
X0077999Y0006393D01*
X0077850Y0006448D01*
X0077703Y0006506D01*
X0077557Y0006568D01*
X0077413Y0006633D01*
X0077271Y0006703D01*
X0077130Y0006775D01*
X0076991Y0006852D01*
X0076855Y0006931D01*
X0076720Y0007015D01*
X0076587Y0007101D01*
X0076457Y0007191D01*
X0076329Y0007284D01*
X0076203Y0007380D01*
X0076080Y0007480D01*
X0075959Y0007582D01*
X0075841Y0007687D01*
X0075726Y0007796D01*
X0075613Y0007907D01*
X0075503Y0008021D01*
X0075396Y0008138D01*
X0075292Y0008257D01*
X0075191Y0008379D01*
X0075094Y0008504D01*
X0074999Y0008631D01*
X0074908Y0008760D01*
X0074819Y0008891D01*
X0074735Y0009025D01*
X0074653Y0009161D01*
X0074575Y0009298D01*
X0074501Y0009438D01*
X0074430Y0009580D01*
X0074362Y0009723D01*
X0074298Y0009868D01*
X0074238Y0010014D01*
X0074182Y0010162D01*
X0074129Y0010311D01*
X0074080Y0010462D01*
X0074035Y0010614D01*
X0073994Y0010767D01*
X0073956Y0010920D01*
X0073923Y0011075D01*
X0073893Y0011231D01*
X0073867Y0011387D01*
X0073846Y0011544D01*
X0073828Y0011701D01*
X0073814Y0011859D01*
X0073804Y0012017D01*
X0073798Y0012175D01*
X0073796Y0012333D01*
D12*
X0140095Y0012333D03*
X0150095Y0012333D03*
X0160095Y0012333D03*
X0170095Y0012333D03*
X0180095Y0012333D03*
X0190095Y0012333D03*
X0200095Y0012333D03*
X0210095Y0012333D03*
X0230095Y0012333D03*
X0240095Y0012333D03*
X0250095Y0012333D03*
X0260095Y0012333D03*
X0270095Y0012333D03*
X0280095Y0012333D03*
X0280095Y0202333D03*
X0270095Y0202333D03*
X0260095Y0202333D03*
X0250095Y0202333D03*
X0240095Y0202333D03*
X0230095Y0202333D03*
X0220095Y0202333D03*
X0210095Y0202333D03*
X0194095Y0202333D03*
X0184095Y0202333D03*
X0174095Y0202333D03*
X0164095Y0202333D03*
X0154095Y0202333D03*
X0144095Y0202333D03*
X0134095Y0202333D03*
X0124095Y0202333D03*
X0114095Y0202333D03*
X0104095Y0202333D03*
D13*
X0124091Y0156723D03*
X0134091Y0156723D03*
X0144091Y0156723D03*
X0154091Y0156723D03*
X0164091Y0156723D03*
X0174091Y0156723D03*
X0184091Y0156723D03*
X0194091Y0156723D03*
X0204091Y0156723D03*
X0214091Y0156723D03*
X0224091Y0156723D03*
X0234091Y0156723D03*
X0244091Y0156723D03*
X0254091Y0156723D03*
X0264091Y0156723D03*
X0274091Y0156723D03*
D14*
X0397713Y0156723D03*
X0397713Y0034676D03*
X0102438Y0034676D03*
X0102438Y0156723D03*
D15*
X0116345Y0297176D03*
X0318845Y0307176D03*
D16*
X0318845Y0287491D03*
X0116345Y0277491D03*
D17*
X0113845Y0330995D02*
X0113845Y0338672D01*
X0093845Y0338672D02*
X0093845Y0330995D01*
X0073845Y0330995D02*
X0073845Y0338672D01*
X0133845Y0338672D02*
X0133845Y0330995D01*
X0360095Y0330995D02*
X0360095Y0338672D01*
X0380095Y0338672D02*
X0380095Y0330995D01*
D18*
X0352595Y0264833D03*
X0337595Y0264833D03*
X0357595Y0249833D03*
X0285095Y0271083D03*
X0285095Y0277333D03*
X0266345Y0236083D03*
X0205095Y0263583D03*
X0138845Y0274833D03*
X0138845Y0279833D03*
X0083845Y0244833D03*
X0075095Y0252333D03*
X0083845Y0236083D03*
X0081345Y0212333D03*
X0065095Y0212333D03*
X0180095Y0128583D03*
X0180095Y0103583D03*
D19*
X0180095Y0128583D01*
X0081345Y0212333D02*
X0065095Y0212333D01*
X0083845Y0236083D02*
X0083845Y0244833D01*
X0337595Y0264833D02*
X0352595Y0264833D01*
D20*
X0355680Y0263447D02*
X0409885Y0263447D01*
X0409885Y0264245D02*
X0355976Y0264245D01*
X0355976Y0264161D02*
X0355976Y0265506D01*
X0355461Y0266749D01*
X0354510Y0267700D01*
X0353268Y0268214D01*
X0351923Y0268214D01*
X0350680Y0267700D01*
X0350614Y0267633D01*
X0339577Y0267633D01*
X0339510Y0267700D01*
X0338268Y0268214D01*
X0336923Y0268214D01*
X0335680Y0267700D01*
X0334729Y0266749D01*
X0334214Y0265506D01*
X0334214Y0264161D01*
X0334729Y0262918D01*
X0335680Y0261967D01*
X0336923Y0261452D01*
X0338268Y0261452D01*
X0339510Y0261967D01*
X0339577Y0262033D01*
X0350614Y0262033D01*
X0350680Y0261967D01*
X0351923Y0261452D01*
X0353268Y0261452D01*
X0354510Y0261967D01*
X0355461Y0262918D01*
X0355976Y0264161D01*
X0355976Y0265044D02*
X0409885Y0265044D01*
X0409885Y0265842D02*
X0355837Y0265842D01*
X0355506Y0266641D02*
X0409885Y0266641D01*
X0409885Y0267439D02*
X0354771Y0267439D01*
X0355191Y0262648D02*
X0409885Y0262648D01*
X0409885Y0261850D02*
X0354227Y0261850D01*
X0350963Y0261850D02*
X0339227Y0261850D01*
X0335963Y0261850D02*
X0032195Y0261850D01*
X0032195Y0262648D02*
X0334999Y0262648D01*
X0334510Y0263447D02*
X0032195Y0263447D01*
X0032195Y0264245D02*
X0334214Y0264245D01*
X0334214Y0265044D02*
X0032195Y0265044D01*
X0032195Y0265842D02*
X0334353Y0265842D01*
X0334684Y0266641D02*
X0032195Y0266641D01*
X0032195Y0267439D02*
X0335419Y0267439D01*
X0321125Y0300977D02*
X0409885Y0300977D01*
X0409885Y0301775D02*
X0322778Y0301775D01*
X0322584Y0301581D02*
X0324440Y0303437D01*
X0325445Y0305863D01*
X0325445Y0308489D01*
X0324440Y0310914D01*
X0322584Y0312771D01*
X0320158Y0313776D01*
X0317532Y0313776D01*
X0315107Y0312771D01*
X0313250Y0310914D01*
X0312245Y0308489D01*
X0312245Y0305863D01*
X0313250Y0303437D01*
X0315107Y0301581D01*
X0317532Y0300576D01*
X0320158Y0300576D01*
X0322584Y0301581D01*
X0323577Y0302574D02*
X0409885Y0302574D01*
X0409885Y0303372D02*
X0324375Y0303372D01*
X0324744Y0304171D02*
X0409885Y0304171D01*
X0409885Y0304969D02*
X0325075Y0304969D01*
X0325406Y0305768D02*
X0409885Y0305768D01*
X0409885Y0306566D02*
X0325445Y0306566D01*
X0325445Y0307365D02*
X0409885Y0307365D01*
X0409885Y0308163D02*
X0325445Y0308163D01*
X0325249Y0308962D02*
X0409885Y0308962D01*
X0409885Y0309760D02*
X0324918Y0309760D01*
X0324588Y0310559D02*
X0409885Y0310559D01*
X0409885Y0311357D02*
X0323998Y0311357D01*
X0323199Y0312156D02*
X0409885Y0312156D01*
X0409885Y0312954D02*
X0322141Y0312954D01*
X0320214Y0313753D02*
X0409885Y0313753D01*
X0409885Y0314551D02*
X0032195Y0314551D01*
X0032195Y0313753D02*
X0317477Y0313753D01*
X0315549Y0312954D02*
X0032195Y0312954D01*
X0032195Y0312156D02*
X0314491Y0312156D01*
X0313693Y0311357D02*
X0032195Y0311357D01*
X0032195Y0310559D02*
X0313103Y0310559D01*
X0312772Y0309760D02*
X0032195Y0309760D01*
X0032195Y0308962D02*
X0312441Y0308962D01*
X0312245Y0308163D02*
X0032195Y0308163D01*
X0032195Y0307365D02*
X0312245Y0307365D01*
X0312245Y0306566D02*
X0032195Y0306566D01*
X0032195Y0305768D02*
X0312285Y0305768D01*
X0312615Y0304969D02*
X0032195Y0304969D01*
X0032195Y0304171D02*
X0312946Y0304171D01*
X0313315Y0303372D02*
X0118633Y0303372D01*
X0117658Y0303776D02*
X0115032Y0303776D01*
X0112607Y0302771D01*
X0110750Y0300914D01*
X0109745Y0298489D01*
X0109745Y0295863D01*
X0110750Y0293437D01*
X0112607Y0291581D01*
X0115032Y0290576D01*
X0117658Y0290576D01*
X0120084Y0291581D01*
X0121940Y0293437D01*
X0122945Y0295863D01*
X0122945Y0298489D01*
X0121940Y0300914D01*
X0120084Y0302771D01*
X0117658Y0303776D01*
X0120281Y0302574D02*
X0314114Y0302574D01*
X0314912Y0301775D02*
X0121080Y0301775D01*
X0121878Y0300977D02*
X0316565Y0300977D01*
X0355485Y0327914D02*
X0357014Y0326384D01*
X0359013Y0325556D01*
X0361177Y0325556D01*
X0363176Y0326384D01*
X0364706Y0327914D01*
X0365534Y0329913D01*
X0365534Y0339754D01*
X0364706Y0341753D01*
X0363176Y0343283D01*
X0361177Y0344110D01*
X0359013Y0344110D01*
X0357014Y0343283D01*
X0355485Y0341753D01*
X0354657Y0339754D01*
X0354657Y0329913D01*
X0355485Y0327914D01*
X0355397Y0328126D02*
X0138544Y0328126D01*
X0138456Y0327914D02*
X0139284Y0329913D01*
X0139284Y0339754D01*
X0138456Y0341753D01*
X0136926Y0343283D01*
X0134927Y0344110D01*
X0132763Y0344110D01*
X0130764Y0343283D01*
X0129235Y0341753D01*
X0128407Y0339754D01*
X0128407Y0329913D01*
X0129235Y0327914D01*
X0130764Y0326384D01*
X0132763Y0325556D01*
X0134927Y0325556D01*
X0136926Y0326384D01*
X0138456Y0327914D01*
X0137869Y0327327D02*
X0356071Y0327327D01*
X0356870Y0326529D02*
X0137071Y0326529D01*
X0135348Y0325730D02*
X0358593Y0325730D01*
X0361598Y0325730D02*
X0409885Y0325730D01*
X0409885Y0324932D02*
X0032195Y0324932D01*
X0032195Y0325730D02*
X0072343Y0325730D01*
X0072763Y0325556D02*
X0074927Y0325556D01*
X0076926Y0326384D01*
X0078456Y0327914D01*
X0079284Y0329913D01*
X0079284Y0339754D01*
X0078456Y0341753D01*
X0076926Y0343283D01*
X0074927Y0344110D01*
X0072763Y0344110D01*
X0070764Y0343283D01*
X0069235Y0341753D01*
X0068407Y0339754D01*
X0068407Y0329913D01*
X0069235Y0327914D01*
X0070764Y0326384D01*
X0072763Y0325556D01*
X0070620Y0326529D02*
X0032195Y0326529D01*
X0032195Y0327327D02*
X0069821Y0327327D01*
X0069147Y0328126D02*
X0032195Y0328126D01*
X0032195Y0328924D02*
X0068816Y0328924D01*
X0068485Y0329723D02*
X0032195Y0329723D01*
X0032195Y0330521D02*
X0068407Y0330521D01*
X0068407Y0331320D02*
X0032195Y0331320D01*
X0032195Y0332119D02*
X0068407Y0332119D01*
X0068407Y0332917D02*
X0032195Y0332917D01*
X0032195Y0333716D02*
X0068407Y0333716D01*
X0068407Y0334514D02*
X0032195Y0334514D01*
X0032195Y0335313D02*
X0068407Y0335313D01*
X0068407Y0336111D02*
X0032195Y0336111D01*
X0032195Y0336910D02*
X0068407Y0336910D01*
X0068407Y0337708D02*
X0032195Y0337708D01*
X0032195Y0338507D02*
X0068407Y0338507D01*
X0068407Y0339305D02*
X0032195Y0339305D01*
X0032195Y0340104D02*
X0068552Y0340104D01*
X0068882Y0340902D02*
X0032195Y0340902D01*
X0032195Y0341701D02*
X0069213Y0341701D01*
X0069981Y0342499D02*
X0032195Y0342499D01*
X0032195Y0343298D02*
X0070801Y0343298D01*
X0072729Y0344096D02*
X0032195Y0344096D01*
X0032195Y0344895D02*
X0223169Y0344895D01*
X0223320Y0345046D02*
X0222383Y0344108D01*
X0222383Y0338058D01*
X0223320Y0337121D01*
X0229370Y0337121D01*
X0230307Y0338058D01*
X0230307Y0344108D01*
X0229370Y0345046D01*
X0223320Y0345046D01*
X0222383Y0344096D02*
X0134961Y0344096D01*
X0136889Y0343298D02*
X0222383Y0343298D01*
X0222383Y0342499D02*
X0137709Y0342499D01*
X0138477Y0341701D02*
X0222383Y0341701D01*
X0222383Y0340902D02*
X0138808Y0340902D01*
X0139139Y0340104D02*
X0222383Y0340104D01*
X0222383Y0339305D02*
X0139284Y0339305D01*
X0139284Y0338507D02*
X0222383Y0338507D01*
X0222733Y0337708D02*
X0139284Y0337708D01*
X0139284Y0336910D02*
X0354657Y0336910D01*
X0354657Y0337708D02*
X0229957Y0337708D01*
X0230307Y0338507D02*
X0354657Y0338507D01*
X0354657Y0339305D02*
X0230307Y0339305D01*
X0230307Y0340104D02*
X0354802Y0340104D01*
X0355132Y0340902D02*
X0230307Y0340902D01*
X0230307Y0341701D02*
X0355463Y0341701D01*
X0356231Y0342499D02*
X0230307Y0342499D01*
X0230307Y0343298D02*
X0357051Y0343298D01*
X0358979Y0344096D02*
X0230307Y0344096D01*
X0229521Y0344895D02*
X0409885Y0344895D01*
X0409885Y0345693D02*
X0032195Y0345693D01*
X0032195Y0346492D02*
X0409885Y0346492D01*
X0409885Y0347290D02*
X0032195Y0347290D01*
X0032195Y0348089D02*
X0409885Y0348089D01*
X0409885Y0348790D02*
X0409885Y0010207D01*
X0409814Y0009304D01*
X0409256Y0007586D01*
X0408194Y0006124D01*
X0406732Y0005063D01*
X0405014Y0004504D01*
X0404111Y0004433D01*
X0286458Y0004433D01*
X0286127Y0004522D01*
X0286127Y0004522D01*
X0285796Y0004433D01*
X0037969Y0004433D01*
X0037066Y0004504D01*
X0035348Y0005063D01*
X0033886Y0006124D01*
X0032824Y0007586D01*
X0032266Y0009304D01*
X0032195Y0010207D01*
X0032195Y0348790D01*
X0032266Y0349693D01*
X0032824Y0351411D01*
X0033886Y0352873D01*
X0035348Y0353935D01*
X0037066Y0354493D01*
X0037969Y0354564D01*
X0404111Y0354564D01*
X0405014Y0354493D01*
X0406732Y0353935D01*
X0408194Y0352873D01*
X0409256Y0351411D01*
X0409814Y0349693D01*
X0409885Y0348790D01*
X0409877Y0348887D02*
X0032203Y0348887D01*
X0032266Y0349686D02*
X0409814Y0349686D01*
X0409557Y0350484D02*
X0032523Y0350484D01*
X0032783Y0351283D02*
X0409297Y0351283D01*
X0408769Y0352081D02*
X0033311Y0352081D01*
X0033896Y0352880D02*
X0408184Y0352880D01*
X0407085Y0353678D02*
X0034995Y0353678D01*
X0037016Y0354477D02*
X0405064Y0354477D01*
X0409885Y0344096D02*
X0361211Y0344096D01*
X0363139Y0343298D02*
X0409885Y0343298D01*
X0409885Y0342499D02*
X0363959Y0342499D01*
X0364727Y0341701D02*
X0409885Y0341701D01*
X0409885Y0340902D02*
X0365058Y0340902D01*
X0365389Y0340104D02*
X0409885Y0340104D01*
X0409885Y0339305D02*
X0365534Y0339305D01*
X0365534Y0338507D02*
X0409885Y0338507D01*
X0409885Y0337708D02*
X0365534Y0337708D01*
X0365534Y0336910D02*
X0409885Y0336910D01*
X0409885Y0336111D02*
X0365534Y0336111D01*
X0365534Y0335313D02*
X0409885Y0335313D01*
X0409885Y0334514D02*
X0365534Y0334514D01*
X0365534Y0333716D02*
X0409885Y0333716D01*
X0409885Y0332917D02*
X0365534Y0332917D01*
X0365534Y0332119D02*
X0409885Y0332119D01*
X0409885Y0331320D02*
X0365534Y0331320D01*
X0365534Y0330521D02*
X0409885Y0330521D01*
X0409885Y0329723D02*
X0365455Y0329723D01*
X0365124Y0328924D02*
X0409885Y0328924D01*
X0409885Y0328126D02*
X0364794Y0328126D01*
X0364119Y0327327D02*
X0409885Y0327327D01*
X0409885Y0326529D02*
X0363321Y0326529D01*
X0355066Y0328924D02*
X0138874Y0328924D01*
X0139205Y0329723D02*
X0354735Y0329723D01*
X0354657Y0330521D02*
X0139284Y0330521D01*
X0139284Y0331320D02*
X0354657Y0331320D01*
X0354657Y0332119D02*
X0139284Y0332119D01*
X0139284Y0332917D02*
X0354657Y0332917D01*
X0354657Y0333716D02*
X0139284Y0333716D01*
X0139284Y0334514D02*
X0354657Y0334514D01*
X0354657Y0335313D02*
X0139284Y0335313D01*
X0139284Y0336111D02*
X0354657Y0336111D01*
X0409885Y0324133D02*
X0032195Y0324133D01*
X0032195Y0323335D02*
X0409885Y0323335D01*
X0409885Y0322536D02*
X0032195Y0322536D01*
X0032195Y0321738D02*
X0409885Y0321738D01*
X0409885Y0320939D02*
X0032195Y0320939D01*
X0032195Y0320141D02*
X0409885Y0320141D01*
X0409885Y0319342D02*
X0032195Y0319342D01*
X0032195Y0318544D02*
X0409885Y0318544D01*
X0409885Y0317745D02*
X0032195Y0317745D01*
X0032195Y0316947D02*
X0409885Y0316947D01*
X0409885Y0316148D02*
X0032195Y0316148D01*
X0032195Y0315350D02*
X0409885Y0315350D01*
X0409885Y0300178D02*
X0122245Y0300178D01*
X0122576Y0299380D02*
X0409885Y0299380D01*
X0409885Y0298581D02*
X0122907Y0298581D01*
X0122945Y0297783D02*
X0409885Y0297783D01*
X0409885Y0296984D02*
X0122945Y0296984D01*
X0122945Y0296185D02*
X0409885Y0296185D01*
X0409885Y0295387D02*
X0122748Y0295387D01*
X0122417Y0294588D02*
X0409885Y0294588D01*
X0409885Y0293790D02*
X0239376Y0293790D01*
X0239370Y0293796D02*
X0233320Y0293796D01*
X0232383Y0292858D01*
X0232383Y0286808D01*
X0233320Y0285871D01*
X0239370Y0285871D01*
X0240307Y0286808D01*
X0240307Y0292858D01*
X0239370Y0293796D01*
X0240174Y0292991D02*
X0409885Y0292991D01*
X0409885Y0292193D02*
X0240307Y0292193D01*
X0240307Y0291394D02*
X0409885Y0291394D01*
X0409885Y0290596D02*
X0240307Y0290596D01*
X0240307Y0289797D02*
X0409885Y0289797D01*
X0409885Y0288999D02*
X0240307Y0288999D01*
X0240307Y0288200D02*
X0409885Y0288200D01*
X0409885Y0287402D02*
X0240307Y0287402D01*
X0240102Y0286603D02*
X0409885Y0286603D01*
X0409885Y0285805D02*
X0032195Y0285805D01*
X0032195Y0286603D02*
X0232588Y0286603D01*
X0232383Y0287402D02*
X0032195Y0287402D01*
X0032195Y0288200D02*
X0232383Y0288200D01*
X0232383Y0288999D02*
X0032195Y0288999D01*
X0032195Y0289797D02*
X0232383Y0289797D01*
X0232383Y0290596D02*
X0117706Y0290596D01*
X0119634Y0291394D02*
X0232383Y0291394D01*
X0232383Y0292193D02*
X0120696Y0292193D01*
X0121495Y0292991D02*
X0232516Y0292991D01*
X0233315Y0293790D02*
X0122086Y0293790D01*
X0114984Y0290596D02*
X0032195Y0290596D01*
X0032195Y0291394D02*
X0113056Y0291394D01*
X0111994Y0292193D02*
X0032195Y0292193D01*
X0032195Y0292991D02*
X0111196Y0292991D01*
X0110604Y0293790D02*
X0032195Y0293790D01*
X0032195Y0294588D02*
X0110273Y0294588D01*
X0109942Y0295387D02*
X0032195Y0295387D01*
X0032195Y0296185D02*
X0109745Y0296185D01*
X0109745Y0296984D02*
X0032195Y0296984D01*
X0032195Y0297783D02*
X0109745Y0297783D01*
X0109783Y0298581D02*
X0032195Y0298581D01*
X0032195Y0299380D02*
X0110114Y0299380D01*
X0110445Y0300178D02*
X0032195Y0300178D01*
X0032195Y0300977D02*
X0110812Y0300977D01*
X0111611Y0301775D02*
X0032195Y0301775D01*
X0032195Y0302574D02*
X0112409Y0302574D01*
X0114058Y0303372D02*
X0032195Y0303372D01*
X0032195Y0285006D02*
X0409885Y0285006D01*
X0409885Y0284208D02*
X0032195Y0284208D01*
X0032195Y0283409D02*
X0409885Y0283409D01*
X0409885Y0282611D02*
X0032195Y0282611D01*
X0032195Y0281812D02*
X0409885Y0281812D01*
X0409885Y0281014D02*
X0032195Y0281014D01*
X0032195Y0280215D02*
X0409885Y0280215D01*
X0409885Y0279417D02*
X0032195Y0279417D01*
X0032195Y0278618D02*
X0409885Y0278618D01*
X0409885Y0277820D02*
X0032195Y0277820D01*
X0032195Y0277021D02*
X0409885Y0277021D01*
X0409885Y0276223D02*
X0032195Y0276223D01*
X0032195Y0275424D02*
X0409885Y0275424D01*
X0409885Y0274626D02*
X0032195Y0274626D01*
X0032195Y0273827D02*
X0409885Y0273827D01*
X0409885Y0273029D02*
X0032195Y0273029D01*
X0032195Y0272230D02*
X0409885Y0272230D01*
X0409885Y0271432D02*
X0032195Y0271432D01*
X0032195Y0270633D02*
X0409885Y0270633D01*
X0409885Y0269835D02*
X0032195Y0269835D01*
X0032195Y0269036D02*
X0409885Y0269036D01*
X0409885Y0268238D02*
X0032195Y0268238D01*
X0032195Y0261051D02*
X0409885Y0261051D01*
X0409885Y0260252D02*
X0032195Y0260252D01*
X0032195Y0259454D02*
X0409885Y0259454D01*
X0409885Y0258655D02*
X0032195Y0258655D01*
X0032195Y0257857D02*
X0409885Y0257857D01*
X0409885Y0257058D02*
X0032195Y0257058D01*
X0032195Y0256260D02*
X0409885Y0256260D01*
X0409885Y0255461D02*
X0032195Y0255461D01*
X0032195Y0254663D02*
X0195438Y0254663D01*
X0195820Y0255046D02*
X0194883Y0254108D01*
X0194883Y0248058D01*
X0195820Y0247121D01*
X0201870Y0247121D01*
X0202807Y0248058D01*
X0202807Y0254108D01*
X0201870Y0255046D01*
X0195820Y0255046D01*
X0194883Y0253864D02*
X0032195Y0253864D01*
X0032195Y0253066D02*
X0194883Y0253066D01*
X0194883Y0252267D02*
X0032195Y0252267D01*
X0032195Y0251469D02*
X0194883Y0251469D01*
X0194883Y0250670D02*
X0032195Y0250670D01*
X0032195Y0249872D02*
X0194883Y0249872D01*
X0194883Y0249073D02*
X0032195Y0249073D01*
X0032195Y0248275D02*
X0194883Y0248275D01*
X0195465Y0247476D02*
X0085984Y0247476D01*
X0085760Y0247700D02*
X0084518Y0248214D01*
X0083173Y0248214D01*
X0081930Y0247700D01*
X0080979Y0246749D01*
X0080464Y0245506D01*
X0080464Y0244161D01*
X0080979Y0242918D01*
X0081045Y0242852D01*
X0081045Y0238065D01*
X0080979Y0237999D01*
X0080464Y0236756D01*
X0080464Y0235411D01*
X0080979Y0234168D01*
X0081930Y0233217D01*
X0083173Y0232702D01*
X0084518Y0232702D01*
X0085760Y0233217D01*
X0086711Y0234168D01*
X0087226Y0235411D01*
X0087226Y0236756D01*
X0086711Y0237999D01*
X0086645Y0238065D01*
X0086645Y0242852D01*
X0086711Y0242918D01*
X0087226Y0244161D01*
X0087226Y0245506D01*
X0086711Y0246749D01*
X0085760Y0247700D01*
X0086741Y0246678D02*
X0409885Y0246678D01*
X0409885Y0247476D02*
X0202225Y0247476D01*
X0202807Y0248275D02*
X0409885Y0248275D01*
X0409885Y0249073D02*
X0202807Y0249073D01*
X0202807Y0249872D02*
X0409885Y0249872D01*
X0409885Y0250670D02*
X0202807Y0250670D01*
X0202807Y0251469D02*
X0409885Y0251469D01*
X0409885Y0252267D02*
X0202807Y0252267D01*
X0202807Y0253066D02*
X0409885Y0253066D01*
X0409885Y0253864D02*
X0202807Y0253864D01*
X0202253Y0254663D02*
X0409885Y0254663D01*
X0409885Y0245879D02*
X0087072Y0245879D01*
X0087226Y0245081D02*
X0409885Y0245081D01*
X0409885Y0244282D02*
X0087226Y0244282D01*
X0086946Y0243484D02*
X0409885Y0243484D01*
X0409885Y0242685D02*
X0086645Y0242685D01*
X0086645Y0241887D02*
X0409885Y0241887D01*
X0409885Y0241088D02*
X0086645Y0241088D01*
X0086645Y0240290D02*
X0409885Y0240290D01*
X0409885Y0239491D02*
X0269924Y0239491D01*
X0270307Y0239108D02*
X0269370Y0240046D01*
X0263320Y0240046D01*
X0262383Y0239108D01*
X0262383Y0233058D01*
X0263320Y0232121D01*
X0269370Y0232121D01*
X0270307Y0233058D01*
X0270307Y0239108D01*
X0270307Y0238693D02*
X0409885Y0238693D01*
X0409885Y0237894D02*
X0270307Y0237894D01*
X0270307Y0237096D02*
X0409885Y0237096D01*
X0409885Y0236297D02*
X0270307Y0236297D01*
X0270307Y0235499D02*
X0409885Y0235499D01*
X0409885Y0234700D02*
X0270307Y0234700D01*
X0270307Y0233902D02*
X0409885Y0233902D01*
X0409885Y0233103D02*
X0270307Y0233103D01*
X0269554Y0232305D02*
X0409885Y0232305D01*
X0409885Y0231506D02*
X0032195Y0231506D01*
X0032195Y0230708D02*
X0177732Y0230708D01*
X0177383Y0230358D02*
X0177383Y0224308D01*
X0178320Y0223371D01*
X0184370Y0223371D01*
X0185307Y0224308D01*
X0185307Y0230358D01*
X0184370Y0231296D01*
X0178320Y0231296D01*
X0177383Y0230358D01*
X0177383Y0229909D02*
X0032195Y0229909D01*
X0032195Y0229111D02*
X0177383Y0229111D01*
X0177383Y0228312D02*
X0032195Y0228312D01*
X0032195Y0227514D02*
X0177383Y0227514D01*
X0177383Y0226715D02*
X0032195Y0226715D01*
X0032195Y0225916D02*
X0177383Y0225916D01*
X0177383Y0225118D02*
X0032195Y0225118D01*
X0032195Y0224319D02*
X0177383Y0224319D01*
X0178170Y0223521D02*
X0032195Y0223521D01*
X0032195Y0222722D02*
X0409885Y0222722D01*
X0409885Y0221924D02*
X0032195Y0221924D01*
X0032195Y0221125D02*
X0409885Y0221125D01*
X0409885Y0220327D02*
X0032195Y0220327D01*
X0032195Y0219528D02*
X0409885Y0219528D01*
X0409885Y0218730D02*
X0032195Y0218730D01*
X0032195Y0217931D02*
X0409885Y0217931D01*
X0409885Y0217133D02*
X0032195Y0217133D01*
X0032195Y0216334D02*
X0409885Y0216334D01*
X0409885Y0215536D02*
X0082449Y0215536D01*
X0082018Y0215714D02*
X0080673Y0215714D01*
X0079430Y0215200D01*
X0079364Y0215133D01*
X0067077Y0215133D01*
X0067010Y0215200D01*
X0065768Y0215714D01*
X0064423Y0215714D01*
X0063180Y0215200D01*
X0062229Y0214249D01*
X0061714Y0213006D01*
X0061714Y0211661D01*
X0062229Y0210418D01*
X0063180Y0209467D01*
X0064423Y0208952D01*
X0065768Y0208952D01*
X0067010Y0209467D01*
X0067077Y0209533D01*
X0079364Y0209533D01*
X0079430Y0209467D01*
X0080673Y0208952D01*
X0082018Y0208952D01*
X0083260Y0209467D01*
X0084211Y0210418D01*
X0084726Y0211661D01*
X0084726Y0213006D01*
X0084211Y0214249D01*
X0083260Y0215200D01*
X0082018Y0215714D01*
X0080241Y0215536D02*
X0066199Y0215536D01*
X0063991Y0215536D02*
X0032195Y0215536D01*
X0032195Y0214737D02*
X0062718Y0214737D01*
X0062100Y0213939D02*
X0032195Y0213939D01*
X0032195Y0213140D02*
X0061770Y0213140D01*
X0061714Y0212342D02*
X0032195Y0212342D01*
X0032195Y0211543D02*
X0061763Y0211543D01*
X0062093Y0210745D02*
X0032195Y0210745D01*
X0032195Y0209946D02*
X0062701Y0209946D01*
X0063951Y0209148D02*
X0032195Y0209148D01*
X0032195Y0208349D02*
X0084940Y0208349D01*
X0085621Y0209030D02*
X0083399Y0206808D01*
X0082196Y0203905D01*
X0082196Y0200762D01*
X0083399Y0197859D01*
X0085621Y0195637D01*
X0088524Y0194434D01*
X0091666Y0194434D01*
X0094570Y0195637D01*
X0096792Y0197859D01*
X0097994Y0200762D01*
X0097994Y0203905D01*
X0096792Y0206808D01*
X0094570Y0209030D01*
X0091666Y0210233D01*
X0088524Y0210233D01*
X0085621Y0209030D01*
X0085905Y0209148D02*
X0082490Y0209148D01*
X0083740Y0209946D02*
X0087833Y0209946D01*
X0084678Y0211543D02*
X0409885Y0211543D01*
X0409885Y0210745D02*
X0084347Y0210745D01*
X0084726Y0212342D02*
X0409885Y0212342D01*
X0409885Y0213140D02*
X0084671Y0213140D01*
X0084340Y0213939D02*
X0409885Y0213939D01*
X0409885Y0214737D02*
X0083723Y0214737D01*
X0080201Y0209148D02*
X0066240Y0209148D01*
X0082383Y0204357D02*
X0032195Y0204357D01*
X0032195Y0205155D02*
X0082714Y0205155D01*
X0083045Y0205954D02*
X0032195Y0205954D01*
X0032195Y0206752D02*
X0083375Y0206752D01*
X0084141Y0207551D02*
X0032195Y0207551D01*
X0032195Y0203558D02*
X0082196Y0203558D01*
X0082196Y0202760D02*
X0032195Y0202760D01*
X0032195Y0201961D02*
X0082196Y0201961D01*
X0082196Y0201163D02*
X0032195Y0201163D01*
X0032195Y0200364D02*
X0082361Y0200364D01*
X0082692Y0199566D02*
X0032195Y0199566D01*
X0032195Y0198767D02*
X0083022Y0198767D01*
X0083353Y0197969D02*
X0032195Y0197969D01*
X0032195Y0197170D02*
X0084087Y0197170D01*
X0084886Y0196372D02*
X0032195Y0196372D01*
X0032195Y0195573D02*
X0085774Y0195573D01*
X0087702Y0194775D02*
X0032195Y0194775D01*
X0032195Y0193976D02*
X0409885Y0193976D01*
X0409885Y0193178D02*
X0032195Y0193178D01*
X0032195Y0192379D02*
X0409885Y0192379D01*
X0409885Y0191581D02*
X0032195Y0191581D01*
X0032195Y0190782D02*
X0409885Y0190782D01*
X0409885Y0189983D02*
X0032195Y0189983D01*
X0032195Y0189185D02*
X0409885Y0189185D01*
X0409885Y0188386D02*
X0032195Y0188386D01*
X0032195Y0187588D02*
X0409885Y0187588D01*
X0409885Y0186789D02*
X0032195Y0186789D01*
X0032195Y0185991D02*
X0409885Y0185991D01*
X0409885Y0185192D02*
X0032195Y0185192D01*
X0032195Y0184394D02*
X0409885Y0184394D01*
X0409885Y0183595D02*
X0032195Y0183595D01*
X0032195Y0182797D02*
X0409885Y0182797D01*
X0409885Y0181998D02*
X0032195Y0181998D01*
X0032195Y0181200D02*
X0409885Y0181200D01*
X0409885Y0180401D02*
X0032195Y0180401D01*
X0032195Y0179603D02*
X0409885Y0179603D01*
X0409885Y0178804D02*
X0032195Y0178804D01*
X0032195Y0178006D02*
X0409885Y0178006D01*
X0409885Y0177207D02*
X0032195Y0177207D01*
X0032195Y0176409D02*
X0409885Y0176409D01*
X0409885Y0175610D02*
X0032195Y0175610D01*
X0032195Y0174812D02*
X0409885Y0174812D01*
X0409885Y0174013D02*
X0032195Y0174013D01*
X0032195Y0173215D02*
X0409885Y0173215D01*
X0409885Y0172416D02*
X0032195Y0172416D01*
X0032195Y0171618D02*
X0409885Y0171618D01*
X0409885Y0170819D02*
X0032195Y0170819D01*
X0032195Y0170021D02*
X0409885Y0170021D01*
X0409885Y0169222D02*
X0032195Y0169222D01*
X0032195Y0168424D02*
X0409885Y0168424D01*
X0409885Y0167625D02*
X0032195Y0167625D01*
X0032195Y0166827D02*
X0409885Y0166827D01*
X0409885Y0166028D02*
X0032195Y0166028D01*
X0032195Y0165230D02*
X0409885Y0165230D01*
X0409885Y0164431D02*
X0032195Y0164431D01*
X0032195Y0163633D02*
X0409885Y0163633D01*
X0409885Y0162834D02*
X0032195Y0162834D01*
X0032195Y0162036D02*
X0409885Y0162036D01*
X0409885Y0161237D02*
X0265090Y0161237D01*
X0264997Y0161276D02*
X0263186Y0161276D01*
X0261512Y0160583D01*
X0260232Y0159302D01*
X0259538Y0157629D01*
X0259538Y0155817D01*
X0260232Y0154144D01*
X0261512Y0152863D01*
X0263186Y0152170D01*
X0264997Y0152170D01*
X0266670Y0152863D01*
X0267951Y0154144D01*
X0268644Y0155817D01*
X0268644Y0157629D01*
X0267951Y0159302D01*
X0266670Y0160583D01*
X0264997Y0161276D01*
X0263092Y0161237D02*
X0255090Y0161237D01*
X0254997Y0161276D02*
X0253186Y0161276D01*
X0251512Y0160583D01*
X0250232Y0159302D01*
X0249538Y0157629D01*
X0249538Y0155817D01*
X0250232Y0154144D01*
X0251512Y0152863D01*
X0253186Y0152170D01*
X0254997Y0152170D01*
X0256670Y0152863D01*
X0257951Y0154144D01*
X0258644Y0155817D01*
X0258644Y0157629D01*
X0257951Y0159302D01*
X0256670Y0160583D01*
X0254997Y0161276D01*
X0253092Y0161237D02*
X0245090Y0161237D01*
X0244997Y0161276D02*
X0243186Y0161276D01*
X0241512Y0160583D01*
X0240232Y0159302D01*
X0239538Y0157629D01*
X0239538Y0155817D01*
X0240232Y0154144D01*
X0241512Y0152863D01*
X0243186Y0152170D01*
X0244997Y0152170D01*
X0246670Y0152863D01*
X0247951Y0154144D01*
X0248644Y0155817D01*
X0248644Y0157629D01*
X0247951Y0159302D01*
X0246670Y0160583D01*
X0244997Y0161276D01*
X0243092Y0161237D02*
X0235090Y0161237D01*
X0234997Y0161276D02*
X0233186Y0161276D01*
X0231512Y0160583D01*
X0230232Y0159302D01*
X0229538Y0157629D01*
X0229538Y0155817D01*
X0230232Y0154144D01*
X0231512Y0152863D01*
X0233186Y0152170D01*
X0234997Y0152170D01*
X0236670Y0152863D01*
X0237951Y0154144D01*
X0238644Y0155817D01*
X0238644Y0157629D01*
X0237951Y0159302D01*
X0236670Y0160583D01*
X0234997Y0161276D01*
X0233092Y0161237D02*
X0225090Y0161237D01*
X0224997Y0161276D02*
X0223186Y0161276D01*
X0221512Y0160583D01*
X0220232Y0159302D01*
X0219538Y0157629D01*
X0219538Y0155817D01*
X0220232Y0154144D01*
X0221512Y0152863D01*
X0223186Y0152170D01*
X0224997Y0152170D01*
X0226670Y0152863D01*
X0227951Y0154144D01*
X0228644Y0155817D01*
X0228644Y0157629D01*
X0227951Y0159302D01*
X0226670Y0160583D01*
X0224997Y0161276D01*
X0223092Y0161237D02*
X0215090Y0161237D01*
X0214997Y0161276D02*
X0216670Y0160583D01*
X0217951Y0159302D01*
X0218644Y0157629D01*
X0218644Y0155817D01*
X0217951Y0154144D01*
X0216670Y0152863D01*
X0214997Y0152170D01*
X0213186Y0152170D01*
X0211512Y0152863D01*
X0210232Y0154144D01*
X0209538Y0155817D01*
X0209538Y0157629D01*
X0210232Y0159302D01*
X0211512Y0160583D01*
X0213186Y0161276D01*
X0214997Y0161276D01*
X0213092Y0161237D02*
X0205090Y0161237D01*
X0204997Y0161276D02*
X0203186Y0161276D01*
X0201512Y0160583D01*
X0200232Y0159302D01*
X0199538Y0157629D01*
X0199538Y0155817D01*
X0200232Y0154144D01*
X0201512Y0152863D01*
X0203186Y0152170D01*
X0204997Y0152170D01*
X0206670Y0152863D01*
X0207951Y0154144D01*
X0208644Y0155817D01*
X0208644Y0157629D01*
X0207951Y0159302D01*
X0206670Y0160583D01*
X0204997Y0161276D01*
X0203092Y0161237D02*
X0195090Y0161237D01*
X0194997Y0161276D02*
X0193186Y0161276D01*
X0191512Y0160583D01*
X0190232Y0159302D01*
X0189538Y0157629D01*
X0189538Y0155817D01*
X0190232Y0154144D01*
X0191512Y0152863D01*
X0193186Y0152170D01*
X0194997Y0152170D01*
X0196670Y0152863D01*
X0197951Y0154144D01*
X0198644Y0155817D01*
X0198644Y0157629D01*
X0197951Y0159302D01*
X0196670Y0160583D01*
X0194997Y0161276D01*
X0193092Y0161237D02*
X0185090Y0161237D01*
X0184997Y0161276D02*
X0183186Y0161276D01*
X0181512Y0160583D01*
X0180232Y0159302D01*
X0179538Y0157629D01*
X0179538Y0155817D01*
X0180232Y0154144D01*
X0181512Y0152863D01*
X0183186Y0152170D01*
X0184997Y0152170D01*
X0186670Y0152863D01*
X0187951Y0154144D01*
X0188644Y0155817D01*
X0188644Y0157629D01*
X0187951Y0159302D01*
X0186670Y0160583D01*
X0184997Y0161276D01*
X0183092Y0161237D02*
X0175090Y0161237D01*
X0174997Y0161276D02*
X0173186Y0161276D01*
X0171512Y0160583D01*
X0170232Y0159302D01*
X0169538Y0157629D01*
X0169538Y0155817D01*
X0170232Y0154144D01*
X0171512Y0152863D01*
X0173186Y0152170D01*
X0174997Y0152170D01*
X0176670Y0152863D01*
X0177951Y0154144D01*
X0178644Y0155817D01*
X0178644Y0157629D01*
X0177951Y0159302D01*
X0176670Y0160583D01*
X0174997Y0161276D01*
X0173092Y0161237D02*
X0165090Y0161237D01*
X0164997Y0161276D02*
X0163186Y0161276D01*
X0161512Y0160583D01*
X0160232Y0159302D01*
X0159538Y0157629D01*
X0159538Y0155817D01*
X0160232Y0154144D01*
X0161512Y0152863D01*
X0163186Y0152170D01*
X0164997Y0152170D01*
X0166670Y0152863D01*
X0167951Y0154144D01*
X0168644Y0155817D01*
X0168644Y0157629D01*
X0167951Y0159302D01*
X0166670Y0160583D01*
X0164997Y0161276D01*
X0163092Y0161237D02*
X0155090Y0161237D01*
X0154997Y0161276D02*
X0153186Y0161276D01*
X0151512Y0160583D01*
X0150232Y0159302D01*
X0149538Y0157629D01*
X0149538Y0155817D01*
X0150232Y0154144D01*
X0151512Y0152863D01*
X0153186Y0152170D01*
X0154997Y0152170D01*
X0156670Y0152863D01*
X0157951Y0154144D01*
X0158644Y0155817D01*
X0158644Y0157629D01*
X0157951Y0159302D01*
X0156670Y0160583D01*
X0154997Y0161276D01*
X0153092Y0161237D02*
X0145090Y0161237D01*
X0144997Y0161276D02*
X0143186Y0161276D01*
X0141512Y0160583D01*
X0140232Y0159302D01*
X0139538Y0157629D01*
X0139538Y0155817D01*
X0140232Y0154144D01*
X0141512Y0152863D01*
X0143186Y0152170D01*
X0144997Y0152170D01*
X0146670Y0152863D01*
X0147951Y0154144D01*
X0148644Y0155817D01*
X0148644Y0157629D01*
X0147951Y0159302D01*
X0146670Y0160583D01*
X0144997Y0161276D01*
X0143092Y0161237D02*
X0135090Y0161237D01*
X0134997Y0161276D02*
X0133186Y0161276D01*
X0131512Y0160583D01*
X0130232Y0159302D01*
X0129538Y0157629D01*
X0129538Y0155817D01*
X0130232Y0154144D01*
X0131512Y0152863D01*
X0133186Y0152170D01*
X0134997Y0152170D01*
X0136670Y0152863D01*
X0137951Y0154144D01*
X0138644Y0155817D01*
X0138644Y0157629D01*
X0137951Y0159302D01*
X0136670Y0160583D01*
X0134997Y0161276D01*
X0133092Y0161237D02*
X0032195Y0161237D01*
X0032195Y0160439D02*
X0131368Y0160439D01*
X0130570Y0159640D02*
X0032195Y0159640D01*
X0032195Y0158842D02*
X0130041Y0158842D01*
X0129710Y0158043D02*
X0032195Y0158043D01*
X0032195Y0157245D02*
X0129538Y0157245D01*
X0129538Y0156446D02*
X0032195Y0156446D01*
X0032195Y0155648D02*
X0129609Y0155648D01*
X0129940Y0154849D02*
X0032195Y0154849D01*
X0032195Y0154050D02*
X0130325Y0154050D01*
X0131124Y0153252D02*
X0032195Y0153252D01*
X0032195Y0152453D02*
X0132502Y0152453D01*
X0135680Y0152453D02*
X0142502Y0152453D01*
X0141124Y0153252D02*
X0137059Y0153252D01*
X0137857Y0154050D02*
X0140325Y0154050D01*
X0139940Y0154849D02*
X0138243Y0154849D01*
X0138574Y0155648D02*
X0139609Y0155648D01*
X0139538Y0156446D02*
X0138644Y0156446D01*
X0138644Y0157245D02*
X0139538Y0157245D01*
X0139710Y0158043D02*
X0138472Y0158043D01*
X0138142Y0158842D02*
X0140041Y0158842D01*
X0140570Y0159640D02*
X0137613Y0159640D01*
X0136814Y0160439D02*
X0141368Y0160439D01*
X0146814Y0160439D02*
X0151368Y0160439D01*
X0150570Y0159640D02*
X0147613Y0159640D01*
X0148142Y0158842D02*
X0150041Y0158842D01*
X0149710Y0158043D02*
X0148472Y0158043D01*
X0148644Y0157245D02*
X0149538Y0157245D01*
X0149538Y0156446D02*
X0148644Y0156446D01*
X0148574Y0155648D02*
X0149609Y0155648D01*
X0149940Y0154849D02*
X0148243Y0154849D01*
X0147857Y0154050D02*
X0150325Y0154050D01*
X0151124Y0153252D02*
X0147059Y0153252D01*
X0145680Y0152453D02*
X0152502Y0152453D01*
X0155680Y0152453D02*
X0162502Y0152453D01*
X0161124Y0153252D02*
X0157059Y0153252D01*
X0157857Y0154050D02*
X0160325Y0154050D01*
X0159940Y0154849D02*
X0158243Y0154849D01*
X0158574Y0155648D02*
X0159609Y0155648D01*
X0159538Y0156446D02*
X0158644Y0156446D01*
X0158644Y0157245D02*
X0159538Y0157245D01*
X0159710Y0158043D02*
X0158472Y0158043D01*
X0158142Y0158842D02*
X0160041Y0158842D01*
X0160570Y0159640D02*
X0157613Y0159640D01*
X0156814Y0160439D02*
X0161368Y0160439D01*
X0166814Y0160439D02*
X0171368Y0160439D01*
X0170570Y0159640D02*
X0167613Y0159640D01*
X0168142Y0158842D02*
X0170041Y0158842D01*
X0169710Y0158043D02*
X0168472Y0158043D01*
X0168644Y0157245D02*
X0169538Y0157245D01*
X0169538Y0156446D02*
X0168644Y0156446D01*
X0168574Y0155648D02*
X0169609Y0155648D01*
X0169940Y0154849D02*
X0168243Y0154849D01*
X0167857Y0154050D02*
X0170325Y0154050D01*
X0171124Y0153252D02*
X0167059Y0153252D01*
X0165680Y0152453D02*
X0172502Y0152453D01*
X0175680Y0152453D02*
X0182502Y0152453D01*
X0181124Y0153252D02*
X0177059Y0153252D01*
X0177857Y0154050D02*
X0180325Y0154050D01*
X0179940Y0154849D02*
X0178243Y0154849D01*
X0178574Y0155648D02*
X0179609Y0155648D01*
X0179538Y0156446D02*
X0178644Y0156446D01*
X0178644Y0157245D02*
X0179538Y0157245D01*
X0179710Y0158043D02*
X0178472Y0158043D01*
X0178142Y0158842D02*
X0180041Y0158842D01*
X0180570Y0159640D02*
X0177613Y0159640D01*
X0176814Y0160439D02*
X0181368Y0160439D01*
X0186814Y0160439D02*
X0191368Y0160439D01*
X0190570Y0159640D02*
X0187613Y0159640D01*
X0188142Y0158842D02*
X0190041Y0158842D01*
X0189710Y0158043D02*
X0188472Y0158043D01*
X0188644Y0157245D02*
X0189538Y0157245D01*
X0189538Y0156446D02*
X0188644Y0156446D01*
X0188574Y0155648D02*
X0189609Y0155648D01*
X0189940Y0154849D02*
X0188243Y0154849D01*
X0187857Y0154050D02*
X0190325Y0154050D01*
X0191124Y0153252D02*
X0187059Y0153252D01*
X0185680Y0152453D02*
X0192502Y0152453D01*
X0195680Y0152453D02*
X0202502Y0152453D01*
X0201124Y0153252D02*
X0197059Y0153252D01*
X0197857Y0154050D02*
X0200325Y0154050D01*
X0199940Y0154849D02*
X0198243Y0154849D01*
X0198574Y0155648D02*
X0199609Y0155648D01*
X0199538Y0156446D02*
X0198644Y0156446D01*
X0198644Y0157245D02*
X0199538Y0157245D01*
X0199710Y0158043D02*
X0198472Y0158043D01*
X0198142Y0158842D02*
X0200041Y0158842D01*
X0200570Y0159640D02*
X0197613Y0159640D01*
X0196814Y0160439D02*
X0201368Y0160439D01*
X0206814Y0160439D02*
X0211368Y0160439D01*
X0210570Y0159640D02*
X0207613Y0159640D01*
X0208142Y0158842D02*
X0210041Y0158842D01*
X0209710Y0158043D02*
X0208472Y0158043D01*
X0208644Y0157245D02*
X0209538Y0157245D01*
X0209538Y0156446D02*
X0208644Y0156446D01*
X0208574Y0155648D02*
X0209609Y0155648D01*
X0209940Y0154849D02*
X0208243Y0154849D01*
X0207857Y0154050D02*
X0210325Y0154050D01*
X0211124Y0153252D02*
X0207059Y0153252D01*
X0205680Y0152453D02*
X0212502Y0152453D01*
X0215680Y0152453D02*
X0222502Y0152453D01*
X0221124Y0153252D02*
X0217059Y0153252D01*
X0217857Y0154050D02*
X0220325Y0154050D01*
X0219940Y0154849D02*
X0218243Y0154849D01*
X0218574Y0155648D02*
X0219609Y0155648D01*
X0219538Y0156446D02*
X0218644Y0156446D01*
X0218644Y0157245D02*
X0219538Y0157245D01*
X0219710Y0158043D02*
X0218472Y0158043D01*
X0218142Y0158842D02*
X0220041Y0158842D01*
X0220570Y0159640D02*
X0217613Y0159640D01*
X0216814Y0160439D02*
X0221368Y0160439D01*
X0226814Y0160439D02*
X0231368Y0160439D01*
X0230570Y0159640D02*
X0227613Y0159640D01*
X0228142Y0158842D02*
X0230041Y0158842D01*
X0229710Y0158043D02*
X0228472Y0158043D01*
X0228644Y0157245D02*
X0229538Y0157245D01*
X0229538Y0156446D02*
X0228644Y0156446D01*
X0228574Y0155648D02*
X0229609Y0155648D01*
X0229940Y0154849D02*
X0228243Y0154849D01*
X0227857Y0154050D02*
X0230325Y0154050D01*
X0231124Y0153252D02*
X0227059Y0153252D01*
X0225680Y0152453D02*
X0232502Y0152453D01*
X0235680Y0152453D02*
X0242502Y0152453D01*
X0241124Y0153252D02*
X0237059Y0153252D01*
X0237857Y0154050D02*
X0240325Y0154050D01*
X0239940Y0154849D02*
X0238243Y0154849D01*
X0238574Y0155648D02*
X0239609Y0155648D01*
X0239538Y0156446D02*
X0238644Y0156446D01*
X0238644Y0157245D02*
X0239538Y0157245D01*
X0239710Y0158043D02*
X0238472Y0158043D01*
X0238142Y0158842D02*
X0240041Y0158842D01*
X0240570Y0159640D02*
X0237613Y0159640D01*
X0236814Y0160439D02*
X0241368Y0160439D01*
X0246814Y0160439D02*
X0251368Y0160439D01*
X0250570Y0159640D02*
X0247613Y0159640D01*
X0248142Y0158842D02*
X0250041Y0158842D01*
X0249710Y0158043D02*
X0248472Y0158043D01*
X0248644Y0157245D02*
X0249538Y0157245D01*
X0249538Y0156446D02*
X0248644Y0156446D01*
X0248574Y0155648D02*
X0249609Y0155648D01*
X0249940Y0154849D02*
X0248243Y0154849D01*
X0247857Y0154050D02*
X0250325Y0154050D01*
X0251124Y0153252D02*
X0247059Y0153252D01*
X0245680Y0152453D02*
X0252502Y0152453D01*
X0255680Y0152453D02*
X0262502Y0152453D01*
X0261124Y0153252D02*
X0257059Y0153252D01*
X0257857Y0154050D02*
X0260325Y0154050D01*
X0259940Y0154849D02*
X0258243Y0154849D01*
X0258574Y0155648D02*
X0259609Y0155648D01*
X0259538Y0156446D02*
X0258644Y0156446D01*
X0258644Y0157245D02*
X0259538Y0157245D01*
X0259710Y0158043D02*
X0258472Y0158043D01*
X0258142Y0158842D02*
X0260041Y0158842D01*
X0260570Y0159640D02*
X0257613Y0159640D01*
X0256814Y0160439D02*
X0261368Y0160439D01*
X0266814Y0160439D02*
X0409885Y0160439D01*
X0409885Y0159640D02*
X0267613Y0159640D01*
X0268142Y0158842D02*
X0409885Y0158842D01*
X0409885Y0158043D02*
X0268472Y0158043D01*
X0268644Y0157245D02*
X0409885Y0157245D01*
X0409885Y0156446D02*
X0268644Y0156446D01*
X0268574Y0155648D02*
X0409885Y0155648D01*
X0409885Y0154849D02*
X0268243Y0154849D01*
X0267857Y0154050D02*
X0409885Y0154050D01*
X0409885Y0153252D02*
X0267059Y0153252D01*
X0265680Y0152453D02*
X0409885Y0152453D01*
X0409885Y0151655D02*
X0032195Y0151655D01*
X0032195Y0150856D02*
X0409885Y0150856D01*
X0409885Y0150058D02*
X0292088Y0150058D01*
X0291666Y0150233D02*
X0288524Y0150233D01*
X0285621Y0149030D01*
X0283399Y0146808D01*
X0282196Y0143905D01*
X0282196Y0140762D01*
X0283399Y0137859D01*
X0285621Y0135637D01*
X0288524Y0134434D01*
X0291666Y0134434D01*
X0294570Y0135637D01*
X0296792Y0137859D01*
X0297994Y0140762D01*
X0297994Y0143905D01*
X0296792Y0146808D01*
X0294570Y0149030D01*
X0291666Y0150233D01*
X0294016Y0149259D02*
X0409885Y0149259D01*
X0409885Y0148461D02*
X0295139Y0148461D01*
X0295937Y0147662D02*
X0409885Y0147662D01*
X0409885Y0146864D02*
X0296736Y0146864D01*
X0297099Y0146065D02*
X0409885Y0146065D01*
X0409885Y0145267D02*
X0297430Y0145267D01*
X0297761Y0144468D02*
X0409885Y0144468D01*
X0409885Y0143670D02*
X0297994Y0143670D01*
X0297994Y0142871D02*
X0409885Y0142871D01*
X0409885Y0142073D02*
X0297994Y0142073D01*
X0297994Y0141274D02*
X0409885Y0141274D01*
X0409885Y0140476D02*
X0297876Y0140476D01*
X0297545Y0139677D02*
X0409885Y0139677D01*
X0409885Y0138879D02*
X0297214Y0138879D01*
X0296883Y0138080D02*
X0409885Y0138080D01*
X0409885Y0137282D02*
X0296215Y0137282D01*
X0295416Y0136483D02*
X0409885Y0136483D01*
X0409885Y0135685D02*
X0294618Y0135685D01*
X0292758Y0134886D02*
X0409885Y0134886D01*
X0409885Y0134088D02*
X0032195Y0134088D01*
X0032195Y0134886D02*
X0287432Y0134886D01*
X0285573Y0135685D02*
X0032195Y0135685D01*
X0032195Y0136483D02*
X0284774Y0136483D01*
X0283976Y0137282D02*
X0032195Y0137282D01*
X0032195Y0138080D02*
X0283307Y0138080D01*
X0282976Y0138879D02*
X0032195Y0138879D01*
X0032195Y0139677D02*
X0282645Y0139677D01*
X0282315Y0140476D02*
X0032195Y0140476D01*
X0032195Y0141274D02*
X0282196Y0141274D01*
X0282196Y0142073D02*
X0032195Y0142073D01*
X0032195Y0142871D02*
X0282196Y0142871D01*
X0282196Y0143670D02*
X0032195Y0143670D01*
X0032195Y0144468D02*
X0282429Y0144468D01*
X0282760Y0145267D02*
X0032195Y0145267D01*
X0032195Y0146065D02*
X0283091Y0146065D01*
X0283455Y0146864D02*
X0032195Y0146864D01*
X0032195Y0147662D02*
X0284253Y0147662D01*
X0285052Y0148461D02*
X0032195Y0148461D01*
X0032195Y0149259D02*
X0286175Y0149259D01*
X0288102Y0150058D02*
X0032195Y0150058D01*
X0032195Y0133289D02*
X0409885Y0133289D01*
X0409885Y0132491D02*
X0032195Y0132491D01*
X0032195Y0131692D02*
X0178765Y0131692D01*
X0178180Y0131450D02*
X0177229Y0130499D01*
X0176714Y0129256D01*
X0176714Y0127911D01*
X0177229Y0126668D01*
X0177295Y0126602D01*
X0177295Y0105565D01*
X0177229Y0105499D01*
X0176714Y0104256D01*
X0176714Y0102911D01*
X0177229Y0101668D01*
X0178180Y0100717D01*
X0179423Y0100202D01*
X0180768Y0100202D01*
X0182010Y0100717D01*
X0182961Y0101668D01*
X0183476Y0102911D01*
X0183476Y0104256D01*
X0182961Y0105499D01*
X0182895Y0105565D01*
X0182895Y0126602D01*
X0182961Y0126668D01*
X0183476Y0127911D01*
X0183476Y0129256D01*
X0182961Y0130499D01*
X0182010Y0131450D01*
X0180768Y0131964D01*
X0179423Y0131964D01*
X0178180Y0131450D01*
X0177624Y0130894D02*
X0032195Y0130894D01*
X0032195Y0130095D02*
X0177062Y0130095D01*
X0176731Y0129297D02*
X0032195Y0129297D01*
X0032195Y0128498D02*
X0176714Y0128498D01*
X0176802Y0127700D02*
X0032195Y0127700D01*
X0032195Y0126901D02*
X0177132Y0126901D01*
X0177295Y0126103D02*
X0032195Y0126103D01*
X0032195Y0125304D02*
X0177295Y0125304D01*
X0177295Y0124506D02*
X0032195Y0124506D01*
X0032195Y0123707D02*
X0177295Y0123707D01*
X0177295Y0122909D02*
X0032195Y0122909D01*
X0032195Y0122110D02*
X0177295Y0122110D01*
X0177295Y0121312D02*
X0032195Y0121312D01*
X0032195Y0120513D02*
X0177295Y0120513D01*
X0177295Y0119714D02*
X0032195Y0119714D01*
X0032195Y0118916D02*
X0177295Y0118916D01*
X0177295Y0118117D02*
X0032195Y0118117D01*
X0032195Y0117319D02*
X0177295Y0117319D01*
X0177295Y0116520D02*
X0032195Y0116520D01*
X0032195Y0115722D02*
X0177295Y0115722D01*
X0177295Y0114923D02*
X0032195Y0114923D01*
X0032195Y0114125D02*
X0177295Y0114125D01*
X0177295Y0113326D02*
X0032195Y0113326D01*
X0032195Y0112528D02*
X0177295Y0112528D01*
X0177295Y0111729D02*
X0032195Y0111729D01*
X0032195Y0110931D02*
X0177295Y0110931D01*
X0177295Y0110132D02*
X0032195Y0110132D01*
X0032195Y0109334D02*
X0177295Y0109334D01*
X0177295Y0108535D02*
X0032195Y0108535D01*
X0032195Y0107737D02*
X0177295Y0107737D01*
X0177295Y0106938D02*
X0032195Y0106938D01*
X0032195Y0106140D02*
X0177295Y0106140D01*
X0177164Y0105341D02*
X0032195Y0105341D01*
X0032195Y0104543D02*
X0176833Y0104543D01*
X0176714Y0103744D02*
X0032195Y0103744D01*
X0032195Y0102946D02*
X0176714Y0102946D01*
X0177030Y0102147D02*
X0032195Y0102147D01*
X0032195Y0101349D02*
X0177548Y0101349D01*
X0178582Y0100550D02*
X0032195Y0100550D01*
X0032195Y0099752D02*
X0409885Y0099752D01*
X0409885Y0100550D02*
X0181608Y0100550D01*
X0182642Y0101349D02*
X0409885Y0101349D01*
X0409885Y0102147D02*
X0183160Y0102147D01*
X0183476Y0102946D02*
X0409885Y0102946D01*
X0409885Y0103744D02*
X0183476Y0103744D01*
X0183357Y0104543D02*
X0409885Y0104543D01*
X0409885Y0105341D02*
X0183027Y0105341D01*
X0182895Y0106140D02*
X0409885Y0106140D01*
X0409885Y0106938D02*
X0182895Y0106938D01*
X0182895Y0107737D02*
X0409885Y0107737D01*
X0409885Y0108535D02*
X0182895Y0108535D01*
X0182895Y0109334D02*
X0409885Y0109334D01*
X0409885Y0110132D02*
X0182895Y0110132D01*
X0182895Y0110931D02*
X0409885Y0110931D01*
X0409885Y0111729D02*
X0182895Y0111729D01*
X0182895Y0112528D02*
X0409885Y0112528D01*
X0409885Y0113326D02*
X0182895Y0113326D01*
X0182895Y0114125D02*
X0409885Y0114125D01*
X0409885Y0114923D02*
X0182895Y0114923D01*
X0182895Y0115722D02*
X0409885Y0115722D01*
X0409885Y0116520D02*
X0182895Y0116520D01*
X0182895Y0117319D02*
X0409885Y0117319D01*
X0409885Y0118117D02*
X0182895Y0118117D01*
X0182895Y0118916D02*
X0409885Y0118916D01*
X0409885Y0119714D02*
X0182895Y0119714D01*
X0182895Y0120513D02*
X0409885Y0120513D01*
X0409885Y0121312D02*
X0182895Y0121312D01*
X0182895Y0122110D02*
X0409885Y0122110D01*
X0409885Y0122909D02*
X0182895Y0122909D01*
X0182895Y0123707D02*
X0409885Y0123707D01*
X0409885Y0124506D02*
X0182895Y0124506D01*
X0182895Y0125304D02*
X0409885Y0125304D01*
X0409885Y0126103D02*
X0182895Y0126103D01*
X0183058Y0126901D02*
X0409885Y0126901D01*
X0409885Y0127700D02*
X0183389Y0127700D01*
X0183476Y0128498D02*
X0409885Y0128498D01*
X0409885Y0129297D02*
X0183459Y0129297D01*
X0183129Y0130095D02*
X0409885Y0130095D01*
X0409885Y0130894D02*
X0182566Y0130894D01*
X0181425Y0131692D02*
X0409885Y0131692D01*
X0409885Y0098953D02*
X0032195Y0098953D01*
X0032195Y0098155D02*
X0409885Y0098155D01*
X0409885Y0097356D02*
X0032195Y0097356D01*
X0032195Y0096558D02*
X0409885Y0096558D01*
X0409885Y0095759D02*
X0032195Y0095759D01*
X0032195Y0094961D02*
X0409885Y0094961D01*
X0409885Y0094162D02*
X0032195Y0094162D01*
X0032195Y0093364D02*
X0409885Y0093364D01*
X0409885Y0092565D02*
X0032195Y0092565D01*
X0032195Y0091767D02*
X0409885Y0091767D01*
X0409885Y0090968D02*
X0032195Y0090968D01*
X0032195Y0090170D02*
X0409885Y0090170D01*
X0409885Y0089371D02*
X0032195Y0089371D01*
X0032195Y0088573D02*
X0409885Y0088573D01*
X0409885Y0087774D02*
X0032195Y0087774D01*
X0032195Y0086976D02*
X0409885Y0086976D01*
X0409885Y0086177D02*
X0032195Y0086177D01*
X0032195Y0085379D02*
X0409885Y0085379D01*
X0409885Y0084580D02*
X0032195Y0084580D01*
X0032195Y0083781D02*
X0409885Y0083781D01*
X0409885Y0082983D02*
X0032195Y0082983D01*
X0032195Y0082184D02*
X0409885Y0082184D01*
X0409885Y0081386D02*
X0032195Y0081386D01*
X0032195Y0080587D02*
X0409885Y0080587D01*
X0409885Y0079789D02*
X0032195Y0079789D01*
X0032195Y0078990D02*
X0409885Y0078990D01*
X0409885Y0078192D02*
X0032195Y0078192D01*
X0032195Y0077393D02*
X0409885Y0077393D01*
X0409885Y0076595D02*
X0032195Y0076595D01*
X0032195Y0075796D02*
X0409885Y0075796D01*
X0409885Y0074998D02*
X0032195Y0074998D01*
X0032195Y0074199D02*
X0409885Y0074199D01*
X0409885Y0073401D02*
X0032195Y0073401D01*
X0032195Y0072602D02*
X0409885Y0072602D01*
X0409885Y0071804D02*
X0032195Y0071804D01*
X0032195Y0071005D02*
X0409885Y0071005D01*
X0409885Y0070207D02*
X0032195Y0070207D01*
X0032195Y0069408D02*
X0409885Y0069408D01*
X0409885Y0068610D02*
X0032195Y0068610D01*
X0032195Y0067811D02*
X0409885Y0067811D01*
X0409885Y0067013D02*
X0032195Y0067013D01*
X0032195Y0066214D02*
X0409885Y0066214D01*
X0409885Y0065416D02*
X0032195Y0065416D01*
X0032195Y0064617D02*
X0409885Y0064617D01*
X0409885Y0063819D02*
X0032195Y0063819D01*
X0032195Y0063020D02*
X0409885Y0063020D01*
X0409885Y0062222D02*
X0032195Y0062222D01*
X0032195Y0061423D02*
X0409885Y0061423D01*
X0409885Y0060625D02*
X0032195Y0060625D01*
X0032195Y0059826D02*
X0409885Y0059826D01*
X0409885Y0059028D02*
X0032195Y0059028D01*
X0032195Y0058229D02*
X0409885Y0058229D01*
X0409885Y0057431D02*
X0032195Y0057431D01*
X0032195Y0056632D02*
X0409885Y0056632D01*
X0409885Y0055834D02*
X0032195Y0055834D01*
X0032195Y0055035D02*
X0409885Y0055035D01*
X0409885Y0054237D02*
X0032195Y0054237D01*
X0032195Y0053438D02*
X0409885Y0053438D01*
X0409885Y0052640D02*
X0032195Y0052640D01*
X0032195Y0051841D02*
X0409885Y0051841D01*
X0409885Y0051043D02*
X0032195Y0051043D01*
X0032195Y0050244D02*
X0409885Y0050244D01*
X0409885Y0049445D02*
X0032195Y0049445D01*
X0032195Y0048647D02*
X0409885Y0048647D01*
X0409885Y0047848D02*
X0032195Y0047848D01*
X0032195Y0047050D02*
X0409885Y0047050D01*
X0409885Y0046251D02*
X0032195Y0046251D01*
X0032195Y0045453D02*
X0409885Y0045453D01*
X0409885Y0044654D02*
X0032195Y0044654D01*
X0032195Y0043856D02*
X0409885Y0043856D01*
X0409885Y0043057D02*
X0032195Y0043057D01*
X0032195Y0042259D02*
X0409885Y0042259D01*
X0409885Y0041460D02*
X0032195Y0041460D01*
X0032195Y0040662D02*
X0409885Y0040662D01*
X0409885Y0039863D02*
X0292558Y0039863D01*
X0291666Y0040233D02*
X0288524Y0040233D01*
X0285621Y0039030D01*
X0283399Y0036808D01*
X0282196Y0033905D01*
X0282196Y0030762D01*
X0283399Y0027859D01*
X0285621Y0025637D01*
X0288524Y0024434D01*
X0291666Y0024434D01*
X0294570Y0025637D01*
X0296792Y0027859D01*
X0297994Y0030762D01*
X0297994Y0033905D01*
X0296792Y0036808D01*
X0294570Y0039030D01*
X0291666Y0040233D01*
X0294485Y0039065D02*
X0409885Y0039065D01*
X0409885Y0038266D02*
X0295333Y0038266D01*
X0296132Y0037468D02*
X0409885Y0037468D01*
X0409885Y0036669D02*
X0296849Y0036669D01*
X0297180Y0035871D02*
X0409885Y0035871D01*
X0409885Y0035072D02*
X0297511Y0035072D01*
X0297841Y0034274D02*
X0409885Y0034274D01*
X0409885Y0033475D02*
X0297994Y0033475D01*
X0297994Y0032677D02*
X0409885Y0032677D01*
X0409885Y0031878D02*
X0297994Y0031878D01*
X0297994Y0031080D02*
X0409885Y0031080D01*
X0409885Y0030281D02*
X0297795Y0030281D01*
X0297464Y0029483D02*
X0409885Y0029483D01*
X0409885Y0028684D02*
X0297134Y0028684D01*
X0296803Y0027886D02*
X0409885Y0027886D01*
X0409885Y0027087D02*
X0296020Y0027087D01*
X0295222Y0026289D02*
X0409885Y0026289D01*
X0409885Y0025490D02*
X0294216Y0025490D01*
X0292288Y0024692D02*
X0409885Y0024692D01*
X0409885Y0023893D02*
X0032195Y0023893D01*
X0032195Y0023095D02*
X0409885Y0023095D01*
X0409885Y0022296D02*
X0032195Y0022296D01*
X0032195Y0021498D02*
X0409885Y0021498D01*
X0409885Y0020699D02*
X0032195Y0020699D01*
X0032195Y0019901D02*
X0077722Y0019901D01*
X0078524Y0020233D02*
X0075621Y0019030D01*
X0073399Y0016808D01*
X0072196Y0013905D01*
X0072196Y0010762D01*
X0073399Y0007859D01*
X0075621Y0005637D01*
X0078524Y0004434D01*
X0081666Y0004434D01*
X0084570Y0005637D01*
X0086792Y0007859D01*
X0087994Y0010762D01*
X0087994Y0013905D01*
X0086792Y0016808D01*
X0084570Y0019030D01*
X0081666Y0020233D01*
X0078524Y0020233D01*
X0075795Y0019102D02*
X0032195Y0019102D01*
X0032195Y0018304D02*
X0074894Y0018304D01*
X0074096Y0017505D02*
X0032195Y0017505D01*
X0032195Y0016707D02*
X0073357Y0016707D01*
X0073026Y0015908D02*
X0032195Y0015908D01*
X0032195Y0015110D02*
X0072695Y0015110D01*
X0072364Y0014311D02*
X0032195Y0014311D01*
X0032195Y0013512D02*
X0072196Y0013512D01*
X0072196Y0012714D02*
X0032195Y0012714D01*
X0032195Y0011915D02*
X0072196Y0011915D01*
X0072196Y0011117D02*
X0032195Y0011117D01*
X0032195Y0010318D02*
X0072380Y0010318D01*
X0072710Y0009520D02*
X0032249Y0009520D01*
X0032456Y0008721D02*
X0073041Y0008721D01*
X0073372Y0007923D02*
X0032715Y0007923D01*
X0033160Y0007124D02*
X0074133Y0007124D01*
X0074931Y0006326D02*
X0033740Y0006326D01*
X0034708Y0005527D02*
X0075885Y0005527D01*
X0077812Y0004729D02*
X0036375Y0004729D01*
X0032195Y0024692D02*
X0287902Y0024692D01*
X0285974Y0025490D02*
X0032195Y0025490D01*
X0032195Y0026289D02*
X0284969Y0026289D01*
X0284170Y0027087D02*
X0032195Y0027087D01*
X0032195Y0027886D02*
X0283387Y0027886D01*
X0283057Y0028684D02*
X0032195Y0028684D01*
X0032195Y0029483D02*
X0282726Y0029483D01*
X0282395Y0030281D02*
X0032195Y0030281D01*
X0032195Y0031080D02*
X0282196Y0031080D01*
X0282196Y0031878D02*
X0032195Y0031878D01*
X0032195Y0032677D02*
X0282196Y0032677D01*
X0282196Y0033475D02*
X0032195Y0033475D01*
X0032195Y0034274D02*
X0282349Y0034274D01*
X0282680Y0035072D02*
X0032195Y0035072D01*
X0032195Y0035871D02*
X0283010Y0035871D01*
X0283341Y0036669D02*
X0032195Y0036669D01*
X0032195Y0037468D02*
X0284058Y0037468D01*
X0284857Y0038266D02*
X0032195Y0038266D01*
X0032195Y0039065D02*
X0285705Y0039065D01*
X0287633Y0039863D02*
X0032195Y0039863D01*
X0082468Y0019901D02*
X0409885Y0019901D01*
X0409885Y0019102D02*
X0084396Y0019102D01*
X0085296Y0018304D02*
X0409885Y0018304D01*
X0409885Y0017505D02*
X0086095Y0017505D01*
X0086834Y0016707D02*
X0138242Y0016707D01*
X0137405Y0016360D02*
X0136069Y0015024D01*
X0135346Y0013278D01*
X0135346Y0011389D01*
X0136069Y0009643D01*
X0137405Y0008307D01*
X0139150Y0007584D01*
X0141040Y0007584D01*
X0142786Y0008307D01*
X0144122Y0009643D01*
X0144845Y0011389D01*
X0144845Y0013278D01*
X0144122Y0015024D01*
X0142786Y0016360D01*
X0141040Y0017083D01*
X0139150Y0017083D01*
X0137405Y0016360D01*
X0136953Y0015908D02*
X0087164Y0015908D01*
X0087495Y0015110D02*
X0136154Y0015110D01*
X0135773Y0014311D02*
X0087826Y0014311D01*
X0087994Y0013512D02*
X0135443Y0013512D01*
X0135346Y0012714D02*
X0087994Y0012714D01*
X0087994Y0011915D02*
X0135346Y0011915D01*
X0135458Y0011117D02*
X0087994Y0011117D01*
X0087811Y0010318D02*
X0135789Y0010318D01*
X0136192Y0009520D02*
X0087480Y0009520D01*
X0087149Y0008721D02*
X0136990Y0008721D01*
X0138331Y0007923D02*
X0086818Y0007923D01*
X0086057Y0007124D02*
X0408920Y0007124D01*
X0409365Y0007923D02*
X0281859Y0007923D01*
X0281040Y0007584D02*
X0282786Y0008307D01*
X0284122Y0009643D01*
X0284845Y0011389D01*
X0284845Y0013278D01*
X0284122Y0015024D01*
X0282786Y0016360D01*
X0281040Y0017083D01*
X0279150Y0017083D01*
X0277405Y0016360D01*
X0276069Y0015024D01*
X0275346Y0013278D01*
X0275346Y0011389D01*
X0276069Y0009643D01*
X0277405Y0008307D01*
X0279150Y0007584D01*
X0281040Y0007584D01*
X0283200Y0008721D02*
X0409625Y0008721D01*
X0409831Y0009520D02*
X0283999Y0009520D01*
X0284401Y0010318D02*
X0409885Y0010318D01*
X0409885Y0011117D02*
X0284732Y0011117D01*
X0284845Y0011915D02*
X0409885Y0011915D01*
X0409885Y0012714D02*
X0284845Y0012714D01*
X0284748Y0013512D02*
X0409885Y0013512D01*
X0409885Y0014311D02*
X0284417Y0014311D01*
X0284036Y0015110D02*
X0409885Y0015110D01*
X0409885Y0015908D02*
X0283237Y0015908D01*
X0281949Y0016707D02*
X0409885Y0016707D01*
X0408340Y0006326D02*
X0085259Y0006326D01*
X0084306Y0005527D02*
X0407372Y0005527D01*
X0405705Y0004729D02*
X0082378Y0004729D01*
X0141859Y0007923D02*
X0148331Y0007923D01*
X0149150Y0007584D02*
X0147405Y0008307D01*
X0146069Y0009643D01*
X0145346Y0011389D01*
X0145346Y0013278D01*
X0146069Y0015024D01*
X0147405Y0016360D01*
X0149150Y0017083D01*
X0151040Y0017083D01*
X0152786Y0016360D01*
X0154122Y0015024D01*
X0154845Y0013278D01*
X0154845Y0011389D01*
X0154122Y0009643D01*
X0152786Y0008307D01*
X0151040Y0007584D01*
X0149150Y0007584D01*
X0146990Y0008721D02*
X0143200Y0008721D01*
X0143999Y0009520D02*
X0146192Y0009520D01*
X0145789Y0010318D02*
X0144401Y0010318D01*
X0144732Y0011117D02*
X0145458Y0011117D01*
X0145346Y0011915D02*
X0144845Y0011915D01*
X0144845Y0012714D02*
X0145346Y0012714D01*
X0145443Y0013512D02*
X0144748Y0013512D01*
X0144417Y0014311D02*
X0145773Y0014311D01*
X0146154Y0015110D02*
X0144036Y0015110D01*
X0143237Y0015908D02*
X0146953Y0015908D01*
X0148242Y0016707D02*
X0141949Y0016707D01*
X0151949Y0016707D02*
X0158242Y0016707D01*
X0157405Y0016360D02*
X0156069Y0015024D01*
X0155346Y0013278D01*
X0155346Y0011389D01*
X0156069Y0009643D01*
X0157405Y0008307D01*
X0159150Y0007584D01*
X0161040Y0007584D01*
X0162786Y0008307D01*
X0164122Y0009643D01*
X0164845Y0011389D01*
X0164845Y0013278D01*
X0164122Y0015024D01*
X0162786Y0016360D01*
X0161040Y0017083D01*
X0159150Y0017083D01*
X0157405Y0016360D01*
X0156953Y0015908D02*
X0153237Y0015908D01*
X0154036Y0015110D02*
X0156154Y0015110D01*
X0155773Y0014311D02*
X0154417Y0014311D01*
X0154748Y0013512D02*
X0155443Y0013512D01*
X0155346Y0012714D02*
X0154845Y0012714D01*
X0154845Y0011915D02*
X0155346Y0011915D01*
X0155458Y0011117D02*
X0154732Y0011117D01*
X0154401Y0010318D02*
X0155789Y0010318D01*
X0156192Y0009520D02*
X0153999Y0009520D01*
X0153200Y0008721D02*
X0156990Y0008721D01*
X0158331Y0007923D02*
X0151859Y0007923D01*
X0161859Y0007923D02*
X0168331Y0007923D01*
X0169150Y0007584D02*
X0167405Y0008307D01*
X0166069Y0009643D01*
X0165346Y0011389D01*
X0165346Y0013278D01*
X0166069Y0015024D01*
X0167405Y0016360D01*
X0169150Y0017083D01*
X0171040Y0017083D01*
X0172786Y0016360D01*
X0174122Y0015024D01*
X0174845Y0013278D01*
X0174845Y0011389D01*
X0174122Y0009643D01*
X0172786Y0008307D01*
X0171040Y0007584D01*
X0169150Y0007584D01*
X0166990Y0008721D02*
X0163200Y0008721D01*
X0163999Y0009520D02*
X0166192Y0009520D01*
X0165789Y0010318D02*
X0164401Y0010318D01*
X0164732Y0011117D02*
X0165458Y0011117D01*
X0165346Y0011915D02*
X0164845Y0011915D01*
X0164845Y0012714D02*
X0165346Y0012714D01*
X0165443Y0013512D02*
X0164748Y0013512D01*
X0164417Y0014311D02*
X0165773Y0014311D01*
X0166154Y0015110D02*
X0164036Y0015110D01*
X0163237Y0015908D02*
X0166953Y0015908D01*
X0168242Y0016707D02*
X0161949Y0016707D01*
X0171949Y0016707D02*
X0178242Y0016707D01*
X0177405Y0016360D02*
X0179150Y0017083D01*
X0181040Y0017083D01*
X0182786Y0016360D01*
X0184122Y0015024D01*
X0184845Y0013278D01*
X0184845Y0011389D01*
X0184122Y0009643D01*
X0182786Y0008307D01*
X0181040Y0007584D01*
X0179150Y0007584D01*
X0177405Y0008307D01*
X0176069Y0009643D01*
X0175346Y0011389D01*
X0175346Y0013278D01*
X0176069Y0015024D01*
X0177405Y0016360D01*
X0176953Y0015908D02*
X0173237Y0015908D01*
X0174036Y0015110D02*
X0176154Y0015110D01*
X0175773Y0014311D02*
X0174417Y0014311D01*
X0174748Y0013512D02*
X0175443Y0013512D01*
X0175346Y0012714D02*
X0174845Y0012714D01*
X0174845Y0011915D02*
X0175346Y0011915D01*
X0175458Y0011117D02*
X0174732Y0011117D01*
X0174401Y0010318D02*
X0175789Y0010318D01*
X0176192Y0009520D02*
X0173999Y0009520D01*
X0173200Y0008721D02*
X0176990Y0008721D01*
X0178331Y0007923D02*
X0171859Y0007923D01*
X0181859Y0007923D02*
X0208331Y0007923D01*
X0209150Y0007584D02*
X0207405Y0008307D01*
X0206069Y0009643D01*
X0205346Y0011389D01*
X0205346Y0013278D01*
X0206069Y0015024D01*
X0207405Y0016360D01*
X0209150Y0017083D01*
X0211040Y0017083D01*
X0212786Y0016360D01*
X0214122Y0015024D01*
X0214845Y0013278D01*
X0214845Y0011389D01*
X0214122Y0009643D01*
X0212786Y0008307D01*
X0211040Y0007584D01*
X0209150Y0007584D01*
X0206990Y0008721D02*
X0183200Y0008721D01*
X0183999Y0009520D02*
X0206192Y0009520D01*
X0205789Y0010318D02*
X0184401Y0010318D01*
X0184732Y0011117D02*
X0205458Y0011117D01*
X0205346Y0011915D02*
X0184845Y0011915D01*
X0184845Y0012714D02*
X0205346Y0012714D01*
X0205443Y0013512D02*
X0184748Y0013512D01*
X0184417Y0014311D02*
X0205773Y0014311D01*
X0206154Y0015110D02*
X0184036Y0015110D01*
X0183237Y0015908D02*
X0206953Y0015908D01*
X0208242Y0016707D02*
X0181949Y0016707D01*
X0211949Y0016707D02*
X0228242Y0016707D01*
X0227405Y0016360D02*
X0229150Y0017083D01*
X0231040Y0017083D01*
X0232786Y0016360D01*
X0234122Y0015024D01*
X0234845Y0013278D01*
X0234845Y0011389D01*
X0234122Y0009643D01*
X0232786Y0008307D01*
X0231040Y0007584D01*
X0229150Y0007584D01*
X0227405Y0008307D01*
X0226069Y0009643D01*
X0225346Y0011389D01*
X0225346Y0013278D01*
X0226069Y0015024D01*
X0227405Y0016360D01*
X0226953Y0015908D02*
X0213237Y0015908D01*
X0214036Y0015110D02*
X0226154Y0015110D01*
X0225773Y0014311D02*
X0214417Y0014311D01*
X0214748Y0013512D02*
X0225443Y0013512D01*
X0225346Y0012714D02*
X0214845Y0012714D01*
X0214845Y0011915D02*
X0225346Y0011915D01*
X0225458Y0011117D02*
X0214732Y0011117D01*
X0214401Y0010318D02*
X0225789Y0010318D01*
X0226192Y0009520D02*
X0213999Y0009520D01*
X0213200Y0008721D02*
X0226990Y0008721D01*
X0228331Y0007923D02*
X0211859Y0007923D01*
X0231859Y0007923D02*
X0238331Y0007923D01*
X0239150Y0007584D02*
X0237405Y0008307D01*
X0236069Y0009643D01*
X0235346Y0011389D01*
X0235346Y0013278D01*
X0236069Y0015024D01*
X0237405Y0016360D01*
X0239150Y0017083D01*
X0241040Y0017083D01*
X0242786Y0016360D01*
X0244122Y0015024D01*
X0244845Y0013278D01*
X0244845Y0011389D01*
X0244122Y0009643D01*
X0242786Y0008307D01*
X0241040Y0007584D01*
X0239150Y0007584D01*
X0236990Y0008721D02*
X0233200Y0008721D01*
X0233999Y0009520D02*
X0236192Y0009520D01*
X0235789Y0010318D02*
X0234401Y0010318D01*
X0234732Y0011117D02*
X0235458Y0011117D01*
X0235346Y0011915D02*
X0234845Y0011915D01*
X0234845Y0012714D02*
X0235346Y0012714D01*
X0235443Y0013512D02*
X0234748Y0013512D01*
X0234417Y0014311D02*
X0235773Y0014311D01*
X0236154Y0015110D02*
X0234036Y0015110D01*
X0233237Y0015908D02*
X0236953Y0015908D01*
X0238242Y0016707D02*
X0231949Y0016707D01*
X0241949Y0016707D02*
X0248242Y0016707D01*
X0247405Y0016360D02*
X0249150Y0017083D01*
X0251040Y0017083D01*
X0252786Y0016360D01*
X0254122Y0015024D01*
X0254845Y0013278D01*
X0254845Y0011389D01*
X0254122Y0009643D01*
X0252786Y0008307D01*
X0251040Y0007584D01*
X0249150Y0007584D01*
X0247405Y0008307D01*
X0246069Y0009643D01*
X0245346Y0011389D01*
X0245346Y0013278D01*
X0246069Y0015024D01*
X0247405Y0016360D01*
X0246953Y0015908D02*
X0243237Y0015908D01*
X0244036Y0015110D02*
X0246154Y0015110D01*
X0245773Y0014311D02*
X0244417Y0014311D01*
X0244748Y0013512D02*
X0245443Y0013512D01*
X0245346Y0012714D02*
X0244845Y0012714D01*
X0244845Y0011915D02*
X0245346Y0011915D01*
X0245458Y0011117D02*
X0244732Y0011117D01*
X0244401Y0010318D02*
X0245789Y0010318D01*
X0246192Y0009520D02*
X0243999Y0009520D01*
X0243200Y0008721D02*
X0246990Y0008721D01*
X0248331Y0007923D02*
X0241859Y0007923D01*
X0251859Y0007923D02*
X0258331Y0007923D01*
X0259150Y0007584D02*
X0257405Y0008307D01*
X0256069Y0009643D01*
X0255346Y0011389D01*
X0255346Y0013278D01*
X0256069Y0015024D01*
X0257405Y0016360D01*
X0259150Y0017083D01*
X0261040Y0017083D01*
X0262786Y0016360D01*
X0264122Y0015024D01*
X0264845Y0013278D01*
X0264845Y0011389D01*
X0264122Y0009643D01*
X0262786Y0008307D01*
X0261040Y0007584D01*
X0259150Y0007584D01*
X0256990Y0008721D02*
X0253200Y0008721D01*
X0253999Y0009520D02*
X0256192Y0009520D01*
X0255789Y0010318D02*
X0254401Y0010318D01*
X0254732Y0011117D02*
X0255458Y0011117D01*
X0255346Y0011915D02*
X0254845Y0011915D01*
X0254845Y0012714D02*
X0255346Y0012714D01*
X0255443Y0013512D02*
X0254748Y0013512D01*
X0254417Y0014311D02*
X0255773Y0014311D01*
X0256154Y0015110D02*
X0254036Y0015110D01*
X0253237Y0015908D02*
X0256953Y0015908D01*
X0258242Y0016707D02*
X0251949Y0016707D01*
X0261949Y0016707D02*
X0268242Y0016707D01*
X0267405Y0016360D02*
X0266069Y0015024D01*
X0265346Y0013278D01*
X0265346Y0011389D01*
X0266069Y0009643D01*
X0267405Y0008307D01*
X0269150Y0007584D01*
X0271040Y0007584D01*
X0272786Y0008307D01*
X0274122Y0009643D01*
X0274845Y0011389D01*
X0274845Y0013278D01*
X0274122Y0015024D01*
X0272786Y0016360D01*
X0271040Y0017083D01*
X0269150Y0017083D01*
X0267405Y0016360D01*
X0266953Y0015908D02*
X0263237Y0015908D01*
X0264036Y0015110D02*
X0266154Y0015110D01*
X0265773Y0014311D02*
X0264417Y0014311D01*
X0264748Y0013512D02*
X0265443Y0013512D01*
X0265346Y0012714D02*
X0264845Y0012714D01*
X0264845Y0011915D02*
X0265346Y0011915D01*
X0265458Y0011117D02*
X0264732Y0011117D01*
X0264401Y0010318D02*
X0265789Y0010318D01*
X0266192Y0009520D02*
X0263999Y0009520D01*
X0263200Y0008721D02*
X0266990Y0008721D01*
X0268331Y0007923D02*
X0261859Y0007923D01*
X0271859Y0007923D02*
X0278331Y0007923D01*
X0276990Y0008721D02*
X0273200Y0008721D01*
X0273999Y0009520D02*
X0276192Y0009520D01*
X0275789Y0010318D02*
X0274401Y0010318D01*
X0274732Y0011117D02*
X0275458Y0011117D01*
X0275346Y0011915D02*
X0274845Y0011915D01*
X0274845Y0012714D02*
X0275346Y0012714D01*
X0275443Y0013512D02*
X0274748Y0013512D01*
X0274417Y0014311D02*
X0275773Y0014311D01*
X0276154Y0015110D02*
X0274036Y0015110D01*
X0273237Y0015908D02*
X0276953Y0015908D01*
X0278242Y0016707D02*
X0271949Y0016707D01*
X0271040Y0197584D02*
X0272786Y0198307D01*
X0274122Y0199643D01*
X0274845Y0201389D01*
X0274845Y0203278D01*
X0274122Y0205024D01*
X0272786Y0206360D01*
X0271040Y0207083D01*
X0269150Y0207083D01*
X0267405Y0206360D01*
X0266069Y0205024D01*
X0265346Y0203278D01*
X0265346Y0201389D01*
X0266069Y0199643D01*
X0267405Y0198307D01*
X0269150Y0197584D01*
X0271040Y0197584D01*
X0271969Y0197969D02*
X0278221Y0197969D01*
X0277405Y0198307D02*
X0279150Y0197584D01*
X0281040Y0197584D01*
X0282786Y0198307D01*
X0284122Y0199643D01*
X0284845Y0201389D01*
X0284845Y0203278D01*
X0284122Y0205024D01*
X0282786Y0206360D01*
X0281040Y0207083D01*
X0279150Y0207083D01*
X0277405Y0206360D01*
X0276069Y0205024D01*
X0275346Y0203278D01*
X0275346Y0201389D01*
X0276069Y0199643D01*
X0277405Y0198307D01*
X0276944Y0198767D02*
X0273246Y0198767D01*
X0274044Y0199566D02*
X0276146Y0199566D01*
X0275770Y0200364D02*
X0274420Y0200364D01*
X0274751Y0201163D02*
X0275439Y0201163D01*
X0275346Y0201961D02*
X0274845Y0201961D01*
X0274845Y0202760D02*
X0275346Y0202760D01*
X0275462Y0203558D02*
X0274729Y0203558D01*
X0274398Y0204357D02*
X0275792Y0204357D01*
X0276200Y0205155D02*
X0273990Y0205155D01*
X0273192Y0205954D02*
X0276999Y0205954D01*
X0278352Y0206752D02*
X0271838Y0206752D01*
X0268352Y0206752D02*
X0261838Y0206752D01*
X0261040Y0207083D02*
X0259150Y0207083D01*
X0257405Y0206360D01*
X0256069Y0205024D01*
X0255346Y0203278D01*
X0255346Y0201389D01*
X0256069Y0199643D01*
X0257405Y0198307D01*
X0259150Y0197584D01*
X0261040Y0197584D01*
X0262786Y0198307D01*
X0264122Y0199643D01*
X0264845Y0201389D01*
X0264845Y0203278D01*
X0264122Y0205024D01*
X0262786Y0206360D01*
X0261040Y0207083D01*
X0263192Y0205954D02*
X0266999Y0205954D01*
X0266200Y0205155D02*
X0263990Y0205155D01*
X0264398Y0204357D02*
X0265792Y0204357D01*
X0265462Y0203558D02*
X0264729Y0203558D01*
X0264845Y0202760D02*
X0265346Y0202760D01*
X0265346Y0201961D02*
X0264845Y0201961D01*
X0264751Y0201163D02*
X0265439Y0201163D01*
X0265770Y0200364D02*
X0264420Y0200364D01*
X0264044Y0199566D02*
X0266146Y0199566D01*
X0266944Y0198767D02*
X0263246Y0198767D01*
X0261969Y0197969D02*
X0268221Y0197969D01*
X0258221Y0197969D02*
X0251969Y0197969D01*
X0252786Y0198307D02*
X0251040Y0197584D01*
X0249150Y0197584D01*
X0247405Y0198307D01*
X0246069Y0199643D01*
X0245346Y0201389D01*
X0245346Y0203278D01*
X0246069Y0205024D01*
X0247405Y0206360D01*
X0249150Y0207083D01*
X0251040Y0207083D01*
X0252786Y0206360D01*
X0254122Y0205024D01*
X0254845Y0203278D01*
X0254845Y0201389D01*
X0254122Y0199643D01*
X0252786Y0198307D01*
X0253246Y0198767D02*
X0256944Y0198767D01*
X0256146Y0199566D02*
X0254044Y0199566D01*
X0254420Y0200364D02*
X0255770Y0200364D01*
X0255439Y0201163D02*
X0254751Y0201163D01*
X0254845Y0201961D02*
X0255346Y0201961D01*
X0255346Y0202760D02*
X0254845Y0202760D01*
X0254729Y0203558D02*
X0255462Y0203558D01*
X0255792Y0204357D02*
X0254398Y0204357D01*
X0253990Y0205155D02*
X0256200Y0205155D01*
X0256999Y0205954D02*
X0253192Y0205954D01*
X0251838Y0206752D02*
X0258352Y0206752D01*
X0248352Y0206752D02*
X0241838Y0206752D01*
X0241040Y0207083D02*
X0239150Y0207083D01*
X0237405Y0206360D01*
X0236069Y0205024D01*
X0235346Y0203278D01*
X0235346Y0201389D01*
X0236069Y0199643D01*
X0237405Y0198307D01*
X0239150Y0197584D01*
X0241040Y0197584D01*
X0242786Y0198307D01*
X0244122Y0199643D01*
X0244845Y0201389D01*
X0244845Y0203278D01*
X0244122Y0205024D01*
X0242786Y0206360D01*
X0241040Y0207083D01*
X0243192Y0205954D02*
X0246999Y0205954D01*
X0246200Y0205155D02*
X0243990Y0205155D01*
X0244398Y0204357D02*
X0245792Y0204357D01*
X0245462Y0203558D02*
X0244729Y0203558D01*
X0244845Y0202760D02*
X0245346Y0202760D01*
X0245346Y0201961D02*
X0244845Y0201961D01*
X0244751Y0201163D02*
X0245439Y0201163D01*
X0245770Y0200364D02*
X0244420Y0200364D01*
X0244044Y0199566D02*
X0246146Y0199566D01*
X0246944Y0198767D02*
X0243246Y0198767D01*
X0241969Y0197969D02*
X0248221Y0197969D01*
X0238221Y0197969D02*
X0231969Y0197969D01*
X0232786Y0198307D02*
X0234122Y0199643D01*
X0234845Y0201389D01*
X0234845Y0203278D01*
X0234122Y0205024D01*
X0232786Y0206360D01*
X0231040Y0207083D01*
X0229150Y0207083D01*
X0227405Y0206360D01*
X0226069Y0205024D01*
X0225346Y0203278D01*
X0225346Y0201389D01*
X0226069Y0199643D01*
X0227405Y0198307D01*
X0229150Y0197584D01*
X0231040Y0197584D01*
X0232786Y0198307D01*
X0233246Y0198767D02*
X0236944Y0198767D01*
X0236146Y0199566D02*
X0234044Y0199566D01*
X0234420Y0200364D02*
X0235770Y0200364D01*
X0235439Y0201163D02*
X0234751Y0201163D01*
X0234845Y0201961D02*
X0235346Y0201961D01*
X0235346Y0202760D02*
X0234845Y0202760D01*
X0234729Y0203558D02*
X0235462Y0203558D01*
X0235792Y0204357D02*
X0234398Y0204357D01*
X0233990Y0205155D02*
X0236200Y0205155D01*
X0236999Y0205954D02*
X0233192Y0205954D01*
X0231838Y0206752D02*
X0238352Y0206752D01*
X0228352Y0206752D02*
X0221838Y0206752D01*
X0221040Y0207083D02*
X0219150Y0207083D01*
X0217405Y0206360D01*
X0216069Y0205024D01*
X0215346Y0203278D01*
X0215346Y0201389D01*
X0216069Y0199643D01*
X0217405Y0198307D01*
X0219150Y0197584D01*
X0221040Y0197584D01*
X0222786Y0198307D01*
X0224122Y0199643D01*
X0224845Y0201389D01*
X0224845Y0203278D01*
X0224122Y0205024D01*
X0222786Y0206360D01*
X0221040Y0207083D01*
X0223192Y0205954D02*
X0226999Y0205954D01*
X0226200Y0205155D02*
X0223990Y0205155D01*
X0224398Y0204357D02*
X0225792Y0204357D01*
X0225462Y0203558D02*
X0224729Y0203558D01*
X0224845Y0202760D02*
X0225346Y0202760D01*
X0225346Y0201961D02*
X0224845Y0201961D01*
X0224751Y0201163D02*
X0225439Y0201163D01*
X0225770Y0200364D02*
X0224420Y0200364D01*
X0224044Y0199566D02*
X0226146Y0199566D01*
X0226944Y0198767D02*
X0223246Y0198767D01*
X0221969Y0197969D02*
X0228221Y0197969D01*
X0218221Y0197969D02*
X0211969Y0197969D01*
X0212786Y0198307D02*
X0211040Y0197584D01*
X0209150Y0197584D01*
X0207405Y0198307D01*
X0206069Y0199643D01*
X0205346Y0201389D01*
X0205346Y0203278D01*
X0206069Y0205024D01*
X0207405Y0206360D01*
X0209150Y0207083D01*
X0211040Y0207083D01*
X0212786Y0206360D01*
X0214122Y0205024D01*
X0214845Y0203278D01*
X0214845Y0201389D01*
X0214122Y0199643D01*
X0212786Y0198307D01*
X0213246Y0198767D02*
X0216944Y0198767D01*
X0216146Y0199566D02*
X0214044Y0199566D01*
X0214420Y0200364D02*
X0215770Y0200364D01*
X0215439Y0201163D02*
X0214751Y0201163D01*
X0214845Y0201961D02*
X0215346Y0201961D01*
X0215346Y0202760D02*
X0214845Y0202760D01*
X0214729Y0203558D02*
X0215462Y0203558D01*
X0215792Y0204357D02*
X0214398Y0204357D01*
X0213990Y0205155D02*
X0216200Y0205155D01*
X0216999Y0205954D02*
X0213192Y0205954D01*
X0211838Y0206752D02*
X0218352Y0206752D01*
X0208352Y0206752D02*
X0195838Y0206752D01*
X0195040Y0207083D02*
X0193150Y0207083D01*
X0191405Y0206360D01*
X0190069Y0205024D01*
X0189346Y0203278D01*
X0189346Y0201389D01*
X0190069Y0199643D01*
X0191405Y0198307D01*
X0193150Y0197584D01*
X0195040Y0197584D01*
X0196786Y0198307D01*
X0198122Y0199643D01*
X0198845Y0201389D01*
X0198845Y0203278D01*
X0198122Y0205024D01*
X0196786Y0206360D01*
X0195040Y0207083D01*
X0197192Y0205954D02*
X0206999Y0205954D01*
X0206200Y0205155D02*
X0197990Y0205155D01*
X0198398Y0204357D02*
X0205792Y0204357D01*
X0205462Y0203558D02*
X0198729Y0203558D01*
X0198845Y0202760D02*
X0205346Y0202760D01*
X0205346Y0201961D02*
X0198845Y0201961D01*
X0198751Y0201163D02*
X0205439Y0201163D01*
X0205770Y0200364D02*
X0198420Y0200364D01*
X0198044Y0199566D02*
X0206146Y0199566D01*
X0206944Y0198767D02*
X0197246Y0198767D01*
X0195969Y0197969D02*
X0208221Y0197969D01*
X0192221Y0197969D02*
X0185969Y0197969D01*
X0186786Y0198307D02*
X0185040Y0197584D01*
X0183150Y0197584D01*
X0181405Y0198307D01*
X0180069Y0199643D01*
X0179346Y0201389D01*
X0179346Y0203278D01*
X0180069Y0205024D01*
X0181405Y0206360D01*
X0183150Y0207083D01*
X0185040Y0207083D01*
X0186786Y0206360D01*
X0188122Y0205024D01*
X0188845Y0203278D01*
X0188845Y0201389D01*
X0188122Y0199643D01*
X0186786Y0198307D01*
X0187246Y0198767D02*
X0190944Y0198767D01*
X0190146Y0199566D02*
X0188044Y0199566D01*
X0188420Y0200364D02*
X0189770Y0200364D01*
X0189439Y0201163D02*
X0188751Y0201163D01*
X0188845Y0201961D02*
X0189346Y0201961D01*
X0189346Y0202760D02*
X0188845Y0202760D01*
X0188729Y0203558D02*
X0189462Y0203558D01*
X0189792Y0204357D02*
X0188398Y0204357D01*
X0187990Y0205155D02*
X0190200Y0205155D01*
X0190999Y0205954D02*
X0187192Y0205954D01*
X0185838Y0206752D02*
X0192352Y0206752D01*
X0182352Y0206752D02*
X0175838Y0206752D01*
X0175040Y0207083D02*
X0173150Y0207083D01*
X0171405Y0206360D01*
X0170069Y0205024D01*
X0169346Y0203278D01*
X0169346Y0201389D01*
X0170069Y0199643D01*
X0171405Y0198307D01*
X0173150Y0197584D01*
X0175040Y0197584D01*
X0176786Y0198307D01*
X0178122Y0199643D01*
X0178845Y0201389D01*
X0178845Y0203278D01*
X0178122Y0205024D01*
X0176786Y0206360D01*
X0175040Y0207083D01*
X0177192Y0205954D02*
X0180999Y0205954D01*
X0180200Y0205155D02*
X0177990Y0205155D01*
X0178398Y0204357D02*
X0179792Y0204357D01*
X0179462Y0203558D02*
X0178729Y0203558D01*
X0178845Y0202760D02*
X0179346Y0202760D01*
X0179346Y0201961D02*
X0178845Y0201961D01*
X0178751Y0201163D02*
X0179439Y0201163D01*
X0179770Y0200364D02*
X0178420Y0200364D01*
X0178044Y0199566D02*
X0180146Y0199566D01*
X0180944Y0198767D02*
X0177246Y0198767D01*
X0175969Y0197969D02*
X0182221Y0197969D01*
X0172221Y0197969D02*
X0165969Y0197969D01*
X0166786Y0198307D02*
X0168122Y0199643D01*
X0168845Y0201389D01*
X0168845Y0203278D01*
X0168122Y0205024D01*
X0166786Y0206360D01*
X0165040Y0207083D01*
X0163150Y0207083D01*
X0161405Y0206360D01*
X0160069Y0205024D01*
X0159346Y0203278D01*
X0159346Y0201389D01*
X0160069Y0199643D01*
X0161405Y0198307D01*
X0163150Y0197584D01*
X0165040Y0197584D01*
X0166786Y0198307D01*
X0167246Y0198767D02*
X0170944Y0198767D01*
X0170146Y0199566D02*
X0168044Y0199566D01*
X0168420Y0200364D02*
X0169770Y0200364D01*
X0169439Y0201163D02*
X0168751Y0201163D01*
X0168845Y0201961D02*
X0169346Y0201961D01*
X0169346Y0202760D02*
X0168845Y0202760D01*
X0168729Y0203558D02*
X0169462Y0203558D01*
X0169792Y0204357D02*
X0168398Y0204357D01*
X0167990Y0205155D02*
X0170200Y0205155D01*
X0170999Y0205954D02*
X0167192Y0205954D01*
X0165838Y0206752D02*
X0172352Y0206752D01*
X0162352Y0206752D02*
X0155838Y0206752D01*
X0155040Y0207083D02*
X0153150Y0207083D01*
X0151405Y0206360D01*
X0150069Y0205024D01*
X0149346Y0203278D01*
X0149346Y0201389D01*
X0150069Y0199643D01*
X0151405Y0198307D01*
X0153150Y0197584D01*
X0155040Y0197584D01*
X0156786Y0198307D01*
X0158122Y0199643D01*
X0158845Y0201389D01*
X0158845Y0203278D01*
X0158122Y0205024D01*
X0156786Y0206360D01*
X0155040Y0207083D01*
X0157192Y0205954D02*
X0160999Y0205954D01*
X0160200Y0205155D02*
X0157990Y0205155D01*
X0158398Y0204357D02*
X0159792Y0204357D01*
X0159462Y0203558D02*
X0158729Y0203558D01*
X0158845Y0202760D02*
X0159346Y0202760D01*
X0159346Y0201961D02*
X0158845Y0201961D01*
X0158751Y0201163D02*
X0159439Y0201163D01*
X0159770Y0200364D02*
X0158420Y0200364D01*
X0158044Y0199566D02*
X0160146Y0199566D01*
X0160944Y0198767D02*
X0157246Y0198767D01*
X0155969Y0197969D02*
X0162221Y0197969D01*
X0152221Y0197969D02*
X0145969Y0197969D01*
X0146786Y0198307D02*
X0145040Y0197584D01*
X0143150Y0197584D01*
X0141405Y0198307D01*
X0140069Y0199643D01*
X0139346Y0201389D01*
X0139346Y0203278D01*
X0140069Y0205024D01*
X0141405Y0206360D01*
X0143150Y0207083D01*
X0145040Y0207083D01*
X0146786Y0206360D01*
X0148122Y0205024D01*
X0148845Y0203278D01*
X0148845Y0201389D01*
X0148122Y0199643D01*
X0146786Y0198307D01*
X0147246Y0198767D02*
X0150944Y0198767D01*
X0150146Y0199566D02*
X0148044Y0199566D01*
X0148420Y0200364D02*
X0149770Y0200364D01*
X0149439Y0201163D02*
X0148751Y0201163D01*
X0148845Y0201961D02*
X0149346Y0201961D01*
X0149346Y0202760D02*
X0148845Y0202760D01*
X0148729Y0203558D02*
X0149462Y0203558D01*
X0149792Y0204357D02*
X0148398Y0204357D01*
X0147990Y0205155D02*
X0150200Y0205155D01*
X0150999Y0205954D02*
X0147192Y0205954D01*
X0145838Y0206752D02*
X0152352Y0206752D01*
X0142352Y0206752D02*
X0135838Y0206752D01*
X0135040Y0207083D02*
X0133150Y0207083D01*
X0131405Y0206360D01*
X0130069Y0205024D01*
X0129346Y0203278D01*
X0129346Y0201389D01*
X0130069Y0199643D01*
X0131405Y0198307D01*
X0133150Y0197584D01*
X0135040Y0197584D01*
X0136786Y0198307D01*
X0138122Y0199643D01*
X0138845Y0201389D01*
X0138845Y0203278D01*
X0138122Y0205024D01*
X0136786Y0206360D01*
X0135040Y0207083D01*
X0137192Y0205954D02*
X0140999Y0205954D01*
X0140200Y0205155D02*
X0137990Y0205155D01*
X0138398Y0204357D02*
X0139792Y0204357D01*
X0139462Y0203558D02*
X0138729Y0203558D01*
X0138845Y0202760D02*
X0139346Y0202760D01*
X0139346Y0201961D02*
X0138845Y0201961D01*
X0138751Y0201163D02*
X0139439Y0201163D01*
X0139770Y0200364D02*
X0138420Y0200364D01*
X0138044Y0199566D02*
X0140146Y0199566D01*
X0140944Y0198767D02*
X0137246Y0198767D01*
X0135969Y0197969D02*
X0142221Y0197969D01*
X0132221Y0197969D02*
X0125969Y0197969D01*
X0126786Y0198307D02*
X0125040Y0197584D01*
X0123150Y0197584D01*
X0121405Y0198307D01*
X0120069Y0199643D01*
X0119346Y0201389D01*
X0119346Y0203278D01*
X0120069Y0205024D01*
X0121405Y0206360D01*
X0123150Y0207083D01*
X0125040Y0207083D01*
X0126786Y0206360D01*
X0128122Y0205024D01*
X0128845Y0203278D01*
X0128845Y0201389D01*
X0128122Y0199643D01*
X0126786Y0198307D01*
X0127246Y0198767D02*
X0130944Y0198767D01*
X0130146Y0199566D02*
X0128044Y0199566D01*
X0128420Y0200364D02*
X0129770Y0200364D01*
X0129439Y0201163D02*
X0128751Y0201163D01*
X0128845Y0201961D02*
X0129346Y0201961D01*
X0129346Y0202760D02*
X0128845Y0202760D01*
X0128729Y0203558D02*
X0129462Y0203558D01*
X0129792Y0204357D02*
X0128398Y0204357D01*
X0127990Y0205155D02*
X0130200Y0205155D01*
X0130999Y0205954D02*
X0127192Y0205954D01*
X0125838Y0206752D02*
X0132352Y0206752D01*
X0122352Y0206752D02*
X0115838Y0206752D01*
X0115040Y0207083D02*
X0116786Y0206360D01*
X0118122Y0205024D01*
X0118845Y0203278D01*
X0118845Y0201389D01*
X0118122Y0199643D01*
X0116786Y0198307D01*
X0115040Y0197584D01*
X0113150Y0197584D01*
X0111405Y0198307D01*
X0110069Y0199643D01*
X0109346Y0201389D01*
X0109346Y0203278D01*
X0110069Y0205024D01*
X0111405Y0206360D01*
X0113150Y0207083D01*
X0115040Y0207083D01*
X0117192Y0205954D02*
X0120999Y0205954D01*
X0120200Y0205155D02*
X0117990Y0205155D01*
X0118398Y0204357D02*
X0119792Y0204357D01*
X0119462Y0203558D02*
X0118729Y0203558D01*
X0118845Y0202760D02*
X0119346Y0202760D01*
X0119346Y0201961D02*
X0118845Y0201961D01*
X0118751Y0201163D02*
X0119439Y0201163D01*
X0119770Y0200364D02*
X0118420Y0200364D01*
X0118044Y0199566D02*
X0120146Y0199566D01*
X0120944Y0198767D02*
X0117246Y0198767D01*
X0115969Y0197969D02*
X0122221Y0197969D01*
X0112221Y0197969D02*
X0105969Y0197969D01*
X0106786Y0198307D02*
X0105040Y0197584D01*
X0103150Y0197584D01*
X0101405Y0198307D01*
X0100069Y0199643D01*
X0099346Y0201389D01*
X0099346Y0203278D01*
X0100069Y0205024D01*
X0101405Y0206360D01*
X0103150Y0207083D01*
X0105040Y0207083D01*
X0106786Y0206360D01*
X0108122Y0205024D01*
X0108845Y0203278D01*
X0108845Y0201389D01*
X0108122Y0199643D01*
X0106786Y0198307D01*
X0107246Y0198767D02*
X0110944Y0198767D01*
X0110146Y0199566D02*
X0108044Y0199566D01*
X0108420Y0200364D02*
X0109770Y0200364D01*
X0109439Y0201163D02*
X0108751Y0201163D01*
X0108845Y0201961D02*
X0109346Y0201961D01*
X0109346Y0202760D02*
X0108845Y0202760D01*
X0108729Y0203558D02*
X0109462Y0203558D01*
X0109792Y0204357D02*
X0108398Y0204357D01*
X0107990Y0205155D02*
X0110200Y0205155D01*
X0110999Y0205954D02*
X0107192Y0205954D01*
X0105838Y0206752D02*
X0112352Y0206752D01*
X0102352Y0206752D02*
X0096815Y0206752D01*
X0097146Y0205954D02*
X0100999Y0205954D01*
X0100200Y0205155D02*
X0097476Y0205155D01*
X0097807Y0204357D02*
X0099792Y0204357D01*
X0099462Y0203558D02*
X0097994Y0203558D01*
X0097994Y0202760D02*
X0099346Y0202760D01*
X0099346Y0201961D02*
X0097994Y0201961D01*
X0097994Y0201163D02*
X0099439Y0201163D01*
X0099770Y0200364D02*
X0097830Y0200364D01*
X0097499Y0199566D02*
X0100146Y0199566D01*
X0100944Y0198767D02*
X0097168Y0198767D01*
X0096837Y0197969D02*
X0102221Y0197969D01*
X0096103Y0197170D02*
X0409885Y0197170D01*
X0409885Y0196372D02*
X0095305Y0196372D01*
X0094416Y0195573D02*
X0409885Y0195573D01*
X0409885Y0194775D02*
X0092488Y0194775D01*
X0096049Y0207551D02*
X0409885Y0207551D01*
X0409885Y0208349D02*
X0095250Y0208349D01*
X0094285Y0209148D02*
X0409885Y0209148D01*
X0409885Y0209946D02*
X0092357Y0209946D01*
X0085485Y0233103D02*
X0262383Y0233103D01*
X0262383Y0233902D02*
X0086445Y0233902D01*
X0086932Y0234700D02*
X0262383Y0234700D01*
X0262383Y0235499D02*
X0087226Y0235499D01*
X0087226Y0236297D02*
X0262383Y0236297D01*
X0262383Y0237096D02*
X0087085Y0237096D01*
X0086755Y0237894D02*
X0262383Y0237894D01*
X0262383Y0238693D02*
X0086645Y0238693D01*
X0086645Y0239491D02*
X0262766Y0239491D01*
X0263137Y0232305D02*
X0032195Y0232305D01*
X0032195Y0233103D02*
X0082205Y0233103D01*
X0081245Y0233902D02*
X0032195Y0233902D01*
X0032195Y0234700D02*
X0080758Y0234700D01*
X0080464Y0235499D02*
X0032195Y0235499D01*
X0032195Y0236297D02*
X0080464Y0236297D01*
X0080605Y0237096D02*
X0032195Y0237096D01*
X0032195Y0237894D02*
X0080936Y0237894D01*
X0081045Y0238693D02*
X0032195Y0238693D01*
X0032195Y0239491D02*
X0081045Y0239491D01*
X0081045Y0240290D02*
X0032195Y0240290D01*
X0032195Y0241088D02*
X0081045Y0241088D01*
X0081045Y0241887D02*
X0032195Y0241887D01*
X0032195Y0242685D02*
X0081045Y0242685D01*
X0080744Y0243484D02*
X0032195Y0243484D01*
X0032195Y0244282D02*
X0080464Y0244282D01*
X0080464Y0245081D02*
X0032195Y0245081D01*
X0032195Y0245879D02*
X0080619Y0245879D01*
X0080949Y0246678D02*
X0032195Y0246678D01*
X0032195Y0247476D02*
X0081707Y0247476D01*
X0075348Y0325730D02*
X0132343Y0325730D01*
X0130620Y0326529D02*
X0077071Y0326529D01*
X0077869Y0327327D02*
X0129821Y0327327D01*
X0129147Y0328126D02*
X0078544Y0328126D01*
X0078874Y0328924D02*
X0128816Y0328924D01*
X0128485Y0329723D02*
X0079205Y0329723D01*
X0079284Y0330521D02*
X0128407Y0330521D01*
X0128407Y0331320D02*
X0079284Y0331320D01*
X0079284Y0332119D02*
X0128407Y0332119D01*
X0128407Y0332917D02*
X0079284Y0332917D01*
X0079284Y0333716D02*
X0128407Y0333716D01*
X0128407Y0334514D02*
X0079284Y0334514D01*
X0079284Y0335313D02*
X0128407Y0335313D01*
X0128407Y0336111D02*
X0079284Y0336111D01*
X0079284Y0336910D02*
X0128407Y0336910D01*
X0128407Y0337708D02*
X0079284Y0337708D01*
X0079284Y0338507D02*
X0128407Y0338507D01*
X0128407Y0339305D02*
X0079284Y0339305D01*
X0079139Y0340104D02*
X0128552Y0340104D01*
X0128882Y0340902D02*
X0078808Y0340902D01*
X0078477Y0341701D02*
X0129213Y0341701D01*
X0129981Y0342499D02*
X0077709Y0342499D01*
X0076889Y0343298D02*
X0130801Y0343298D01*
X0132729Y0344096D02*
X0074961Y0344096D01*
X0184958Y0230708D02*
X0187732Y0230708D01*
X0187383Y0230358D02*
X0187383Y0224308D01*
X0188320Y0223371D01*
X0194370Y0223371D01*
X0195307Y0224308D01*
X0195307Y0230358D01*
X0194370Y0231296D01*
X0188320Y0231296D01*
X0187383Y0230358D01*
X0187383Y0229909D02*
X0185307Y0229909D01*
X0185307Y0229111D02*
X0187383Y0229111D01*
X0187383Y0228312D02*
X0185307Y0228312D01*
X0185307Y0227514D02*
X0187383Y0227514D01*
X0187383Y0226715D02*
X0185307Y0226715D01*
X0185307Y0225916D02*
X0187383Y0225916D01*
X0187383Y0225118D02*
X0185307Y0225118D01*
X0185307Y0224319D02*
X0187383Y0224319D01*
X0188170Y0223521D02*
X0184520Y0223521D01*
X0194520Y0223521D02*
X0409885Y0223521D01*
X0409885Y0224319D02*
X0195307Y0224319D01*
X0195307Y0225118D02*
X0409885Y0225118D01*
X0409885Y0225916D02*
X0195307Y0225916D01*
X0195307Y0226715D02*
X0409885Y0226715D01*
X0409885Y0227514D02*
X0195307Y0227514D01*
X0195307Y0228312D02*
X0409885Y0228312D01*
X0409885Y0229111D02*
X0195307Y0229111D01*
X0195307Y0229909D02*
X0409885Y0229909D01*
X0409885Y0230708D02*
X0194958Y0230708D01*
X0281838Y0206752D02*
X0409885Y0206752D01*
X0409885Y0205954D02*
X0283192Y0205954D01*
X0283990Y0205155D02*
X0409885Y0205155D01*
X0409885Y0204357D02*
X0284398Y0204357D01*
X0284729Y0203558D02*
X0409885Y0203558D01*
X0409885Y0202760D02*
X0284845Y0202760D01*
X0284845Y0201961D02*
X0409885Y0201961D01*
X0409885Y0201163D02*
X0284751Y0201163D01*
X0284420Y0200364D02*
X0409885Y0200364D01*
X0409885Y0199566D02*
X0284044Y0199566D01*
X0283246Y0198767D02*
X0409885Y0198767D01*
X0409885Y0197969D02*
X0281969Y0197969D01*
D21*
X0266345Y0236083D03*
X0236345Y0289833D03*
X0198845Y0251083D03*
X0191345Y0227333D03*
X0181345Y0227333D03*
X0226345Y0341083D03*
M02*
