%
M48
M72
T01C0.0157
T02C0.0236
T03C0.0315
T04C0.0354
T05C0.0394
T06C0.0512
T07C0.0787
T08C0.0906
T09C0.1299
T10C0.1693
%
T01
X14953Y32112
X15203Y31800
X15203Y32425
X20765Y28737
X20453Y26112
X19703Y25612
X19203Y25737
X21453Y25237
X21765Y24925
X21765Y25550
X24015Y26987
X24453Y27425
X24765Y26425
X27453Y26737
X32015Y26987
X32453Y27425
X32765Y26425
X35328Y26050
X35390Y26425
X34203Y22862
X33953Y22487
X33828Y20737
X33640Y20425
X33390Y20112
X32953Y20112
X32828Y20487
X32015Y19112
X32078Y18737
X31703Y18737
X32453Y18362
X32015Y18300
X32015Y17550
X32515Y17550
X33453Y17487
X33828Y17612
X33265Y19050
X34140Y19175
X34703Y19487
X36203Y19237
X36328Y19987
X36328Y20362
X36328Y20737
X35328Y16862
X33453Y16362
X31078Y17175
X30453Y16925
X30328Y16237
X29828Y16175
X29453Y16362
X28765Y15612
X29078Y15362
X28828Y14737
X26203Y15987
X25890Y15675
X25203Y15487
X25203Y15112
X23578Y16737
X23203Y16737
X22828Y16737
X23070Y18362
X22086Y18362
X20203Y18487
X19828Y18550
X19828Y21112
X24328Y18550
X25578Y19050
X26453Y19050
X26828Y18737
X27203Y18612
X27390Y19050
X27578Y19362
X28265Y20050
X28578Y19737
X27828Y20737
X27828Y21237
X27203Y20425
X26828Y20112
X25953Y19862
X27578Y16987
X31890Y13050
X31203Y12362
X25265Y12925
X24890Y12925
X25265Y9987
X25515Y9487
X21953Y8112
X17265Y11175
X16328Y10237
X15203Y9362
X14953Y12737
X14578Y12737
X13203Y12612
X13203Y12987
X13203Y14612
X13203Y14987
X13703Y14987
X13703Y14612
X10203Y13737
X10203Y16487
X29515Y21300
T02
X10078Y28487
X10578Y28487
X13902Y28557
X14453Y28557
X15004Y28557
X15004Y28006
X14453Y28006
X13902Y28006
X13902Y27455
X14453Y27455
X15004Y27455
X15203Y25987
X14328Y24987
X13578Y24862
X14328Y23487
X16453Y23487
X16453Y24987
X19953Y26487
X19953Y26987
X20453Y26737
X21578Y25987
X22078Y25987
X22578Y25987
X22328Y27455
X22879Y27455
X22879Y28006
X22879Y28557
X22328Y28557
X22328Y28006
X21777Y28006
X21777Y28557
X21777Y27455
X23828Y29612
X24328Y29612
X24828Y29612
X25777Y28557
X26328Y28557
X26879Y28557
X26879Y28006
X26328Y28006
X25777Y28006
X25777Y27455
X26328Y27455
X26879Y27455
X26578Y25987
X26078Y25987
X25578Y25987
X24328Y25862
X26203Y24925
X26703Y24925
X27203Y24925
X25828Y23237
X25078Y22737
X25078Y22237
X25953Y22237
X25953Y21612
X27015Y20800
X27828Y21862
X29578Y23362
X29953Y23987
X30828Y23987
X31703Y23987
X32453Y23987
X32828Y23237
X33203Y23237
X31453Y22112
X30953Y22112
X29703Y19675
X30578Y18987
X28703Y18237
X27453Y18237
X27453Y17550
X26453Y17987
X26453Y18487
X25453Y20612
X23011Y18756
X23011Y17969
X22145Y17969
X22145Y18756
X20453Y19737
X20453Y20362
X19953Y20612
X20453Y20987
X20453Y21612
X19203Y20237
X18453Y20237
X18453Y19612
X19203Y19612
X19203Y18987
X18453Y18987
X17703Y18987
X17703Y19612
X17703Y20237
X16953Y20237
X16203Y20237
X16203Y20862
X16203Y21487
X17487Y21653
X18078Y21653
X18668Y21653
X18668Y21062
X18078Y21062
X17487Y21062
X16953Y19612
X16203Y19612
X16203Y18987
X16578Y18487
X16953Y18987
X16078Y17987
X15453Y17987
X14828Y17987
X14203Y17987
X13578Y18487
X13953Y18987
X14703Y18987
X15453Y18987
X15703Y16987
X15203Y16987
X14703Y16987
X13703Y16987
X13004Y16682
X13004Y16131
X12453Y16131
X12453Y16682
X11902Y16682
X11902Y16131
X11902Y15580
X12453Y15580
X13004Y15580
X14402Y15645
X14953Y15645
X15504Y15645
X15504Y15094
X14953Y15094
X14402Y15094
X14402Y14542
X14953Y14542
X15504Y14542
X16328Y16987
X17487Y17322
X17487Y17912
X18078Y17912
X18078Y17322
X18668Y17322
X18668Y17912
X20828Y16550
X21203Y16550
X21578Y16550
X21953Y16112
X22453Y16112
X21703Y15425
X21328Y15425
X20953Y15425
X20953Y15050
X20953Y14675
X20953Y13987
X20203Y13987
X19578Y14362
X19578Y14862
X22578Y12737
X22578Y12112
X20453Y11487
X16703Y11237
X15703Y10237
X15828Y9362
X16203Y9362
X16578Y9362
X16578Y8112
X16953Y8112
X16203Y8112
X15828Y8112
X15453Y8112
X18203Y7612
X18203Y7237
X19328Y3737
X19953Y3737
X20578Y3737
X21203Y3737
X21828Y3737
X24140Y3362
X24765Y3362
X25390Y3362
X26015Y3362
X26078Y4237
X26703Y4237
X27605Y4097
X28078Y4097
X28550Y4097
X28078Y3362
X27453Y3362
X27328Y5237
X27953Y5237
X28578Y5237
X28578Y5925
X29203Y5925
X29203Y6612
X29828Y6612
X29765Y7300
X29515Y7612
X29265Y7300
X29265Y7925
X29765Y7925
X28550Y7877
X28078Y7877
X27605Y7877
X27328Y6612
X27953Y6612
X28578Y6612
X27953Y5925
X27328Y5925
X26703Y5925
X26078Y5925
X25453Y5925
X24828Y5925
X24203Y5925
X24203Y6612
X24828Y6612
X25453Y6612
X26078Y6612
X26703Y6612
X26703Y5237
X26078Y5237
X29953Y3737
X29953Y3237
X32015Y7362
X32453Y7362
X32265Y7737
X32453Y8112
X32890Y8112
X32703Y7737
X32890Y7362
X32015Y8112
X31203Y8862
X31203Y9362
X31203Y9862
X31203Y10362
X31203Y10862
X31203Y11362
X30703Y11362
X30703Y10862
X30203Y10862
X30203Y11362
X29703Y11362
X29703Y10862
X28846Y10876
X28453Y10876
X28059Y10876
X28059Y11348
X28453Y11348
X28846Y11348
X29703Y11862
X30203Y11862
X30703Y11862
X31203Y11862
X29328Y14050
X28703Y14050
X27453Y12862
X27203Y10987
X27203Y10487
X27203Y9987
X26703Y9987
X26703Y10487
X26703Y10987
X26703Y9487
X27203Y9487
X30453Y14862
X30453Y15362
X32703Y14987
X33203Y15425
X33953Y14112
X33578Y13862
X33953Y13612
X33578Y13362
X33953Y13112
X33578Y12862
X35828Y12862
X36328Y12862
X36828Y12862
X39203Y15237
X39203Y15737
X35078Y18550
X35078Y18925
X33453Y17987
X36828Y21237
X37328Y21237
X37828Y21237
X37828Y21737
X37328Y21737
X36828Y21737
X36203Y22987
X35828Y22987
X34078Y24862
X34078Y25237
X34078Y25925
X34578Y25925
X33578Y25925
X32078Y25862
X30578Y25987
X30078Y25987
X29578Y25987
X29777Y27455
X30328Y27455
X30879Y27455
X30879Y28006
X30879Y28557
X30328Y28557
X30328Y28006
X29777Y28006
X29777Y28557
X31828Y29612
X32328Y29612
X32828Y29612
X33777Y28557
X34328Y28557
X34879Y28557
X34879Y28006
X34328Y28006
X33777Y28006
X33777Y27455
X34328Y27455
X34879Y27455
X23703Y22987
X23203Y22987
X22703Y22987
X22203Y22987
X22578Y21737
X22578Y21237
X14328Y20862
X11078Y18487
X9953Y18487
X9953Y17987
X9453Y17987
X9453Y18487
X9953Y17487
X10328Y17112
X10203Y15487
X9703Y15487
X9953Y13362
X9953Y12925
X9953Y12487
X11453Y12737
X11453Y13112
X13203Y10862
X13703Y10737
X13953Y11112
X14453Y11112
X14328Y11612
X11203Y7612
X11203Y7237
X12703Y3737
X13328Y3737
X13953Y3737
X14578Y3737
X15203Y3737
X10453Y20487
X10953Y24487
X10953Y25112
T03
X12325Y5554
X13309Y5554
X14096Y5554
X15081Y5554
X19325Y5554
X20309Y5554
X21096Y5554
X22081Y5554
T04
X12344Y24237
X14312Y24237
X16469Y24237
X18437Y24237
X14312Y20112
X12344Y20112
X19015Y16050
X13703Y12987
X15828Y11300
X24703Y18987
X26703Y3362
T05
X7453Y22112
X7453Y21112
X7453Y20112
X7453Y19112
X7453Y18112
X7453Y17112
X7453Y14362
X7453Y13362
X17276Y9752
X18276Y9752
X19276Y9752
X20276Y9752
X21276Y9752
X22276Y9752
X23276Y9752
X24276Y9752
X33086Y6342
X33086Y5554
X34070Y5554
X34070Y6342
X38828Y16737
X38828Y17737
X38828Y18737
X38828Y19737
X38828Y20737
X38828Y21737
T06
X12328Y30862
X14328Y30862
X16328Y30862
X18328Y30862
X20328Y30862
X22328Y30862
X24328Y30862
X26328Y30862
X28328Y30862
X30328Y30862
X32328Y30862
X34328Y30862
T07
X11116Y4487
X16289Y4487
X18116Y4487
X23289Y4487
T08
X31208Y4487
X35948Y4487
T09
X7980Y26681
X7980Y9752
X38295Y9752
X38295Y26681
T10
X7980Y32390
X38295Y32390
X38295Y4043
X7980Y4043
M30
