G75*
%MOIN*%
%OFA0B0*%
%FSLAX25Y25*%
%IPPOS*%
%LPD*%
%AMOC8*
5,1,8,0,0,1.08239X$1,22.5*
%
%ADD10C,0.01100*%
%ADD11C,0.00700*%
%ADD12C,0.00591*%
D10*
X0198591Y0213622D02*
X0198591Y0221128D01*
X0193587Y0221128D01*
X0196089Y0217375D02*
X0198591Y0217375D01*
X0209424Y0218626D02*
X0211926Y0213622D01*
X0214428Y0218626D01*
X0217343Y0217375D02*
X0217343Y0216124D01*
X0222347Y0216124D01*
X0222347Y0214873D02*
X0222347Y0217375D01*
X0221096Y0218626D01*
X0218594Y0218626D01*
X0217343Y0217375D01*
X0218594Y0213622D02*
X0221096Y0213622D01*
X0222347Y0214873D01*
X0225262Y0213622D02*
X0227764Y0216124D01*
X0226513Y0216124D02*
X0230266Y0216124D01*
X0230266Y0213622D02*
X0230266Y0221128D01*
X0226513Y0221128D01*
X0225262Y0219877D01*
X0225262Y0217375D01*
X0226513Y0216124D01*
X0241099Y0217375D02*
X0246103Y0217375D01*
X0256937Y0216124D02*
X0256937Y0214873D01*
X0258188Y0213622D01*
X0260690Y0213622D01*
X0261941Y0214873D01*
X0261941Y0216124D01*
X0260690Y0217375D01*
X0258188Y0217375D01*
X0256937Y0216124D01*
X0258188Y0217375D02*
X0256937Y0218626D01*
X0256937Y0219877D01*
X0258188Y0221128D01*
X0260690Y0221128D01*
X0261941Y0219877D01*
X0261941Y0218626D01*
X0260690Y0217375D01*
X0264855Y0213622D02*
X0269860Y0213622D01*
X0267358Y0213622D02*
X0267358Y0221128D01*
X0269860Y0218626D01*
X0272774Y0219877D02*
X0272774Y0214873D01*
X0274025Y0213622D01*
X0276527Y0213622D01*
X0277778Y0214873D01*
X0272774Y0219877D01*
X0274025Y0221128D01*
X0276527Y0221128D01*
X0277778Y0219877D01*
X0277778Y0214873D01*
X0280693Y0213622D02*
X0285697Y0213622D01*
X0280693Y0218626D01*
X0280693Y0219877D01*
X0281944Y0221128D01*
X0284446Y0221128D01*
X0285697Y0219877D01*
X0288337Y0228622D02*
X0288337Y0233626D01*
X0288337Y0231124D02*
X0285835Y0233626D01*
X0284584Y0233626D01*
X0281738Y0232375D02*
X0280487Y0233626D01*
X0276734Y0233626D01*
X0276734Y0236128D02*
X0276734Y0228622D01*
X0280487Y0228622D01*
X0281738Y0229873D01*
X0281738Y0232375D01*
X0273819Y0229873D02*
X0273819Y0228622D01*
X0272568Y0228622D01*
X0272568Y0229873D01*
X0273819Y0229873D01*
X0269860Y0229873D02*
X0268609Y0228622D01*
X0264855Y0228622D01*
X0261941Y0229873D02*
X0260690Y0228622D01*
X0258188Y0228622D01*
X0256937Y0229873D01*
X0256937Y0232375D01*
X0258188Y0233626D01*
X0260690Y0233626D01*
X0261941Y0232375D01*
X0261941Y0229873D01*
X0264855Y0233626D02*
X0268609Y0233626D01*
X0269860Y0232375D01*
X0269860Y0229873D01*
X0269860Y0243622D02*
X0267358Y0243622D01*
X0268609Y0243622D02*
X0268609Y0251128D01*
X0269860Y0251128D01*
X0272774Y0248626D02*
X0276527Y0248626D01*
X0277778Y0247375D01*
X0276527Y0246124D01*
X0274025Y0246124D01*
X0272774Y0244873D01*
X0274025Y0243622D01*
X0277778Y0243622D01*
X0280693Y0244873D02*
X0281944Y0246124D01*
X0284446Y0246124D01*
X0285697Y0247375D01*
X0284446Y0248626D01*
X0280693Y0248626D01*
X0280693Y0244873D02*
X0281944Y0243622D01*
X0285697Y0243622D01*
X0288612Y0243622D02*
X0292365Y0243622D01*
X0293616Y0244873D01*
X0292365Y0246124D01*
X0288612Y0246124D01*
X0288612Y0247375D02*
X0288612Y0243622D01*
X0288612Y0247375D02*
X0289863Y0248626D01*
X0292365Y0248626D01*
X0292365Y0251128D02*
X0292365Y0252380D01*
X0289863Y0252380D02*
X0289863Y0251128D01*
X0296531Y0251128D02*
X0301535Y0251128D01*
X0301535Y0243622D01*
X0301535Y0247375D02*
X0299033Y0247375D01*
X0300352Y0258622D02*
X0301604Y0259873D01*
X0301604Y0264877D01*
X0302855Y0263626D02*
X0300352Y0263626D01*
X0305632Y0263626D02*
X0308134Y0263626D01*
X0306883Y0264877D02*
X0306883Y0259873D01*
X0305632Y0258622D01*
X0311048Y0258622D02*
X0311048Y0262375D01*
X0312299Y0263626D01*
X0314801Y0263626D01*
X0314801Y0261124D02*
X0311048Y0261124D01*
X0311048Y0258622D02*
X0314801Y0258622D01*
X0316053Y0259873D01*
X0314801Y0261124D01*
X0318967Y0258622D02*
X0318967Y0266128D01*
X0323971Y0266128D02*
X0323971Y0258622D01*
X0321469Y0261124D01*
X0318967Y0258622D01*
X0321538Y0248626D02*
X0320287Y0247375D01*
X0320287Y0243622D01*
X0324040Y0243622D01*
X0325291Y0244873D01*
X0324040Y0246124D01*
X0320287Y0246124D01*
X0321538Y0248626D02*
X0324040Y0248626D01*
X0328137Y0248626D02*
X0331890Y0246124D01*
X0328137Y0243622D01*
X0331890Y0243622D02*
X0331890Y0251128D01*
X0334805Y0248626D02*
X0334805Y0243622D01*
X0338558Y0243622D01*
X0339809Y0244873D01*
X0339809Y0248626D01*
X0347728Y0251128D02*
X0347728Y0243622D01*
X0342723Y0243622D01*
X0342723Y0233626D02*
X0346477Y0233626D01*
X0347728Y0232375D01*
X0346477Y0231124D01*
X0343974Y0231124D01*
X0342723Y0229873D01*
X0343974Y0228622D01*
X0347728Y0228622D01*
X0339809Y0229873D02*
X0338558Y0228622D01*
X0336056Y0228622D01*
X0334805Y0229873D01*
X0334805Y0232375D01*
X0336056Y0233626D01*
X0338558Y0233626D01*
X0339809Y0232375D01*
X0339809Y0229873D01*
X0331890Y0228622D02*
X0329388Y0228622D01*
X0330639Y0228622D02*
X0330639Y0236128D01*
X0331890Y0236128D01*
X0326611Y0232375D02*
X0325360Y0233626D01*
X0321607Y0233626D01*
X0321607Y0236128D02*
X0321607Y0228622D01*
X0325360Y0228622D01*
X0326611Y0229873D01*
X0326611Y0232375D01*
X0318692Y0232375D02*
X0317441Y0233626D01*
X0314939Y0233626D01*
X0313688Y0232375D01*
X0313688Y0231124D01*
X0318692Y0231124D01*
X0318692Y0229873D02*
X0318692Y0232375D01*
X0318692Y0229873D02*
X0317441Y0228622D01*
X0314939Y0228622D01*
X0310773Y0228622D02*
X0310773Y0233626D01*
X0308271Y0233626D02*
X0307020Y0233626D01*
X0308271Y0233626D02*
X0310773Y0231124D01*
X0304174Y0228622D02*
X0304174Y0233626D01*
X0300421Y0233626D01*
X0299170Y0232375D01*
X0299170Y0228622D01*
X0296256Y0229873D02*
X0296256Y0232375D01*
X0295005Y0233626D01*
X0292502Y0233626D01*
X0291251Y0232375D01*
X0291251Y0231124D01*
X0296256Y0231124D01*
X0296256Y0229873D02*
X0295005Y0228622D01*
X0292502Y0228622D01*
X0296531Y0218626D02*
X0296531Y0212371D01*
X0297782Y0211120D01*
X0299033Y0211120D01*
X0300284Y0213622D02*
X0296531Y0213622D01*
X0300284Y0213622D02*
X0301535Y0214873D01*
X0301535Y0218626D01*
X0304381Y0218626D02*
X0305632Y0218626D01*
X0308134Y0216124D01*
X0308134Y0213622D02*
X0308134Y0218626D01*
X0311048Y0217375D02*
X0311048Y0213622D01*
X0314801Y0213622D01*
X0316053Y0214873D01*
X0314801Y0216124D01*
X0311048Y0216124D01*
X0311048Y0217375D02*
X0312299Y0218626D01*
X0314801Y0218626D01*
X0318967Y0218626D02*
X0318967Y0213622D01*
X0322720Y0213622D01*
X0323971Y0214873D01*
X0323971Y0218626D01*
X0326886Y0217375D02*
X0326886Y0213622D01*
X0326886Y0217375D02*
X0328137Y0218626D01*
X0331890Y0218626D01*
X0331890Y0213622D01*
X0334805Y0213622D02*
X0338558Y0213622D01*
X0339809Y0214873D01*
X0338558Y0216124D01*
X0334805Y0216124D01*
X0334805Y0217375D02*
X0334805Y0213622D01*
X0334805Y0217375D02*
X0336056Y0218626D01*
X0338558Y0218626D01*
X0342723Y0221128D02*
X0345225Y0221128D01*
X0343974Y0221128D02*
X0343974Y0214873D01*
X0345225Y0213622D01*
X0346477Y0213622D01*
X0347728Y0214873D01*
X0317372Y0243622D02*
X0313619Y0243622D01*
X0312368Y0244873D01*
X0313619Y0246124D01*
X0316121Y0246124D01*
X0317372Y0247375D01*
X0316121Y0248626D01*
X0312368Y0248626D01*
X0334805Y0259873D02*
X0336056Y0258622D01*
X0338558Y0258622D01*
X0339809Y0259873D01*
X0339809Y0262375D02*
X0337307Y0263626D01*
X0336056Y0263626D01*
X0334805Y0262375D01*
X0334805Y0259873D01*
X0334805Y0266128D02*
X0339809Y0266128D01*
X0339809Y0262375D01*
X0342723Y0264877D02*
X0347728Y0259873D01*
X0347728Y0258622D01*
X0347728Y0266128D02*
X0342723Y0266128D01*
X0342723Y0264877D01*
X0289657Y0266128D02*
X0289657Y0258622D01*
X0284652Y0258622D02*
X0284652Y0266128D01*
X0287155Y0263626D01*
X0289657Y0266128D01*
X0281738Y0266128D02*
X0281738Y0258622D01*
X0281738Y0261124D02*
X0277985Y0261124D01*
X0276734Y0262375D01*
X0276734Y0264877D01*
X0277985Y0266128D01*
X0281738Y0266128D01*
X0273819Y0266128D02*
X0273819Y0258622D01*
X0273819Y0261124D02*
X0270066Y0261124D01*
X0268815Y0262375D01*
X0268815Y0264877D01*
X0270066Y0266128D01*
X0273819Y0266128D01*
X0265900Y0266128D02*
X0260896Y0266128D01*
X0263398Y0266128D02*
X0263398Y0258622D01*
X0263330Y0248626D02*
X0260827Y0248626D01*
X0259576Y0247375D01*
X0259576Y0246124D01*
X0264581Y0246124D01*
X0264581Y0244873D02*
X0264581Y0247375D01*
X0263330Y0248626D01*
X0264581Y0244873D02*
X0263330Y0243622D01*
X0260827Y0243622D01*
X0256662Y0243622D02*
X0256662Y0248626D01*
X0256662Y0246124D02*
X0254160Y0248626D01*
X0252909Y0248626D01*
X0248812Y0258622D02*
X0246310Y0258622D01*
X0245059Y0259873D01*
X0245059Y0261124D01*
X0246310Y0262375D01*
X0248812Y0262375D01*
X0250063Y0263626D01*
X0250063Y0264877D01*
X0248812Y0266128D01*
X0246310Y0266128D01*
X0245059Y0264877D01*
X0242144Y0262375D02*
X0242144Y0259873D01*
X0240893Y0258622D01*
X0238391Y0258622D01*
X0237140Y0259873D01*
X0237140Y0262375D01*
X0238391Y0263626D01*
X0240893Y0263626D01*
X0242144Y0262375D01*
X0234225Y0258622D02*
X0231723Y0258622D01*
X0232974Y0258622D02*
X0232974Y0266128D01*
X0234225Y0266128D01*
X0227695Y0263626D02*
X0225193Y0263626D01*
X0223942Y0262375D01*
X0223942Y0258622D01*
X0227695Y0258622D01*
X0228946Y0259873D01*
X0227695Y0261124D01*
X0223942Y0261124D01*
X0221027Y0261124D02*
X0218525Y0263626D01*
X0217274Y0263626D01*
X0221027Y0263626D02*
X0221027Y0258622D01*
X0206510Y0259873D02*
X0205259Y0258622D01*
X0202756Y0258622D01*
X0201505Y0259873D01*
X0198591Y0258622D02*
X0198591Y0266128D01*
X0197340Y0263626D02*
X0198591Y0262375D01*
X0197340Y0263626D02*
X0194838Y0263626D01*
X0193587Y0262375D01*
X0193587Y0258622D01*
X0190672Y0259873D02*
X0189421Y0261124D01*
X0185668Y0261124D01*
X0185668Y0262375D02*
X0185668Y0258622D01*
X0189421Y0258622D01*
X0190672Y0259873D01*
X0189421Y0263626D02*
X0186919Y0263626D01*
X0185668Y0262375D01*
X0182753Y0261124D02*
X0180251Y0263626D01*
X0179000Y0263626D01*
X0176154Y0262375D02*
X0176154Y0259873D01*
X0174903Y0258622D01*
X0171150Y0258622D01*
X0171150Y0257371D02*
X0171150Y0263626D01*
X0174903Y0263626D01*
X0176154Y0262375D01*
X0182753Y0263626D02*
X0182753Y0258622D01*
X0173652Y0256120D02*
X0172401Y0256120D01*
X0171150Y0257371D01*
X0168236Y0259873D02*
X0168236Y0262375D01*
X0166985Y0263626D01*
X0164482Y0263626D01*
X0163231Y0262375D01*
X0163231Y0261124D01*
X0168236Y0261124D01*
X0168236Y0259873D02*
X0166985Y0258622D01*
X0164482Y0258622D01*
X0160317Y0258622D02*
X0160317Y0263626D01*
X0160317Y0261124D02*
X0157815Y0263626D01*
X0156564Y0263626D01*
X0201505Y0264877D02*
X0202756Y0266128D01*
X0205259Y0266128D01*
X0206510Y0264877D01*
X0206510Y0259873D01*
X0248812Y0258622D02*
X0250063Y0259873D01*
X0250269Y0233626D02*
X0249018Y0232375D01*
X0249018Y0228622D01*
X0251520Y0228622D02*
X0251520Y0232375D01*
X0250269Y0233626D01*
X0251520Y0232375D02*
X0252771Y0233626D01*
X0254022Y0233626D01*
X0254022Y0228622D01*
D11*
X0337378Y0155468D02*
X0337378Y0154034D01*
X0337378Y0154751D02*
X0341681Y0154751D01*
X0341681Y0154034D02*
X0341681Y0155468D01*
X0340964Y0152299D02*
X0341681Y0151582D01*
X0341681Y0150147D01*
X0340964Y0149430D01*
X0340247Y0149430D01*
X0339529Y0150147D01*
X0339529Y0151582D01*
X0338812Y0152299D01*
X0338095Y0152299D01*
X0337378Y0151582D01*
X0337378Y0150147D01*
X0338095Y0149430D01*
X0338095Y0147695D02*
X0340964Y0147695D01*
X0341681Y0146978D01*
X0341681Y0145543D01*
X0340964Y0144826D01*
X0338095Y0144826D01*
X0337378Y0145543D01*
X0337378Y0146978D01*
X0338095Y0147695D01*
X0337378Y0143091D02*
X0341681Y0143091D01*
X0340247Y0141657D01*
X0341681Y0140222D01*
X0337378Y0140222D01*
X0337378Y0136903D02*
X0337378Y0134034D01*
X0340247Y0136903D01*
X0340964Y0136903D01*
X0341681Y0136186D01*
X0341681Y0134751D01*
X0340964Y0134034D01*
X0340964Y0132299D02*
X0341681Y0131582D01*
X0341681Y0130147D01*
X0340964Y0129430D01*
X0340247Y0129430D01*
X0339529Y0130147D01*
X0339529Y0131582D01*
X0338812Y0132299D01*
X0338095Y0132299D01*
X0337378Y0131582D01*
X0337378Y0130147D01*
X0338095Y0129430D01*
X0338095Y0127695D02*
X0337378Y0126978D01*
X0337378Y0125543D01*
X0338095Y0124826D01*
X0339529Y0125543D02*
X0339529Y0126978D01*
X0338812Y0127695D01*
X0338095Y0127695D01*
X0339529Y0125543D02*
X0340247Y0124826D01*
X0340964Y0124826D01*
X0341681Y0125543D01*
X0341681Y0126978D01*
X0340964Y0127695D01*
X0341681Y0123091D02*
X0340964Y0122374D01*
X0342399Y0120939D01*
X0341681Y0120222D01*
X0347378Y0120939D02*
X0347378Y0122374D01*
X0348095Y0123091D01*
X0348812Y0123091D01*
X0349529Y0122374D01*
X0349529Y0120939D01*
X0350247Y0120222D01*
X0350964Y0120222D01*
X0351681Y0120939D01*
X0351681Y0122374D01*
X0350964Y0123091D01*
X0350964Y0124826D02*
X0348095Y0124826D01*
X0347378Y0125543D01*
X0347378Y0126978D01*
X0348095Y0127695D01*
X0347378Y0129430D02*
X0347378Y0132299D01*
X0347378Y0134034D02*
X0351681Y0134034D01*
X0349529Y0134751D02*
X0347378Y0136903D01*
X0348812Y0134034D02*
X0351681Y0136903D01*
X0351681Y0140222D02*
X0347378Y0140222D01*
X0347378Y0143091D02*
X0351681Y0143091D01*
X0350247Y0141657D01*
X0351681Y0140222D01*
X0351681Y0144826D02*
X0351681Y0146261D01*
X0351681Y0145543D02*
X0347378Y0145543D01*
X0347378Y0144826D02*
X0347378Y0146261D01*
X0348095Y0147895D02*
X0347378Y0148613D01*
X0347378Y0150047D01*
X0348095Y0150764D01*
X0348812Y0150764D01*
X0349529Y0150047D01*
X0349529Y0148613D01*
X0350247Y0147895D01*
X0350964Y0147895D01*
X0351681Y0148613D01*
X0351681Y0150047D01*
X0350964Y0150764D01*
X0350964Y0152499D02*
X0348095Y0152499D01*
X0347378Y0153216D01*
X0347378Y0154651D01*
X0348095Y0155368D01*
X0350964Y0155368D01*
X0351681Y0154651D01*
X0351681Y0153216D01*
X0350964Y0152499D01*
X0357378Y0151582D02*
X0358095Y0152299D01*
X0357378Y0151582D02*
X0357378Y0150147D01*
X0358095Y0149430D01*
X0360964Y0149430D01*
X0361681Y0150147D01*
X0361681Y0151582D01*
X0360964Y0152299D01*
X0360964Y0147695D02*
X0361681Y0146978D01*
X0361681Y0145543D01*
X0360964Y0144826D01*
X0358095Y0144826D01*
X0357378Y0145543D01*
X0357378Y0146978D01*
X0358095Y0147695D01*
X0358812Y0143091D02*
X0357378Y0141657D01*
X0358812Y0140222D01*
X0361681Y0140222D01*
X0361681Y0143091D02*
X0358812Y0143091D01*
X0358095Y0132299D02*
X0357378Y0131582D01*
X0357378Y0129430D01*
X0361681Y0129430D01*
X0361681Y0131582D01*
X0360964Y0132299D01*
X0358095Y0132299D01*
X0357378Y0127695D02*
X0361681Y0127695D01*
X0361681Y0124826D02*
X0357378Y0124826D01*
X0358095Y0123091D02*
X0357378Y0122374D01*
X0357378Y0120939D01*
X0358095Y0120222D01*
X0360964Y0120222D01*
X0361681Y0120939D01*
X0361681Y0122374D01*
X0360964Y0123091D01*
X0359529Y0123091D02*
X0359529Y0121657D01*
X0359529Y0123091D02*
X0358095Y0123091D01*
X0361681Y0124826D02*
X0357378Y0127695D01*
X0351681Y0126978D02*
X0351681Y0125543D01*
X0350964Y0124826D01*
X0351681Y0126978D02*
X0350964Y0127695D01*
X0351681Y0129430D02*
X0347378Y0129430D01*
X0347378Y0120939D02*
X0348095Y0120222D01*
X0331681Y0133551D02*
X0330964Y0132833D01*
X0330247Y0132833D01*
X0329529Y0133551D01*
X0329529Y0134985D01*
X0328812Y0135703D01*
X0328095Y0135703D01*
X0327378Y0134985D01*
X0327378Y0133551D01*
X0328095Y0132833D01*
X0331681Y0133551D02*
X0331681Y0134985D01*
X0330964Y0135703D01*
X0331681Y0137437D02*
X0327378Y0137437D01*
X0328812Y0137437D02*
X0328812Y0139589D01*
X0329529Y0140306D01*
X0330964Y0140306D01*
X0331681Y0139589D01*
X0331681Y0137437D01*
X0331681Y0142041D02*
X0331681Y0143476D01*
X0331681Y0142759D02*
X0327378Y0142759D01*
X0327378Y0143476D02*
X0327378Y0142041D01*
X0367101Y0165939D02*
X0367818Y0165222D01*
X0369252Y0165222D01*
X0369970Y0165939D01*
X0369970Y0168808D01*
X0369252Y0169526D01*
X0367818Y0169526D01*
X0367101Y0168808D01*
X0371705Y0169526D02*
X0371705Y0165222D01*
X0374574Y0165222D02*
X0374574Y0169526D01*
X0373139Y0168091D01*
X0371705Y0169526D01*
X0376308Y0169526D02*
X0377026Y0168808D01*
X0378460Y0170243D01*
X0379178Y0169526D01*
X0377743Y0175222D02*
X0376308Y0176657D01*
X0376308Y0179526D01*
X0374574Y0178808D02*
X0373856Y0179526D01*
X0372422Y0179526D01*
X0371705Y0178808D01*
X0369970Y0178808D02*
X0369970Y0175939D01*
X0369252Y0175222D01*
X0367818Y0175222D01*
X0367101Y0175939D01*
X0367101Y0178808D02*
X0367818Y0179526D01*
X0369252Y0179526D01*
X0369970Y0178808D01*
X0371705Y0175939D02*
X0372422Y0175222D01*
X0373856Y0175222D01*
X0374574Y0175939D01*
X0374574Y0178808D01*
X0379178Y0179526D02*
X0379178Y0176657D01*
X0377743Y0175222D01*
X0377026Y0185222D02*
X0376308Y0185939D01*
X0376308Y0187374D01*
X0377743Y0187374D01*
X0376308Y0188808D02*
X0377026Y0189526D01*
X0378460Y0189526D01*
X0379178Y0188808D01*
X0379178Y0185939D01*
X0378460Y0185222D01*
X0377026Y0185222D01*
X0374574Y0185222D02*
X0374574Y0189526D01*
X0371705Y0185222D01*
X0371705Y0189526D01*
X0369970Y0189526D02*
X0367818Y0189526D01*
X0367101Y0188808D01*
X0367101Y0185939D01*
X0367818Y0185222D01*
X0369970Y0185222D01*
X0369970Y0189526D01*
X0369970Y0195222D02*
X0367818Y0195222D01*
X0367101Y0195939D01*
X0367101Y0198808D01*
X0367818Y0199526D01*
X0369970Y0199526D01*
X0369970Y0195222D01*
X0371705Y0195939D02*
X0371705Y0197374D01*
X0373139Y0197374D01*
X0371705Y0198808D02*
X0372422Y0199526D01*
X0373856Y0199526D01*
X0374574Y0198808D01*
X0374574Y0195939D01*
X0373856Y0195222D01*
X0372422Y0195222D01*
X0371705Y0195939D01*
X0376308Y0197374D02*
X0376308Y0198808D01*
X0377026Y0199526D01*
X0379178Y0199526D01*
X0379178Y0195222D01*
X0379178Y0196657D02*
X0377026Y0196657D01*
X0376308Y0197374D01*
X0373856Y0205222D02*
X0372422Y0205222D01*
X0371705Y0205939D01*
X0371705Y0207374D01*
X0373139Y0207374D01*
X0371705Y0208808D02*
X0372422Y0209526D01*
X0373856Y0209526D01*
X0374574Y0208808D01*
X0374574Y0205939D01*
X0373856Y0205222D01*
X0376308Y0207374D02*
X0377026Y0206657D01*
X0379178Y0206657D01*
X0379178Y0205222D02*
X0379178Y0209526D01*
X0377026Y0209526D01*
X0376308Y0208808D01*
X0376308Y0207374D01*
X0369970Y0208808D02*
X0369970Y0205939D01*
X0369252Y0205222D01*
X0367818Y0205222D01*
X0367101Y0205939D01*
X0367101Y0208808D02*
X0367818Y0209526D01*
X0369252Y0209526D01*
X0369970Y0208808D01*
X0369252Y0215222D02*
X0367818Y0215222D01*
X0367101Y0215939D01*
X0369252Y0215222D02*
X0369970Y0215939D01*
X0369970Y0218808D01*
X0369252Y0219526D01*
X0367818Y0219526D01*
X0367101Y0218808D01*
X0371705Y0218808D02*
X0372422Y0219526D01*
X0373856Y0219526D01*
X0374574Y0218808D01*
X0374574Y0215939D01*
X0373856Y0215222D01*
X0372422Y0215222D01*
X0371705Y0215939D01*
X0376308Y0216657D02*
X0376308Y0219526D01*
X0376308Y0216657D02*
X0377743Y0215222D01*
X0379178Y0216657D01*
X0379178Y0219526D01*
X0378460Y0225222D02*
X0379178Y0225939D01*
X0378460Y0225222D02*
X0377026Y0225222D01*
X0376308Y0225939D01*
X0376308Y0226657D01*
X0377026Y0227374D01*
X0378460Y0227374D01*
X0379178Y0228091D01*
X0379178Y0228808D01*
X0378460Y0229526D01*
X0377026Y0229526D01*
X0376308Y0228808D01*
X0374574Y0228808D02*
X0374574Y0225939D01*
X0373856Y0225222D01*
X0372422Y0225222D01*
X0371705Y0225939D01*
X0369970Y0225222D02*
X0367101Y0225222D01*
X0369970Y0225222D02*
X0369970Y0229526D01*
X0371705Y0228808D02*
X0372422Y0229526D01*
X0373856Y0229526D01*
X0374574Y0228808D01*
X0374574Y0235222D02*
X0372422Y0235222D01*
X0371705Y0235939D01*
X0371705Y0238808D01*
X0372422Y0239526D01*
X0374574Y0239526D01*
X0374574Y0235222D01*
X0376308Y0235939D02*
X0377026Y0235222D01*
X0378460Y0235222D01*
X0379178Y0235939D01*
X0378460Y0237374D02*
X0377026Y0237374D01*
X0376308Y0236657D01*
X0376308Y0235939D01*
X0378460Y0237374D02*
X0379178Y0238091D01*
X0379178Y0238808D01*
X0378460Y0239526D01*
X0377026Y0239526D01*
X0376308Y0238808D01*
X0369970Y0238091D02*
X0369970Y0235222D01*
X0369970Y0237374D02*
X0367101Y0237374D01*
X0367101Y0238091D02*
X0367101Y0235222D01*
X0367101Y0238091D02*
X0368535Y0239526D01*
X0369970Y0238091D01*
X0369970Y0245222D02*
X0367818Y0245222D01*
X0367101Y0245939D01*
X0367101Y0248808D01*
X0367818Y0249526D01*
X0369970Y0249526D01*
X0369970Y0245222D01*
X0371705Y0245222D02*
X0371705Y0249526D01*
X0374574Y0249526D02*
X0371705Y0245222D01*
X0374574Y0245222D02*
X0374574Y0249526D01*
X0376308Y0248808D02*
X0377026Y0249526D01*
X0378460Y0249526D01*
X0379178Y0248808D01*
X0379178Y0245939D01*
X0378460Y0245222D01*
X0377026Y0245222D01*
X0376308Y0245939D01*
X0376308Y0247374D01*
X0377743Y0247374D01*
X0361681Y0236409D02*
X0361681Y0234974D01*
X0360964Y0234257D01*
X0358095Y0234257D01*
X0357378Y0234974D01*
X0357378Y0236409D01*
X0358095Y0237126D01*
X0360964Y0237126D02*
X0361681Y0236409D01*
X0360964Y0232522D02*
X0361681Y0231805D01*
X0361681Y0230370D01*
X0360964Y0229653D01*
X0361681Y0228018D02*
X0361681Y0226583D01*
X0361681Y0227301D02*
X0357378Y0227301D01*
X0357378Y0228018D02*
X0357378Y0226583D01*
X0357378Y0229653D02*
X0360247Y0232522D01*
X0360964Y0232522D01*
X0357378Y0232522D02*
X0357378Y0229653D01*
X0359529Y0199428D02*
X0358812Y0198710D01*
X0358812Y0196559D01*
X0357378Y0196559D02*
X0361681Y0196559D01*
X0361681Y0198710D01*
X0360964Y0199428D01*
X0359529Y0199428D01*
X0358812Y0194824D02*
X0358095Y0194824D01*
X0357378Y0194107D01*
X0357378Y0192672D01*
X0358095Y0191955D01*
X0359529Y0192672D02*
X0359529Y0194107D01*
X0358812Y0194824D01*
X0360964Y0194824D02*
X0361681Y0194107D01*
X0361681Y0192672D01*
X0360964Y0191955D01*
X0360247Y0191955D01*
X0359529Y0192672D01*
X0358095Y0190220D02*
X0357378Y0189503D01*
X0357378Y0188068D01*
X0358095Y0187351D01*
X0360964Y0187351D01*
X0361681Y0188068D01*
X0361681Y0189503D01*
X0360964Y0190220D01*
X0361681Y0185716D02*
X0361681Y0184281D01*
X0361681Y0184999D02*
X0357378Y0184999D01*
X0357378Y0185716D02*
X0357378Y0184281D01*
X0244806Y0119249D02*
X0244806Y0117097D01*
X0240503Y0117097D01*
X0240503Y0119249D01*
X0241220Y0119966D01*
X0241937Y0119966D01*
X0242654Y0119249D01*
X0242654Y0117097D01*
X0242654Y0119249D02*
X0243372Y0119966D01*
X0244089Y0119966D01*
X0244806Y0119249D01*
X0234806Y0118532D02*
X0233372Y0119966D01*
X0230503Y0119966D01*
X0232654Y0119966D02*
X0232654Y0117097D01*
X0233372Y0117097D02*
X0234806Y0118532D01*
X0233372Y0117097D02*
X0230503Y0117097D01*
X0233592Y0112651D02*
X0233592Y0109064D01*
X0234309Y0108347D01*
X0235744Y0108347D01*
X0236461Y0109064D01*
X0236461Y0112651D01*
X0231857Y0110499D02*
X0231140Y0111216D01*
X0228988Y0111216D01*
X0229705Y0109782D02*
X0228988Y0109064D01*
X0229705Y0108347D01*
X0231857Y0108347D01*
X0231140Y0109782D02*
X0231857Y0110499D01*
X0231140Y0109782D02*
X0229705Y0109782D01*
X0227253Y0109782D02*
X0224384Y0109782D01*
X0224384Y0110499D01*
X0225101Y0111216D01*
X0226536Y0111216D01*
X0227253Y0110499D01*
X0227253Y0109064D01*
X0226536Y0108347D01*
X0225101Y0108347D01*
X0222649Y0108347D02*
X0222649Y0111216D01*
X0222649Y0109782D02*
X0221214Y0111216D01*
X0220497Y0111216D01*
X0220503Y0117097D02*
X0224806Y0117097D01*
X0224806Y0119249D01*
X0224089Y0119966D01*
X0222654Y0119966D01*
X0221937Y0119249D01*
X0221937Y0117097D01*
X0222654Y0121701D02*
X0222654Y0123853D01*
X0221937Y0124570D01*
X0221220Y0124570D01*
X0220503Y0123853D01*
X0220503Y0121701D01*
X0224806Y0121701D01*
X0224806Y0123853D01*
X0224089Y0124570D01*
X0223372Y0124570D01*
X0222654Y0123853D01*
X0214806Y0124570D02*
X0210503Y0124570D01*
X0214806Y0121701D01*
X0210503Y0121701D01*
X0211220Y0119966D02*
X0210503Y0119249D01*
X0210503Y0117814D01*
X0211220Y0117097D01*
X0214089Y0117097D01*
X0214806Y0117814D01*
X0214806Y0119249D01*
X0214089Y0119966D01*
X0212654Y0119966D02*
X0212654Y0118532D01*
X0212654Y0119966D02*
X0211220Y0119966D01*
X0210503Y0126305D02*
X0210503Y0128457D01*
X0211220Y0129174D01*
X0214089Y0129174D01*
X0214806Y0128457D01*
X0214806Y0126305D01*
X0210503Y0126305D01*
X0204806Y0127739D02*
X0203372Y0129174D01*
X0200503Y0129174D01*
X0202654Y0129174D02*
X0202654Y0126305D01*
X0203372Y0126305D02*
X0204806Y0127739D01*
X0203372Y0126305D02*
X0200503Y0126305D01*
X0201220Y0124570D02*
X0204089Y0124570D01*
X0204806Y0123853D01*
X0204806Y0121701D01*
X0200503Y0121701D01*
X0200503Y0123853D01*
X0201220Y0124570D01*
X0201220Y0119966D02*
X0200503Y0119249D01*
X0200503Y0117814D01*
X0201220Y0117097D01*
X0202654Y0117814D02*
X0202654Y0119249D01*
X0201937Y0119966D01*
X0201220Y0119966D01*
X0202654Y0117814D02*
X0203372Y0117097D01*
X0204089Y0117097D01*
X0204806Y0117814D01*
X0204806Y0119249D01*
X0204089Y0119966D01*
X0205818Y0111933D02*
X0205818Y0109064D01*
X0205101Y0108347D01*
X0203466Y0109064D02*
X0203466Y0110499D01*
X0202749Y0111216D01*
X0201314Y0111216D01*
X0200597Y0110499D01*
X0200597Y0109782D01*
X0203466Y0109782D01*
X0203466Y0109064D02*
X0202749Y0108347D01*
X0201314Y0108347D01*
X0198862Y0108347D02*
X0198862Y0111216D01*
X0198862Y0109782D02*
X0197428Y0111216D01*
X0196710Y0111216D01*
X0195026Y0110499D02*
X0193591Y0110499D01*
X0194308Y0111933D02*
X0194308Y0108347D01*
X0191956Y0109064D02*
X0191239Y0109782D01*
X0189087Y0109782D01*
X0189087Y0110499D02*
X0189087Y0108347D01*
X0191239Y0108347D01*
X0191956Y0109064D01*
X0191239Y0111216D02*
X0189804Y0111216D01*
X0189087Y0110499D01*
X0187352Y0110499D02*
X0186635Y0111216D01*
X0184483Y0111216D01*
X0182748Y0110499D02*
X0182031Y0111216D01*
X0180597Y0111216D01*
X0179879Y0110499D01*
X0179879Y0109782D01*
X0182748Y0109782D01*
X0182748Y0110499D02*
X0182748Y0109064D01*
X0182031Y0108347D01*
X0180597Y0108347D01*
X0184483Y0108347D02*
X0186635Y0108347D01*
X0187352Y0109064D01*
X0187352Y0110499D01*
X0193591Y0112651D02*
X0194308Y0111933D01*
X0194089Y0117097D02*
X0193372Y0117097D01*
X0192654Y0117814D01*
X0192654Y0119249D01*
X0191937Y0119966D01*
X0191220Y0119966D01*
X0190503Y0119249D01*
X0190503Y0117814D01*
X0191220Y0117097D01*
X0194089Y0117097D02*
X0194806Y0117814D01*
X0194806Y0119249D01*
X0194089Y0119966D01*
X0194089Y0121701D02*
X0191220Y0121701D01*
X0190503Y0122418D01*
X0190503Y0123853D01*
X0191220Y0124570D01*
X0190503Y0126305D02*
X0190503Y0129174D01*
X0190503Y0126305D02*
X0194806Y0126305D01*
X0194089Y0124570D02*
X0194806Y0123853D01*
X0194806Y0122418D01*
X0194089Y0121701D01*
X0184806Y0122418D02*
X0184089Y0121701D01*
X0181220Y0121701D01*
X0180503Y0122418D01*
X0180503Y0123853D01*
X0181220Y0124570D01*
X0181220Y0126305D02*
X0180503Y0127022D01*
X0180503Y0128457D01*
X0181220Y0129174D01*
X0184089Y0129174D02*
X0184806Y0128457D01*
X0184806Y0127022D01*
X0184089Y0126305D01*
X0181220Y0126305D01*
X0184089Y0124570D02*
X0184806Y0123853D01*
X0184806Y0122418D01*
X0184806Y0119966D02*
X0181937Y0119966D01*
X0180503Y0118532D01*
X0181937Y0117097D01*
X0184806Y0117097D01*
X0175524Y0117814D02*
X0174089Y0119249D01*
X0174806Y0119966D01*
X0174806Y0121701D02*
X0170503Y0121701D01*
X0170503Y0124570D01*
X0170503Y0126305D02*
X0174806Y0126305D01*
X0170503Y0129174D01*
X0174806Y0129174D01*
X0174806Y0124570D02*
X0174806Y0121701D01*
X0172654Y0121701D02*
X0172654Y0123136D01*
X0175524Y0117814D02*
X0174806Y0117097D01*
X0205101Y0111216D02*
X0206535Y0111216D01*
X0208270Y0110499D02*
X0208987Y0111216D01*
X0211139Y0111216D01*
X0211139Y0108347D01*
X0212774Y0108347D02*
X0214209Y0108347D01*
X0213491Y0108347D02*
X0213491Y0112651D01*
X0212774Y0112651D02*
X0214209Y0112651D01*
X0208270Y0110499D02*
X0208270Y0108347D01*
D12*
X0167653Y0105497D02*
X0167653Y0131747D01*
X0177653Y0131747D01*
X0177653Y0115497D01*
X0167653Y0115497D01*
X0177653Y0115497D02*
X0187653Y0115497D01*
X0187653Y0131747D01*
X0197653Y0131747D01*
X0197653Y0115497D01*
X0187653Y0115497D01*
X0197653Y0115497D02*
X0207653Y0115497D01*
X0207653Y0131747D01*
X0217653Y0131747D01*
X0217653Y0115497D01*
X0207653Y0115497D01*
X0217653Y0115497D02*
X0227653Y0115497D01*
X0227653Y0131747D01*
X0237653Y0131747D01*
X0237653Y0115497D01*
X0227653Y0115497D01*
X0237653Y0115497D02*
X0247653Y0115497D01*
X0247653Y0105497D01*
X0167653Y0105497D01*
X0177653Y0131747D02*
X0187653Y0131747D01*
X0197653Y0131747D02*
X0207653Y0131747D01*
X0217653Y0131747D02*
X0227653Y0131747D01*
X0237653Y0131747D02*
X0247653Y0131747D01*
X0247653Y0115497D01*
X0324528Y0118622D02*
X0324528Y0158622D01*
X0334528Y0158622D01*
X0334528Y0138622D01*
X0364528Y0138622D01*
X0364528Y0118622D01*
X0354528Y0118622D01*
X0354528Y0158622D01*
X0364528Y0158622D01*
X0364528Y0138622D01*
X0354528Y0118622D02*
X0344528Y0118622D01*
X0344528Y0158622D01*
X0354528Y0158622D01*
X0354528Y0162372D02*
X0364528Y0162372D01*
X0364528Y0172372D01*
X0380778Y0172372D01*
X0380778Y0162372D01*
X0364528Y0162372D01*
X0354528Y0162372D02*
X0354528Y0212372D01*
X0354528Y0252372D01*
X0364528Y0252372D01*
X0380778Y0252372D01*
X0380778Y0242372D01*
X0364528Y0242372D01*
X0364528Y0252372D01*
X0364528Y0242372D02*
X0364528Y0232372D01*
X0380778Y0232372D01*
X0380778Y0222372D01*
X0364528Y0222372D01*
X0364528Y0232372D01*
X0364528Y0222372D02*
X0364528Y0202372D01*
X0380778Y0202372D01*
X0380778Y0192372D01*
X0364528Y0192372D01*
X0364528Y0202372D01*
X0354528Y0212372D02*
X0380778Y0212372D01*
X0380778Y0202372D01*
X0380778Y0212372D02*
X0380778Y0222372D01*
X0380778Y0232372D02*
X0380778Y0242372D01*
X0380778Y0192372D02*
X0380778Y0182372D01*
X0364528Y0182372D01*
X0364528Y0192372D01*
X0364528Y0182372D02*
X0364528Y0172372D01*
X0380778Y0172372D02*
X0380778Y0182372D01*
X0344528Y0158622D02*
X0334528Y0158622D01*
X0334528Y0138622D02*
X0334528Y0118622D01*
X0324528Y0118622D01*
X0334528Y0118622D02*
X0344528Y0118622D01*
M02*
