G75*
%MOIN*%
%OFA0B0*%
%FSLAX25Y25*%
%IPPOS*%
%LPD*%
%AMOC8*
5,1,8,0,0,1.08239X$1,22.5*
%
%ADD10C,0.01100*%
D10*
X0197890Y0212372D02*
X0196639Y0213623D01*
X0196639Y0218627D01*
X0197890Y0219878D01*
X0201643Y0219878D01*
X0201643Y0212372D01*
X0197890Y0212372D01*
X0212476Y0217376D02*
X0214978Y0212372D01*
X0217480Y0217376D01*
X0220395Y0216125D02*
X0220395Y0214874D01*
X0225399Y0214874D01*
X0225399Y0213623D02*
X0225399Y0216125D01*
X0224148Y0217376D01*
X0221646Y0217376D01*
X0220395Y0216125D01*
X0221646Y0212372D02*
X0224148Y0212372D01*
X0225399Y0213623D01*
X0228314Y0212372D02*
X0230816Y0214874D01*
X0229565Y0214874D02*
X0233318Y0214874D01*
X0233318Y0212372D02*
X0233318Y0219878D01*
X0229565Y0219878D01*
X0228314Y0218627D01*
X0228314Y0216125D01*
X0229565Y0214874D01*
X0244151Y0216125D02*
X0249156Y0216125D01*
X0259989Y0218627D02*
X0264993Y0213623D01*
X0264993Y0212372D01*
X0267908Y0212372D02*
X0272912Y0212372D01*
X0270410Y0212372D02*
X0270410Y0219878D01*
X0272912Y0217376D01*
X0275826Y0218627D02*
X0275826Y0213623D01*
X0277077Y0212372D01*
X0279580Y0212372D01*
X0280831Y0213623D01*
X0275826Y0218627D01*
X0277077Y0219878D01*
X0279580Y0219878D01*
X0280831Y0218627D01*
X0280831Y0213623D01*
X0283745Y0212372D02*
X0288749Y0212372D01*
X0283745Y0217376D01*
X0283745Y0218627D01*
X0284996Y0219878D01*
X0287498Y0219878D01*
X0288749Y0218627D01*
X0288818Y0227372D02*
X0290069Y0227372D01*
X0290069Y0228623D01*
X0288818Y0228623D01*
X0288818Y0227372D01*
X0286110Y0228623D02*
X0284859Y0227372D01*
X0281105Y0227372D01*
X0278191Y0228623D02*
X0278191Y0231125D01*
X0276940Y0232376D01*
X0274438Y0232376D01*
X0273187Y0231125D01*
X0273187Y0228623D01*
X0274438Y0227372D01*
X0276940Y0227372D01*
X0278191Y0228623D01*
X0281105Y0232376D02*
X0284859Y0232376D01*
X0286110Y0231125D01*
X0286110Y0228623D01*
X0292984Y0227372D02*
X0296737Y0227372D01*
X0297988Y0228623D01*
X0297988Y0231125D01*
X0296737Y0232376D01*
X0292984Y0232376D01*
X0292984Y0234878D02*
X0292984Y0227372D01*
X0300834Y0232376D02*
X0302085Y0232376D01*
X0304587Y0229874D01*
X0304587Y0227372D02*
X0304587Y0232376D01*
X0307501Y0231125D02*
X0307501Y0229874D01*
X0312506Y0229874D01*
X0312506Y0228623D02*
X0312506Y0231125D01*
X0311255Y0232376D01*
X0308752Y0232376D01*
X0307501Y0231125D01*
X0308752Y0227372D02*
X0311255Y0227372D01*
X0312506Y0228623D01*
X0315420Y0227372D02*
X0315420Y0231125D01*
X0316671Y0232376D01*
X0320424Y0232376D01*
X0320424Y0227372D01*
X0323270Y0232376D02*
X0324521Y0232376D01*
X0327023Y0229874D01*
X0327023Y0227372D02*
X0327023Y0232376D01*
X0329938Y0231125D02*
X0329938Y0229874D01*
X0334942Y0229874D01*
X0334942Y0228623D02*
X0334942Y0231125D01*
X0333691Y0232376D01*
X0331189Y0232376D01*
X0329938Y0231125D01*
X0331189Y0227372D02*
X0333691Y0227372D01*
X0334942Y0228623D01*
X0337857Y0227372D02*
X0341610Y0227372D01*
X0342861Y0228623D01*
X0342861Y0231125D01*
X0341610Y0232376D01*
X0337857Y0232376D01*
X0337857Y0234878D02*
X0337857Y0227372D01*
X0345638Y0227372D02*
X0348140Y0227372D01*
X0346889Y0227372D02*
X0346889Y0234878D01*
X0348140Y0234878D01*
X0351055Y0231125D02*
X0352306Y0232376D01*
X0354808Y0232376D01*
X0356059Y0231125D01*
X0356059Y0228623D01*
X0354808Y0227372D01*
X0352306Y0227372D01*
X0351055Y0228623D01*
X0351055Y0231125D01*
X0358973Y0232376D02*
X0362727Y0232376D01*
X0363978Y0231125D01*
X0362727Y0229874D01*
X0360224Y0229874D01*
X0358973Y0228623D01*
X0360224Y0227372D01*
X0363978Y0227372D01*
X0362727Y0219878D02*
X0360224Y0219878D01*
X0358973Y0218627D01*
X0360224Y0216125D02*
X0358973Y0214874D01*
X0358973Y0213623D01*
X0360224Y0212372D01*
X0362727Y0212372D01*
X0363978Y0213623D01*
X0362727Y0216125D02*
X0360224Y0216125D01*
X0362727Y0216125D02*
X0363978Y0217376D01*
X0363978Y0218627D01*
X0362727Y0219878D01*
X0356059Y0216125D02*
X0356059Y0213623D01*
X0354808Y0212372D01*
X0352306Y0212372D01*
X0351055Y0214874D02*
X0356059Y0214874D01*
X0356059Y0216125D02*
X0354808Y0217376D01*
X0352306Y0217376D01*
X0351055Y0216125D01*
X0351055Y0214874D01*
X0348140Y0212372D02*
X0344387Y0212372D01*
X0343136Y0213623D01*
X0343136Y0216125D01*
X0344387Y0217376D01*
X0348140Y0217376D01*
X0348140Y0209870D01*
X0338970Y0213623D02*
X0337719Y0212372D01*
X0338970Y0213623D02*
X0338970Y0218627D01*
X0340221Y0217376D02*
X0337719Y0217376D01*
X0334942Y0216125D02*
X0334942Y0213623D01*
X0333691Y0212372D01*
X0331189Y0212372D01*
X0329938Y0214874D02*
X0334942Y0214874D01*
X0334942Y0216125D02*
X0333691Y0217376D01*
X0331189Y0217376D01*
X0329938Y0216125D01*
X0329938Y0214874D01*
X0327023Y0212372D02*
X0327023Y0217376D01*
X0325772Y0217376D01*
X0324521Y0216125D01*
X0323270Y0217376D01*
X0322019Y0216125D01*
X0322019Y0212372D01*
X0324521Y0212372D02*
X0324521Y0216125D01*
X0319105Y0217376D02*
X0315351Y0217376D01*
X0314100Y0216125D01*
X0314100Y0213623D01*
X0315351Y0212372D01*
X0319105Y0212372D01*
X0319105Y0219878D01*
X0311186Y0216125D02*
X0311186Y0213623D01*
X0309935Y0212372D01*
X0307433Y0212372D01*
X0306182Y0214874D02*
X0311186Y0214874D01*
X0311186Y0216125D02*
X0309935Y0217376D01*
X0307433Y0217376D01*
X0306182Y0216125D01*
X0306182Y0214874D01*
X0303267Y0214874D02*
X0300765Y0217376D01*
X0299514Y0217376D01*
X0303267Y0217376D02*
X0303267Y0212372D01*
X0301947Y0242372D02*
X0298194Y0242372D01*
X0296943Y0243623D01*
X0298194Y0244874D01*
X0300696Y0244874D01*
X0301947Y0246125D01*
X0300696Y0247376D01*
X0296943Y0247376D01*
X0294028Y0246125D02*
X0292777Y0247376D01*
X0289024Y0247376D01*
X0290275Y0244874D02*
X0289024Y0243623D01*
X0290275Y0242372D01*
X0294028Y0242372D01*
X0292777Y0244874D02*
X0294028Y0246125D01*
X0292777Y0244874D02*
X0290275Y0244874D01*
X0286110Y0242372D02*
X0283608Y0242372D01*
X0284859Y0242372D02*
X0284859Y0249878D01*
X0286110Y0249878D01*
X0280831Y0246125D02*
X0279580Y0247376D01*
X0277077Y0247376D01*
X0275826Y0246125D01*
X0275826Y0244874D01*
X0280831Y0244874D01*
X0280831Y0243623D02*
X0280831Y0246125D01*
X0280831Y0243623D02*
X0279580Y0242372D01*
X0277077Y0242372D01*
X0272912Y0242372D02*
X0272912Y0247376D01*
X0272912Y0244874D02*
X0270410Y0247376D01*
X0269159Y0247376D01*
X0265062Y0257372D02*
X0266313Y0258623D01*
X0265062Y0257372D02*
X0262560Y0257372D01*
X0261309Y0258623D01*
X0261309Y0259874D01*
X0262560Y0261125D01*
X0265062Y0261125D01*
X0266313Y0262376D01*
X0266313Y0263627D01*
X0265062Y0264878D01*
X0262560Y0264878D01*
X0261309Y0263627D01*
X0258394Y0261125D02*
X0258394Y0258623D01*
X0257143Y0257372D01*
X0254641Y0257372D01*
X0253390Y0258623D01*
X0253390Y0261125D01*
X0254641Y0262376D01*
X0257143Y0262376D01*
X0258394Y0261125D01*
X0250475Y0257372D02*
X0247973Y0257372D01*
X0249224Y0257372D02*
X0249224Y0264878D01*
X0250475Y0264878D01*
X0243945Y0262376D02*
X0241443Y0262376D01*
X0240192Y0261125D01*
X0240192Y0257372D01*
X0243945Y0257372D01*
X0245196Y0258623D01*
X0243945Y0259874D01*
X0240192Y0259874D01*
X0237277Y0259874D02*
X0234775Y0262376D01*
X0233524Y0262376D01*
X0237277Y0262376D02*
X0237277Y0257372D01*
X0222760Y0258623D02*
X0221509Y0257372D01*
X0219006Y0257372D01*
X0217755Y0258623D01*
X0214841Y0257372D02*
X0214841Y0264878D01*
X0213590Y0262376D02*
X0211088Y0262376D01*
X0209837Y0261125D01*
X0209837Y0257372D01*
X0206922Y0258623D02*
X0205671Y0259874D01*
X0201918Y0259874D01*
X0201918Y0261125D02*
X0201918Y0257372D01*
X0205671Y0257372D01*
X0206922Y0258623D01*
X0205671Y0262376D02*
X0203169Y0262376D01*
X0201918Y0261125D01*
X0199003Y0259874D02*
X0196501Y0262376D01*
X0195250Y0262376D01*
X0192404Y0261125D02*
X0192404Y0258623D01*
X0191153Y0257372D01*
X0187400Y0257372D01*
X0187400Y0256121D02*
X0187400Y0262376D01*
X0191153Y0262376D01*
X0192404Y0261125D01*
X0187400Y0256121D02*
X0188651Y0254870D01*
X0189902Y0254870D01*
X0184486Y0258623D02*
X0184486Y0261125D01*
X0183235Y0262376D01*
X0180732Y0262376D01*
X0179481Y0261125D01*
X0179481Y0259874D01*
X0184486Y0259874D01*
X0184486Y0258623D02*
X0183235Y0257372D01*
X0180732Y0257372D01*
X0176567Y0257372D02*
X0176567Y0262376D01*
X0176567Y0259874D02*
X0174065Y0262376D01*
X0172814Y0262376D01*
X0199003Y0262376D02*
X0199003Y0257372D01*
X0213590Y0262376D02*
X0214841Y0261125D01*
X0217755Y0263627D02*
X0219006Y0264878D01*
X0221509Y0264878D01*
X0222760Y0263627D01*
X0222760Y0258623D01*
X0265268Y0231125D02*
X0265268Y0227372D01*
X0267770Y0227372D02*
X0267770Y0231125D01*
X0266519Y0232376D01*
X0265268Y0231125D01*
X0267770Y0231125D02*
X0269021Y0232376D01*
X0270272Y0232376D01*
X0270272Y0227372D01*
X0264993Y0219878D02*
X0259989Y0219878D01*
X0259989Y0218627D01*
X0279648Y0257372D02*
X0279648Y0264878D01*
X0282150Y0264878D02*
X0277146Y0264878D01*
X0285065Y0263627D02*
X0285065Y0261125D01*
X0286316Y0259874D01*
X0290069Y0259874D01*
X0290069Y0257372D02*
X0290069Y0264878D01*
X0286316Y0264878D01*
X0285065Y0263627D01*
X0292984Y0263627D02*
X0292984Y0261125D01*
X0294235Y0259874D01*
X0297988Y0259874D01*
X0297988Y0257372D02*
X0297988Y0264878D01*
X0294235Y0264878D01*
X0292984Y0263627D01*
X0300902Y0264878D02*
X0300902Y0257372D01*
X0305907Y0257372D02*
X0305907Y0264878D01*
X0303405Y0262376D01*
X0300902Y0264878D01*
X0316602Y0262376D02*
X0319105Y0262376D01*
X0317854Y0263627D02*
X0317854Y0258623D01*
X0316602Y0257372D01*
X0321882Y0257372D02*
X0323133Y0258623D01*
X0323133Y0263627D01*
X0324384Y0262376D02*
X0321882Y0262376D01*
X0327298Y0261125D02*
X0327298Y0257372D01*
X0331051Y0257372D01*
X0332303Y0258623D01*
X0331051Y0259874D01*
X0327298Y0259874D01*
X0327298Y0261125D02*
X0328549Y0262376D01*
X0331051Y0262376D01*
X0335217Y0264878D02*
X0335217Y0257372D01*
X0337719Y0259874D01*
X0340221Y0257372D01*
X0340221Y0264878D01*
X0351055Y0264878D02*
X0356059Y0264878D01*
X0356059Y0261125D01*
X0353557Y0262376D01*
X0352306Y0262376D01*
X0351055Y0261125D01*
X0351055Y0258623D01*
X0352306Y0257372D01*
X0354808Y0257372D01*
X0356059Y0258623D01*
X0358973Y0263627D02*
X0363978Y0258623D01*
X0363978Y0257372D01*
X0363978Y0249878D02*
X0363978Y0242372D01*
X0358973Y0242372D01*
X0356059Y0243623D02*
X0356059Y0247376D01*
X0356059Y0243623D02*
X0354808Y0242372D01*
X0351055Y0242372D01*
X0351055Y0247376D01*
X0348140Y0244874D02*
X0344387Y0242372D01*
X0341541Y0243623D02*
X0340290Y0244874D01*
X0336537Y0244874D01*
X0336537Y0246125D02*
X0336537Y0242372D01*
X0340290Y0242372D01*
X0341541Y0243623D01*
X0340290Y0247376D02*
X0337788Y0247376D01*
X0336537Y0246125D01*
X0333622Y0246125D02*
X0332371Y0247376D01*
X0328618Y0247376D01*
X0329869Y0244874D02*
X0332371Y0244874D01*
X0333622Y0246125D01*
X0333622Y0242372D02*
X0329869Y0242372D01*
X0328618Y0243623D01*
X0329869Y0244874D01*
X0317785Y0246125D02*
X0315283Y0246125D01*
X0317785Y0242372D02*
X0317785Y0249878D01*
X0312781Y0249878D01*
X0308615Y0249878D02*
X0308615Y0251130D01*
X0306113Y0251130D02*
X0306113Y0249878D01*
X0306113Y0247376D02*
X0304862Y0246125D01*
X0304862Y0242372D01*
X0308615Y0242372D01*
X0309866Y0243623D01*
X0308615Y0244874D01*
X0304862Y0244874D01*
X0306113Y0247376D02*
X0308615Y0247376D01*
X0344387Y0247376D02*
X0348140Y0244874D01*
X0348140Y0242372D02*
X0348140Y0249878D01*
X0358973Y0263627D02*
X0358973Y0264878D01*
X0363978Y0264878D01*
M02*
