G75*
%MOIN*%
%OFA0B0*%
%FSLAX25Y25*%
%IPPOS*%
%LPD*%
%AMOC8*
5,1,8,0,0,1.08239X$1,22.5*
%
%ADD10C,0.00700*%
%ADD11C,0.00591*%
%ADD12C,0.01100*%
%ADD13C,0.00900*%
%ADD14C,0.00600*%
%ADD15C,0.00500*%
%ADD16C,0.01000*%
D10*
X0132774Y0042722D02*
X0135643Y0047026D01*
X0137378Y0046308D02*
X0138095Y0047026D01*
X0139529Y0047026D01*
X0140247Y0046308D01*
X0140247Y0045591D01*
X0139529Y0044874D01*
X0140247Y0044157D01*
X0140247Y0043439D01*
X0139529Y0042722D01*
X0138095Y0042722D01*
X0137378Y0043439D01*
X0135643Y0042722D02*
X0132774Y0047026D01*
X0138812Y0044874D02*
X0139529Y0044874D01*
X0202774Y0042722D02*
X0205643Y0047026D01*
X0207378Y0044874D02*
X0210247Y0044874D01*
X0209529Y0047026D02*
X0207378Y0044874D01*
X0205643Y0042722D02*
X0202774Y0047026D01*
X0209529Y0047026D02*
X0209529Y0042722D01*
X0278624Y0055618D02*
X0282928Y0055618D01*
X0282928Y0058487D01*
X0282210Y0060222D02*
X0282928Y0060939D01*
X0282928Y0062374D01*
X0282210Y0063091D01*
X0281493Y0063091D01*
X0280776Y0062374D01*
X0280776Y0061657D01*
X0280776Y0062374D02*
X0280058Y0063091D01*
X0279341Y0063091D01*
X0278624Y0062374D01*
X0278624Y0060939D01*
X0279341Y0060222D01*
X0326920Y0046308D02*
X0326920Y0043439D01*
X0327637Y0042722D01*
X0329072Y0042722D01*
X0329789Y0043439D01*
X0331524Y0043439D02*
X0331524Y0046308D01*
X0332241Y0047026D01*
X0333675Y0047026D01*
X0334393Y0046308D01*
X0334393Y0043439D01*
X0333675Y0042722D01*
X0332241Y0042722D01*
X0331524Y0043439D01*
X0329789Y0046308D02*
X0329072Y0047026D01*
X0327637Y0047026D01*
X0326920Y0046308D01*
X0336128Y0047026D02*
X0338997Y0042722D01*
X0338997Y0047026D01*
X0340731Y0046308D02*
X0341449Y0047026D01*
X0342883Y0047026D01*
X0343601Y0046308D01*
X0343601Y0045591D01*
X0340731Y0042722D01*
X0343601Y0042722D01*
X0336128Y0042722D02*
X0336128Y0047026D01*
X0235334Y0107097D02*
X0233899Y0107097D01*
X0233182Y0107814D01*
X0233182Y0109249D01*
X0233899Y0109966D01*
X0235334Y0109966D01*
X0236051Y0109249D01*
X0236051Y0108532D01*
X0233182Y0108532D01*
X0231447Y0109966D02*
X0229295Y0109966D01*
X0228578Y0109249D01*
X0228578Y0107814D01*
X0229295Y0107097D01*
X0231447Y0107097D01*
X0226843Y0107097D02*
X0224691Y0107097D01*
X0223974Y0107814D01*
X0224691Y0108532D01*
X0226843Y0108532D01*
X0226843Y0109249D02*
X0226843Y0107097D01*
X0226843Y0109249D02*
X0226126Y0109966D01*
X0224691Y0109966D01*
X0222339Y0109249D02*
X0220905Y0109249D01*
X0221622Y0110683D02*
X0222339Y0111401D01*
X0221622Y0110683D02*
X0221622Y0107097D01*
X0219220Y0109966D02*
X0218503Y0109966D01*
X0217068Y0108532D01*
X0217068Y0109966D02*
X0217068Y0107097D01*
X0215333Y0108532D02*
X0212464Y0108532D01*
X0212464Y0109249D02*
X0213181Y0109966D01*
X0214616Y0109966D01*
X0215333Y0109249D01*
X0215333Y0108532D01*
X0214616Y0107097D02*
X0213181Y0107097D01*
X0212464Y0107814D01*
X0212464Y0109249D01*
X0210829Y0109966D02*
X0209395Y0109966D01*
X0210112Y0110683D02*
X0210112Y0107814D01*
X0210829Y0107097D01*
X0207660Y0107097D02*
X0207660Y0109249D01*
X0206943Y0109966D01*
X0204791Y0109966D01*
X0204791Y0107097D01*
X0203156Y0107097D02*
X0201722Y0107097D01*
X0202439Y0107097D02*
X0202439Y0111401D01*
X0201722Y0111401D02*
X0203156Y0111401D01*
X0195433Y0109966D02*
X0194716Y0109966D01*
X0193281Y0108532D01*
X0193281Y0109966D02*
X0193281Y0107097D01*
X0191546Y0108532D02*
X0188677Y0108532D01*
X0188677Y0109249D02*
X0189394Y0109966D01*
X0190829Y0109966D01*
X0191546Y0109249D01*
X0191546Y0108532D01*
X0190829Y0107097D02*
X0189394Y0107097D01*
X0188677Y0107814D01*
X0188677Y0109249D01*
X0186942Y0109966D02*
X0184791Y0109966D01*
X0184073Y0109249D01*
X0184791Y0108532D01*
X0186225Y0108532D01*
X0186942Y0107814D01*
X0186225Y0107097D01*
X0184073Y0107097D01*
X0182338Y0107814D02*
X0182338Y0111401D01*
X0179469Y0111401D02*
X0179469Y0107814D01*
X0180187Y0107097D01*
X0181621Y0107097D01*
X0182338Y0107814D01*
X0139281Y0110939D02*
X0138564Y0110222D01*
X0137129Y0110222D01*
X0136412Y0110939D01*
X0134677Y0110939D02*
X0133960Y0110222D01*
X0132526Y0110222D01*
X0131808Y0110939D01*
X0131808Y0113808D01*
X0132526Y0114526D01*
X0133960Y0114526D01*
X0134677Y0113808D01*
X0136412Y0113808D02*
X0137129Y0114526D01*
X0138564Y0114526D01*
X0139281Y0113808D01*
X0139281Y0113091D01*
X0138564Y0112374D01*
X0139281Y0111657D01*
X0139281Y0110939D01*
X0138564Y0112374D02*
X0137847Y0112374D01*
X0130174Y0114526D02*
X0128739Y0114526D01*
X0129456Y0114526D02*
X0129456Y0110222D01*
X0128739Y0110222D02*
X0130174Y0110222D01*
X0087303Y0132691D02*
X0082999Y0132691D01*
X0082999Y0135560D01*
X0085151Y0134126D02*
X0085151Y0132691D01*
X0085151Y0129539D02*
X0085151Y0126670D01*
X0086585Y0128105D02*
X0083716Y0128105D01*
X0086585Y0137295D02*
X0085868Y0138012D01*
X0085868Y0140164D01*
X0085151Y0140164D02*
X0087303Y0140164D01*
X0087303Y0138012D01*
X0086585Y0137295D01*
X0084433Y0138012D02*
X0084433Y0139447D01*
X0085151Y0140164D01*
X0084433Y0141899D02*
X0084433Y0144051D01*
X0085151Y0144768D01*
X0087303Y0144768D01*
X0087303Y0141899D02*
X0084433Y0141899D01*
X0085151Y0147295D02*
X0085151Y0150164D01*
X0083716Y0166045D02*
X0082999Y0166762D01*
X0082999Y0168197D01*
X0083716Y0168914D01*
X0084433Y0168914D01*
X0087303Y0166045D01*
X0087303Y0168914D01*
X0087303Y0174120D02*
X0082999Y0174120D01*
X0082999Y0175554D02*
X0082999Y0172685D01*
X0085151Y0177289D02*
X0084433Y0178006D01*
X0084433Y0179441D01*
X0085151Y0180158D01*
X0085868Y0180158D01*
X0085868Y0177289D01*
X0086585Y0177289D02*
X0085151Y0177289D01*
X0086585Y0177289D02*
X0087303Y0178006D01*
X0087303Y0179441D01*
X0087303Y0181893D02*
X0084433Y0181893D01*
X0084433Y0182610D01*
X0085151Y0183327D01*
X0084433Y0184045D01*
X0085151Y0184762D01*
X0087303Y0184762D01*
X0087303Y0183327D02*
X0085151Y0183327D01*
X0084433Y0186497D02*
X0084433Y0188649D01*
X0085151Y0189366D01*
X0086585Y0189366D01*
X0087303Y0188649D01*
X0087303Y0186497D01*
X0088737Y0186497D02*
X0084433Y0186497D01*
X0085151Y0191101D02*
X0084433Y0191818D01*
X0084433Y0193253D01*
X0085151Y0193970D01*
X0085868Y0193970D01*
X0085868Y0191101D01*
X0086585Y0191101D02*
X0085151Y0191101D01*
X0086585Y0191101D02*
X0087303Y0191818D01*
X0087303Y0193253D01*
X0087303Y0195705D02*
X0084433Y0195705D01*
X0084433Y0197139D02*
X0084433Y0197857D01*
X0084433Y0197139D02*
X0085868Y0195705D01*
X0086585Y0199541D02*
X0085868Y0200259D01*
X0085868Y0202410D01*
X0085151Y0202410D02*
X0087303Y0202410D01*
X0087303Y0200259D01*
X0086585Y0199541D01*
X0084433Y0200259D02*
X0084433Y0201693D01*
X0085151Y0202410D01*
X0084433Y0204145D02*
X0084433Y0205580D01*
X0083716Y0204862D02*
X0086585Y0204862D01*
X0087303Y0205580D01*
X0086585Y0207214D02*
X0087303Y0207932D01*
X0087303Y0210084D01*
X0084433Y0210084D01*
X0084433Y0211818D02*
X0087303Y0211818D01*
X0085868Y0211818D02*
X0084433Y0213253D01*
X0084433Y0213970D01*
X0085151Y0215655D02*
X0084433Y0216372D01*
X0084433Y0217807D01*
X0085151Y0218524D01*
X0085868Y0218524D01*
X0085868Y0215655D01*
X0086585Y0215655D02*
X0085151Y0215655D01*
X0086585Y0215655D02*
X0087303Y0216372D01*
X0087303Y0217807D01*
X0087303Y0221670D02*
X0087303Y0224539D01*
X0087303Y0223105D02*
X0082999Y0223105D01*
X0084433Y0221670D01*
X0080612Y0229597D02*
X0079178Y0229597D01*
X0078460Y0230314D01*
X0076726Y0231032D02*
X0076726Y0233901D01*
X0078460Y0233183D02*
X0079178Y0233901D01*
X0080612Y0233901D01*
X0081330Y0233183D01*
X0081330Y0232466D01*
X0080612Y0231749D01*
X0081330Y0231032D01*
X0081330Y0230314D01*
X0080612Y0229597D01*
X0080612Y0231749D02*
X0079895Y0231749D01*
X0076726Y0231032D02*
X0075291Y0229597D01*
X0073856Y0231032D01*
X0073856Y0233901D01*
X0072122Y0233183D02*
X0072122Y0232466D01*
X0071404Y0231749D01*
X0072122Y0231032D01*
X0072122Y0230314D01*
X0071404Y0229597D01*
X0069970Y0229597D01*
X0069253Y0230314D01*
X0070687Y0231749D02*
X0071404Y0231749D01*
X0072122Y0233183D02*
X0071404Y0233901D01*
X0069970Y0233901D01*
X0069253Y0233183D01*
X0070687Y0235847D02*
X0070687Y0240151D01*
X0069253Y0240151D02*
X0072122Y0240151D01*
X0071404Y0242097D02*
X0072122Y0242814D01*
X0072122Y0244249D01*
X0070687Y0244249D01*
X0069253Y0245683D02*
X0069253Y0242814D01*
X0069970Y0242097D01*
X0071404Y0242097D01*
X0073856Y0242097D02*
X0073856Y0246401D01*
X0076726Y0242097D01*
X0076726Y0246401D01*
X0078460Y0246401D02*
X0078460Y0242097D01*
X0080612Y0242097D01*
X0081330Y0242814D01*
X0081330Y0245683D01*
X0080612Y0246401D01*
X0078460Y0246401D01*
X0072122Y0245683D02*
X0071404Y0246401D01*
X0069970Y0246401D01*
X0069253Y0245683D01*
X0074574Y0238716D02*
X0076008Y0238716D01*
X0076726Y0237999D01*
X0076726Y0237282D01*
X0073856Y0237282D01*
X0073856Y0237999D02*
X0074574Y0238716D01*
X0073856Y0237999D02*
X0073856Y0236564D01*
X0074574Y0235847D01*
X0076008Y0235847D01*
X0078460Y0235847D02*
X0078460Y0238716D01*
X0079178Y0238716D01*
X0079895Y0237999D01*
X0080612Y0238716D01*
X0081330Y0237999D01*
X0081330Y0235847D01*
X0079895Y0235847D02*
X0079895Y0237999D01*
X0083064Y0238716D02*
X0083064Y0234412D01*
X0083064Y0235847D02*
X0085216Y0235847D01*
X0085933Y0236564D01*
X0085933Y0237999D01*
X0085216Y0238716D01*
X0083064Y0238716D01*
X0084433Y0207214D02*
X0086585Y0207214D01*
X0131124Y0204341D02*
X0131124Y0201472D01*
X0133276Y0201472D01*
X0132558Y0202907D01*
X0132558Y0203624D01*
X0133276Y0204341D01*
X0134710Y0204341D01*
X0135428Y0203624D01*
X0135428Y0202189D01*
X0134710Y0201472D01*
X0134710Y0199737D02*
X0135428Y0199020D01*
X0135428Y0197585D01*
X0134710Y0196868D01*
X0131841Y0196868D01*
X0131124Y0197585D01*
X0131124Y0199020D01*
X0131841Y0199737D01*
X0172374Y0236533D02*
X0173091Y0235816D01*
X0175960Y0235816D01*
X0176678Y0236533D01*
X0176678Y0237968D01*
X0175960Y0238685D01*
X0176678Y0240420D02*
X0176678Y0243289D01*
X0176678Y0241855D02*
X0172374Y0241855D01*
X0173808Y0240420D01*
X0173091Y0238685D02*
X0172374Y0237968D01*
X0172374Y0236533D01*
X0173091Y0245024D02*
X0172374Y0245741D01*
X0172374Y0247176D01*
X0173091Y0247893D01*
X0175960Y0245024D01*
X0176678Y0245741D01*
X0176678Y0247176D01*
X0175960Y0247893D01*
X0173091Y0247893D01*
X0173091Y0245024D02*
X0175960Y0245024D01*
X0135428Y0244874D02*
X0131124Y0244874D01*
X0133276Y0242722D01*
X0133276Y0245591D01*
X0134710Y0240987D02*
X0135428Y0240270D01*
X0135428Y0238835D01*
X0134710Y0238118D01*
X0131841Y0238118D01*
X0131124Y0238835D01*
X0131124Y0240270D01*
X0131841Y0240987D01*
X0178624Y0196657D02*
X0182928Y0196657D01*
X0182928Y0198091D02*
X0182928Y0195222D01*
X0182928Y0193487D02*
X0182928Y0190618D01*
X0178624Y0190618D01*
X0180058Y0195222D02*
X0178624Y0196657D01*
X0287774Y0184526D02*
X0290643Y0180222D01*
X0292378Y0180222D02*
X0295247Y0183091D01*
X0295247Y0183808D01*
X0294529Y0184526D01*
X0293095Y0184526D01*
X0292378Y0183808D01*
X0290643Y0184526D02*
X0287774Y0180222D01*
X0292378Y0180222D02*
X0295247Y0180222D01*
X0328739Y0190222D02*
X0330174Y0190222D01*
X0329456Y0190222D02*
X0329456Y0194526D01*
X0328739Y0194526D02*
X0330174Y0194526D01*
X0331808Y0193808D02*
X0331808Y0190939D01*
X0332526Y0190222D01*
X0333960Y0190222D01*
X0334677Y0190939D01*
X0336412Y0190939D02*
X0337129Y0190222D01*
X0338564Y0190222D01*
X0339281Y0190939D01*
X0339281Y0192374D01*
X0338564Y0193091D01*
X0337847Y0193091D01*
X0336412Y0192374D01*
X0336412Y0194526D01*
X0339281Y0194526D01*
X0334677Y0193808D02*
X0333960Y0194526D01*
X0332526Y0194526D01*
X0331808Y0193808D01*
X0375499Y0194107D02*
X0375499Y0192672D01*
X0376216Y0191955D01*
X0376933Y0191955D01*
X0377651Y0192672D01*
X0377651Y0194107D01*
X0378368Y0194824D01*
X0379085Y0194824D01*
X0379803Y0194107D01*
X0379803Y0192672D01*
X0379085Y0191955D01*
X0379085Y0190220D02*
X0379803Y0189503D01*
X0379803Y0188068D01*
X0379085Y0187351D01*
X0376216Y0187351D01*
X0375499Y0188068D01*
X0375499Y0189503D01*
X0376216Y0190220D01*
X0375499Y0194107D02*
X0376216Y0194824D01*
X0375499Y0196559D02*
X0375499Y0198710D01*
X0376216Y0199428D01*
X0377651Y0199428D01*
X0378368Y0198710D01*
X0378368Y0196559D01*
X0379803Y0196559D02*
X0375499Y0196559D01*
X0375499Y0185716D02*
X0375499Y0184282D01*
X0375499Y0184999D02*
X0379803Y0184999D01*
X0379803Y0184282D02*
X0379803Y0185716D01*
X0372210Y0155678D02*
X0369341Y0155678D01*
X0372210Y0152809D01*
X0372928Y0153526D01*
X0372928Y0154960D01*
X0372210Y0155678D01*
X0369341Y0155678D02*
X0368624Y0154960D01*
X0368624Y0153526D01*
X0369341Y0152809D01*
X0372210Y0152809D01*
X0372928Y0151074D02*
X0372928Y0148205D01*
X0372928Y0149639D02*
X0368624Y0149639D01*
X0370058Y0148205D01*
X0369341Y0146470D02*
X0368624Y0145753D01*
X0368624Y0144318D01*
X0369341Y0143601D01*
X0372210Y0143601D01*
X0372928Y0144318D01*
X0372928Y0145753D01*
X0372210Y0146470D01*
X0372928Y0141966D02*
X0372928Y0140532D01*
X0372928Y0141249D02*
X0368624Y0141249D01*
X0368624Y0140532D02*
X0368624Y0141966D01*
D11*
X0363691Y0139173D02*
X0363691Y0158071D01*
X0377864Y0158071D01*
X0377864Y0139173D01*
X0363691Y0139173D01*
X0364292Y0155709D02*
X0364294Y0155793D01*
X0364300Y0155876D01*
X0364310Y0155960D01*
X0364324Y0156042D01*
X0364342Y0156124D01*
X0364363Y0156205D01*
X0364389Y0156285D01*
X0364418Y0156363D01*
X0364451Y0156441D01*
X0364488Y0156516D01*
X0364528Y0156589D01*
X0364572Y0156661D01*
X0364619Y0156730D01*
X0364669Y0156798D01*
X0364722Y0156862D01*
X0364779Y0156924D01*
X0364838Y0156983D01*
X0364900Y0157040D01*
X0364964Y0157093D01*
X0365032Y0157143D01*
X0365101Y0157190D01*
X0365172Y0157234D01*
X0365246Y0157274D01*
X0365321Y0157311D01*
X0365399Y0157344D01*
X0365477Y0157373D01*
X0365557Y0157399D01*
X0365638Y0157420D01*
X0365720Y0157438D01*
X0365802Y0157452D01*
X0365886Y0157462D01*
X0365969Y0157468D01*
X0366053Y0157470D01*
X0366137Y0157468D01*
X0366220Y0157462D01*
X0366304Y0157452D01*
X0366386Y0157438D01*
X0366468Y0157420D01*
X0366549Y0157399D01*
X0366629Y0157373D01*
X0366707Y0157344D01*
X0366785Y0157311D01*
X0366860Y0157274D01*
X0366933Y0157234D01*
X0367005Y0157190D01*
X0367074Y0157143D01*
X0367142Y0157093D01*
X0367206Y0157040D01*
X0367268Y0156983D01*
X0367327Y0156924D01*
X0367384Y0156862D01*
X0367437Y0156798D01*
X0367487Y0156730D01*
X0367534Y0156661D01*
X0367578Y0156590D01*
X0367618Y0156516D01*
X0367655Y0156441D01*
X0367688Y0156363D01*
X0367717Y0156285D01*
X0367743Y0156205D01*
X0367764Y0156124D01*
X0367782Y0156042D01*
X0367796Y0155960D01*
X0367806Y0155876D01*
X0367812Y0155793D01*
X0367814Y0155709D01*
X0367812Y0155625D01*
X0367806Y0155542D01*
X0367796Y0155458D01*
X0367782Y0155376D01*
X0367764Y0155294D01*
X0367743Y0155213D01*
X0367717Y0155133D01*
X0367688Y0155055D01*
X0367655Y0154977D01*
X0367618Y0154902D01*
X0367578Y0154829D01*
X0367534Y0154757D01*
X0367487Y0154688D01*
X0367437Y0154620D01*
X0367384Y0154556D01*
X0367327Y0154494D01*
X0367268Y0154435D01*
X0367206Y0154378D01*
X0367142Y0154325D01*
X0367074Y0154275D01*
X0367005Y0154228D01*
X0366934Y0154184D01*
X0366860Y0154144D01*
X0366785Y0154107D01*
X0366707Y0154074D01*
X0366629Y0154045D01*
X0366549Y0154019D01*
X0366468Y0153998D01*
X0366386Y0153980D01*
X0366304Y0153966D01*
X0366220Y0153956D01*
X0366137Y0153950D01*
X0366053Y0153948D01*
X0365969Y0153950D01*
X0365886Y0153956D01*
X0365802Y0153966D01*
X0365720Y0153980D01*
X0365638Y0153998D01*
X0365557Y0154019D01*
X0365477Y0154045D01*
X0365399Y0154074D01*
X0365321Y0154107D01*
X0365246Y0154144D01*
X0365173Y0154184D01*
X0365101Y0154228D01*
X0365032Y0154275D01*
X0364964Y0154325D01*
X0364900Y0154378D01*
X0364838Y0154435D01*
X0364779Y0154494D01*
X0364722Y0154556D01*
X0364669Y0154620D01*
X0364619Y0154688D01*
X0364572Y0154757D01*
X0364528Y0154828D01*
X0364488Y0154902D01*
X0364451Y0154977D01*
X0364418Y0155055D01*
X0364389Y0155133D01*
X0364363Y0155213D01*
X0364342Y0155294D01*
X0364324Y0155376D01*
X0364310Y0155458D01*
X0364300Y0155542D01*
X0364294Y0155625D01*
X0364292Y0155709D01*
X0375778Y0164872D02*
X0380153Y0167372D01*
X0375778Y0169872D01*
X0375778Y0164872D01*
X0375778Y0165285D02*
X0376499Y0165285D01*
X0375778Y0165874D02*
X0377530Y0165874D01*
X0378561Y0166463D02*
X0375778Y0166463D01*
X0375778Y0167052D02*
X0379592Y0167052D01*
X0379682Y0167641D02*
X0375778Y0167641D01*
X0375778Y0168230D02*
X0378651Y0168230D01*
X0377621Y0168819D02*
X0375778Y0168819D01*
X0375778Y0169408D02*
X0376590Y0169408D01*
X0373681Y0170645D02*
X0380374Y0170645D01*
X0380374Y0182849D01*
X0373681Y0182849D01*
X0373681Y0170645D01*
X0381278Y0162372D02*
X0395278Y0162372D01*
X0395278Y0222372D01*
X0381278Y0222372D01*
X0381278Y0162372D01*
X0386181Y0154724D02*
X0392874Y0154724D01*
X0392874Y0142520D01*
X0386181Y0142520D01*
X0386181Y0154724D01*
X0353425Y0175049D02*
X0353425Y0209695D01*
X0351850Y0211270D01*
X0317205Y0211270D01*
X0315630Y0209695D01*
X0315630Y0175049D01*
X0317205Y0173474D01*
X0351850Y0173474D01*
X0353425Y0175049D01*
X0348276Y0176624D02*
X0348278Y0176713D01*
X0348284Y0176802D01*
X0348294Y0176891D01*
X0348308Y0176979D01*
X0348325Y0177066D01*
X0348347Y0177152D01*
X0348373Y0177238D01*
X0348402Y0177322D01*
X0348435Y0177405D01*
X0348471Y0177486D01*
X0348512Y0177566D01*
X0348555Y0177643D01*
X0348602Y0177719D01*
X0348653Y0177792D01*
X0348706Y0177863D01*
X0348763Y0177932D01*
X0348823Y0177998D01*
X0348886Y0178062D01*
X0348951Y0178122D01*
X0349019Y0178180D01*
X0349090Y0178234D01*
X0349163Y0178285D01*
X0349238Y0178333D01*
X0349315Y0178378D01*
X0349394Y0178419D01*
X0349475Y0178456D01*
X0349557Y0178490D01*
X0349641Y0178521D01*
X0349726Y0178547D01*
X0349812Y0178570D01*
X0349899Y0178588D01*
X0349987Y0178603D01*
X0350076Y0178614D01*
X0350165Y0178621D01*
X0350254Y0178624D01*
X0350343Y0178623D01*
X0350432Y0178618D01*
X0350520Y0178609D01*
X0350609Y0178596D01*
X0350696Y0178579D01*
X0350783Y0178559D01*
X0350869Y0178534D01*
X0350953Y0178506D01*
X0351036Y0178474D01*
X0351118Y0178438D01*
X0351198Y0178399D01*
X0351276Y0178356D01*
X0351352Y0178310D01*
X0351426Y0178260D01*
X0351498Y0178207D01*
X0351567Y0178151D01*
X0351634Y0178092D01*
X0351698Y0178030D01*
X0351759Y0177966D01*
X0351818Y0177898D01*
X0351873Y0177828D01*
X0351925Y0177756D01*
X0351974Y0177681D01*
X0352019Y0177605D01*
X0352061Y0177526D01*
X0352099Y0177446D01*
X0352134Y0177364D01*
X0352165Y0177280D01*
X0352193Y0177195D01*
X0352216Y0177109D01*
X0352236Y0177022D01*
X0352252Y0176935D01*
X0352264Y0176846D01*
X0352272Y0176758D01*
X0352276Y0176669D01*
X0352276Y0176579D01*
X0352272Y0176490D01*
X0352264Y0176402D01*
X0352252Y0176313D01*
X0352236Y0176226D01*
X0352216Y0176139D01*
X0352193Y0176053D01*
X0352165Y0175968D01*
X0352134Y0175884D01*
X0352099Y0175802D01*
X0352061Y0175722D01*
X0352019Y0175643D01*
X0351974Y0175567D01*
X0351925Y0175492D01*
X0351873Y0175420D01*
X0351818Y0175350D01*
X0351759Y0175282D01*
X0351698Y0175218D01*
X0351634Y0175156D01*
X0351567Y0175097D01*
X0351498Y0175041D01*
X0351426Y0174988D01*
X0351352Y0174938D01*
X0351276Y0174892D01*
X0351198Y0174849D01*
X0351118Y0174810D01*
X0351036Y0174774D01*
X0350953Y0174742D01*
X0350869Y0174714D01*
X0350783Y0174689D01*
X0350696Y0174669D01*
X0350609Y0174652D01*
X0350520Y0174639D01*
X0350432Y0174630D01*
X0350343Y0174625D01*
X0350254Y0174624D01*
X0350165Y0174627D01*
X0350076Y0174634D01*
X0349987Y0174645D01*
X0349899Y0174660D01*
X0349812Y0174678D01*
X0349726Y0174701D01*
X0349641Y0174727D01*
X0349557Y0174758D01*
X0349475Y0174792D01*
X0349394Y0174829D01*
X0349315Y0174870D01*
X0349238Y0174915D01*
X0349163Y0174963D01*
X0349090Y0175014D01*
X0349019Y0175068D01*
X0348951Y0175126D01*
X0348886Y0175186D01*
X0348823Y0175250D01*
X0348763Y0175316D01*
X0348706Y0175385D01*
X0348653Y0175456D01*
X0348602Y0175529D01*
X0348555Y0175605D01*
X0348512Y0175682D01*
X0348471Y0175762D01*
X0348435Y0175843D01*
X0348402Y0175926D01*
X0348373Y0176010D01*
X0348347Y0176096D01*
X0348325Y0176182D01*
X0348308Y0176269D01*
X0348294Y0176357D01*
X0348284Y0176446D01*
X0348278Y0176535D01*
X0348276Y0176624D01*
X0366181Y0186270D02*
X0372874Y0186270D01*
X0372874Y0198474D01*
X0366181Y0198474D01*
X0366181Y0186270D01*
X0366880Y0209026D02*
X0354675Y0209026D01*
X0354675Y0215719D01*
X0366880Y0215719D01*
X0366880Y0209026D01*
X0364124Y0222520D02*
X0357431Y0222520D01*
X0357431Y0234724D01*
X0364124Y0234724D01*
X0364124Y0222520D01*
X0356683Y0224429D02*
X0352352Y0224429D01*
X0352352Y0228760D01*
X0349203Y0228760D01*
X0349203Y0224429D01*
X0344872Y0224429D01*
X0344872Y0233484D01*
X0348415Y0233484D01*
X0348415Y0237815D01*
X0353140Y0237815D01*
X0353140Y0233484D01*
X0356683Y0233484D01*
X0356683Y0224429D01*
X0356122Y0235679D02*
X0356122Y0244734D01*
X0359665Y0244734D01*
X0359665Y0249065D01*
X0364390Y0249065D01*
X0364390Y0244734D01*
X0367933Y0244734D01*
X0367933Y0235679D01*
X0363602Y0235679D01*
X0363602Y0240010D01*
X0360453Y0240010D01*
X0360453Y0235679D01*
X0356122Y0235679D01*
X0354124Y0240020D02*
X0354124Y0252224D01*
X0347431Y0252224D01*
X0347431Y0240020D01*
X0354124Y0240020D01*
X0338130Y0246526D02*
X0338130Y0253219D01*
X0325925Y0253219D01*
X0325925Y0246526D01*
X0338130Y0246526D01*
X0337283Y0245384D02*
X0337283Y0234360D01*
X0331772Y0234360D01*
X0331772Y0245384D01*
X0337283Y0245384D01*
X0327874Y0237224D02*
X0321181Y0237224D01*
X0321181Y0225020D01*
X0327874Y0225020D01*
X0327874Y0237224D01*
X0328681Y0230974D02*
X0328681Y0218770D01*
X0335374Y0218770D01*
X0335374Y0230974D01*
X0328681Y0230974D01*
X0320374Y0225020D02*
X0320374Y0237224D01*
X0313681Y0237224D01*
X0313681Y0225020D01*
X0320374Y0225020D01*
X0316476Y0219828D02*
X0316476Y0211166D01*
X0297579Y0211166D01*
X0297579Y0219828D01*
X0316476Y0219828D01*
X0312933Y0224429D02*
X0308602Y0224429D01*
X0308602Y0228760D01*
X0305453Y0228760D01*
X0305453Y0224429D01*
X0301122Y0224429D01*
X0301122Y0233484D01*
X0304665Y0233484D01*
X0304665Y0237815D01*
X0309390Y0237815D01*
X0309390Y0233484D01*
X0312933Y0233484D01*
X0312933Y0224429D01*
X0300374Y0225020D02*
X0300374Y0237224D01*
X0293681Y0237224D01*
X0293681Y0225020D01*
X0300374Y0225020D01*
X0276624Y0233770D02*
X0276624Y0245974D01*
X0269931Y0245974D01*
X0269931Y0233770D01*
X0276624Y0233770D01*
X0261024Y0244596D02*
X0261024Y0210148D01*
X0248031Y0210148D01*
X0248031Y0244596D01*
X0261024Y0244596D01*
X0248645Y0241747D02*
X0248647Y0241830D01*
X0248653Y0241914D01*
X0248663Y0241997D01*
X0248676Y0242079D01*
X0248694Y0242161D01*
X0248716Y0242241D01*
X0248741Y0242321D01*
X0248770Y0242399D01*
X0248802Y0242476D01*
X0248839Y0242552D01*
X0248878Y0242625D01*
X0248922Y0242696D01*
X0248968Y0242766D01*
X0249018Y0242833D01*
X0249071Y0242898D01*
X0249126Y0242960D01*
X0249185Y0243019D01*
X0249247Y0243076D01*
X0249311Y0243129D01*
X0249377Y0243180D01*
X0249446Y0243227D01*
X0249517Y0243271D01*
X0249590Y0243312D01*
X0249665Y0243349D01*
X0249741Y0243382D01*
X0249819Y0243412D01*
X0249899Y0243438D01*
X0249979Y0243461D01*
X0250060Y0243479D01*
X0250143Y0243494D01*
X0250225Y0243505D01*
X0250309Y0243512D01*
X0250392Y0243515D01*
X0250476Y0243514D01*
X0250559Y0243509D01*
X0250642Y0243500D01*
X0250725Y0243487D01*
X0250806Y0243471D01*
X0250887Y0243450D01*
X0250967Y0243426D01*
X0251046Y0243398D01*
X0251123Y0243366D01*
X0251199Y0243331D01*
X0251273Y0243292D01*
X0251345Y0243250D01*
X0251415Y0243204D01*
X0251482Y0243155D01*
X0251548Y0243103D01*
X0251610Y0243048D01*
X0251671Y0242990D01*
X0251728Y0242929D01*
X0251782Y0242866D01*
X0251833Y0242800D01*
X0251882Y0242731D01*
X0251926Y0242661D01*
X0251968Y0242588D01*
X0252006Y0242514D01*
X0252040Y0242438D01*
X0252071Y0242360D01*
X0252098Y0242281D01*
X0252122Y0242201D01*
X0252141Y0242120D01*
X0252157Y0242038D01*
X0252169Y0241955D01*
X0252177Y0241872D01*
X0252181Y0241789D01*
X0252181Y0241705D01*
X0252177Y0241622D01*
X0252169Y0241539D01*
X0252157Y0241456D01*
X0252141Y0241374D01*
X0252122Y0241293D01*
X0252098Y0241213D01*
X0252071Y0241134D01*
X0252040Y0241056D01*
X0252006Y0240980D01*
X0251968Y0240906D01*
X0251926Y0240833D01*
X0251882Y0240763D01*
X0251833Y0240694D01*
X0251782Y0240628D01*
X0251728Y0240565D01*
X0251671Y0240504D01*
X0251610Y0240446D01*
X0251548Y0240391D01*
X0251482Y0240339D01*
X0251415Y0240290D01*
X0251345Y0240244D01*
X0251273Y0240202D01*
X0251199Y0240163D01*
X0251123Y0240128D01*
X0251046Y0240096D01*
X0250967Y0240068D01*
X0250887Y0240044D01*
X0250806Y0240023D01*
X0250725Y0240007D01*
X0250642Y0239994D01*
X0250559Y0239985D01*
X0250476Y0239980D01*
X0250392Y0239979D01*
X0250309Y0239982D01*
X0250225Y0239989D01*
X0250143Y0240000D01*
X0250060Y0240015D01*
X0249979Y0240033D01*
X0249899Y0240056D01*
X0249819Y0240082D01*
X0249741Y0240112D01*
X0249665Y0240145D01*
X0249590Y0240182D01*
X0249517Y0240223D01*
X0249446Y0240267D01*
X0249377Y0240314D01*
X0249311Y0240365D01*
X0249247Y0240418D01*
X0249185Y0240475D01*
X0249126Y0240534D01*
X0249071Y0240596D01*
X0249018Y0240661D01*
X0248968Y0240728D01*
X0248922Y0240798D01*
X0248878Y0240869D01*
X0248839Y0240942D01*
X0248802Y0241018D01*
X0248770Y0241095D01*
X0248741Y0241173D01*
X0248716Y0241253D01*
X0248694Y0241333D01*
X0248676Y0241415D01*
X0248663Y0241497D01*
X0248653Y0241580D01*
X0248647Y0241664D01*
X0248645Y0241747D01*
X0239124Y0244724D02*
X0232431Y0244724D01*
X0232431Y0232520D01*
X0239124Y0232520D01*
X0239124Y0244724D01*
X0227874Y0244724D02*
X0221181Y0244724D01*
X0221181Y0232520D01*
X0227874Y0232520D01*
X0227874Y0244724D01*
X0219970Y0244528D02*
X0219970Y0240197D01*
X0215640Y0240197D01*
X0215640Y0237047D01*
X0219970Y0237047D01*
X0219970Y0232717D01*
X0210915Y0232717D01*
X0210915Y0236260D01*
X0206585Y0236260D01*
X0206585Y0240984D01*
X0210915Y0240984D01*
X0210915Y0244528D01*
X0219970Y0244528D01*
X0212874Y0245645D02*
X0212874Y0257849D01*
X0206181Y0257849D01*
X0206181Y0245645D01*
X0212874Y0245645D01*
X0205374Y0245645D02*
X0205374Y0257849D01*
X0198681Y0257849D01*
X0198681Y0245645D01*
X0205374Y0245645D01*
X0191028Y0237372D02*
X0188028Y0237372D01*
X0189528Y0235872D02*
X0189528Y0238872D01*
X0154843Y0242372D02*
X0154849Y0242855D01*
X0154867Y0243338D01*
X0154896Y0243820D01*
X0154938Y0244301D01*
X0154991Y0244782D01*
X0155056Y0245260D01*
X0155133Y0245737D01*
X0155221Y0246212D01*
X0155321Y0246685D01*
X0155433Y0247155D01*
X0155556Y0247622D01*
X0155691Y0248086D01*
X0155837Y0248547D01*
X0155994Y0249004D01*
X0156162Y0249457D01*
X0156341Y0249905D01*
X0156532Y0250349D01*
X0156733Y0250788D01*
X0156945Y0251223D01*
X0157167Y0251651D01*
X0157400Y0252075D01*
X0157644Y0252492D01*
X0157897Y0252903D01*
X0158161Y0253308D01*
X0158434Y0253707D01*
X0158717Y0254098D01*
X0159009Y0254483D01*
X0159311Y0254860D01*
X0159622Y0255230D01*
X0159942Y0255592D01*
X0160271Y0255946D01*
X0160609Y0256291D01*
X0160954Y0256629D01*
X0161308Y0256958D01*
X0161670Y0257278D01*
X0162040Y0257589D01*
X0162417Y0257891D01*
X0162802Y0258183D01*
X0163193Y0258466D01*
X0163592Y0258739D01*
X0163997Y0259003D01*
X0164408Y0259256D01*
X0164825Y0259500D01*
X0165249Y0259733D01*
X0165677Y0259955D01*
X0166112Y0260167D01*
X0166551Y0260368D01*
X0166995Y0260559D01*
X0167443Y0260738D01*
X0167896Y0260906D01*
X0168353Y0261063D01*
X0168814Y0261209D01*
X0169278Y0261344D01*
X0169745Y0261467D01*
X0170215Y0261579D01*
X0170688Y0261679D01*
X0171163Y0261767D01*
X0171640Y0261844D01*
X0172118Y0261909D01*
X0172599Y0261962D01*
X0173080Y0262004D01*
X0173562Y0262033D01*
X0174045Y0262051D01*
X0174528Y0262057D01*
X0175011Y0262051D01*
X0175494Y0262033D01*
X0175976Y0262004D01*
X0176457Y0261962D01*
X0176938Y0261909D01*
X0177416Y0261844D01*
X0177893Y0261767D01*
X0178368Y0261679D01*
X0178841Y0261579D01*
X0179311Y0261467D01*
X0179778Y0261344D01*
X0180242Y0261209D01*
X0180703Y0261063D01*
X0181160Y0260906D01*
X0181613Y0260738D01*
X0182061Y0260559D01*
X0182505Y0260368D01*
X0182944Y0260167D01*
X0183379Y0259955D01*
X0183807Y0259733D01*
X0184231Y0259500D01*
X0184648Y0259256D01*
X0185059Y0259003D01*
X0185464Y0258739D01*
X0185863Y0258466D01*
X0186254Y0258183D01*
X0186639Y0257891D01*
X0187016Y0257589D01*
X0187386Y0257278D01*
X0187748Y0256958D01*
X0188102Y0256629D01*
X0188447Y0256291D01*
X0188785Y0255946D01*
X0189114Y0255592D01*
X0189434Y0255230D01*
X0189745Y0254860D01*
X0190047Y0254483D01*
X0190339Y0254098D01*
X0190622Y0253707D01*
X0190895Y0253308D01*
X0191159Y0252903D01*
X0191412Y0252492D01*
X0191656Y0252075D01*
X0191889Y0251651D01*
X0192111Y0251223D01*
X0192323Y0250788D01*
X0192524Y0250349D01*
X0192715Y0249905D01*
X0192894Y0249457D01*
X0193062Y0249004D01*
X0193219Y0248547D01*
X0193365Y0248086D01*
X0193500Y0247622D01*
X0193623Y0247155D01*
X0193735Y0246685D01*
X0193835Y0246212D01*
X0193923Y0245737D01*
X0194000Y0245260D01*
X0194065Y0244782D01*
X0194118Y0244301D01*
X0194160Y0243820D01*
X0194189Y0243338D01*
X0194207Y0242855D01*
X0194213Y0242372D01*
X0194207Y0241889D01*
X0194189Y0241406D01*
X0194160Y0240924D01*
X0194118Y0240443D01*
X0194065Y0239962D01*
X0194000Y0239484D01*
X0193923Y0239007D01*
X0193835Y0238532D01*
X0193735Y0238059D01*
X0193623Y0237589D01*
X0193500Y0237122D01*
X0193365Y0236658D01*
X0193219Y0236197D01*
X0193062Y0235740D01*
X0192894Y0235287D01*
X0192715Y0234839D01*
X0192524Y0234395D01*
X0192323Y0233956D01*
X0192111Y0233521D01*
X0191889Y0233093D01*
X0191656Y0232669D01*
X0191412Y0232252D01*
X0191159Y0231841D01*
X0190895Y0231436D01*
X0190622Y0231037D01*
X0190339Y0230646D01*
X0190047Y0230261D01*
X0189745Y0229884D01*
X0189434Y0229514D01*
X0189114Y0229152D01*
X0188785Y0228798D01*
X0188447Y0228453D01*
X0188102Y0228115D01*
X0187748Y0227786D01*
X0187386Y0227466D01*
X0187016Y0227155D01*
X0186639Y0226853D01*
X0186254Y0226561D01*
X0185863Y0226278D01*
X0185464Y0226005D01*
X0185059Y0225741D01*
X0184648Y0225488D01*
X0184231Y0225244D01*
X0183807Y0225011D01*
X0183379Y0224789D01*
X0182944Y0224577D01*
X0182505Y0224376D01*
X0182061Y0224185D01*
X0181613Y0224006D01*
X0181160Y0223838D01*
X0180703Y0223681D01*
X0180242Y0223535D01*
X0179778Y0223400D01*
X0179311Y0223277D01*
X0178841Y0223165D01*
X0178368Y0223065D01*
X0177893Y0222977D01*
X0177416Y0222900D01*
X0176938Y0222835D01*
X0176457Y0222782D01*
X0175976Y0222740D01*
X0175494Y0222711D01*
X0175011Y0222693D01*
X0174528Y0222687D01*
X0174045Y0222693D01*
X0173562Y0222711D01*
X0173080Y0222740D01*
X0172599Y0222782D01*
X0172118Y0222835D01*
X0171640Y0222900D01*
X0171163Y0222977D01*
X0170688Y0223065D01*
X0170215Y0223165D01*
X0169745Y0223277D01*
X0169278Y0223400D01*
X0168814Y0223535D01*
X0168353Y0223681D01*
X0167896Y0223838D01*
X0167443Y0224006D01*
X0166995Y0224185D01*
X0166551Y0224376D01*
X0166112Y0224577D01*
X0165677Y0224789D01*
X0165249Y0225011D01*
X0164825Y0225244D01*
X0164408Y0225488D01*
X0163997Y0225741D01*
X0163592Y0226005D01*
X0163193Y0226278D01*
X0162802Y0226561D01*
X0162417Y0226853D01*
X0162040Y0227155D01*
X0161670Y0227466D01*
X0161308Y0227786D01*
X0160954Y0228115D01*
X0160609Y0228453D01*
X0160271Y0228798D01*
X0159942Y0229152D01*
X0159622Y0229514D01*
X0159311Y0229884D01*
X0159009Y0230261D01*
X0158717Y0230646D01*
X0158434Y0231037D01*
X0158161Y0231436D01*
X0157897Y0231841D01*
X0157644Y0232252D01*
X0157400Y0232669D01*
X0157167Y0233093D01*
X0156945Y0233521D01*
X0156733Y0233956D01*
X0156532Y0234395D01*
X0156341Y0234839D01*
X0156162Y0235287D01*
X0155994Y0235740D01*
X0155837Y0236197D01*
X0155691Y0236658D01*
X0155556Y0237122D01*
X0155433Y0237589D01*
X0155321Y0238059D01*
X0155221Y0238532D01*
X0155133Y0239007D01*
X0155056Y0239484D01*
X0154991Y0239962D01*
X0154938Y0240443D01*
X0154896Y0240924D01*
X0154867Y0241406D01*
X0154849Y0241889D01*
X0154843Y0242372D01*
X0113593Y0242372D02*
X0113599Y0242855D01*
X0113617Y0243338D01*
X0113646Y0243820D01*
X0113688Y0244301D01*
X0113741Y0244782D01*
X0113806Y0245260D01*
X0113883Y0245737D01*
X0113971Y0246212D01*
X0114071Y0246685D01*
X0114183Y0247155D01*
X0114306Y0247622D01*
X0114441Y0248086D01*
X0114587Y0248547D01*
X0114744Y0249004D01*
X0114912Y0249457D01*
X0115091Y0249905D01*
X0115282Y0250349D01*
X0115483Y0250788D01*
X0115695Y0251223D01*
X0115917Y0251651D01*
X0116150Y0252075D01*
X0116394Y0252492D01*
X0116647Y0252903D01*
X0116911Y0253308D01*
X0117184Y0253707D01*
X0117467Y0254098D01*
X0117759Y0254483D01*
X0118061Y0254860D01*
X0118372Y0255230D01*
X0118692Y0255592D01*
X0119021Y0255946D01*
X0119359Y0256291D01*
X0119704Y0256629D01*
X0120058Y0256958D01*
X0120420Y0257278D01*
X0120790Y0257589D01*
X0121167Y0257891D01*
X0121552Y0258183D01*
X0121943Y0258466D01*
X0122342Y0258739D01*
X0122747Y0259003D01*
X0123158Y0259256D01*
X0123575Y0259500D01*
X0123999Y0259733D01*
X0124427Y0259955D01*
X0124862Y0260167D01*
X0125301Y0260368D01*
X0125745Y0260559D01*
X0126193Y0260738D01*
X0126646Y0260906D01*
X0127103Y0261063D01*
X0127564Y0261209D01*
X0128028Y0261344D01*
X0128495Y0261467D01*
X0128965Y0261579D01*
X0129438Y0261679D01*
X0129913Y0261767D01*
X0130390Y0261844D01*
X0130868Y0261909D01*
X0131349Y0261962D01*
X0131830Y0262004D01*
X0132312Y0262033D01*
X0132795Y0262051D01*
X0133278Y0262057D01*
X0133761Y0262051D01*
X0134244Y0262033D01*
X0134726Y0262004D01*
X0135207Y0261962D01*
X0135688Y0261909D01*
X0136166Y0261844D01*
X0136643Y0261767D01*
X0137118Y0261679D01*
X0137591Y0261579D01*
X0138061Y0261467D01*
X0138528Y0261344D01*
X0138992Y0261209D01*
X0139453Y0261063D01*
X0139910Y0260906D01*
X0140363Y0260738D01*
X0140811Y0260559D01*
X0141255Y0260368D01*
X0141694Y0260167D01*
X0142129Y0259955D01*
X0142557Y0259733D01*
X0142981Y0259500D01*
X0143398Y0259256D01*
X0143809Y0259003D01*
X0144214Y0258739D01*
X0144613Y0258466D01*
X0145004Y0258183D01*
X0145389Y0257891D01*
X0145766Y0257589D01*
X0146136Y0257278D01*
X0146498Y0256958D01*
X0146852Y0256629D01*
X0147197Y0256291D01*
X0147535Y0255946D01*
X0147864Y0255592D01*
X0148184Y0255230D01*
X0148495Y0254860D01*
X0148797Y0254483D01*
X0149089Y0254098D01*
X0149372Y0253707D01*
X0149645Y0253308D01*
X0149909Y0252903D01*
X0150162Y0252492D01*
X0150406Y0252075D01*
X0150639Y0251651D01*
X0150861Y0251223D01*
X0151073Y0250788D01*
X0151274Y0250349D01*
X0151465Y0249905D01*
X0151644Y0249457D01*
X0151812Y0249004D01*
X0151969Y0248547D01*
X0152115Y0248086D01*
X0152250Y0247622D01*
X0152373Y0247155D01*
X0152485Y0246685D01*
X0152585Y0246212D01*
X0152673Y0245737D01*
X0152750Y0245260D01*
X0152815Y0244782D01*
X0152868Y0244301D01*
X0152910Y0243820D01*
X0152939Y0243338D01*
X0152957Y0242855D01*
X0152963Y0242372D01*
X0152957Y0241889D01*
X0152939Y0241406D01*
X0152910Y0240924D01*
X0152868Y0240443D01*
X0152815Y0239962D01*
X0152750Y0239484D01*
X0152673Y0239007D01*
X0152585Y0238532D01*
X0152485Y0238059D01*
X0152373Y0237589D01*
X0152250Y0237122D01*
X0152115Y0236658D01*
X0151969Y0236197D01*
X0151812Y0235740D01*
X0151644Y0235287D01*
X0151465Y0234839D01*
X0151274Y0234395D01*
X0151073Y0233956D01*
X0150861Y0233521D01*
X0150639Y0233093D01*
X0150406Y0232669D01*
X0150162Y0232252D01*
X0149909Y0231841D01*
X0149645Y0231436D01*
X0149372Y0231037D01*
X0149089Y0230646D01*
X0148797Y0230261D01*
X0148495Y0229884D01*
X0148184Y0229514D01*
X0147864Y0229152D01*
X0147535Y0228798D01*
X0147197Y0228453D01*
X0146852Y0228115D01*
X0146498Y0227786D01*
X0146136Y0227466D01*
X0145766Y0227155D01*
X0145389Y0226853D01*
X0145004Y0226561D01*
X0144613Y0226278D01*
X0144214Y0226005D01*
X0143809Y0225741D01*
X0143398Y0225488D01*
X0142981Y0225244D01*
X0142557Y0225011D01*
X0142129Y0224789D01*
X0141694Y0224577D01*
X0141255Y0224376D01*
X0140811Y0224185D01*
X0140363Y0224006D01*
X0139910Y0223838D01*
X0139453Y0223681D01*
X0138992Y0223535D01*
X0138528Y0223400D01*
X0138061Y0223277D01*
X0137591Y0223165D01*
X0137118Y0223065D01*
X0136643Y0222977D01*
X0136166Y0222900D01*
X0135688Y0222835D01*
X0135207Y0222782D01*
X0134726Y0222740D01*
X0134244Y0222711D01*
X0133761Y0222693D01*
X0133278Y0222687D01*
X0132795Y0222693D01*
X0132312Y0222711D01*
X0131830Y0222740D01*
X0131349Y0222782D01*
X0130868Y0222835D01*
X0130390Y0222900D01*
X0129913Y0222977D01*
X0129438Y0223065D01*
X0128965Y0223165D01*
X0128495Y0223277D01*
X0128028Y0223400D01*
X0127564Y0223535D01*
X0127103Y0223681D01*
X0126646Y0223838D01*
X0126193Y0224006D01*
X0125745Y0224185D01*
X0125301Y0224376D01*
X0124862Y0224577D01*
X0124427Y0224789D01*
X0123999Y0225011D01*
X0123575Y0225244D01*
X0123158Y0225488D01*
X0122747Y0225741D01*
X0122342Y0226005D01*
X0121943Y0226278D01*
X0121552Y0226561D01*
X0121167Y0226853D01*
X0120790Y0227155D01*
X0120420Y0227466D01*
X0120058Y0227786D01*
X0119704Y0228115D01*
X0119359Y0228453D01*
X0119021Y0228798D01*
X0118692Y0229152D01*
X0118372Y0229514D01*
X0118061Y0229884D01*
X0117759Y0230261D01*
X0117467Y0230646D01*
X0117184Y0231037D01*
X0116911Y0231436D01*
X0116647Y0231841D01*
X0116394Y0232252D01*
X0116150Y0232669D01*
X0115917Y0233093D01*
X0115695Y0233521D01*
X0115483Y0233956D01*
X0115282Y0234395D01*
X0115091Y0234839D01*
X0114912Y0235287D01*
X0114744Y0235740D01*
X0114587Y0236197D01*
X0114441Y0236658D01*
X0114306Y0237122D01*
X0114183Y0237589D01*
X0114071Y0238059D01*
X0113971Y0238532D01*
X0113883Y0239007D01*
X0113806Y0239484D01*
X0113741Y0239962D01*
X0113688Y0240443D01*
X0113646Y0240924D01*
X0113617Y0241406D01*
X0113599Y0241889D01*
X0113593Y0242372D01*
X0108130Y0241526D02*
X0108130Y0248219D01*
X0095925Y0248219D01*
X0095925Y0241526D01*
X0108130Y0241526D01*
X0104390Y0250217D02*
X0095335Y0250217D01*
X0095335Y0254547D01*
X0099665Y0254547D01*
X0099665Y0257697D01*
X0095335Y0257697D01*
X0095335Y0262028D01*
X0104390Y0262028D01*
X0104390Y0258484D01*
X0108720Y0258484D01*
X0108720Y0253760D01*
X0104390Y0253760D01*
X0104390Y0250217D01*
X0106181Y0260020D02*
X0112874Y0260020D01*
X0112874Y0272224D01*
X0106181Y0272224D01*
X0106181Y0260020D01*
X0118947Y0270423D02*
X0118947Y0289321D01*
X0127608Y0289321D01*
X0127608Y0270423D01*
X0118947Y0270423D01*
X0111496Y0273041D02*
X0107559Y0273041D01*
X0107559Y0281703D01*
X0111496Y0281703D01*
X0111496Y0273041D01*
X0107953Y0280522D02*
X0107955Y0280578D01*
X0107961Y0280633D01*
X0107971Y0280687D01*
X0107984Y0280741D01*
X0108002Y0280794D01*
X0108023Y0280845D01*
X0108047Y0280895D01*
X0108075Y0280943D01*
X0108107Y0280989D01*
X0108141Y0281033D01*
X0108179Y0281074D01*
X0108219Y0281112D01*
X0108262Y0281147D01*
X0108307Y0281179D01*
X0108355Y0281208D01*
X0108404Y0281234D01*
X0108455Y0281256D01*
X0108507Y0281274D01*
X0108561Y0281288D01*
X0108616Y0281299D01*
X0108671Y0281306D01*
X0108726Y0281309D01*
X0108782Y0281308D01*
X0108837Y0281303D01*
X0108892Y0281294D01*
X0108946Y0281282D01*
X0108999Y0281265D01*
X0109051Y0281245D01*
X0109101Y0281221D01*
X0109149Y0281194D01*
X0109196Y0281164D01*
X0109240Y0281130D01*
X0109282Y0281093D01*
X0109320Y0281053D01*
X0109357Y0281011D01*
X0109390Y0280966D01*
X0109419Y0280920D01*
X0109446Y0280871D01*
X0109468Y0280820D01*
X0109488Y0280768D01*
X0109503Y0280714D01*
X0109515Y0280660D01*
X0109523Y0280605D01*
X0109527Y0280550D01*
X0109527Y0280494D01*
X0109523Y0280439D01*
X0109515Y0280384D01*
X0109503Y0280330D01*
X0109488Y0280276D01*
X0109468Y0280224D01*
X0109446Y0280173D01*
X0109419Y0280124D01*
X0109390Y0280078D01*
X0109357Y0280033D01*
X0109320Y0279991D01*
X0109282Y0279951D01*
X0109240Y0279914D01*
X0109196Y0279880D01*
X0109149Y0279850D01*
X0109101Y0279823D01*
X0109051Y0279799D01*
X0108999Y0279779D01*
X0108946Y0279762D01*
X0108892Y0279750D01*
X0108837Y0279741D01*
X0108782Y0279736D01*
X0108726Y0279735D01*
X0108671Y0279738D01*
X0108616Y0279745D01*
X0108561Y0279756D01*
X0108507Y0279770D01*
X0108455Y0279788D01*
X0108404Y0279810D01*
X0108355Y0279836D01*
X0108307Y0279865D01*
X0108262Y0279897D01*
X0108219Y0279932D01*
X0108179Y0279970D01*
X0108141Y0280011D01*
X0108107Y0280055D01*
X0108075Y0280101D01*
X0108047Y0280149D01*
X0108023Y0280199D01*
X0108002Y0280250D01*
X0107984Y0280303D01*
X0107971Y0280357D01*
X0107961Y0280411D01*
X0107955Y0280466D01*
X0107953Y0280522D01*
X0102874Y0283474D02*
X0096181Y0283474D01*
X0096181Y0271270D01*
X0102874Y0271270D01*
X0102874Y0283474D01*
X0102677Y0289360D02*
X0102677Y0294872D01*
X0102677Y0300384D01*
X0112126Y0300384D01*
X0112126Y0289360D01*
X0102677Y0289360D01*
X0096378Y0289360D01*
X0096378Y0300384D01*
X0102677Y0294872D01*
X0096378Y0289360D01*
X0086929Y0289360D01*
X0086929Y0300384D01*
X0096378Y0300384D01*
X0102677Y0300384D01*
X0113278Y0292087D02*
X0113278Y0323583D01*
X0193278Y0323583D01*
X0193278Y0292087D01*
X0353278Y0292087D01*
X0353278Y0323583D01*
X0193278Y0323583D01*
X0193278Y0292087D01*
X0113278Y0292087D01*
X0134291Y0289114D02*
X0134291Y0269035D01*
X0154764Y0269035D01*
X0154764Y0289114D01*
X0153189Y0290689D01*
X0135866Y0290689D01*
X0134291Y0289114D01*
X0153278Y0323622D02*
X0153278Y0336122D01*
X0193278Y0336122D02*
X0193278Y0323622D01*
X0214616Y0290689D02*
X0213041Y0289114D01*
X0213041Y0269035D01*
X0233514Y0269035D01*
X0233514Y0289114D01*
X0231939Y0290689D01*
X0214616Y0290689D01*
X0209124Y0282224D02*
X0202431Y0282224D01*
X0202431Y0270020D01*
X0209124Y0270020D01*
X0209124Y0282224D01*
X0197746Y0280453D02*
X0197746Y0271791D01*
X0193809Y0271791D01*
X0193809Y0280453D01*
X0197746Y0280453D01*
X0195778Y0272972D02*
X0195780Y0273028D01*
X0195786Y0273083D01*
X0195796Y0273137D01*
X0195809Y0273191D01*
X0195827Y0273244D01*
X0195848Y0273295D01*
X0195872Y0273345D01*
X0195900Y0273393D01*
X0195932Y0273439D01*
X0195966Y0273483D01*
X0196004Y0273524D01*
X0196044Y0273562D01*
X0196087Y0273597D01*
X0196132Y0273629D01*
X0196180Y0273658D01*
X0196229Y0273684D01*
X0196280Y0273706D01*
X0196332Y0273724D01*
X0196386Y0273738D01*
X0196441Y0273749D01*
X0196496Y0273756D01*
X0196551Y0273759D01*
X0196607Y0273758D01*
X0196662Y0273753D01*
X0196717Y0273744D01*
X0196771Y0273732D01*
X0196824Y0273715D01*
X0196876Y0273695D01*
X0196926Y0273671D01*
X0196974Y0273644D01*
X0197021Y0273614D01*
X0197065Y0273580D01*
X0197107Y0273543D01*
X0197145Y0273503D01*
X0197182Y0273461D01*
X0197215Y0273416D01*
X0197244Y0273370D01*
X0197271Y0273321D01*
X0197293Y0273270D01*
X0197313Y0273218D01*
X0197328Y0273164D01*
X0197340Y0273110D01*
X0197348Y0273055D01*
X0197352Y0273000D01*
X0197352Y0272944D01*
X0197348Y0272889D01*
X0197340Y0272834D01*
X0197328Y0272780D01*
X0197313Y0272726D01*
X0197293Y0272674D01*
X0197271Y0272623D01*
X0197244Y0272574D01*
X0197215Y0272528D01*
X0197182Y0272483D01*
X0197145Y0272441D01*
X0197107Y0272401D01*
X0197065Y0272364D01*
X0197021Y0272330D01*
X0196974Y0272300D01*
X0196926Y0272273D01*
X0196876Y0272249D01*
X0196824Y0272229D01*
X0196771Y0272212D01*
X0196717Y0272200D01*
X0196662Y0272191D01*
X0196607Y0272186D01*
X0196551Y0272185D01*
X0196496Y0272188D01*
X0196441Y0272195D01*
X0196386Y0272206D01*
X0196332Y0272220D01*
X0196280Y0272238D01*
X0196229Y0272260D01*
X0196180Y0272286D01*
X0196132Y0272315D01*
X0196087Y0272347D01*
X0196044Y0272382D01*
X0196004Y0272420D01*
X0195966Y0272461D01*
X0195932Y0272505D01*
X0195900Y0272551D01*
X0195872Y0272599D01*
X0195848Y0272649D01*
X0195827Y0272700D01*
X0195809Y0272753D01*
X0195796Y0272807D01*
X0195786Y0272861D01*
X0195780Y0272916D01*
X0195778Y0272972D01*
X0187608Y0270423D02*
X0178947Y0270423D01*
X0178947Y0289321D01*
X0187608Y0289321D01*
X0187608Y0270423D01*
X0234872Y0268041D02*
X0246683Y0268041D01*
X0246683Y0276703D01*
X0234872Y0276703D01*
X0234872Y0268041D01*
X0235659Y0270404D02*
X0235661Y0270483D01*
X0235667Y0270562D01*
X0235677Y0270641D01*
X0235691Y0270719D01*
X0235708Y0270796D01*
X0235730Y0270872D01*
X0235755Y0270947D01*
X0235785Y0271020D01*
X0235817Y0271092D01*
X0235854Y0271163D01*
X0235894Y0271231D01*
X0235937Y0271297D01*
X0235983Y0271361D01*
X0236033Y0271423D01*
X0236086Y0271482D01*
X0236141Y0271538D01*
X0236200Y0271592D01*
X0236261Y0271642D01*
X0236324Y0271690D01*
X0236390Y0271734D01*
X0236458Y0271775D01*
X0236528Y0271812D01*
X0236599Y0271846D01*
X0236673Y0271876D01*
X0236747Y0271902D01*
X0236823Y0271924D01*
X0236900Y0271943D01*
X0236978Y0271958D01*
X0237056Y0271969D01*
X0237135Y0271976D01*
X0237214Y0271979D01*
X0237293Y0271978D01*
X0237372Y0271973D01*
X0237451Y0271964D01*
X0237529Y0271951D01*
X0237606Y0271934D01*
X0237683Y0271914D01*
X0237758Y0271889D01*
X0237832Y0271861D01*
X0237905Y0271829D01*
X0237975Y0271794D01*
X0238044Y0271755D01*
X0238111Y0271712D01*
X0238176Y0271666D01*
X0238238Y0271618D01*
X0238298Y0271566D01*
X0238355Y0271511D01*
X0238409Y0271453D01*
X0238460Y0271393D01*
X0238508Y0271330D01*
X0238553Y0271265D01*
X0238595Y0271197D01*
X0238633Y0271128D01*
X0238667Y0271057D01*
X0238698Y0270984D01*
X0238726Y0270909D01*
X0238749Y0270834D01*
X0238769Y0270757D01*
X0238785Y0270680D01*
X0238797Y0270601D01*
X0238805Y0270523D01*
X0238809Y0270444D01*
X0238809Y0270364D01*
X0238805Y0270285D01*
X0238797Y0270207D01*
X0238785Y0270128D01*
X0238769Y0270051D01*
X0238749Y0269974D01*
X0238726Y0269899D01*
X0238698Y0269824D01*
X0238667Y0269751D01*
X0238633Y0269680D01*
X0238595Y0269611D01*
X0238553Y0269543D01*
X0238508Y0269478D01*
X0238460Y0269415D01*
X0238409Y0269355D01*
X0238355Y0269297D01*
X0238298Y0269242D01*
X0238238Y0269190D01*
X0238176Y0269142D01*
X0238111Y0269096D01*
X0238044Y0269053D01*
X0237975Y0269014D01*
X0237905Y0268979D01*
X0237832Y0268947D01*
X0237758Y0268919D01*
X0237683Y0268894D01*
X0237606Y0268874D01*
X0237529Y0268857D01*
X0237451Y0268844D01*
X0237372Y0268835D01*
X0237293Y0268830D01*
X0237214Y0268829D01*
X0237135Y0268832D01*
X0237056Y0268839D01*
X0236978Y0268850D01*
X0236900Y0268865D01*
X0236823Y0268884D01*
X0236747Y0268906D01*
X0236673Y0268932D01*
X0236599Y0268962D01*
X0236528Y0268996D01*
X0236458Y0269033D01*
X0236390Y0269074D01*
X0236324Y0269118D01*
X0236261Y0269166D01*
X0236200Y0269216D01*
X0236141Y0269270D01*
X0236086Y0269326D01*
X0236033Y0269385D01*
X0235983Y0269447D01*
X0235937Y0269511D01*
X0235894Y0269577D01*
X0235854Y0269645D01*
X0235817Y0269716D01*
X0235785Y0269788D01*
X0235755Y0269861D01*
X0235730Y0269936D01*
X0235708Y0270012D01*
X0235691Y0270089D01*
X0235677Y0270167D01*
X0235667Y0270246D01*
X0235661Y0270325D01*
X0235659Y0270404D01*
X0234675Y0284026D02*
X0246880Y0284026D01*
X0246880Y0290719D01*
X0234675Y0290719D01*
X0234675Y0284026D01*
X0253041Y0289114D02*
X0253041Y0269035D01*
X0273514Y0269035D01*
X0273514Y0289114D01*
X0271939Y0290689D01*
X0254616Y0290689D01*
X0253041Y0289114D01*
X0293041Y0289114D02*
X0293041Y0269035D01*
X0313514Y0269035D01*
X0313514Y0289114D01*
X0311939Y0290689D01*
X0294616Y0290689D01*
X0293041Y0289114D01*
X0314675Y0290719D02*
X0314675Y0284026D01*
X0326880Y0284026D01*
X0326880Y0290719D01*
X0314675Y0290719D01*
X0314872Y0276703D02*
X0326683Y0276703D01*
X0326683Y0268041D01*
X0314872Y0268041D01*
X0314872Y0276703D01*
X0315659Y0270404D02*
X0315661Y0270483D01*
X0315667Y0270562D01*
X0315677Y0270641D01*
X0315691Y0270719D01*
X0315708Y0270796D01*
X0315730Y0270872D01*
X0315755Y0270947D01*
X0315785Y0271020D01*
X0315817Y0271092D01*
X0315854Y0271163D01*
X0315894Y0271231D01*
X0315937Y0271297D01*
X0315983Y0271361D01*
X0316033Y0271423D01*
X0316086Y0271482D01*
X0316141Y0271538D01*
X0316200Y0271592D01*
X0316261Y0271642D01*
X0316324Y0271690D01*
X0316390Y0271734D01*
X0316458Y0271775D01*
X0316528Y0271812D01*
X0316599Y0271846D01*
X0316673Y0271876D01*
X0316747Y0271902D01*
X0316823Y0271924D01*
X0316900Y0271943D01*
X0316978Y0271958D01*
X0317056Y0271969D01*
X0317135Y0271976D01*
X0317214Y0271979D01*
X0317293Y0271978D01*
X0317372Y0271973D01*
X0317451Y0271964D01*
X0317529Y0271951D01*
X0317606Y0271934D01*
X0317683Y0271914D01*
X0317758Y0271889D01*
X0317832Y0271861D01*
X0317905Y0271829D01*
X0317975Y0271794D01*
X0318044Y0271755D01*
X0318111Y0271712D01*
X0318176Y0271666D01*
X0318238Y0271618D01*
X0318298Y0271566D01*
X0318355Y0271511D01*
X0318409Y0271453D01*
X0318460Y0271393D01*
X0318508Y0271330D01*
X0318553Y0271265D01*
X0318595Y0271197D01*
X0318633Y0271128D01*
X0318667Y0271057D01*
X0318698Y0270984D01*
X0318726Y0270909D01*
X0318749Y0270834D01*
X0318769Y0270757D01*
X0318785Y0270680D01*
X0318797Y0270601D01*
X0318805Y0270523D01*
X0318809Y0270444D01*
X0318809Y0270364D01*
X0318805Y0270285D01*
X0318797Y0270207D01*
X0318785Y0270128D01*
X0318769Y0270051D01*
X0318749Y0269974D01*
X0318726Y0269899D01*
X0318698Y0269824D01*
X0318667Y0269751D01*
X0318633Y0269680D01*
X0318595Y0269611D01*
X0318553Y0269543D01*
X0318508Y0269478D01*
X0318460Y0269415D01*
X0318409Y0269355D01*
X0318355Y0269297D01*
X0318298Y0269242D01*
X0318238Y0269190D01*
X0318176Y0269142D01*
X0318111Y0269096D01*
X0318044Y0269053D01*
X0317975Y0269014D01*
X0317905Y0268979D01*
X0317832Y0268947D01*
X0317758Y0268919D01*
X0317683Y0268894D01*
X0317606Y0268874D01*
X0317529Y0268857D01*
X0317451Y0268844D01*
X0317372Y0268835D01*
X0317293Y0268830D01*
X0317214Y0268829D01*
X0317135Y0268832D01*
X0317056Y0268839D01*
X0316978Y0268850D01*
X0316900Y0268865D01*
X0316823Y0268884D01*
X0316747Y0268906D01*
X0316673Y0268932D01*
X0316599Y0268962D01*
X0316528Y0268996D01*
X0316458Y0269033D01*
X0316390Y0269074D01*
X0316324Y0269118D01*
X0316261Y0269166D01*
X0316200Y0269216D01*
X0316141Y0269270D01*
X0316086Y0269326D01*
X0316033Y0269385D01*
X0315983Y0269447D01*
X0315937Y0269511D01*
X0315894Y0269577D01*
X0315854Y0269645D01*
X0315817Y0269716D01*
X0315785Y0269788D01*
X0315755Y0269861D01*
X0315730Y0269936D01*
X0315708Y0270012D01*
X0315691Y0270089D01*
X0315677Y0270167D01*
X0315667Y0270246D01*
X0315661Y0270325D01*
X0315659Y0270404D01*
X0333041Y0269035D02*
X0333041Y0289114D01*
X0334616Y0290689D01*
X0351939Y0290689D01*
X0353514Y0289114D01*
X0353514Y0269035D01*
X0333041Y0269035D01*
X0364429Y0288735D02*
X0364429Y0299759D01*
X0373878Y0299759D01*
X0373878Y0294247D01*
X0373878Y0288735D01*
X0364429Y0288735D01*
X0373878Y0288735D02*
X0380177Y0288735D01*
X0373878Y0294247D01*
X0380177Y0299759D01*
X0380177Y0288735D01*
X0389626Y0288735D01*
X0389626Y0299759D01*
X0380177Y0299759D01*
X0373878Y0299759D01*
X0353278Y0323622D02*
X0353278Y0336122D01*
X0313278Y0336122D02*
X0313278Y0323622D01*
X0273278Y0323622D02*
X0273278Y0336122D01*
X0233278Y0336122D02*
X0233278Y0323622D01*
X0119778Y0247372D02*
X0116778Y0247372D01*
X0118278Y0248872D02*
X0118278Y0245872D01*
X0087653Y0247997D02*
X0087653Y0228622D01*
X0067653Y0228622D01*
X0067653Y0247997D01*
X0087653Y0247997D01*
X0081528Y0226122D02*
X0067528Y0226122D01*
X0067528Y0196122D01*
X0081528Y0196122D01*
X0081528Y0166122D01*
X0067528Y0166122D01*
X0067528Y0196122D01*
X0081528Y0196122D01*
X0081528Y0226122D01*
X0089675Y0214469D02*
X0089675Y0207776D01*
X0101880Y0207776D01*
X0101880Y0214469D01*
X0089675Y0214469D01*
X0116778Y0206122D02*
X0119778Y0206122D01*
X0118278Y0207622D02*
X0118278Y0204622D01*
X0113593Y0201122D02*
X0113599Y0201605D01*
X0113617Y0202088D01*
X0113646Y0202570D01*
X0113688Y0203051D01*
X0113741Y0203532D01*
X0113806Y0204010D01*
X0113883Y0204487D01*
X0113971Y0204962D01*
X0114071Y0205435D01*
X0114183Y0205905D01*
X0114306Y0206372D01*
X0114441Y0206836D01*
X0114587Y0207297D01*
X0114744Y0207754D01*
X0114912Y0208207D01*
X0115091Y0208655D01*
X0115282Y0209099D01*
X0115483Y0209538D01*
X0115695Y0209973D01*
X0115917Y0210401D01*
X0116150Y0210825D01*
X0116394Y0211242D01*
X0116647Y0211653D01*
X0116911Y0212058D01*
X0117184Y0212457D01*
X0117467Y0212848D01*
X0117759Y0213233D01*
X0118061Y0213610D01*
X0118372Y0213980D01*
X0118692Y0214342D01*
X0119021Y0214696D01*
X0119359Y0215041D01*
X0119704Y0215379D01*
X0120058Y0215708D01*
X0120420Y0216028D01*
X0120790Y0216339D01*
X0121167Y0216641D01*
X0121552Y0216933D01*
X0121943Y0217216D01*
X0122342Y0217489D01*
X0122747Y0217753D01*
X0123158Y0218006D01*
X0123575Y0218250D01*
X0123999Y0218483D01*
X0124427Y0218705D01*
X0124862Y0218917D01*
X0125301Y0219118D01*
X0125745Y0219309D01*
X0126193Y0219488D01*
X0126646Y0219656D01*
X0127103Y0219813D01*
X0127564Y0219959D01*
X0128028Y0220094D01*
X0128495Y0220217D01*
X0128965Y0220329D01*
X0129438Y0220429D01*
X0129913Y0220517D01*
X0130390Y0220594D01*
X0130868Y0220659D01*
X0131349Y0220712D01*
X0131830Y0220754D01*
X0132312Y0220783D01*
X0132795Y0220801D01*
X0133278Y0220807D01*
X0133761Y0220801D01*
X0134244Y0220783D01*
X0134726Y0220754D01*
X0135207Y0220712D01*
X0135688Y0220659D01*
X0136166Y0220594D01*
X0136643Y0220517D01*
X0137118Y0220429D01*
X0137591Y0220329D01*
X0138061Y0220217D01*
X0138528Y0220094D01*
X0138992Y0219959D01*
X0139453Y0219813D01*
X0139910Y0219656D01*
X0140363Y0219488D01*
X0140811Y0219309D01*
X0141255Y0219118D01*
X0141694Y0218917D01*
X0142129Y0218705D01*
X0142557Y0218483D01*
X0142981Y0218250D01*
X0143398Y0218006D01*
X0143809Y0217753D01*
X0144214Y0217489D01*
X0144613Y0217216D01*
X0145004Y0216933D01*
X0145389Y0216641D01*
X0145766Y0216339D01*
X0146136Y0216028D01*
X0146498Y0215708D01*
X0146852Y0215379D01*
X0147197Y0215041D01*
X0147535Y0214696D01*
X0147864Y0214342D01*
X0148184Y0213980D01*
X0148495Y0213610D01*
X0148797Y0213233D01*
X0149089Y0212848D01*
X0149372Y0212457D01*
X0149645Y0212058D01*
X0149909Y0211653D01*
X0150162Y0211242D01*
X0150406Y0210825D01*
X0150639Y0210401D01*
X0150861Y0209973D01*
X0151073Y0209538D01*
X0151274Y0209099D01*
X0151465Y0208655D01*
X0151644Y0208207D01*
X0151812Y0207754D01*
X0151969Y0207297D01*
X0152115Y0206836D01*
X0152250Y0206372D01*
X0152373Y0205905D01*
X0152485Y0205435D01*
X0152585Y0204962D01*
X0152673Y0204487D01*
X0152750Y0204010D01*
X0152815Y0203532D01*
X0152868Y0203051D01*
X0152910Y0202570D01*
X0152939Y0202088D01*
X0152957Y0201605D01*
X0152963Y0201122D01*
X0152957Y0200639D01*
X0152939Y0200156D01*
X0152910Y0199674D01*
X0152868Y0199193D01*
X0152815Y0198712D01*
X0152750Y0198234D01*
X0152673Y0197757D01*
X0152585Y0197282D01*
X0152485Y0196809D01*
X0152373Y0196339D01*
X0152250Y0195872D01*
X0152115Y0195408D01*
X0151969Y0194947D01*
X0151812Y0194490D01*
X0151644Y0194037D01*
X0151465Y0193589D01*
X0151274Y0193145D01*
X0151073Y0192706D01*
X0150861Y0192271D01*
X0150639Y0191843D01*
X0150406Y0191419D01*
X0150162Y0191002D01*
X0149909Y0190591D01*
X0149645Y0190186D01*
X0149372Y0189787D01*
X0149089Y0189396D01*
X0148797Y0189011D01*
X0148495Y0188634D01*
X0148184Y0188264D01*
X0147864Y0187902D01*
X0147535Y0187548D01*
X0147197Y0187203D01*
X0146852Y0186865D01*
X0146498Y0186536D01*
X0146136Y0186216D01*
X0145766Y0185905D01*
X0145389Y0185603D01*
X0145004Y0185311D01*
X0144613Y0185028D01*
X0144214Y0184755D01*
X0143809Y0184491D01*
X0143398Y0184238D01*
X0142981Y0183994D01*
X0142557Y0183761D01*
X0142129Y0183539D01*
X0141694Y0183327D01*
X0141255Y0183126D01*
X0140811Y0182935D01*
X0140363Y0182756D01*
X0139910Y0182588D01*
X0139453Y0182431D01*
X0138992Y0182285D01*
X0138528Y0182150D01*
X0138061Y0182027D01*
X0137591Y0181915D01*
X0137118Y0181815D01*
X0136643Y0181727D01*
X0136166Y0181650D01*
X0135688Y0181585D01*
X0135207Y0181532D01*
X0134726Y0181490D01*
X0134244Y0181461D01*
X0133761Y0181443D01*
X0133278Y0181437D01*
X0132795Y0181443D01*
X0132312Y0181461D01*
X0131830Y0181490D01*
X0131349Y0181532D01*
X0130868Y0181585D01*
X0130390Y0181650D01*
X0129913Y0181727D01*
X0129438Y0181815D01*
X0128965Y0181915D01*
X0128495Y0182027D01*
X0128028Y0182150D01*
X0127564Y0182285D01*
X0127103Y0182431D01*
X0126646Y0182588D01*
X0126193Y0182756D01*
X0125745Y0182935D01*
X0125301Y0183126D01*
X0124862Y0183327D01*
X0124427Y0183539D01*
X0123999Y0183761D01*
X0123575Y0183994D01*
X0123158Y0184238D01*
X0122747Y0184491D01*
X0122342Y0184755D01*
X0121943Y0185028D01*
X0121552Y0185311D01*
X0121167Y0185603D01*
X0120790Y0185905D01*
X0120420Y0186216D01*
X0120058Y0186536D01*
X0119704Y0186865D01*
X0119359Y0187203D01*
X0119021Y0187548D01*
X0118692Y0187902D01*
X0118372Y0188264D01*
X0118061Y0188634D01*
X0117759Y0189011D01*
X0117467Y0189396D01*
X0117184Y0189787D01*
X0116911Y0190186D01*
X0116647Y0190591D01*
X0116394Y0191002D01*
X0116150Y0191419D01*
X0115917Y0191843D01*
X0115695Y0192271D01*
X0115483Y0192706D01*
X0115282Y0193145D01*
X0115091Y0193589D01*
X0114912Y0194037D01*
X0114744Y0194490D01*
X0114587Y0194947D01*
X0114441Y0195408D01*
X0114306Y0195872D01*
X0114183Y0196339D01*
X0114071Y0196809D01*
X0113971Y0197282D01*
X0113883Y0197757D01*
X0113806Y0198234D01*
X0113741Y0198712D01*
X0113688Y0199193D01*
X0113646Y0199674D01*
X0113617Y0200156D01*
X0113599Y0200639D01*
X0113593Y0201122D01*
X0121476Y0181703D02*
X0102579Y0181703D01*
X0102579Y0173041D01*
X0121476Y0173041D01*
X0121476Y0181703D01*
X0128425Y0179469D02*
X0128425Y0172776D01*
X0140630Y0172776D01*
X0140630Y0179469D01*
X0128425Y0179469D01*
X0133189Y0171939D02*
X0115866Y0171939D01*
X0114291Y0170364D01*
X0114291Y0150285D01*
X0134764Y0150285D01*
X0134764Y0170364D01*
X0133189Y0171939D01*
X0139291Y0161959D02*
X0139291Y0141880D01*
X0140866Y0140305D01*
X0158189Y0140305D01*
X0159764Y0141880D01*
X0159764Y0161959D01*
X0139291Y0161959D01*
X0155187Y0173219D02*
X0155187Y0216526D01*
X0155189Y0216650D01*
X0155195Y0216773D01*
X0155204Y0216897D01*
X0155218Y0217019D01*
X0155235Y0217142D01*
X0155257Y0217264D01*
X0155282Y0217385D01*
X0155311Y0217505D01*
X0155343Y0217624D01*
X0155380Y0217743D01*
X0155420Y0217860D01*
X0155463Y0217975D01*
X0155511Y0218090D01*
X0155562Y0218202D01*
X0155616Y0218313D01*
X0155674Y0218423D01*
X0155735Y0218530D01*
X0155800Y0218636D01*
X0155868Y0218739D01*
X0155939Y0218840D01*
X0156013Y0218939D01*
X0156090Y0219036D01*
X0156171Y0219130D01*
X0156254Y0219221D01*
X0156340Y0219310D01*
X0156429Y0219396D01*
X0156520Y0219479D01*
X0156614Y0219560D01*
X0156711Y0219637D01*
X0156810Y0219711D01*
X0156911Y0219782D01*
X0157014Y0219850D01*
X0157120Y0219915D01*
X0157227Y0219976D01*
X0157337Y0220034D01*
X0157448Y0220088D01*
X0157560Y0220139D01*
X0157675Y0220187D01*
X0157790Y0220230D01*
X0157907Y0220270D01*
X0158026Y0220307D01*
X0158145Y0220339D01*
X0158265Y0220368D01*
X0158386Y0220393D01*
X0158508Y0220415D01*
X0158631Y0220432D01*
X0158753Y0220446D01*
X0158877Y0220455D01*
X0159000Y0220461D01*
X0159124Y0220463D01*
X0202431Y0220463D01*
X0202555Y0220461D01*
X0202678Y0220455D01*
X0202802Y0220446D01*
X0202924Y0220432D01*
X0203047Y0220415D01*
X0203169Y0220393D01*
X0203290Y0220368D01*
X0203410Y0220339D01*
X0203529Y0220307D01*
X0203648Y0220270D01*
X0203765Y0220230D01*
X0203880Y0220187D01*
X0203995Y0220139D01*
X0204107Y0220088D01*
X0204218Y0220034D01*
X0204328Y0219976D01*
X0204435Y0219915D01*
X0204541Y0219850D01*
X0204644Y0219782D01*
X0204745Y0219711D01*
X0204844Y0219637D01*
X0204941Y0219560D01*
X0205035Y0219479D01*
X0205126Y0219396D01*
X0205215Y0219310D01*
X0205301Y0219221D01*
X0205384Y0219130D01*
X0205465Y0219036D01*
X0205542Y0218939D01*
X0205616Y0218840D01*
X0205687Y0218739D01*
X0205755Y0218636D01*
X0205820Y0218530D01*
X0205881Y0218423D01*
X0205939Y0218313D01*
X0205993Y0218202D01*
X0206044Y0218090D01*
X0206092Y0217975D01*
X0206135Y0217860D01*
X0206175Y0217743D01*
X0206212Y0217624D01*
X0206244Y0217505D01*
X0206273Y0217385D01*
X0206298Y0217264D01*
X0206320Y0217142D01*
X0206337Y0217019D01*
X0206351Y0216897D01*
X0206360Y0216773D01*
X0206366Y0216650D01*
X0206368Y0216526D01*
X0206368Y0173219D01*
X0208947Y0175571D02*
X0217608Y0175571D01*
X0217608Y0156673D01*
X0208947Y0156673D01*
X0208947Y0175571D01*
X0206368Y0173219D02*
X0206366Y0173095D01*
X0206360Y0172972D01*
X0206351Y0172848D01*
X0206337Y0172726D01*
X0206320Y0172603D01*
X0206298Y0172481D01*
X0206273Y0172360D01*
X0206244Y0172240D01*
X0206212Y0172121D01*
X0206175Y0172002D01*
X0206135Y0171885D01*
X0206092Y0171770D01*
X0206044Y0171655D01*
X0205993Y0171543D01*
X0205939Y0171432D01*
X0205881Y0171322D01*
X0205820Y0171215D01*
X0205755Y0171109D01*
X0205687Y0171006D01*
X0205616Y0170905D01*
X0205542Y0170806D01*
X0205465Y0170709D01*
X0205384Y0170615D01*
X0205301Y0170524D01*
X0205215Y0170435D01*
X0205126Y0170349D01*
X0205035Y0170266D01*
X0204941Y0170185D01*
X0204844Y0170108D01*
X0204745Y0170034D01*
X0204644Y0169963D01*
X0204541Y0169895D01*
X0204435Y0169830D01*
X0204328Y0169769D01*
X0204218Y0169711D01*
X0204107Y0169657D01*
X0203995Y0169606D01*
X0203880Y0169558D01*
X0203765Y0169515D01*
X0203648Y0169475D01*
X0203529Y0169438D01*
X0203410Y0169406D01*
X0203290Y0169377D01*
X0203169Y0169352D01*
X0203047Y0169330D01*
X0202924Y0169313D01*
X0202802Y0169299D01*
X0202678Y0169290D01*
X0202555Y0169284D01*
X0202431Y0169282D01*
X0202431Y0169281D02*
X0159124Y0169281D01*
X0160753Y0166033D02*
X0167052Y0166033D01*
X0167052Y0158947D01*
X0160753Y0158947D01*
X0163903Y0155797D01*
X0167052Y0158947D01*
X0167052Y0155797D01*
X0163903Y0155797D01*
X0160753Y0155797D01*
X0160753Y0158947D01*
X0160753Y0166033D01*
X0159124Y0169282D02*
X0159000Y0169284D01*
X0158877Y0169290D01*
X0158753Y0169299D01*
X0158631Y0169313D01*
X0158508Y0169330D01*
X0158386Y0169352D01*
X0158265Y0169377D01*
X0158145Y0169406D01*
X0158026Y0169438D01*
X0157907Y0169475D01*
X0157790Y0169515D01*
X0157675Y0169558D01*
X0157560Y0169606D01*
X0157448Y0169657D01*
X0157337Y0169711D01*
X0157227Y0169769D01*
X0157120Y0169830D01*
X0157014Y0169895D01*
X0156911Y0169963D01*
X0156810Y0170034D01*
X0156711Y0170108D01*
X0156614Y0170185D01*
X0156520Y0170266D01*
X0156429Y0170349D01*
X0156340Y0170435D01*
X0156254Y0170524D01*
X0156171Y0170615D01*
X0156090Y0170709D01*
X0156013Y0170806D01*
X0155939Y0170905D01*
X0155868Y0171006D01*
X0155800Y0171109D01*
X0155735Y0171215D01*
X0155674Y0171322D01*
X0155616Y0171432D01*
X0155562Y0171543D01*
X0155511Y0171655D01*
X0155463Y0171770D01*
X0155420Y0171885D01*
X0155380Y0172002D01*
X0155343Y0172121D01*
X0155311Y0172240D01*
X0155282Y0172360D01*
X0155257Y0172481D01*
X0155235Y0172603D01*
X0155218Y0172726D01*
X0155204Y0172848D01*
X0155195Y0172972D01*
X0155189Y0173095D01*
X0155187Y0173219D01*
X0160753Y0155797D02*
X0160753Y0148711D01*
X0167052Y0148711D01*
X0167052Y0155797D01*
X0175915Y0137028D02*
X0184970Y0137028D01*
X0184970Y0132697D01*
X0180640Y0132697D01*
X0180640Y0129547D01*
X0184970Y0129547D01*
X0184970Y0125217D01*
X0175915Y0125217D01*
X0175915Y0128760D01*
X0171585Y0128760D01*
X0171585Y0133484D01*
X0175915Y0133484D01*
X0175915Y0137028D01*
X0170925Y0123219D02*
X0170925Y0116526D01*
X0183130Y0116526D01*
X0183130Y0123219D01*
X0170925Y0123219D01*
X0167028Y0113622D02*
X0167028Y0089872D01*
X0248278Y0089872D01*
X0248278Y0113622D01*
X0167028Y0113622D01*
X0151624Y0112520D02*
X0151624Y0124724D01*
X0144931Y0124724D01*
X0144931Y0112520D01*
X0151624Y0112520D01*
X0143976Y0119459D02*
X0143976Y0105285D01*
X0125079Y0105285D01*
X0125079Y0119459D01*
X0143976Y0119459D01*
X0139853Y0117096D02*
X0139855Y0117180D01*
X0139861Y0117263D01*
X0139871Y0117347D01*
X0139885Y0117429D01*
X0139903Y0117511D01*
X0139924Y0117592D01*
X0139950Y0117672D01*
X0139979Y0117750D01*
X0140012Y0117828D01*
X0140049Y0117903D01*
X0140089Y0117976D01*
X0140133Y0118048D01*
X0140180Y0118117D01*
X0140230Y0118185D01*
X0140283Y0118249D01*
X0140340Y0118311D01*
X0140399Y0118370D01*
X0140461Y0118427D01*
X0140525Y0118480D01*
X0140593Y0118530D01*
X0140662Y0118577D01*
X0140733Y0118621D01*
X0140807Y0118661D01*
X0140882Y0118698D01*
X0140960Y0118731D01*
X0141038Y0118760D01*
X0141118Y0118786D01*
X0141199Y0118807D01*
X0141281Y0118825D01*
X0141363Y0118839D01*
X0141447Y0118849D01*
X0141530Y0118855D01*
X0141614Y0118857D01*
X0141698Y0118855D01*
X0141781Y0118849D01*
X0141865Y0118839D01*
X0141947Y0118825D01*
X0142029Y0118807D01*
X0142110Y0118786D01*
X0142190Y0118760D01*
X0142268Y0118731D01*
X0142346Y0118698D01*
X0142421Y0118661D01*
X0142494Y0118621D01*
X0142566Y0118577D01*
X0142635Y0118530D01*
X0142703Y0118480D01*
X0142767Y0118427D01*
X0142829Y0118370D01*
X0142888Y0118311D01*
X0142945Y0118249D01*
X0142998Y0118185D01*
X0143048Y0118117D01*
X0143095Y0118048D01*
X0143139Y0117977D01*
X0143179Y0117903D01*
X0143216Y0117828D01*
X0143249Y0117750D01*
X0143278Y0117672D01*
X0143304Y0117592D01*
X0143325Y0117511D01*
X0143343Y0117429D01*
X0143357Y0117347D01*
X0143367Y0117263D01*
X0143373Y0117180D01*
X0143375Y0117096D01*
X0143373Y0117012D01*
X0143367Y0116929D01*
X0143357Y0116845D01*
X0143343Y0116763D01*
X0143325Y0116681D01*
X0143304Y0116600D01*
X0143278Y0116520D01*
X0143249Y0116442D01*
X0143216Y0116364D01*
X0143179Y0116289D01*
X0143139Y0116216D01*
X0143095Y0116144D01*
X0143048Y0116075D01*
X0142998Y0116007D01*
X0142945Y0115943D01*
X0142888Y0115881D01*
X0142829Y0115822D01*
X0142767Y0115765D01*
X0142703Y0115712D01*
X0142635Y0115662D01*
X0142566Y0115615D01*
X0142495Y0115571D01*
X0142421Y0115531D01*
X0142346Y0115494D01*
X0142268Y0115461D01*
X0142190Y0115432D01*
X0142110Y0115406D01*
X0142029Y0115385D01*
X0141947Y0115367D01*
X0141865Y0115353D01*
X0141781Y0115343D01*
X0141698Y0115337D01*
X0141614Y0115335D01*
X0141530Y0115337D01*
X0141447Y0115343D01*
X0141363Y0115353D01*
X0141281Y0115367D01*
X0141199Y0115385D01*
X0141118Y0115406D01*
X0141038Y0115432D01*
X0140960Y0115461D01*
X0140882Y0115494D01*
X0140807Y0115531D01*
X0140734Y0115571D01*
X0140662Y0115615D01*
X0140593Y0115662D01*
X0140525Y0115712D01*
X0140461Y0115765D01*
X0140399Y0115822D01*
X0140340Y0115881D01*
X0140283Y0115943D01*
X0140230Y0116007D01*
X0140180Y0116075D01*
X0140133Y0116144D01*
X0140089Y0116215D01*
X0140049Y0116289D01*
X0140012Y0116364D01*
X0139979Y0116442D01*
X0139950Y0116520D01*
X0139924Y0116600D01*
X0139903Y0116681D01*
X0139885Y0116763D01*
X0139871Y0116845D01*
X0139861Y0116929D01*
X0139855Y0117012D01*
X0139853Y0117096D01*
X0124124Y0122224D02*
X0124124Y0110020D01*
X0117431Y0110020D01*
X0117431Y0122224D01*
X0124124Y0122224D01*
X0116624Y0122224D02*
X0109931Y0122224D01*
X0109931Y0110020D01*
X0116624Y0110020D01*
X0116624Y0122224D01*
X0114852Y0109272D02*
X0111703Y0109272D01*
X0111703Y0106122D01*
X0114852Y0109272D01*
X0114852Y0102972D01*
X0111703Y0106122D01*
X0111703Y0102972D01*
X0104616Y0102972D01*
X0104616Y0109272D01*
X0111703Y0109272D01*
X0114852Y0109272D02*
X0121939Y0109272D01*
X0121939Y0102972D01*
X0114852Y0102972D01*
X0111703Y0102972D01*
X0096427Y0119961D02*
X0090128Y0119961D01*
X0090128Y0127047D01*
X0093278Y0127047D01*
X0090128Y0130197D01*
X0096427Y0130197D01*
X0093278Y0127047D01*
X0096427Y0127047D01*
X0096427Y0119961D01*
X0096427Y0127047D02*
X0096427Y0130197D01*
X0096427Y0137283D01*
X0090128Y0137283D01*
X0090128Y0130197D01*
X0090128Y0127047D01*
X0081528Y0128622D02*
X0067528Y0128622D01*
X0067528Y0148622D01*
X0081528Y0148622D01*
X0081528Y0128622D01*
X0095915Y0138967D02*
X0095915Y0142510D01*
X0091585Y0142510D01*
X0091585Y0147234D01*
X0095915Y0147234D01*
X0095915Y0150778D01*
X0104970Y0150778D01*
X0104970Y0146447D01*
X0100640Y0146447D01*
X0100640Y0143297D01*
X0104970Y0143297D01*
X0104970Y0138967D01*
X0095915Y0138967D01*
X0096624Y0162520D02*
X0089931Y0162520D01*
X0089931Y0174724D01*
X0096624Y0174724D01*
X0096624Y0162520D01*
X0184085Y0123484D02*
X0184085Y0118760D01*
X0188415Y0118760D01*
X0188415Y0115217D01*
X0197470Y0115217D01*
X0197470Y0119547D01*
X0193140Y0119547D01*
X0193140Y0122697D01*
X0197470Y0122697D01*
X0197470Y0127028D01*
X0188415Y0127028D01*
X0188415Y0123484D01*
X0184085Y0123484D01*
X0192431Y0128770D02*
X0199124Y0128770D01*
X0199124Y0140974D01*
X0192431Y0140974D01*
X0192431Y0128770D01*
X0213829Y0142416D02*
X0213829Y0151078D01*
X0232726Y0151078D01*
X0232726Y0142416D01*
X0213829Y0142416D01*
X0219675Y0152151D02*
X0219675Y0158844D01*
X0231880Y0158844D01*
X0231880Y0152151D01*
X0219675Y0152151D01*
X0218681Y0163770D02*
X0225374Y0163770D01*
X0225374Y0175974D01*
X0218681Y0175974D01*
X0218681Y0163770D01*
X0226516Y0165010D02*
X0226516Y0169734D01*
X0237933Y0169734D01*
X0237933Y0165010D01*
X0226516Y0165010D01*
X0227407Y0166585D02*
X0227409Y0166644D01*
X0227415Y0166702D01*
X0227425Y0166760D01*
X0227438Y0166817D01*
X0227456Y0166874D01*
X0227477Y0166929D01*
X0227502Y0166982D01*
X0227530Y0167033D01*
X0227561Y0167083D01*
X0227596Y0167130D01*
X0227634Y0167175D01*
X0227675Y0167218D01*
X0227719Y0167257D01*
X0227765Y0167293D01*
X0227813Y0167327D01*
X0227864Y0167357D01*
X0227917Y0167383D01*
X0227971Y0167406D01*
X0228026Y0167425D01*
X0228083Y0167441D01*
X0228141Y0167453D01*
X0228199Y0167461D01*
X0228258Y0167465D01*
X0228316Y0167465D01*
X0228375Y0167461D01*
X0228433Y0167453D01*
X0228491Y0167441D01*
X0228548Y0167425D01*
X0228603Y0167406D01*
X0228657Y0167383D01*
X0228710Y0167357D01*
X0228761Y0167327D01*
X0228809Y0167293D01*
X0228855Y0167257D01*
X0228899Y0167218D01*
X0228940Y0167175D01*
X0228978Y0167130D01*
X0229013Y0167083D01*
X0229044Y0167033D01*
X0229072Y0166982D01*
X0229097Y0166929D01*
X0229118Y0166874D01*
X0229136Y0166817D01*
X0229149Y0166760D01*
X0229159Y0166702D01*
X0229165Y0166644D01*
X0229167Y0166585D01*
X0229165Y0166526D01*
X0229159Y0166468D01*
X0229149Y0166410D01*
X0229136Y0166353D01*
X0229118Y0166296D01*
X0229097Y0166241D01*
X0229072Y0166188D01*
X0229044Y0166137D01*
X0229013Y0166087D01*
X0228978Y0166040D01*
X0228940Y0165995D01*
X0228899Y0165952D01*
X0228855Y0165913D01*
X0228809Y0165877D01*
X0228761Y0165843D01*
X0228710Y0165813D01*
X0228657Y0165787D01*
X0228603Y0165764D01*
X0228548Y0165745D01*
X0228491Y0165729D01*
X0228433Y0165717D01*
X0228375Y0165709D01*
X0228316Y0165705D01*
X0228258Y0165705D01*
X0228199Y0165709D01*
X0228141Y0165717D01*
X0228083Y0165729D01*
X0228026Y0165745D01*
X0227971Y0165764D01*
X0227917Y0165787D01*
X0227864Y0165813D01*
X0227813Y0165843D01*
X0227765Y0165877D01*
X0227719Y0165913D01*
X0227675Y0165952D01*
X0227634Y0165995D01*
X0227596Y0166040D01*
X0227561Y0166087D01*
X0227530Y0166137D01*
X0227502Y0166188D01*
X0227477Y0166241D01*
X0227456Y0166296D01*
X0227438Y0166353D01*
X0227425Y0166410D01*
X0227415Y0166468D01*
X0227409Y0166526D01*
X0227407Y0166585D01*
X0238425Y0169469D02*
X0238425Y0162776D01*
X0250630Y0162776D01*
X0250630Y0169469D01*
X0238425Y0169469D01*
X0238425Y0170276D02*
X0238425Y0176969D01*
X0250630Y0176969D01*
X0250630Y0170276D01*
X0238425Y0170276D01*
X0238425Y0161969D02*
X0238425Y0155276D01*
X0250630Y0155276D01*
X0250630Y0161969D01*
X0238425Y0161969D01*
X0238425Y0154469D02*
X0238425Y0147776D01*
X0250630Y0147776D01*
X0250630Y0154469D01*
X0238425Y0154469D01*
X0230896Y0177126D02*
X0220659Y0177126D01*
X0218888Y0178898D01*
X0218888Y0188346D01*
X0220659Y0190118D01*
X0230896Y0190118D01*
X0232667Y0188346D01*
X0232667Y0178898D01*
X0230896Y0177126D01*
X0234931Y0180020D02*
X0241624Y0180020D01*
X0241624Y0192224D01*
X0234931Y0192224D01*
X0234931Y0180020D01*
X0249085Y0180010D02*
X0249085Y0184734D01*
X0253415Y0184734D01*
X0253415Y0188278D01*
X0262470Y0188278D01*
X0262470Y0183947D01*
X0258140Y0183947D01*
X0258140Y0180797D01*
X0262470Y0180797D01*
X0262470Y0176467D01*
X0253415Y0176467D01*
X0253415Y0180010D01*
X0249085Y0180010D01*
X0236880Y0195276D02*
X0236880Y0201969D01*
X0224675Y0201969D01*
X0224675Y0195276D01*
X0236880Y0195276D01*
X0240925Y0202776D02*
X0253130Y0202776D01*
X0253130Y0209469D01*
X0240925Y0209469D01*
X0240925Y0202776D01*
X0240374Y0215020D02*
X0233681Y0215020D01*
X0233681Y0227224D01*
X0240374Y0227224D01*
X0240374Y0215020D01*
X0255925Y0209469D02*
X0255925Y0202776D01*
X0268130Y0202776D01*
X0268130Y0209469D01*
X0255925Y0209469D01*
X0277431Y0194724D02*
X0284124Y0194724D01*
X0284124Y0182520D01*
X0277431Y0182520D01*
X0277431Y0194724D01*
X0285728Y0194970D02*
X0298327Y0194970D01*
X0298327Y0169774D01*
X0285728Y0169774D01*
X0285728Y0194970D01*
X0298681Y0197224D02*
X0298681Y0185020D01*
X0305374Y0185020D01*
X0305374Y0197224D01*
X0298681Y0197224D01*
X0284124Y0182224D02*
X0277431Y0182224D01*
X0277431Y0170020D01*
X0284124Y0170020D01*
X0284124Y0182224D01*
X0307431Y0157224D02*
X0314124Y0157224D01*
X0314124Y0145020D01*
X0307431Y0145020D01*
X0307431Y0157224D01*
X0314931Y0157224D02*
X0321624Y0157224D01*
X0321624Y0145020D01*
X0314931Y0145020D01*
X0314931Y0157224D01*
X0324931Y0151270D02*
X0331624Y0151270D01*
X0331624Y0163474D01*
X0324931Y0163474D01*
X0324931Y0151270D01*
X0314124Y0137224D02*
X0307431Y0137224D01*
X0307431Y0125020D01*
X0314124Y0125020D01*
X0314124Y0137224D01*
X0306624Y0137224D02*
X0299931Y0137224D01*
X0299931Y0125020D01*
X0306624Y0125020D01*
X0306624Y0137224D01*
X0299124Y0137224D02*
X0292431Y0137224D01*
X0292431Y0125020D01*
X0299124Y0125020D01*
X0299124Y0137224D01*
X0291624Y0137224D02*
X0284931Y0137224D01*
X0284931Y0125020D01*
X0291624Y0125020D01*
X0291624Y0137224D01*
X0284124Y0137224D02*
X0277431Y0137224D01*
X0277431Y0125020D01*
X0284124Y0125020D01*
X0284124Y0137224D01*
X0274124Y0124724D02*
X0267431Y0124724D01*
X0267431Y0112520D01*
X0274124Y0112520D01*
X0274124Y0124724D01*
X0275079Y0118209D02*
X0293976Y0118209D01*
X0293976Y0104035D01*
X0275079Y0104035D01*
X0275079Y0118209D01*
X0290928Y0116522D02*
X0290930Y0116599D01*
X0290936Y0116676D01*
X0290946Y0116753D01*
X0290960Y0116829D01*
X0290977Y0116904D01*
X0290999Y0116978D01*
X0291024Y0117051D01*
X0291054Y0117123D01*
X0291086Y0117193D01*
X0291123Y0117261D01*
X0291162Y0117327D01*
X0291205Y0117391D01*
X0291252Y0117453D01*
X0291301Y0117512D01*
X0291354Y0117569D01*
X0291409Y0117623D01*
X0291467Y0117674D01*
X0291528Y0117722D01*
X0291591Y0117767D01*
X0291656Y0117808D01*
X0291723Y0117846D01*
X0291792Y0117881D01*
X0291863Y0117911D01*
X0291935Y0117939D01*
X0292009Y0117962D01*
X0292083Y0117982D01*
X0292159Y0117998D01*
X0292235Y0118010D01*
X0292312Y0118018D01*
X0292389Y0118022D01*
X0292467Y0118022D01*
X0292544Y0118018D01*
X0292621Y0118010D01*
X0292697Y0117998D01*
X0292773Y0117982D01*
X0292847Y0117962D01*
X0292921Y0117939D01*
X0292993Y0117911D01*
X0293064Y0117881D01*
X0293133Y0117846D01*
X0293200Y0117808D01*
X0293265Y0117767D01*
X0293328Y0117722D01*
X0293389Y0117674D01*
X0293447Y0117623D01*
X0293502Y0117569D01*
X0293555Y0117512D01*
X0293604Y0117453D01*
X0293651Y0117391D01*
X0293694Y0117327D01*
X0293733Y0117261D01*
X0293770Y0117193D01*
X0293802Y0117123D01*
X0293832Y0117051D01*
X0293857Y0116978D01*
X0293879Y0116904D01*
X0293896Y0116829D01*
X0293910Y0116753D01*
X0293920Y0116676D01*
X0293926Y0116599D01*
X0293928Y0116522D01*
X0293926Y0116445D01*
X0293920Y0116368D01*
X0293910Y0116291D01*
X0293896Y0116215D01*
X0293879Y0116140D01*
X0293857Y0116066D01*
X0293832Y0115993D01*
X0293802Y0115921D01*
X0293770Y0115851D01*
X0293733Y0115783D01*
X0293694Y0115717D01*
X0293651Y0115653D01*
X0293604Y0115591D01*
X0293555Y0115532D01*
X0293502Y0115475D01*
X0293447Y0115421D01*
X0293389Y0115370D01*
X0293328Y0115322D01*
X0293265Y0115277D01*
X0293200Y0115236D01*
X0293133Y0115198D01*
X0293064Y0115163D01*
X0292993Y0115133D01*
X0292921Y0115105D01*
X0292847Y0115082D01*
X0292773Y0115062D01*
X0292697Y0115046D01*
X0292621Y0115034D01*
X0292544Y0115026D01*
X0292467Y0115022D01*
X0292389Y0115022D01*
X0292312Y0115026D01*
X0292235Y0115034D01*
X0292159Y0115046D01*
X0292083Y0115062D01*
X0292009Y0115082D01*
X0291935Y0115105D01*
X0291863Y0115133D01*
X0291792Y0115163D01*
X0291723Y0115198D01*
X0291656Y0115236D01*
X0291591Y0115277D01*
X0291528Y0115322D01*
X0291467Y0115370D01*
X0291409Y0115421D01*
X0291354Y0115475D01*
X0291301Y0115532D01*
X0291252Y0115591D01*
X0291205Y0115653D01*
X0291162Y0115717D01*
X0291123Y0115783D01*
X0291086Y0115851D01*
X0291054Y0115921D01*
X0291024Y0115993D01*
X0290999Y0116066D01*
X0290977Y0116140D01*
X0290960Y0116215D01*
X0290946Y0116291D01*
X0290936Y0116368D01*
X0290930Y0116445D01*
X0290928Y0116522D01*
X0294675Y0104469D02*
X0294675Y0097776D01*
X0306880Y0097776D01*
X0306880Y0104469D01*
X0294675Y0104469D01*
X0291329Y0097953D02*
X0291329Y0089291D01*
X0310226Y0089291D01*
X0310226Y0097953D01*
X0291329Y0097953D01*
X0290630Y0096969D02*
X0290630Y0090276D01*
X0278425Y0090276D01*
X0278425Y0096969D01*
X0290630Y0096969D01*
X0291329Y0089203D02*
X0291329Y0080541D01*
X0310226Y0080541D01*
X0310226Y0089203D01*
X0291329Y0089203D01*
X0288652Y0082707D02*
X0288652Y0080344D01*
X0294163Y0080344D01*
X0301250Y0073258D01*
X0301250Y0046486D01*
X0294163Y0039400D01*
X0288652Y0039400D01*
X0288652Y0037037D01*
X0272904Y0037037D01*
X0272904Y0039400D01*
X0267392Y0039400D01*
X0260305Y0046486D01*
X0260305Y0073258D01*
X0267392Y0080344D01*
X0272904Y0080344D01*
X0272904Y0082707D01*
X0288652Y0082707D01*
X0312156Y0067707D02*
X0358809Y0067707D01*
X0358855Y0067705D01*
X0358901Y0067700D01*
X0358947Y0067691D01*
X0358992Y0067678D01*
X0359035Y0067662D01*
X0359077Y0067643D01*
X0359118Y0067620D01*
X0359156Y0067594D01*
X0359193Y0067565D01*
X0359227Y0067534D01*
X0359258Y0067500D01*
X0359287Y0067463D01*
X0359313Y0067425D01*
X0359336Y0067384D01*
X0359355Y0067342D01*
X0359371Y0067299D01*
X0359384Y0067254D01*
X0359393Y0067208D01*
X0359398Y0067162D01*
X0359400Y0067116D01*
X0359400Y0051959D01*
X0359400Y0037785D02*
X0359400Y0004715D01*
X0312746Y0004715D01*
X0312746Y0004714D02*
X0312700Y0004716D01*
X0312654Y0004721D01*
X0312608Y0004730D01*
X0312563Y0004743D01*
X0312520Y0004759D01*
X0312478Y0004778D01*
X0312437Y0004801D01*
X0312399Y0004827D01*
X0312362Y0004856D01*
X0312328Y0004887D01*
X0312297Y0004921D01*
X0312268Y0004958D01*
X0312242Y0004996D01*
X0312219Y0005037D01*
X0312200Y0005079D01*
X0312184Y0005122D01*
X0312171Y0005167D01*
X0312162Y0005213D01*
X0312157Y0005259D01*
X0312155Y0005305D01*
X0312156Y0005305D02*
X0312156Y0037785D01*
X0312156Y0051959D02*
X0312156Y0067707D01*
X0325866Y0085472D02*
X0325866Y0091772D01*
X0332953Y0091772D01*
X0332953Y0088622D01*
X0336102Y0091772D01*
X0336102Y0085472D01*
X0332953Y0088622D01*
X0332953Y0085472D01*
X0325866Y0085472D01*
X0332953Y0085472D02*
X0336102Y0085472D01*
X0343189Y0085472D01*
X0343189Y0091772D01*
X0336102Y0091772D01*
X0332953Y0091772D01*
X0296880Y0036969D02*
X0284675Y0036969D01*
X0284675Y0030276D01*
X0296880Y0030276D01*
X0296880Y0036969D01*
X0258858Y0037923D02*
X0250197Y0037923D01*
X0250197Y0056821D01*
X0258858Y0056821D01*
X0258858Y0037923D01*
X0250108Y0037923D02*
X0241447Y0037923D01*
X0241447Y0056821D01*
X0250108Y0056821D01*
X0250108Y0037923D01*
X0221624Y0065020D02*
X0214931Y0065020D01*
X0214931Y0077224D01*
X0221624Y0077224D01*
X0221624Y0065020D01*
X0213130Y0062776D02*
X0213130Y0069469D01*
X0200925Y0069469D01*
X0200925Y0062776D01*
X0213130Y0062776D01*
X0214124Y0071270D02*
X0207431Y0071270D01*
X0207431Y0083474D01*
X0214124Y0083474D01*
X0214124Y0071270D01*
X0206624Y0071270D02*
X0199931Y0071270D01*
X0199931Y0083474D01*
X0206624Y0083474D01*
X0206624Y0071270D01*
X0199124Y0077224D02*
X0192431Y0077224D01*
X0192431Y0065020D01*
X0199124Y0065020D01*
X0199124Y0077224D01*
X0191624Y0077224D02*
X0184931Y0077224D01*
X0184931Y0065020D01*
X0191624Y0065020D01*
X0191624Y0077224D01*
X0151624Y0077224D02*
X0151624Y0065020D01*
X0144931Y0065020D01*
X0144931Y0077224D01*
X0151624Y0077224D01*
X0144124Y0071270D02*
X0137431Y0071270D01*
X0137431Y0083474D01*
X0144124Y0083474D01*
X0144124Y0071270D01*
X0143130Y0069469D02*
X0130925Y0069469D01*
X0130925Y0062776D01*
X0143130Y0062776D01*
X0143130Y0069469D01*
X0136624Y0071270D02*
X0129931Y0071270D01*
X0129931Y0083474D01*
X0136624Y0083474D01*
X0136624Y0071270D01*
X0129124Y0077224D02*
X0129124Y0065020D01*
X0122431Y0065020D01*
X0122431Y0077224D01*
X0129124Y0077224D01*
X0121624Y0077224D02*
X0114931Y0077224D01*
X0114931Y0065020D01*
X0121624Y0065020D01*
X0121624Y0077224D01*
X0210197Y0200404D02*
X0210197Y0204341D01*
X0218858Y0204341D01*
X0218858Y0200404D01*
X0210197Y0200404D01*
X0210591Y0201585D02*
X0210593Y0201641D01*
X0210599Y0201696D01*
X0210609Y0201750D01*
X0210622Y0201804D01*
X0210640Y0201857D01*
X0210661Y0201908D01*
X0210685Y0201958D01*
X0210713Y0202006D01*
X0210745Y0202052D01*
X0210779Y0202096D01*
X0210817Y0202137D01*
X0210857Y0202175D01*
X0210900Y0202210D01*
X0210945Y0202242D01*
X0210993Y0202271D01*
X0211042Y0202297D01*
X0211093Y0202319D01*
X0211145Y0202337D01*
X0211199Y0202351D01*
X0211254Y0202362D01*
X0211309Y0202369D01*
X0211364Y0202372D01*
X0211420Y0202371D01*
X0211475Y0202366D01*
X0211530Y0202357D01*
X0211584Y0202345D01*
X0211637Y0202328D01*
X0211689Y0202308D01*
X0211739Y0202284D01*
X0211787Y0202257D01*
X0211834Y0202227D01*
X0211878Y0202193D01*
X0211920Y0202156D01*
X0211958Y0202116D01*
X0211995Y0202074D01*
X0212028Y0202029D01*
X0212057Y0201983D01*
X0212084Y0201934D01*
X0212106Y0201883D01*
X0212126Y0201831D01*
X0212141Y0201777D01*
X0212153Y0201723D01*
X0212161Y0201668D01*
X0212165Y0201613D01*
X0212165Y0201557D01*
X0212161Y0201502D01*
X0212153Y0201447D01*
X0212141Y0201393D01*
X0212126Y0201339D01*
X0212106Y0201287D01*
X0212084Y0201236D01*
X0212057Y0201187D01*
X0212028Y0201141D01*
X0211995Y0201096D01*
X0211958Y0201054D01*
X0211920Y0201014D01*
X0211878Y0200977D01*
X0211834Y0200943D01*
X0211787Y0200913D01*
X0211739Y0200886D01*
X0211689Y0200862D01*
X0211637Y0200842D01*
X0211584Y0200825D01*
X0211530Y0200813D01*
X0211475Y0200804D01*
X0211420Y0200799D01*
X0211364Y0200798D01*
X0211309Y0200801D01*
X0211254Y0200808D01*
X0211199Y0200819D01*
X0211145Y0200833D01*
X0211093Y0200851D01*
X0211042Y0200873D01*
X0210993Y0200899D01*
X0210945Y0200928D01*
X0210900Y0200960D01*
X0210857Y0200995D01*
X0210817Y0201033D01*
X0210779Y0201074D01*
X0210745Y0201118D01*
X0210713Y0201164D01*
X0210685Y0201212D01*
X0210661Y0201262D01*
X0210640Y0201313D01*
X0210622Y0201366D01*
X0210609Y0201420D01*
X0210599Y0201474D01*
X0210593Y0201529D01*
X0210591Y0201585D01*
X0208425Y0209026D02*
X0208425Y0215719D01*
X0220630Y0215719D01*
X0220630Y0209026D01*
X0208425Y0209026D01*
X0113278Y0323622D02*
X0113278Y0336122D01*
D12*
X0222578Y0255425D02*
X0223829Y0256676D01*
X0227582Y0256676D01*
X0226331Y0254174D02*
X0223829Y0254174D01*
X0222578Y0255425D01*
X0222578Y0251672D02*
X0226331Y0251672D01*
X0227582Y0252923D01*
X0226331Y0254174D01*
X0230496Y0252923D02*
X0231747Y0251672D01*
X0234250Y0251672D01*
X0235501Y0252923D01*
X0235501Y0255425D01*
X0234250Y0256676D01*
X0231747Y0256676D01*
X0230496Y0255425D01*
X0230496Y0252923D01*
X0238415Y0251672D02*
X0240917Y0251672D01*
X0239666Y0251672D02*
X0239666Y0259178D01*
X0238415Y0259178D01*
X0243694Y0255425D02*
X0244945Y0256676D01*
X0248699Y0256676D01*
X0248699Y0259178D02*
X0248699Y0251672D01*
X0244945Y0251672D01*
X0243694Y0252923D01*
X0243694Y0255425D01*
X0251613Y0255425D02*
X0252864Y0256676D01*
X0255366Y0256676D01*
X0256617Y0255425D01*
X0256617Y0254174D01*
X0251613Y0254174D01*
X0251613Y0252923D02*
X0251613Y0255425D01*
X0251613Y0252923D02*
X0252864Y0251672D01*
X0255366Y0251672D01*
X0259532Y0251672D02*
X0259532Y0256676D01*
X0259532Y0254174D02*
X0262034Y0256676D01*
X0263285Y0256676D01*
X0266131Y0256676D02*
X0269884Y0256676D01*
X0271135Y0255425D01*
X0271135Y0251672D01*
X0274050Y0252923D02*
X0275301Y0251672D01*
X0277803Y0251672D01*
X0279054Y0254174D02*
X0274050Y0254174D01*
X0274050Y0252923D02*
X0274050Y0255425D01*
X0275301Y0256676D01*
X0277803Y0256676D01*
X0279054Y0255425D01*
X0279054Y0254174D01*
X0281968Y0254174D02*
X0284470Y0256676D01*
X0285721Y0256676D01*
X0288567Y0255425D02*
X0289818Y0256676D01*
X0293572Y0256676D01*
X0293572Y0259178D02*
X0293572Y0251672D01*
X0289818Y0251672D01*
X0288567Y0252923D01*
X0288567Y0255425D01*
X0281968Y0256676D02*
X0281968Y0251672D01*
X0296486Y0251672D02*
X0297737Y0251672D01*
X0297737Y0252923D01*
X0296486Y0252923D01*
X0296486Y0251672D01*
X0300445Y0252923D02*
X0301696Y0251672D01*
X0305450Y0251672D01*
X0308364Y0252923D02*
X0309615Y0251672D01*
X0312117Y0251672D01*
X0313368Y0252923D01*
X0313368Y0255425D01*
X0312117Y0256676D01*
X0309615Y0256676D01*
X0308364Y0255425D01*
X0308364Y0252923D01*
X0305450Y0256676D02*
X0301696Y0256676D01*
X0300445Y0255425D01*
X0300445Y0252923D01*
X0316283Y0251672D02*
X0316283Y0256676D01*
X0317534Y0256676D01*
X0318785Y0255425D01*
X0320036Y0256676D01*
X0321287Y0255425D01*
X0321287Y0251672D01*
X0318785Y0251672D02*
X0318785Y0255425D01*
X0266131Y0256676D02*
X0266131Y0251672D01*
X0347723Y0163921D02*
X0347723Y0162670D01*
X0350225Y0160168D01*
X0347723Y0160168D02*
X0352728Y0160168D01*
X0350225Y0157254D02*
X0350225Y0152249D01*
X0348974Y0152249D02*
X0347723Y0153500D01*
X0347723Y0156002D01*
X0348974Y0157254D01*
X0350225Y0157254D01*
X0352728Y0156002D02*
X0352728Y0153500D01*
X0351477Y0152249D01*
X0348974Y0152249D01*
X0347723Y0149335D02*
X0347723Y0145582D01*
X0348974Y0144330D01*
X0351477Y0144330D01*
X0352728Y0145582D01*
X0352728Y0149335D01*
X0353979Y0149335D02*
X0355230Y0148084D01*
X0355230Y0146833D01*
X0353979Y0149335D02*
X0347723Y0149335D01*
X0347723Y0141485D02*
X0347723Y0140234D01*
X0350225Y0137732D01*
X0347723Y0137732D02*
X0352728Y0137732D01*
X0352728Y0134817D02*
X0352728Y0131064D01*
X0351477Y0129813D01*
X0350225Y0131064D01*
X0350225Y0134817D01*
X0348974Y0134817D02*
X0352728Y0134817D01*
X0348974Y0134817D02*
X0347723Y0133566D01*
X0347723Y0131064D01*
X0348974Y0126898D02*
X0352728Y0126898D01*
X0348974Y0126898D02*
X0347723Y0125647D01*
X0347723Y0123145D01*
X0348974Y0121894D01*
X0345221Y0121894D02*
X0352728Y0121894D01*
X0351477Y0118980D02*
X0352728Y0117728D01*
X0352728Y0115226D01*
X0351477Y0113975D01*
X0346472Y0113975D01*
X0345221Y0115226D01*
X0345221Y0117728D01*
X0346472Y0118980D01*
X0358971Y0105850D02*
X0360222Y0107101D01*
X0365227Y0107101D01*
X0366478Y0105850D01*
X0366478Y0102097D01*
X0358971Y0102097D01*
X0358971Y0105850D01*
X0352728Y0099458D02*
X0347723Y0099458D01*
X0347723Y0101960D02*
X0347723Y0103211D01*
X0347723Y0101960D02*
X0350225Y0099458D01*
X0350225Y0096543D02*
X0350225Y0092790D01*
X0351477Y0091539D01*
X0352728Y0092790D01*
X0352728Y0096543D01*
X0348974Y0096543D01*
X0347723Y0095292D01*
X0347723Y0092790D01*
X0352728Y0088762D02*
X0352728Y0086260D01*
X0352728Y0087511D02*
X0345221Y0087511D01*
X0345221Y0086260D01*
X0348974Y0083345D02*
X0347723Y0082094D01*
X0347723Y0079592D01*
X0348974Y0078341D01*
X0351477Y0078341D01*
X0352728Y0079592D01*
X0352728Y0082094D01*
X0351477Y0083345D01*
X0348974Y0083345D01*
X0350225Y0075426D02*
X0351477Y0075426D01*
X0352728Y0074175D01*
X0352728Y0071673D01*
X0351477Y0070422D01*
X0348974Y0071673D02*
X0348974Y0074175D01*
X0350225Y0075426D01*
X0346472Y0075426D02*
X0345221Y0074175D01*
X0345221Y0071673D01*
X0346472Y0070422D01*
X0347723Y0070422D01*
X0348974Y0071673D01*
X0358971Y0070422D02*
X0358971Y0074175D01*
X0360222Y0075426D01*
X0362724Y0075426D01*
X0363975Y0074175D01*
X0363975Y0070422D01*
X0363975Y0072924D02*
X0366478Y0075426D01*
X0365227Y0078341D02*
X0362724Y0078341D01*
X0361473Y0079592D01*
X0361473Y0082094D01*
X0362724Y0083345D01*
X0363975Y0083345D01*
X0363975Y0078341D01*
X0365227Y0078341D02*
X0366478Y0079592D01*
X0366478Y0082094D01*
X0361473Y0086260D02*
X0366478Y0088762D01*
X0361473Y0091264D01*
X0358971Y0070422D02*
X0366478Y0070422D01*
D13*
X0343401Y0326822D02*
X0343401Y0332927D01*
X0340349Y0329875D01*
X0344419Y0329875D01*
X0346794Y0329875D02*
X0350864Y0329875D01*
X0338087Y0330892D02*
X0336052Y0330892D01*
X0337069Y0331910D02*
X0337069Y0327840D01*
X0338087Y0326822D01*
X0333676Y0326822D02*
X0333676Y0330892D01*
X0329606Y0330892D02*
X0329606Y0327840D01*
X0330624Y0326822D01*
X0333676Y0326822D01*
X0327231Y0327840D02*
X0327231Y0331910D01*
X0326213Y0332927D01*
X0324178Y0332927D01*
X0323161Y0331910D01*
X0323161Y0327840D01*
X0324178Y0326822D01*
X0326213Y0326822D01*
X0327231Y0327840D01*
X0320785Y0329875D02*
X0316715Y0329875D01*
X0318750Y0331910D02*
X0318750Y0327840D01*
X0310864Y0329875D02*
X0306794Y0329875D01*
X0304419Y0330892D02*
X0303401Y0329875D01*
X0304419Y0328857D01*
X0304419Y0327840D01*
X0303401Y0326822D01*
X0301366Y0326822D01*
X0300349Y0327840D01*
X0298087Y0326822D02*
X0297069Y0327840D01*
X0297069Y0331910D01*
X0296052Y0330892D02*
X0298087Y0330892D01*
X0300349Y0331910D02*
X0301366Y0332927D01*
X0303401Y0332927D01*
X0304419Y0331910D01*
X0304419Y0330892D01*
X0303401Y0329875D02*
X0302384Y0329875D01*
X0293676Y0330892D02*
X0293676Y0326822D01*
X0290624Y0326822D01*
X0289606Y0327840D01*
X0289606Y0330892D01*
X0287231Y0331910D02*
X0287231Y0327840D01*
X0286213Y0326822D01*
X0284178Y0326822D01*
X0283161Y0327840D01*
X0283161Y0331910D01*
X0284178Y0332927D01*
X0286213Y0332927D01*
X0287231Y0331910D01*
X0280785Y0329875D02*
X0276715Y0329875D01*
X0278750Y0331910D02*
X0278750Y0327840D01*
X0270864Y0329875D02*
X0266794Y0329875D01*
X0264419Y0330892D02*
X0264419Y0331910D01*
X0263401Y0332927D01*
X0261366Y0332927D01*
X0260349Y0331910D01*
X0258087Y0330892D02*
X0256052Y0330892D01*
X0257069Y0331910D02*
X0257069Y0327840D01*
X0258087Y0326822D01*
X0260349Y0326822D02*
X0264419Y0330892D01*
X0264419Y0326822D02*
X0260349Y0326822D01*
X0253676Y0326822D02*
X0253676Y0330892D01*
X0249606Y0330892D02*
X0249606Y0327840D01*
X0250624Y0326822D01*
X0253676Y0326822D01*
X0247231Y0327840D02*
X0247231Y0331910D01*
X0246213Y0332927D01*
X0244178Y0332927D01*
X0243161Y0331910D01*
X0243161Y0327840D01*
X0244178Y0326822D01*
X0246213Y0326822D01*
X0247231Y0327840D01*
X0240785Y0329875D02*
X0236715Y0329875D01*
X0238750Y0331910D02*
X0238750Y0327840D01*
X0230864Y0329875D02*
X0226794Y0329875D01*
X0224419Y0326822D02*
X0220349Y0326822D01*
X0222384Y0326822D02*
X0222384Y0332927D01*
X0220349Y0330892D01*
X0218087Y0330892D02*
X0216052Y0330892D01*
X0217069Y0331910D02*
X0217069Y0327840D01*
X0218087Y0326822D01*
X0213676Y0326822D02*
X0213676Y0330892D01*
X0209606Y0330892D02*
X0209606Y0327840D01*
X0210624Y0326822D01*
X0213676Y0326822D01*
X0207231Y0327840D02*
X0207231Y0331910D01*
X0206213Y0332927D01*
X0204178Y0332927D01*
X0203161Y0331910D01*
X0203161Y0327840D01*
X0204178Y0326822D01*
X0206213Y0326822D01*
X0207231Y0327840D01*
X0200785Y0329875D02*
X0196715Y0329875D01*
X0198750Y0331910D02*
X0198750Y0327840D01*
X0186392Y0329875D02*
X0182322Y0329875D01*
X0180060Y0330892D02*
X0178025Y0330892D01*
X0179042Y0331910D02*
X0179042Y0327840D01*
X0180060Y0326822D01*
X0175649Y0326822D02*
X0175649Y0329875D01*
X0174632Y0330892D01*
X0172597Y0330892D01*
X0172597Y0328857D02*
X0175649Y0328857D01*
X0175649Y0326822D02*
X0172597Y0326822D01*
X0171579Y0327840D01*
X0172597Y0328857D01*
X0169204Y0328857D02*
X0169204Y0327840D01*
X0168186Y0326822D01*
X0165134Y0326822D01*
X0165134Y0332927D01*
X0168186Y0332927D01*
X0169204Y0331910D01*
X0169204Y0330892D01*
X0168186Y0329875D01*
X0165134Y0329875D01*
X0162758Y0329875D02*
X0158688Y0329875D01*
X0168186Y0329875D02*
X0169204Y0328857D01*
X0184357Y0327840D02*
X0184357Y0331910D01*
X0147466Y0329875D02*
X0143396Y0329875D01*
X0141020Y0329875D02*
X0141020Y0326822D01*
X0141020Y0329875D02*
X0140003Y0330892D01*
X0136950Y0330892D01*
X0136950Y0326822D01*
X0134575Y0326822D02*
X0131522Y0326822D01*
X0130505Y0327840D01*
X0131522Y0328857D01*
X0134575Y0328857D01*
X0134575Y0329875D02*
X0134575Y0326822D01*
X0134575Y0329875D02*
X0133557Y0330892D01*
X0131522Y0330892D01*
X0128129Y0329875D02*
X0127112Y0328857D01*
X0124059Y0328857D01*
X0124059Y0326822D02*
X0124059Y0332927D01*
X0127112Y0332927D01*
X0128129Y0331910D01*
X0128129Y0329875D01*
X0121684Y0329875D02*
X0117614Y0329875D01*
X0119649Y0331910D02*
X0119649Y0327840D01*
D14*
X0104234Y0253631D02*
X0104234Y0250522D01*
X0211071Y0244222D02*
X0211071Y0241113D01*
X0252324Y0230675D02*
X0256728Y0230675D01*
X0256728Y0229207D02*
X0256728Y0232143D01*
X0253792Y0229207D02*
X0252324Y0230675D01*
X0253058Y0227539D02*
X0252324Y0226805D01*
X0252324Y0225337D01*
X0253058Y0224603D01*
X0255994Y0224603D01*
X0256728Y0225337D01*
X0256728Y0226805D01*
X0255994Y0227539D01*
X0256728Y0223001D02*
X0256728Y0221533D01*
X0256728Y0222267D02*
X0252324Y0222267D01*
X0252324Y0221533D02*
X0252324Y0223001D01*
X0253571Y0187972D02*
X0253571Y0184863D01*
X0227446Y0183922D02*
X0225219Y0186149D01*
X0224663Y0186149D01*
X0224106Y0185592D01*
X0224106Y0184479D01*
X0224663Y0183922D01*
X0227446Y0183922D02*
X0227446Y0186149D01*
X0227446Y0182523D02*
X0227446Y0180297D01*
X0224106Y0180297D01*
X0176071Y0136722D02*
X0176071Y0133613D01*
X0188571Y0126722D02*
X0188571Y0123613D01*
X0096071Y0147363D02*
X0096071Y0150472D01*
X0309518Y0233328D02*
X0312628Y0233328D01*
X0332856Y0235339D02*
X0332856Y0236452D01*
X0332856Y0235895D02*
X0336196Y0235895D01*
X0336196Y0235339D02*
X0336196Y0236452D01*
X0335639Y0237755D02*
X0333413Y0237755D01*
X0332856Y0238312D01*
X0332856Y0239425D01*
X0333413Y0239982D01*
X0333413Y0241380D02*
X0333969Y0241380D01*
X0334526Y0241937D01*
X0334526Y0243050D01*
X0335083Y0243607D01*
X0335639Y0243607D01*
X0336196Y0243050D01*
X0336196Y0241937D01*
X0335639Y0241380D01*
X0335083Y0241380D01*
X0334526Y0241937D01*
X0334526Y0243050D02*
X0333969Y0243607D01*
X0333413Y0243607D01*
X0332856Y0243050D01*
X0332856Y0241937D01*
X0333413Y0241380D01*
X0335639Y0239982D02*
X0336196Y0239425D01*
X0336196Y0238312D01*
X0335639Y0237755D01*
X0353268Y0233328D02*
X0356378Y0233328D01*
X0364518Y0244578D02*
X0367628Y0244578D01*
D15*
X0322008Y0165094D02*
X0307047Y0165094D01*
X0307047Y0158401D01*
X0322008Y0158401D01*
X0322008Y0165094D01*
D16*
X0107894Y0061053D02*
X0107894Y0004754D01*
X0166161Y0004754D01*
X0166161Y0061053D01*
X0107894Y0061053D01*
X0177894Y0061053D02*
X0177894Y0004754D01*
X0236161Y0004754D01*
X0236161Y0061053D01*
X0177894Y0061053D01*
M02*
