G75*
%MOIN*%
%OFA0B0*%
%FSLAX25Y25*%
%IPPOS*%
%LPD*%
%AMOC8*
5,1,8,0,0,1.08239X$1,22.5*
%
%ADD10C,0.00787*%
D10*
X0064055Y0040433D02*
X0064055Y0323898D01*
X0064058Y0324183D01*
X0064069Y0324469D01*
X0064086Y0324754D01*
X0064110Y0325038D01*
X0064141Y0325322D01*
X0064179Y0325605D01*
X0064224Y0325886D01*
X0064275Y0326167D01*
X0064333Y0326447D01*
X0064398Y0326725D01*
X0064470Y0327001D01*
X0064548Y0327275D01*
X0064633Y0327548D01*
X0064725Y0327818D01*
X0064823Y0328086D01*
X0064927Y0328352D01*
X0065038Y0328615D01*
X0065155Y0328875D01*
X0065278Y0329133D01*
X0065408Y0329387D01*
X0065544Y0329638D01*
X0065685Y0329886D01*
X0065833Y0330130D01*
X0065986Y0330371D01*
X0066146Y0330607D01*
X0066311Y0330840D01*
X0066481Y0331069D01*
X0066657Y0331294D01*
X0066839Y0331514D01*
X0067025Y0331730D01*
X0067217Y0331941D01*
X0067414Y0332148D01*
X0067616Y0332350D01*
X0067823Y0332547D01*
X0068034Y0332739D01*
X0068250Y0332925D01*
X0068470Y0333107D01*
X0068695Y0333283D01*
X0068924Y0333453D01*
X0069157Y0333618D01*
X0069393Y0333778D01*
X0069634Y0333931D01*
X0069878Y0334079D01*
X0070126Y0334220D01*
X0070377Y0334356D01*
X0070631Y0334486D01*
X0070889Y0334609D01*
X0071149Y0334726D01*
X0071412Y0334837D01*
X0071678Y0334941D01*
X0071946Y0335039D01*
X0072216Y0335131D01*
X0072489Y0335216D01*
X0072763Y0335294D01*
X0073039Y0335366D01*
X0073317Y0335431D01*
X0073597Y0335489D01*
X0073878Y0335540D01*
X0074159Y0335585D01*
X0074442Y0335623D01*
X0074726Y0335654D01*
X0075010Y0335678D01*
X0075295Y0335695D01*
X0075581Y0335706D01*
X0075866Y0335709D01*
X0386890Y0335709D01*
X0387175Y0335706D01*
X0387461Y0335695D01*
X0387746Y0335678D01*
X0388030Y0335654D01*
X0388314Y0335623D01*
X0388597Y0335585D01*
X0388878Y0335540D01*
X0389159Y0335489D01*
X0389439Y0335431D01*
X0389717Y0335366D01*
X0389993Y0335294D01*
X0390267Y0335216D01*
X0390540Y0335131D01*
X0390810Y0335039D01*
X0391078Y0334941D01*
X0391344Y0334837D01*
X0391607Y0334726D01*
X0391867Y0334609D01*
X0392125Y0334486D01*
X0392379Y0334356D01*
X0392630Y0334220D01*
X0392878Y0334079D01*
X0393122Y0333931D01*
X0393363Y0333778D01*
X0393599Y0333618D01*
X0393832Y0333453D01*
X0394061Y0333283D01*
X0394286Y0333107D01*
X0394506Y0332925D01*
X0394722Y0332739D01*
X0394933Y0332547D01*
X0395140Y0332350D01*
X0395342Y0332148D01*
X0395539Y0331941D01*
X0395731Y0331730D01*
X0395917Y0331514D01*
X0396099Y0331294D01*
X0396275Y0331069D01*
X0396445Y0330840D01*
X0396610Y0330607D01*
X0396770Y0330371D01*
X0396923Y0330130D01*
X0397071Y0329886D01*
X0397212Y0329638D01*
X0397348Y0329387D01*
X0397478Y0329133D01*
X0397601Y0328875D01*
X0397718Y0328615D01*
X0397829Y0328352D01*
X0397933Y0328086D01*
X0398031Y0327818D01*
X0398123Y0327548D01*
X0398208Y0327275D01*
X0398286Y0327001D01*
X0398358Y0326725D01*
X0398423Y0326447D01*
X0398481Y0326167D01*
X0398532Y0325886D01*
X0398577Y0325605D01*
X0398615Y0325322D01*
X0398646Y0325038D01*
X0398670Y0324754D01*
X0398687Y0324469D01*
X0398698Y0324183D01*
X0398701Y0323898D01*
X0398701Y0040433D01*
X0398698Y0040148D01*
X0398687Y0039862D01*
X0398670Y0039577D01*
X0398646Y0039293D01*
X0398615Y0039009D01*
X0398577Y0038726D01*
X0398532Y0038445D01*
X0398481Y0038164D01*
X0398423Y0037884D01*
X0398358Y0037606D01*
X0398286Y0037330D01*
X0398208Y0037056D01*
X0398123Y0036783D01*
X0398031Y0036513D01*
X0397933Y0036245D01*
X0397829Y0035979D01*
X0397718Y0035716D01*
X0397601Y0035456D01*
X0397478Y0035198D01*
X0397348Y0034944D01*
X0397212Y0034693D01*
X0397071Y0034445D01*
X0396923Y0034201D01*
X0396770Y0033960D01*
X0396610Y0033724D01*
X0396445Y0033491D01*
X0396275Y0033262D01*
X0396099Y0033037D01*
X0395917Y0032817D01*
X0395731Y0032601D01*
X0395539Y0032390D01*
X0395342Y0032183D01*
X0395140Y0031981D01*
X0394933Y0031784D01*
X0394722Y0031592D01*
X0394506Y0031406D01*
X0394286Y0031224D01*
X0394061Y0031048D01*
X0393832Y0030878D01*
X0393599Y0030713D01*
X0393363Y0030553D01*
X0393122Y0030400D01*
X0392878Y0030252D01*
X0392630Y0030111D01*
X0392379Y0029975D01*
X0392125Y0029845D01*
X0391867Y0029722D01*
X0391607Y0029605D01*
X0391344Y0029494D01*
X0391078Y0029390D01*
X0390810Y0029292D01*
X0390540Y0029200D01*
X0390267Y0029115D01*
X0389993Y0029037D01*
X0389717Y0028965D01*
X0389439Y0028900D01*
X0389159Y0028842D01*
X0388878Y0028791D01*
X0388597Y0028746D01*
X0388314Y0028708D01*
X0388030Y0028677D01*
X0387746Y0028653D01*
X0387461Y0028636D01*
X0387175Y0028625D01*
X0386890Y0028622D01*
X0075866Y0028622D01*
X0075581Y0028625D01*
X0075295Y0028636D01*
X0075010Y0028653D01*
X0074726Y0028677D01*
X0074442Y0028708D01*
X0074159Y0028746D01*
X0073878Y0028791D01*
X0073597Y0028842D01*
X0073317Y0028900D01*
X0073039Y0028965D01*
X0072763Y0029037D01*
X0072489Y0029115D01*
X0072216Y0029200D01*
X0071946Y0029292D01*
X0071678Y0029390D01*
X0071412Y0029494D01*
X0071149Y0029605D01*
X0070889Y0029722D01*
X0070631Y0029845D01*
X0070377Y0029975D01*
X0070126Y0030111D01*
X0069878Y0030252D01*
X0069634Y0030400D01*
X0069393Y0030553D01*
X0069157Y0030713D01*
X0068924Y0030878D01*
X0068695Y0031048D01*
X0068470Y0031224D01*
X0068250Y0031406D01*
X0068034Y0031592D01*
X0067823Y0031784D01*
X0067616Y0031981D01*
X0067414Y0032183D01*
X0067217Y0032390D01*
X0067025Y0032601D01*
X0066839Y0032817D01*
X0066657Y0033037D01*
X0066481Y0033262D01*
X0066311Y0033491D01*
X0066146Y0033724D01*
X0065986Y0033960D01*
X0065833Y0034201D01*
X0065685Y0034445D01*
X0065544Y0034693D01*
X0065408Y0034944D01*
X0065278Y0035198D01*
X0065155Y0035456D01*
X0065038Y0035716D01*
X0064927Y0035979D01*
X0064823Y0036245D01*
X0064725Y0036513D01*
X0064633Y0036783D01*
X0064548Y0037056D01*
X0064470Y0037330D01*
X0064398Y0037606D01*
X0064333Y0037884D01*
X0064275Y0038164D01*
X0064224Y0038445D01*
X0064179Y0038726D01*
X0064141Y0039009D01*
X0064110Y0039293D01*
X0064086Y0039577D01*
X0064069Y0039862D01*
X0064058Y0040148D01*
X0064055Y0040433D01*
M02*
