G75*
%MOIN*%
%OFA0B0*%
%FSLAX25Y25*%
%IPPOS*%
%LPD*%
%AMOC8*
5,1,8,0,0,1.08239X$1,22.5*
%
%ADD10C,0.01000*%
%ADD11C,0.00000*%
%ADD12C,0.12998*%
%ADD13C,0.06699*%
%ADD14C,0.06306*%
%ADD15C,0.17392*%
%ADD16C,0.10400*%
%ADD17OC8,0.10400*%
%ADD18C,0.08077*%
%ADD19R,0.05124X0.05124*%
D10*
X0030095Y0010207D02*
X0030095Y0348790D01*
X0030097Y0348980D01*
X0030104Y0349170D01*
X0030116Y0349360D01*
X0030132Y0349550D01*
X0030152Y0349739D01*
X0030178Y0349928D01*
X0030207Y0350116D01*
X0030242Y0350303D01*
X0030281Y0350489D01*
X0030324Y0350674D01*
X0030372Y0350859D01*
X0030424Y0351042D01*
X0030480Y0351223D01*
X0030541Y0351403D01*
X0030607Y0351582D01*
X0030676Y0351759D01*
X0030750Y0351935D01*
X0030828Y0352108D01*
X0030911Y0352280D01*
X0030997Y0352449D01*
X0031087Y0352617D01*
X0031182Y0352782D01*
X0031280Y0352945D01*
X0031383Y0353105D01*
X0031489Y0353263D01*
X0031599Y0353418D01*
X0031712Y0353571D01*
X0031830Y0353721D01*
X0031951Y0353867D01*
X0032075Y0354011D01*
X0032203Y0354152D01*
X0032334Y0354290D01*
X0032469Y0354425D01*
X0032607Y0354556D01*
X0032748Y0354684D01*
X0032892Y0354808D01*
X0033038Y0354929D01*
X0033188Y0355047D01*
X0033341Y0355160D01*
X0033496Y0355270D01*
X0033654Y0355376D01*
X0033814Y0355479D01*
X0033977Y0355577D01*
X0034142Y0355672D01*
X0034310Y0355762D01*
X0034479Y0355848D01*
X0034651Y0355931D01*
X0034824Y0356009D01*
X0035000Y0356083D01*
X0035177Y0356152D01*
X0035356Y0356218D01*
X0035536Y0356279D01*
X0035717Y0356335D01*
X0035900Y0356387D01*
X0036085Y0356435D01*
X0036270Y0356478D01*
X0036456Y0356517D01*
X0036643Y0356552D01*
X0036831Y0356581D01*
X0037020Y0356607D01*
X0037209Y0356627D01*
X0037399Y0356643D01*
X0037589Y0356655D01*
X0037779Y0356662D01*
X0037969Y0356664D01*
X0404111Y0356664D01*
X0404301Y0356662D01*
X0404491Y0356655D01*
X0404681Y0356643D01*
X0404871Y0356627D01*
X0405060Y0356607D01*
X0405249Y0356581D01*
X0405437Y0356552D01*
X0405624Y0356517D01*
X0405810Y0356478D01*
X0405995Y0356435D01*
X0406180Y0356387D01*
X0406363Y0356335D01*
X0406544Y0356279D01*
X0406724Y0356218D01*
X0406903Y0356152D01*
X0407080Y0356083D01*
X0407256Y0356009D01*
X0407429Y0355931D01*
X0407601Y0355848D01*
X0407770Y0355762D01*
X0407938Y0355672D01*
X0408103Y0355577D01*
X0408266Y0355479D01*
X0408426Y0355376D01*
X0408584Y0355270D01*
X0408739Y0355160D01*
X0408892Y0355047D01*
X0409042Y0354929D01*
X0409188Y0354808D01*
X0409332Y0354684D01*
X0409473Y0354556D01*
X0409611Y0354425D01*
X0409746Y0354290D01*
X0409877Y0354152D01*
X0410005Y0354011D01*
X0410129Y0353867D01*
X0410250Y0353721D01*
X0410368Y0353571D01*
X0410481Y0353418D01*
X0410591Y0353263D01*
X0410697Y0353105D01*
X0410800Y0352945D01*
X0410898Y0352782D01*
X0410993Y0352617D01*
X0411083Y0352449D01*
X0411169Y0352280D01*
X0411252Y0352108D01*
X0411330Y0351935D01*
X0411404Y0351759D01*
X0411473Y0351582D01*
X0411539Y0351403D01*
X0411600Y0351223D01*
X0411656Y0351042D01*
X0411708Y0350859D01*
X0411756Y0350674D01*
X0411799Y0350489D01*
X0411838Y0350303D01*
X0411873Y0350116D01*
X0411902Y0349928D01*
X0411928Y0349739D01*
X0411948Y0349550D01*
X0411964Y0349360D01*
X0411976Y0349170D01*
X0411983Y0348980D01*
X0411985Y0348790D01*
X0411985Y0010207D01*
X0411983Y0010017D01*
X0411976Y0009827D01*
X0411964Y0009637D01*
X0411948Y0009447D01*
X0411928Y0009258D01*
X0411902Y0009069D01*
X0411873Y0008881D01*
X0411838Y0008694D01*
X0411799Y0008508D01*
X0411756Y0008323D01*
X0411708Y0008138D01*
X0411656Y0007955D01*
X0411600Y0007774D01*
X0411539Y0007594D01*
X0411473Y0007415D01*
X0411404Y0007238D01*
X0411330Y0007062D01*
X0411252Y0006889D01*
X0411169Y0006717D01*
X0411083Y0006548D01*
X0410993Y0006380D01*
X0410898Y0006215D01*
X0410800Y0006052D01*
X0410697Y0005892D01*
X0410591Y0005734D01*
X0410481Y0005579D01*
X0410368Y0005426D01*
X0410250Y0005276D01*
X0410129Y0005130D01*
X0410005Y0004986D01*
X0409877Y0004845D01*
X0409746Y0004707D01*
X0409611Y0004572D01*
X0409473Y0004441D01*
X0409332Y0004313D01*
X0409188Y0004189D01*
X0409042Y0004068D01*
X0408892Y0003950D01*
X0408739Y0003837D01*
X0408584Y0003727D01*
X0408426Y0003621D01*
X0408266Y0003518D01*
X0408103Y0003420D01*
X0407938Y0003325D01*
X0407770Y0003235D01*
X0407601Y0003149D01*
X0407429Y0003066D01*
X0407256Y0002988D01*
X0407080Y0002914D01*
X0406903Y0002845D01*
X0406724Y0002779D01*
X0406544Y0002718D01*
X0406363Y0002662D01*
X0406180Y0002610D01*
X0405995Y0002562D01*
X0405810Y0002519D01*
X0405624Y0002480D01*
X0405437Y0002445D01*
X0405249Y0002416D01*
X0405060Y0002390D01*
X0404871Y0002370D01*
X0404681Y0002354D01*
X0404491Y0002342D01*
X0404301Y0002335D01*
X0404111Y0002333D01*
X0286158Y0002333D01*
X0286095Y0002333D01*
X0037969Y0002333D01*
X0037779Y0002335D01*
X0037589Y0002342D01*
X0037399Y0002354D01*
X0037209Y0002370D01*
X0037020Y0002390D01*
X0036831Y0002416D01*
X0036643Y0002445D01*
X0036456Y0002480D01*
X0036270Y0002519D01*
X0036085Y0002562D01*
X0035900Y0002610D01*
X0035717Y0002662D01*
X0035536Y0002718D01*
X0035356Y0002779D01*
X0035177Y0002845D01*
X0035000Y0002914D01*
X0034824Y0002988D01*
X0034651Y0003066D01*
X0034479Y0003149D01*
X0034310Y0003235D01*
X0034142Y0003325D01*
X0033977Y0003420D01*
X0033814Y0003518D01*
X0033654Y0003621D01*
X0033496Y0003727D01*
X0033341Y0003837D01*
X0033188Y0003950D01*
X0033038Y0004068D01*
X0032892Y0004189D01*
X0032748Y0004313D01*
X0032607Y0004441D01*
X0032469Y0004572D01*
X0032334Y0004707D01*
X0032203Y0004845D01*
X0032075Y0004986D01*
X0031951Y0005130D01*
X0031830Y0005276D01*
X0031712Y0005426D01*
X0031599Y0005579D01*
X0031489Y0005734D01*
X0031383Y0005892D01*
X0031280Y0006052D01*
X0031182Y0006215D01*
X0031087Y0006380D01*
X0030997Y0006548D01*
X0030911Y0006717D01*
X0030828Y0006889D01*
X0030750Y0007062D01*
X0030676Y0007238D01*
X0030607Y0007415D01*
X0030541Y0007594D01*
X0030480Y0007774D01*
X0030424Y0007955D01*
X0030372Y0008138D01*
X0030324Y0008323D01*
X0030281Y0008508D01*
X0030242Y0008694D01*
X0030207Y0008881D01*
X0030178Y0009069D01*
X0030152Y0009258D01*
X0030132Y0009447D01*
X0030116Y0009637D01*
X0030104Y0009827D01*
X0030097Y0010017D01*
X0030095Y0010207D01*
X0286095Y0002334D02*
X0286105Y0002341D01*
X0286115Y0002345D01*
X0286127Y0002347D01*
X0286139Y0002345D01*
X0286150Y0002341D01*
X0286159Y0002334D01*
D11*
X0283796Y0032333D02*
X0283798Y0032491D01*
X0283804Y0032649D01*
X0283814Y0032807D01*
X0283828Y0032965D01*
X0283846Y0033122D01*
X0283867Y0033279D01*
X0283893Y0033435D01*
X0283923Y0033591D01*
X0283956Y0033746D01*
X0283994Y0033899D01*
X0284035Y0034052D01*
X0284080Y0034204D01*
X0284129Y0034355D01*
X0284182Y0034504D01*
X0284238Y0034652D01*
X0284298Y0034798D01*
X0284362Y0034943D01*
X0284430Y0035086D01*
X0284501Y0035228D01*
X0284575Y0035368D01*
X0284653Y0035505D01*
X0284735Y0035641D01*
X0284819Y0035775D01*
X0284908Y0035906D01*
X0284999Y0036035D01*
X0285094Y0036162D01*
X0285191Y0036287D01*
X0285292Y0036409D01*
X0285396Y0036528D01*
X0285503Y0036645D01*
X0285613Y0036759D01*
X0285726Y0036870D01*
X0285841Y0036979D01*
X0285959Y0037084D01*
X0286080Y0037186D01*
X0286203Y0037286D01*
X0286329Y0037382D01*
X0286457Y0037475D01*
X0286587Y0037565D01*
X0286720Y0037651D01*
X0286855Y0037735D01*
X0286991Y0037814D01*
X0287130Y0037891D01*
X0287271Y0037963D01*
X0287413Y0038033D01*
X0287557Y0038098D01*
X0287703Y0038160D01*
X0287850Y0038218D01*
X0287999Y0038273D01*
X0288149Y0038324D01*
X0288300Y0038371D01*
X0288452Y0038414D01*
X0288605Y0038453D01*
X0288760Y0038489D01*
X0288915Y0038520D01*
X0289071Y0038548D01*
X0289227Y0038572D01*
X0289384Y0038592D01*
X0289542Y0038608D01*
X0289699Y0038620D01*
X0289858Y0038628D01*
X0290016Y0038632D01*
X0290174Y0038632D01*
X0290332Y0038628D01*
X0290491Y0038620D01*
X0290648Y0038608D01*
X0290806Y0038592D01*
X0290963Y0038572D01*
X0291119Y0038548D01*
X0291275Y0038520D01*
X0291430Y0038489D01*
X0291585Y0038453D01*
X0291738Y0038414D01*
X0291890Y0038371D01*
X0292041Y0038324D01*
X0292191Y0038273D01*
X0292340Y0038218D01*
X0292487Y0038160D01*
X0292633Y0038098D01*
X0292777Y0038033D01*
X0292919Y0037963D01*
X0293060Y0037891D01*
X0293199Y0037814D01*
X0293335Y0037735D01*
X0293470Y0037651D01*
X0293603Y0037565D01*
X0293733Y0037475D01*
X0293861Y0037382D01*
X0293987Y0037286D01*
X0294110Y0037186D01*
X0294231Y0037084D01*
X0294349Y0036979D01*
X0294464Y0036870D01*
X0294577Y0036759D01*
X0294687Y0036645D01*
X0294794Y0036528D01*
X0294898Y0036409D01*
X0294999Y0036287D01*
X0295096Y0036162D01*
X0295191Y0036035D01*
X0295282Y0035906D01*
X0295371Y0035775D01*
X0295455Y0035641D01*
X0295537Y0035505D01*
X0295615Y0035368D01*
X0295689Y0035228D01*
X0295760Y0035086D01*
X0295828Y0034943D01*
X0295892Y0034798D01*
X0295952Y0034652D01*
X0296008Y0034504D01*
X0296061Y0034355D01*
X0296110Y0034204D01*
X0296155Y0034052D01*
X0296196Y0033899D01*
X0296234Y0033746D01*
X0296267Y0033591D01*
X0296297Y0033435D01*
X0296323Y0033279D01*
X0296344Y0033122D01*
X0296362Y0032965D01*
X0296376Y0032807D01*
X0296386Y0032649D01*
X0296392Y0032491D01*
X0296394Y0032333D01*
X0296392Y0032175D01*
X0296386Y0032017D01*
X0296376Y0031859D01*
X0296362Y0031701D01*
X0296344Y0031544D01*
X0296323Y0031387D01*
X0296297Y0031231D01*
X0296267Y0031075D01*
X0296234Y0030920D01*
X0296196Y0030767D01*
X0296155Y0030614D01*
X0296110Y0030462D01*
X0296061Y0030311D01*
X0296008Y0030162D01*
X0295952Y0030014D01*
X0295892Y0029868D01*
X0295828Y0029723D01*
X0295760Y0029580D01*
X0295689Y0029438D01*
X0295615Y0029298D01*
X0295537Y0029161D01*
X0295455Y0029025D01*
X0295371Y0028891D01*
X0295282Y0028760D01*
X0295191Y0028631D01*
X0295096Y0028504D01*
X0294999Y0028379D01*
X0294898Y0028257D01*
X0294794Y0028138D01*
X0294687Y0028021D01*
X0294577Y0027907D01*
X0294464Y0027796D01*
X0294349Y0027687D01*
X0294231Y0027582D01*
X0294110Y0027480D01*
X0293987Y0027380D01*
X0293861Y0027284D01*
X0293733Y0027191D01*
X0293603Y0027101D01*
X0293470Y0027015D01*
X0293335Y0026931D01*
X0293199Y0026852D01*
X0293060Y0026775D01*
X0292919Y0026703D01*
X0292777Y0026633D01*
X0292633Y0026568D01*
X0292487Y0026506D01*
X0292340Y0026448D01*
X0292191Y0026393D01*
X0292041Y0026342D01*
X0291890Y0026295D01*
X0291738Y0026252D01*
X0291585Y0026213D01*
X0291430Y0026177D01*
X0291275Y0026146D01*
X0291119Y0026118D01*
X0290963Y0026094D01*
X0290806Y0026074D01*
X0290648Y0026058D01*
X0290491Y0026046D01*
X0290332Y0026038D01*
X0290174Y0026034D01*
X0290016Y0026034D01*
X0289858Y0026038D01*
X0289699Y0026046D01*
X0289542Y0026058D01*
X0289384Y0026074D01*
X0289227Y0026094D01*
X0289071Y0026118D01*
X0288915Y0026146D01*
X0288760Y0026177D01*
X0288605Y0026213D01*
X0288452Y0026252D01*
X0288300Y0026295D01*
X0288149Y0026342D01*
X0287999Y0026393D01*
X0287850Y0026448D01*
X0287703Y0026506D01*
X0287557Y0026568D01*
X0287413Y0026633D01*
X0287271Y0026703D01*
X0287130Y0026775D01*
X0286991Y0026852D01*
X0286855Y0026931D01*
X0286720Y0027015D01*
X0286587Y0027101D01*
X0286457Y0027191D01*
X0286329Y0027284D01*
X0286203Y0027380D01*
X0286080Y0027480D01*
X0285959Y0027582D01*
X0285841Y0027687D01*
X0285726Y0027796D01*
X0285613Y0027907D01*
X0285503Y0028021D01*
X0285396Y0028138D01*
X0285292Y0028257D01*
X0285191Y0028379D01*
X0285094Y0028504D01*
X0284999Y0028631D01*
X0284908Y0028760D01*
X0284819Y0028891D01*
X0284735Y0029025D01*
X0284653Y0029161D01*
X0284575Y0029298D01*
X0284501Y0029438D01*
X0284430Y0029580D01*
X0284362Y0029723D01*
X0284298Y0029868D01*
X0284238Y0030014D01*
X0284182Y0030162D01*
X0284129Y0030311D01*
X0284080Y0030462D01*
X0284035Y0030614D01*
X0283994Y0030767D01*
X0283956Y0030920D01*
X0283923Y0031075D01*
X0283893Y0031231D01*
X0283867Y0031387D01*
X0283846Y0031544D01*
X0283828Y0031701D01*
X0283814Y0031859D01*
X0283804Y0032017D01*
X0283798Y0032175D01*
X0283796Y0032333D01*
X0283796Y0142333D02*
X0283798Y0142491D01*
X0283804Y0142649D01*
X0283814Y0142807D01*
X0283828Y0142965D01*
X0283846Y0143122D01*
X0283867Y0143279D01*
X0283893Y0143435D01*
X0283923Y0143591D01*
X0283956Y0143746D01*
X0283994Y0143899D01*
X0284035Y0144052D01*
X0284080Y0144204D01*
X0284129Y0144355D01*
X0284182Y0144504D01*
X0284238Y0144652D01*
X0284298Y0144798D01*
X0284362Y0144943D01*
X0284430Y0145086D01*
X0284501Y0145228D01*
X0284575Y0145368D01*
X0284653Y0145505D01*
X0284735Y0145641D01*
X0284819Y0145775D01*
X0284908Y0145906D01*
X0284999Y0146035D01*
X0285094Y0146162D01*
X0285191Y0146287D01*
X0285292Y0146409D01*
X0285396Y0146528D01*
X0285503Y0146645D01*
X0285613Y0146759D01*
X0285726Y0146870D01*
X0285841Y0146979D01*
X0285959Y0147084D01*
X0286080Y0147186D01*
X0286203Y0147286D01*
X0286329Y0147382D01*
X0286457Y0147475D01*
X0286587Y0147565D01*
X0286720Y0147651D01*
X0286855Y0147735D01*
X0286991Y0147814D01*
X0287130Y0147891D01*
X0287271Y0147963D01*
X0287413Y0148033D01*
X0287557Y0148098D01*
X0287703Y0148160D01*
X0287850Y0148218D01*
X0287999Y0148273D01*
X0288149Y0148324D01*
X0288300Y0148371D01*
X0288452Y0148414D01*
X0288605Y0148453D01*
X0288760Y0148489D01*
X0288915Y0148520D01*
X0289071Y0148548D01*
X0289227Y0148572D01*
X0289384Y0148592D01*
X0289542Y0148608D01*
X0289699Y0148620D01*
X0289858Y0148628D01*
X0290016Y0148632D01*
X0290174Y0148632D01*
X0290332Y0148628D01*
X0290491Y0148620D01*
X0290648Y0148608D01*
X0290806Y0148592D01*
X0290963Y0148572D01*
X0291119Y0148548D01*
X0291275Y0148520D01*
X0291430Y0148489D01*
X0291585Y0148453D01*
X0291738Y0148414D01*
X0291890Y0148371D01*
X0292041Y0148324D01*
X0292191Y0148273D01*
X0292340Y0148218D01*
X0292487Y0148160D01*
X0292633Y0148098D01*
X0292777Y0148033D01*
X0292919Y0147963D01*
X0293060Y0147891D01*
X0293199Y0147814D01*
X0293335Y0147735D01*
X0293470Y0147651D01*
X0293603Y0147565D01*
X0293733Y0147475D01*
X0293861Y0147382D01*
X0293987Y0147286D01*
X0294110Y0147186D01*
X0294231Y0147084D01*
X0294349Y0146979D01*
X0294464Y0146870D01*
X0294577Y0146759D01*
X0294687Y0146645D01*
X0294794Y0146528D01*
X0294898Y0146409D01*
X0294999Y0146287D01*
X0295096Y0146162D01*
X0295191Y0146035D01*
X0295282Y0145906D01*
X0295371Y0145775D01*
X0295455Y0145641D01*
X0295537Y0145505D01*
X0295615Y0145368D01*
X0295689Y0145228D01*
X0295760Y0145086D01*
X0295828Y0144943D01*
X0295892Y0144798D01*
X0295952Y0144652D01*
X0296008Y0144504D01*
X0296061Y0144355D01*
X0296110Y0144204D01*
X0296155Y0144052D01*
X0296196Y0143899D01*
X0296234Y0143746D01*
X0296267Y0143591D01*
X0296297Y0143435D01*
X0296323Y0143279D01*
X0296344Y0143122D01*
X0296362Y0142965D01*
X0296376Y0142807D01*
X0296386Y0142649D01*
X0296392Y0142491D01*
X0296394Y0142333D01*
X0296392Y0142175D01*
X0296386Y0142017D01*
X0296376Y0141859D01*
X0296362Y0141701D01*
X0296344Y0141544D01*
X0296323Y0141387D01*
X0296297Y0141231D01*
X0296267Y0141075D01*
X0296234Y0140920D01*
X0296196Y0140767D01*
X0296155Y0140614D01*
X0296110Y0140462D01*
X0296061Y0140311D01*
X0296008Y0140162D01*
X0295952Y0140014D01*
X0295892Y0139868D01*
X0295828Y0139723D01*
X0295760Y0139580D01*
X0295689Y0139438D01*
X0295615Y0139298D01*
X0295537Y0139161D01*
X0295455Y0139025D01*
X0295371Y0138891D01*
X0295282Y0138760D01*
X0295191Y0138631D01*
X0295096Y0138504D01*
X0294999Y0138379D01*
X0294898Y0138257D01*
X0294794Y0138138D01*
X0294687Y0138021D01*
X0294577Y0137907D01*
X0294464Y0137796D01*
X0294349Y0137687D01*
X0294231Y0137582D01*
X0294110Y0137480D01*
X0293987Y0137380D01*
X0293861Y0137284D01*
X0293733Y0137191D01*
X0293603Y0137101D01*
X0293470Y0137015D01*
X0293335Y0136931D01*
X0293199Y0136852D01*
X0293060Y0136775D01*
X0292919Y0136703D01*
X0292777Y0136633D01*
X0292633Y0136568D01*
X0292487Y0136506D01*
X0292340Y0136448D01*
X0292191Y0136393D01*
X0292041Y0136342D01*
X0291890Y0136295D01*
X0291738Y0136252D01*
X0291585Y0136213D01*
X0291430Y0136177D01*
X0291275Y0136146D01*
X0291119Y0136118D01*
X0290963Y0136094D01*
X0290806Y0136074D01*
X0290648Y0136058D01*
X0290491Y0136046D01*
X0290332Y0136038D01*
X0290174Y0136034D01*
X0290016Y0136034D01*
X0289858Y0136038D01*
X0289699Y0136046D01*
X0289542Y0136058D01*
X0289384Y0136074D01*
X0289227Y0136094D01*
X0289071Y0136118D01*
X0288915Y0136146D01*
X0288760Y0136177D01*
X0288605Y0136213D01*
X0288452Y0136252D01*
X0288300Y0136295D01*
X0288149Y0136342D01*
X0287999Y0136393D01*
X0287850Y0136448D01*
X0287703Y0136506D01*
X0287557Y0136568D01*
X0287413Y0136633D01*
X0287271Y0136703D01*
X0287130Y0136775D01*
X0286991Y0136852D01*
X0286855Y0136931D01*
X0286720Y0137015D01*
X0286587Y0137101D01*
X0286457Y0137191D01*
X0286329Y0137284D01*
X0286203Y0137380D01*
X0286080Y0137480D01*
X0285959Y0137582D01*
X0285841Y0137687D01*
X0285726Y0137796D01*
X0285613Y0137907D01*
X0285503Y0138021D01*
X0285396Y0138138D01*
X0285292Y0138257D01*
X0285191Y0138379D01*
X0285094Y0138504D01*
X0284999Y0138631D01*
X0284908Y0138760D01*
X0284819Y0138891D01*
X0284735Y0139025D01*
X0284653Y0139161D01*
X0284575Y0139298D01*
X0284501Y0139438D01*
X0284430Y0139580D01*
X0284362Y0139723D01*
X0284298Y0139868D01*
X0284238Y0140014D01*
X0284182Y0140162D01*
X0284129Y0140311D01*
X0284080Y0140462D01*
X0284035Y0140614D01*
X0283994Y0140767D01*
X0283956Y0140920D01*
X0283923Y0141075D01*
X0283893Y0141231D01*
X0283867Y0141387D01*
X0283846Y0141544D01*
X0283828Y0141701D01*
X0283814Y0141859D01*
X0283804Y0142017D01*
X0283798Y0142175D01*
X0283796Y0142333D01*
X0083796Y0202333D02*
X0083798Y0202491D01*
X0083804Y0202649D01*
X0083814Y0202807D01*
X0083828Y0202965D01*
X0083846Y0203122D01*
X0083867Y0203279D01*
X0083893Y0203435D01*
X0083923Y0203591D01*
X0083956Y0203746D01*
X0083994Y0203899D01*
X0084035Y0204052D01*
X0084080Y0204204D01*
X0084129Y0204355D01*
X0084182Y0204504D01*
X0084238Y0204652D01*
X0084298Y0204798D01*
X0084362Y0204943D01*
X0084430Y0205086D01*
X0084501Y0205228D01*
X0084575Y0205368D01*
X0084653Y0205505D01*
X0084735Y0205641D01*
X0084819Y0205775D01*
X0084908Y0205906D01*
X0084999Y0206035D01*
X0085094Y0206162D01*
X0085191Y0206287D01*
X0085292Y0206409D01*
X0085396Y0206528D01*
X0085503Y0206645D01*
X0085613Y0206759D01*
X0085726Y0206870D01*
X0085841Y0206979D01*
X0085959Y0207084D01*
X0086080Y0207186D01*
X0086203Y0207286D01*
X0086329Y0207382D01*
X0086457Y0207475D01*
X0086587Y0207565D01*
X0086720Y0207651D01*
X0086855Y0207735D01*
X0086991Y0207814D01*
X0087130Y0207891D01*
X0087271Y0207963D01*
X0087413Y0208033D01*
X0087557Y0208098D01*
X0087703Y0208160D01*
X0087850Y0208218D01*
X0087999Y0208273D01*
X0088149Y0208324D01*
X0088300Y0208371D01*
X0088452Y0208414D01*
X0088605Y0208453D01*
X0088760Y0208489D01*
X0088915Y0208520D01*
X0089071Y0208548D01*
X0089227Y0208572D01*
X0089384Y0208592D01*
X0089542Y0208608D01*
X0089699Y0208620D01*
X0089858Y0208628D01*
X0090016Y0208632D01*
X0090174Y0208632D01*
X0090332Y0208628D01*
X0090491Y0208620D01*
X0090648Y0208608D01*
X0090806Y0208592D01*
X0090963Y0208572D01*
X0091119Y0208548D01*
X0091275Y0208520D01*
X0091430Y0208489D01*
X0091585Y0208453D01*
X0091738Y0208414D01*
X0091890Y0208371D01*
X0092041Y0208324D01*
X0092191Y0208273D01*
X0092340Y0208218D01*
X0092487Y0208160D01*
X0092633Y0208098D01*
X0092777Y0208033D01*
X0092919Y0207963D01*
X0093060Y0207891D01*
X0093199Y0207814D01*
X0093335Y0207735D01*
X0093470Y0207651D01*
X0093603Y0207565D01*
X0093733Y0207475D01*
X0093861Y0207382D01*
X0093987Y0207286D01*
X0094110Y0207186D01*
X0094231Y0207084D01*
X0094349Y0206979D01*
X0094464Y0206870D01*
X0094577Y0206759D01*
X0094687Y0206645D01*
X0094794Y0206528D01*
X0094898Y0206409D01*
X0094999Y0206287D01*
X0095096Y0206162D01*
X0095191Y0206035D01*
X0095282Y0205906D01*
X0095371Y0205775D01*
X0095455Y0205641D01*
X0095537Y0205505D01*
X0095615Y0205368D01*
X0095689Y0205228D01*
X0095760Y0205086D01*
X0095828Y0204943D01*
X0095892Y0204798D01*
X0095952Y0204652D01*
X0096008Y0204504D01*
X0096061Y0204355D01*
X0096110Y0204204D01*
X0096155Y0204052D01*
X0096196Y0203899D01*
X0096234Y0203746D01*
X0096267Y0203591D01*
X0096297Y0203435D01*
X0096323Y0203279D01*
X0096344Y0203122D01*
X0096362Y0202965D01*
X0096376Y0202807D01*
X0096386Y0202649D01*
X0096392Y0202491D01*
X0096394Y0202333D01*
X0096392Y0202175D01*
X0096386Y0202017D01*
X0096376Y0201859D01*
X0096362Y0201701D01*
X0096344Y0201544D01*
X0096323Y0201387D01*
X0096297Y0201231D01*
X0096267Y0201075D01*
X0096234Y0200920D01*
X0096196Y0200767D01*
X0096155Y0200614D01*
X0096110Y0200462D01*
X0096061Y0200311D01*
X0096008Y0200162D01*
X0095952Y0200014D01*
X0095892Y0199868D01*
X0095828Y0199723D01*
X0095760Y0199580D01*
X0095689Y0199438D01*
X0095615Y0199298D01*
X0095537Y0199161D01*
X0095455Y0199025D01*
X0095371Y0198891D01*
X0095282Y0198760D01*
X0095191Y0198631D01*
X0095096Y0198504D01*
X0094999Y0198379D01*
X0094898Y0198257D01*
X0094794Y0198138D01*
X0094687Y0198021D01*
X0094577Y0197907D01*
X0094464Y0197796D01*
X0094349Y0197687D01*
X0094231Y0197582D01*
X0094110Y0197480D01*
X0093987Y0197380D01*
X0093861Y0197284D01*
X0093733Y0197191D01*
X0093603Y0197101D01*
X0093470Y0197015D01*
X0093335Y0196931D01*
X0093199Y0196852D01*
X0093060Y0196775D01*
X0092919Y0196703D01*
X0092777Y0196633D01*
X0092633Y0196568D01*
X0092487Y0196506D01*
X0092340Y0196448D01*
X0092191Y0196393D01*
X0092041Y0196342D01*
X0091890Y0196295D01*
X0091738Y0196252D01*
X0091585Y0196213D01*
X0091430Y0196177D01*
X0091275Y0196146D01*
X0091119Y0196118D01*
X0090963Y0196094D01*
X0090806Y0196074D01*
X0090648Y0196058D01*
X0090491Y0196046D01*
X0090332Y0196038D01*
X0090174Y0196034D01*
X0090016Y0196034D01*
X0089858Y0196038D01*
X0089699Y0196046D01*
X0089542Y0196058D01*
X0089384Y0196074D01*
X0089227Y0196094D01*
X0089071Y0196118D01*
X0088915Y0196146D01*
X0088760Y0196177D01*
X0088605Y0196213D01*
X0088452Y0196252D01*
X0088300Y0196295D01*
X0088149Y0196342D01*
X0087999Y0196393D01*
X0087850Y0196448D01*
X0087703Y0196506D01*
X0087557Y0196568D01*
X0087413Y0196633D01*
X0087271Y0196703D01*
X0087130Y0196775D01*
X0086991Y0196852D01*
X0086855Y0196931D01*
X0086720Y0197015D01*
X0086587Y0197101D01*
X0086457Y0197191D01*
X0086329Y0197284D01*
X0086203Y0197380D01*
X0086080Y0197480D01*
X0085959Y0197582D01*
X0085841Y0197687D01*
X0085726Y0197796D01*
X0085613Y0197907D01*
X0085503Y0198021D01*
X0085396Y0198138D01*
X0085292Y0198257D01*
X0085191Y0198379D01*
X0085094Y0198504D01*
X0084999Y0198631D01*
X0084908Y0198760D01*
X0084819Y0198891D01*
X0084735Y0199025D01*
X0084653Y0199161D01*
X0084575Y0199298D01*
X0084501Y0199438D01*
X0084430Y0199580D01*
X0084362Y0199723D01*
X0084298Y0199868D01*
X0084238Y0200014D01*
X0084182Y0200162D01*
X0084129Y0200311D01*
X0084080Y0200462D01*
X0084035Y0200614D01*
X0083994Y0200767D01*
X0083956Y0200920D01*
X0083923Y0201075D01*
X0083893Y0201231D01*
X0083867Y0201387D01*
X0083846Y0201544D01*
X0083828Y0201701D01*
X0083814Y0201859D01*
X0083804Y0202017D01*
X0083798Y0202175D01*
X0083796Y0202333D01*
X0073796Y0012333D02*
X0073798Y0012491D01*
X0073804Y0012649D01*
X0073814Y0012807D01*
X0073828Y0012965D01*
X0073846Y0013122D01*
X0073867Y0013279D01*
X0073893Y0013435D01*
X0073923Y0013591D01*
X0073956Y0013746D01*
X0073994Y0013899D01*
X0074035Y0014052D01*
X0074080Y0014204D01*
X0074129Y0014355D01*
X0074182Y0014504D01*
X0074238Y0014652D01*
X0074298Y0014798D01*
X0074362Y0014943D01*
X0074430Y0015086D01*
X0074501Y0015228D01*
X0074575Y0015368D01*
X0074653Y0015505D01*
X0074735Y0015641D01*
X0074819Y0015775D01*
X0074908Y0015906D01*
X0074999Y0016035D01*
X0075094Y0016162D01*
X0075191Y0016287D01*
X0075292Y0016409D01*
X0075396Y0016528D01*
X0075503Y0016645D01*
X0075613Y0016759D01*
X0075726Y0016870D01*
X0075841Y0016979D01*
X0075959Y0017084D01*
X0076080Y0017186D01*
X0076203Y0017286D01*
X0076329Y0017382D01*
X0076457Y0017475D01*
X0076587Y0017565D01*
X0076720Y0017651D01*
X0076855Y0017735D01*
X0076991Y0017814D01*
X0077130Y0017891D01*
X0077271Y0017963D01*
X0077413Y0018033D01*
X0077557Y0018098D01*
X0077703Y0018160D01*
X0077850Y0018218D01*
X0077999Y0018273D01*
X0078149Y0018324D01*
X0078300Y0018371D01*
X0078452Y0018414D01*
X0078605Y0018453D01*
X0078760Y0018489D01*
X0078915Y0018520D01*
X0079071Y0018548D01*
X0079227Y0018572D01*
X0079384Y0018592D01*
X0079542Y0018608D01*
X0079699Y0018620D01*
X0079858Y0018628D01*
X0080016Y0018632D01*
X0080174Y0018632D01*
X0080332Y0018628D01*
X0080491Y0018620D01*
X0080648Y0018608D01*
X0080806Y0018592D01*
X0080963Y0018572D01*
X0081119Y0018548D01*
X0081275Y0018520D01*
X0081430Y0018489D01*
X0081585Y0018453D01*
X0081738Y0018414D01*
X0081890Y0018371D01*
X0082041Y0018324D01*
X0082191Y0018273D01*
X0082340Y0018218D01*
X0082487Y0018160D01*
X0082633Y0018098D01*
X0082777Y0018033D01*
X0082919Y0017963D01*
X0083060Y0017891D01*
X0083199Y0017814D01*
X0083335Y0017735D01*
X0083470Y0017651D01*
X0083603Y0017565D01*
X0083733Y0017475D01*
X0083861Y0017382D01*
X0083987Y0017286D01*
X0084110Y0017186D01*
X0084231Y0017084D01*
X0084349Y0016979D01*
X0084464Y0016870D01*
X0084577Y0016759D01*
X0084687Y0016645D01*
X0084794Y0016528D01*
X0084898Y0016409D01*
X0084999Y0016287D01*
X0085096Y0016162D01*
X0085191Y0016035D01*
X0085282Y0015906D01*
X0085371Y0015775D01*
X0085455Y0015641D01*
X0085537Y0015505D01*
X0085615Y0015368D01*
X0085689Y0015228D01*
X0085760Y0015086D01*
X0085828Y0014943D01*
X0085892Y0014798D01*
X0085952Y0014652D01*
X0086008Y0014504D01*
X0086061Y0014355D01*
X0086110Y0014204D01*
X0086155Y0014052D01*
X0086196Y0013899D01*
X0086234Y0013746D01*
X0086267Y0013591D01*
X0086297Y0013435D01*
X0086323Y0013279D01*
X0086344Y0013122D01*
X0086362Y0012965D01*
X0086376Y0012807D01*
X0086386Y0012649D01*
X0086392Y0012491D01*
X0086394Y0012333D01*
X0086392Y0012175D01*
X0086386Y0012017D01*
X0086376Y0011859D01*
X0086362Y0011701D01*
X0086344Y0011544D01*
X0086323Y0011387D01*
X0086297Y0011231D01*
X0086267Y0011075D01*
X0086234Y0010920D01*
X0086196Y0010767D01*
X0086155Y0010614D01*
X0086110Y0010462D01*
X0086061Y0010311D01*
X0086008Y0010162D01*
X0085952Y0010014D01*
X0085892Y0009868D01*
X0085828Y0009723D01*
X0085760Y0009580D01*
X0085689Y0009438D01*
X0085615Y0009298D01*
X0085537Y0009161D01*
X0085455Y0009025D01*
X0085371Y0008891D01*
X0085282Y0008760D01*
X0085191Y0008631D01*
X0085096Y0008504D01*
X0084999Y0008379D01*
X0084898Y0008257D01*
X0084794Y0008138D01*
X0084687Y0008021D01*
X0084577Y0007907D01*
X0084464Y0007796D01*
X0084349Y0007687D01*
X0084231Y0007582D01*
X0084110Y0007480D01*
X0083987Y0007380D01*
X0083861Y0007284D01*
X0083733Y0007191D01*
X0083603Y0007101D01*
X0083470Y0007015D01*
X0083335Y0006931D01*
X0083199Y0006852D01*
X0083060Y0006775D01*
X0082919Y0006703D01*
X0082777Y0006633D01*
X0082633Y0006568D01*
X0082487Y0006506D01*
X0082340Y0006448D01*
X0082191Y0006393D01*
X0082041Y0006342D01*
X0081890Y0006295D01*
X0081738Y0006252D01*
X0081585Y0006213D01*
X0081430Y0006177D01*
X0081275Y0006146D01*
X0081119Y0006118D01*
X0080963Y0006094D01*
X0080806Y0006074D01*
X0080648Y0006058D01*
X0080491Y0006046D01*
X0080332Y0006038D01*
X0080174Y0006034D01*
X0080016Y0006034D01*
X0079858Y0006038D01*
X0079699Y0006046D01*
X0079542Y0006058D01*
X0079384Y0006074D01*
X0079227Y0006094D01*
X0079071Y0006118D01*
X0078915Y0006146D01*
X0078760Y0006177D01*
X0078605Y0006213D01*
X0078452Y0006252D01*
X0078300Y0006295D01*
X0078149Y0006342D01*
X0077999Y0006393D01*
X0077850Y0006448D01*
X0077703Y0006506D01*
X0077557Y0006568D01*
X0077413Y0006633D01*
X0077271Y0006703D01*
X0077130Y0006775D01*
X0076991Y0006852D01*
X0076855Y0006931D01*
X0076720Y0007015D01*
X0076587Y0007101D01*
X0076457Y0007191D01*
X0076329Y0007284D01*
X0076203Y0007380D01*
X0076080Y0007480D01*
X0075959Y0007582D01*
X0075841Y0007687D01*
X0075726Y0007796D01*
X0075613Y0007907D01*
X0075503Y0008021D01*
X0075396Y0008138D01*
X0075292Y0008257D01*
X0075191Y0008379D01*
X0075094Y0008504D01*
X0074999Y0008631D01*
X0074908Y0008760D01*
X0074819Y0008891D01*
X0074735Y0009025D01*
X0074653Y0009161D01*
X0074575Y0009298D01*
X0074501Y0009438D01*
X0074430Y0009580D01*
X0074362Y0009723D01*
X0074298Y0009868D01*
X0074238Y0010014D01*
X0074182Y0010162D01*
X0074129Y0010311D01*
X0074080Y0010462D01*
X0074035Y0010614D01*
X0073994Y0010767D01*
X0073956Y0010920D01*
X0073923Y0011075D01*
X0073893Y0011231D01*
X0073867Y0011387D01*
X0073846Y0011544D01*
X0073828Y0011701D01*
X0073814Y0011859D01*
X0073804Y0012017D01*
X0073798Y0012175D01*
X0073796Y0012333D01*
D12*
X0080095Y0012333D03*
X0090095Y0202333D03*
X0290095Y0142333D03*
X0290095Y0032333D03*
D13*
X0280095Y0012333D03*
X0270095Y0012333D03*
X0260095Y0012333D03*
X0250095Y0012333D03*
X0240095Y0012333D03*
X0230095Y0012333D03*
X0210095Y0012333D03*
X0200095Y0012333D03*
X0190095Y0012333D03*
X0180095Y0012333D03*
X0170095Y0012333D03*
X0160095Y0012333D03*
X0150095Y0012333D03*
X0140095Y0012333D03*
X0144095Y0202333D03*
X0134095Y0202333D03*
X0124095Y0202333D03*
X0114095Y0202333D03*
X0104095Y0202333D03*
X0154095Y0202333D03*
X0164095Y0202333D03*
X0174095Y0202333D03*
X0184095Y0202333D03*
X0194095Y0202333D03*
X0210095Y0202333D03*
X0220095Y0202333D03*
X0230095Y0202333D03*
X0240095Y0202333D03*
X0250095Y0202333D03*
X0260095Y0202333D03*
X0270095Y0202333D03*
X0280095Y0202333D03*
D14*
X0274091Y0156723D03*
X0264091Y0156723D03*
X0254091Y0156723D03*
X0244091Y0156723D03*
X0234091Y0156723D03*
X0224091Y0156723D03*
X0214091Y0156723D03*
X0204091Y0156723D03*
X0194091Y0156723D03*
X0184091Y0156723D03*
X0174091Y0156723D03*
X0164091Y0156723D03*
X0154091Y0156723D03*
X0144091Y0156723D03*
X0134091Y0156723D03*
X0124091Y0156723D03*
D15*
X0102438Y0156723D03*
X0102438Y0034676D03*
X0397713Y0034676D03*
X0397713Y0156723D03*
D16*
X0318845Y0307176D03*
X0116345Y0297176D03*
D17*
X0116345Y0277491D03*
X0318845Y0287491D03*
D18*
X0360095Y0330995D02*
X0360095Y0338672D01*
X0380095Y0338672D02*
X0380095Y0330995D01*
X0133845Y0330995D02*
X0133845Y0338672D01*
X0113845Y0338672D02*
X0113845Y0330995D01*
X0093845Y0330995D02*
X0093845Y0338672D01*
X0073845Y0338672D02*
X0073845Y0330995D01*
D19*
X0181345Y0227333D03*
X0191345Y0227333D03*
X0198845Y0251083D03*
X0236345Y0289833D03*
X0226345Y0341083D03*
X0266345Y0236083D03*
M02*
