%
M48
M72
T01C0.0236
T02C0.0315
T03C0.0354
T04C0.0394
T05C0.0512
T06C0.1260
T07C0.1299
%
T01
X7510Y25233
X8385Y24483
X8385Y23608
X8135Y21233
X6510Y21233
X13885Y27483
X13885Y27983
X20510Y26358
X26635Y23608
X28510Y27108
X28510Y27733
X33760Y26483
X35260Y26483
X35760Y24983
X18010Y12858
X18010Y10358
T02
X18135Y22733
X19135Y22733
X19885Y25108
X23635Y28983
X22635Y34108
X26635Y23608
T03
X11635Y29718
X11635Y27749
X31885Y28749
X31885Y30718
T04
X10410Y20233
X11410Y20233
X12410Y20233
X13410Y20233
X14410Y20233
X15410Y20233
X16410Y20233
X17410Y20233
X18410Y20233
X19410Y20233
X21010Y20233
X22010Y20233
X23010Y20233
X24010Y20233
X25010Y20233
X26010Y20233
X27010Y20233
X28010Y20233
X27409Y15672
X26409Y15672
X25409Y15672
X24409Y15672
X23409Y15672
X22409Y15672
X21409Y15672
X20409Y15672
X19409Y15672
X18409Y15672
X17409Y15672
X16409Y15672
X15409Y15672
X14409Y15672
X13409Y15672
X12409Y15672
X14010Y1233
X15010Y1233
X16010Y1233
X17010Y1233
X18010Y1233
X19010Y1233
X20010Y1233
X21010Y1233
X23010Y1233
X24010Y1233
X25010Y1233
X26010Y1233
X27010Y1233
X28010Y1233
T05
X7385Y33483
X9385Y33483
X11385Y33483
X13385Y33483
X36010Y33483
X38010Y33483
T06
X9010Y20233
X8010Y1233
X29010Y3233
X29010Y14233
T07
X10244Y15672
X10244Y3468
X39771Y3468
X39771Y15672
M30
