%
M48
M72
T01C0.0236
T02C0.0394
T03C0.0400
T04C0.0591
T05C0.1260
T06C0.1299
%
T01
X15000Y10125
X15000Y12625
X14400Y16200
X13400Y16200
X12400Y16200
X11400Y16200
X10400Y16200
X9400Y16200
X5125Y21000
X3500Y21000
X5375Y23375
X5375Y24250
X4500Y25000
X10875Y27250
X10875Y27750
X10875Y29250
X10875Y29750
X9375Y31750
X6625Y31750
X6125Y31750
X4625Y31750
X4125Y31750
X15125Y21500
X16875Y24875
X17250Y26125
X18625Y29750
X19625Y33875
X25500Y27500
X25500Y26875
X26625Y28250
X26625Y28750
X26625Y30250
X26625Y30750
X30750Y32000
X31250Y32000
X32750Y32000
X33250Y32000
X32250Y27375
X30750Y27375
X32750Y25875
X23625Y23375
X23625Y23375
X19000Y21875
X19400Y16200
X20400Y16200
X21400Y16200
X22400Y16200
X23400Y16200
X17000Y1800
X16000Y1800
T02
X16000Y1000
X15000Y1000
X14000Y1000
X13000Y1000
X12000Y1000
X11000Y1000
X17000Y1000
X18000Y1000
X20000Y1000
X21000Y1000
X22000Y1000
X23000Y1000
X24000Y1000
X25000Y1000
X24400Y15439
X23400Y15439
X22400Y15439
X21400Y15439
X20400Y15439
X19400Y15439
X18400Y15439
X17400Y15439
X16400Y15439
X15400Y15439
X14400Y15439
X13400Y15439
X12400Y15439
X11400Y15439
X10400Y15439
X9400Y15439
X9400Y20000
X8400Y20000
X7400Y20000
X10400Y20000
X11400Y20000
X12400Y20000
X13400Y20000
X14400Y20000
X15400Y20000
X16400Y20000
X18000Y20000
X19000Y20000
X20000Y20000
X21000Y20000
X22000Y20000
X23000Y20000
X24000Y20000
X25000Y20000
X9375Y33375
X8375Y33375
T03
X8625Y29484
X8625Y27516
X28875Y28516
X28875Y30484
T04
X31000Y33375
X33000Y33375
X6375Y33375
X4375Y33375
T05
X5000Y1000
X6000Y20000
X26000Y14000
X26000Y3000
T06
X36762Y3234
X36762Y15439
X7234Y15439
X7234Y3234
M30
