%
M48
M72
T01C0.0236
T02C0.0315
T03C0.0394
T04C0.0400
T05C0.0512
T06C0.0787
T07C0.0906
T08C0.1299
%
T01
X4500Y1750
X5500Y1750
X6500Y1750
X7500Y1750
X9375Y1750
X10375Y1750
X11375Y1750
X12375Y1750
X13375Y1750
X14375Y1750
X16625Y3875
X15625Y4375
X14375Y4250
X14375Y4750
X18125Y4000
X18750Y4000
X19750Y4000
X20125Y4750
X20500Y4375
X21375Y6250
X21000Y8125
X22375Y8125
X23250Y9625
X23000Y10625
X21750Y10125
X20500Y9750
X19375Y9125
X19375Y8625
X20500Y11500
X18875Y13125
X17875Y13125
X16875Y13125
X15875Y13125
X14875Y13125
X13375Y12875
X12625Y12875
X11875Y12875
X11125Y12625
X11500Y12000
X13000Y10375
X13250Y9250
X9000Y10000
X7250Y8750
X6000Y9250
X4500Y9250
X3375Y6500
X5000Y4750
X7000Y4750
X10500Y6000
X6750Y13000
X6750Y14875
X6125Y14875
X10000Y15625
X10375Y15250
X11875Y14125
X13375Y14125
X14250Y17000
X12250Y18125
X12875Y19125
X13875Y19125
X11000Y18125
X12875Y21625
X12000Y22250
X10750Y22500
X11625Y25000
X11125Y25875
X9875Y26500
X8250Y25250
X7000Y25000
X14125Y27000
X14125Y27750
X14125Y29250
X14125Y29750
X9875Y31750
X9375Y31750
X7875Y31750
X7375Y31750
X15500Y24500
X17125Y22250
X17875Y21125
X18375Y21375
X17000Y20375
X14375Y21750
X18250Y23500
X18750Y23250
X22375Y21000
X23125Y20750
X22750Y20375
X22625Y19750
X23500Y20250
X31375Y20000
X32375Y19500
X32375Y21000
X31375Y21000
X36000Y20875
X36375Y21250
X37250Y20500
X36750Y20125
X37250Y22250
X36750Y22500
X36000Y22500
X36375Y23875
X42000Y25375
X42375Y23250
X43750Y23250
X42000Y21000
X43750Y20875
X42000Y19250
X43750Y17875
X43750Y16000
X42000Y14750
X43750Y13125
X43750Y11375
X42750Y11375
X41375Y11375
X36500Y12375
X36000Y10125
X33375Y9125
X32750Y10625
X28500Y11000
X28500Y10000
X28500Y9000
X28500Y8000
X28500Y7000
X25500Y9125
X30875Y14625
X32875Y14000
X38750Y17500
X52250Y16625
X52250Y16125
X52250Y11875
X52250Y11375
X50250Y8001
X44125Y3000
X43125Y3000
X42375Y3000
X41375Y3000
X35125Y3000
X34125Y3000
X33375Y3000
X32375Y3000
X52250Y20875
X52250Y21375
X52250Y25625
X52250Y26125
X50250Y29375
X50250Y29875
X41750Y30500
X36500Y32000
X36000Y32000
X34500Y32000
X34000Y32000
X29875Y30750
X29875Y30250
X29875Y28750
X29875Y28250
X28750Y27500
X28750Y26875
X3750Y18500
X3000Y18500
T02
X32372Y2442
X33356Y2442
X34144Y2442
X35128Y2442
X41372Y2442
X42356Y2442
X43144Y2442
X44128Y2442
T03
X28000Y7000
X28000Y8000
X28000Y9000
X28000Y10000
X28000Y11000
X18875Y13625
X17875Y13625
X16875Y13625
X15875Y13625
X14875Y13625
X13875Y19625
X12875Y19625
X18758Y3229
X18758Y2442
X19742Y2442
X19742Y3229
X14375Y1250
X13375Y1250
X12375Y1250
X11375Y1250
X10375Y1250
X9375Y1250
X7500Y1250
X6500Y1250
X5500Y1250
X4500Y1250
T04
X11875Y27516
X11875Y29484
X32125Y28516
X32125Y30484
T05
X34250Y33375
X36250Y33375
X53125Y25875
X53125Y23875
X53125Y21125
X53125Y19125
X53125Y16375
X53125Y14375
X53125Y11625
X53125Y9625
X9625Y33375
X7625Y33375
T06
X31163Y1375
X36337Y1375
X40163Y1375
X45337Y1375
T07
X21620Y1375
X16880Y1375
T08
X1969Y1969
X1969Y33465
X53150Y33465
X53150Y1969
M30
